G04 #@! TF.GenerationSoftware,KiCad,Pcbnew,6.0.2+dfsg-1*
G04 #@! TF.CreationDate,2026-09-29T10:09:51+08:00*
G04 #@! TF.ProjectId,shield,73686965-6c64-42e6-9b69-6361645f7063,rev?*
G04 #@! TF.SameCoordinates,Original*
G04 #@! TF.FileFunction,Copper,L2,Bot*
G04 #@! TF.FilePolarity,Positive*
%FSLAX46Y46*%
G04 Gerber Fmt 4.6, Leading zero omitted, Abs format (unit mm)*
G04 Created by KiCad (PCBNEW 6.0.2+dfsg-1) date 2026-09-29 10:09:51*
%MOMM*%
%LPD*%
G01*
G04 APERTURE LIST*
G04 #@! TA.AperFunction,ComponentPad*
%ADD10R,1.700000X1.700000*%
G04 #@! TD*
G04 #@! TA.AperFunction,ComponentPad*
%ADD11O,1.700000X1.700000*%
G04 #@! TD*
G04 #@! TA.AperFunction,ComponentPad*
%ADD12C,1.600000*%
G04 #@! TD*
G04 #@! TA.AperFunction,ComponentPad*
%ADD13O,1.600000X1.600000*%
G04 #@! TD*
G04 #@! TA.AperFunction,ComponentPad*
%ADD14R,1.800000X1.800000*%
G04 #@! TD*
G04 #@! TA.AperFunction,ComponentPad*
%ADD15C,1.800000*%
G04 #@! TD*
G04 #@! TA.AperFunction,ComponentPad*
%ADD16C,2.000000*%
G04 #@! TD*
G04 #@! TA.AperFunction,ComponentPad*
%ADD17R,1.600000X1.600000*%
G04 #@! TD*
G04 #@! TA.AperFunction,ViaPad*
%ADD18C,0.800000*%
G04 #@! TD*
G04 #@! TA.AperFunction,Conductor*
%ADD19C,0.300000*%
G04 #@! TD*
G04 #@! TA.AperFunction,Conductor*
%ADD20C,0.500000*%
G04 #@! TD*
%ADD21C,0.350000*%
G04 APERTURE END LIST*
D10*
G04 #@! TO.P,J4,1*
G04 #@! TO.N,5V*
X50000000Y-8000000D03*
D11*
G04 #@! TO.P,J4,2*
G04 #@! TO.N,GND*
X50000000Y-10540000D03*
G04 #@! TO.P,J4,3*
G04 #@! TO.N,AMP_DIN*
X50000000Y-13080000D03*
G04 #@! TO.P,J4,4*
G04 #@! TO.N,AMP_BCLK*
X50000000Y-15620000D03*
G04 #@! TO.P,J4,5*
G04 #@! TO.N,AMP_LRC*
X50000000Y-18160000D03*
G04 #@! TD*
D12*
G04 #@! TO.P,C2,1*
G04 #@! TO.N,5V*
X43000000Y-42000000D03*
G04 #@! TO.P,C2,2*
G04 #@! TO.N,GND*
X40500000Y-42000000D03*
G04 #@! TD*
D10*
G04 #@! TO.P,J3,1*
G04 #@! TO.N,GND*
X34860000Y-8000000D03*
D11*
G04 #@! TO.P,J3,2*
G04 #@! TO.N,5V*
X34860000Y-10540000D03*
G04 #@! TO.P,J3,3*
G04 #@! TO.N,N/C*
X34860000Y-13080000D03*
G04 #@! TO.P,J3,4*
X34860000Y-15620000D03*
G04 #@! TO.P,J3,5*
X34860000Y-18160000D03*
G04 #@! TO.P,J3,6*
X34860000Y-20700000D03*
G04 #@! TO.P,J3,7*
G04 #@! TO.N,OLED_SCL*
X34860000Y-23240000D03*
G04 #@! TO.P,J3,8*
G04 #@! TO.N,OLED_SDA*
X34860000Y-25780000D03*
G04 #@! TO.P,J3,9*
G04 #@! TO.N,N/C*
X34860000Y-28320000D03*
G04 #@! TO.P,J3,10*
X34860000Y-30860000D03*
G04 #@! TO.P,J3,11*
G04 #@! TO.N,LIGHT*
X34860000Y-33400000D03*
G04 #@! TO.P,J3,12*
G04 #@! TO.N,N/C*
X34860000Y-35940000D03*
G04 #@! TO.P,J3,13*
X34860000Y-38480000D03*
G04 #@! TO.P,J3,14*
X34860000Y-41020000D03*
G04 #@! TO.P,J3,15*
G04 #@! TO.N,KEY*
X34860000Y-43560000D03*
G04 #@! TO.P,J3,16*
G04 #@! TO.N,N/C*
X34860000Y-46100000D03*
G04 #@! TO.P,J3,17*
X34860000Y-48640000D03*
G04 #@! TO.P,J3,18*
X34860000Y-51180000D03*
G04 #@! TO.P,J3,19*
X34860000Y-53720000D03*
G04 #@! TD*
D12*
G04 #@! TO.P,R1,1*
G04 #@! TO.N,LIGHT*
X43000000Y-58000000D03*
D13*
G04 #@! TO.P,R1,2*
G04 #@! TO.N,LED_A*
X50620000Y-58000000D03*
G04 #@! TD*
D14*
G04 #@! TO.P,D1,1*
G04 #@! TO.N,LED_A*
X34000000Y-58000000D03*
D15*
G04 #@! TO.P,D1,2*
G04 #@! TO.N,GND*
X36540000Y-58000000D03*
G04 #@! TD*
D10*
G04 #@! TO.P,J5,1*
G04 #@! TO.N,GND*
X50000000Y-26000000D03*
D11*
G04 #@! TO.P,J5,2*
G04 #@! TO.N,3V3*
X50000000Y-28540000D03*
G04 #@! TO.P,J5,3*
G04 #@! TO.N,OLED_SCL*
X50000000Y-31080000D03*
G04 #@! TO.P,J5,4*
G04 #@! TO.N,OLED_SDA*
X50000000Y-33620000D03*
G04 #@! TD*
D10*
G04 #@! TO.P,J6,1*
G04 #@! TO.N,N/C*
X16000000Y-58000000D03*
D11*
G04 #@! TO.P,J6,2*
X16000000Y-60540000D03*
G04 #@! TD*
D16*
G04 #@! TO.P,SW1,1*
G04 #@! TO.N,KEY*
X26000000Y-58000000D03*
X32500000Y-58000000D03*
G04 #@! TO.P,SW1,2*
G04 #@! TO.N,GND*
X32500000Y-62500000D03*
X26000000Y-62500000D03*
G04 #@! TD*
D10*
G04 #@! TO.P,J1,1*
G04 #@! TO.N,3V3*
X12000000Y-8000000D03*
D11*
G04 #@! TO.P,J1,2*
G04 #@! TO.N,N/C*
X12000000Y-10540000D03*
G04 #@! TO.P,J1,3*
G04 #@! TO.N,MIC_WS*
X12000000Y-13080000D03*
G04 #@! TO.P,J1,4*
G04 #@! TO.N,MIC_BCLK*
X12000000Y-15620000D03*
G04 #@! TO.P,J1,5*
G04 #@! TO.N,MIC_SD*
X12000000Y-18160000D03*
G04 #@! TO.P,J1,6*
G04 #@! TO.N,AMP_DIN*
X12000000Y-20700000D03*
G04 #@! TO.P,J1,7*
G04 #@! TO.N,AMP_BCLK*
X12000000Y-23240000D03*
G04 #@! TO.P,J1,8*
G04 #@! TO.N,AMP_LRC*
X12000000Y-25780000D03*
G04 #@! TO.P,J1,9*
G04 #@! TO.N,N/C*
X12000000Y-28320000D03*
G04 #@! TO.P,J1,10*
X12000000Y-30860000D03*
G04 #@! TO.P,J1,11*
X12000000Y-33400000D03*
G04 #@! TO.P,J1,12*
X12000000Y-35940000D03*
G04 #@! TO.P,J1,13*
X12000000Y-38480000D03*
G04 #@! TO.P,J1,14*
X12000000Y-41020000D03*
G04 #@! TO.P,J1,15*
X12000000Y-43560000D03*
G04 #@! TO.P,J1,16*
X12000000Y-46100000D03*
G04 #@! TO.P,J1,17*
X12000000Y-48640000D03*
G04 #@! TO.P,J1,18*
X12000000Y-51180000D03*
G04 #@! TO.P,J1,19*
X12000000Y-53720000D03*
G04 #@! TD*
D10*
G04 #@! TO.P,J2,1*
G04 #@! TO.N,MIC_BCLK*
X6000000Y-2000000D03*
D11*
G04 #@! TO.P,J2,2*
G04 #@! TO.N,MIC_SD*
X8540000Y-2000000D03*
G04 #@! TO.P,J2,3*
G04 #@! TO.N,MIC_WS*
X11080000Y-2000000D03*
G04 #@! TO.P,J2,4*
G04 #@! TO.N,GND*
X13620000Y-2000000D03*
G04 #@! TO.P,J2,5*
G04 #@! TO.N,3V3*
X16160000Y-2000000D03*
G04 #@! TO.P,J2,6*
G04 #@! TO.N,GND*
X18700000Y-2000000D03*
G04 #@! TD*
D17*
G04 #@! TO.P,C1,1*
G04 #@! TO.N,5V*
X50000000Y-45000000D03*
D12*
G04 #@! TO.P,C1,2*
G04 #@! TO.N,GND*
X47500000Y-45000000D03*
G04 #@! TD*
D18*
G04 #@! TO.N,GND*
X30000000Y-56000000D03*
G04 #@! TD*
D19*
G04 #@! TO.N,3V3*
X16160000Y-4000000D02*
X16160000Y-2000000D01*
X12000000Y-8000000D02*
X12000000Y-4000000D01*
X21000000Y-5000000D02*
X53000000Y-5000000D01*
X12000000Y-4000000D02*
X16160000Y-4000000D01*
X21000000Y-4000000D02*
X21000000Y-5000000D01*
X16160000Y-4000000D02*
X21000000Y-4000000D01*
X53000000Y-5000000D02*
X53000000Y-28540000D01*
X53000000Y-28540000D02*
X50000000Y-28540000D01*
D20*
G04 #@! TO.N,5V*
X37000000Y-10540000D02*
X37000000Y-6500000D01*
X51500000Y-8000000D02*
X51500000Y-45000000D01*
X37000000Y-6500000D02*
X51500000Y-6500000D01*
X51500000Y-8000000D02*
X50000000Y-8000000D01*
X34860000Y-10540000D02*
X37000000Y-10540000D01*
X50000000Y-42000000D02*
X43000000Y-42000000D01*
X51500000Y-45000000D02*
X50000000Y-45000000D01*
X51500000Y-6500000D02*
X51500000Y-8000000D01*
X50000000Y-45000000D02*
X50000000Y-42000000D01*
D19*
G04 #@! TO.N,GND*
X34860000Y-5500000D02*
X30000000Y-5500000D01*
X34860000Y-8000000D02*
X34860000Y-5500000D01*
X21500000Y-3300000D02*
X21500000Y-5500000D01*
X50000000Y-22000000D02*
X30000000Y-22000000D01*
X40500000Y-39750000D02*
X30000000Y-39750000D01*
X21500000Y-5500000D02*
X30000000Y-5500000D01*
X40500000Y-42000000D02*
X40500000Y-39750000D01*
X18700000Y-2000000D02*
X18700000Y-3300000D01*
X30000000Y-5500000D02*
X30000000Y-56000000D01*
X50000000Y-26000000D02*
X50000000Y-22000000D01*
X50000000Y-10540000D02*
X52300000Y-10540000D01*
X52300000Y-10540000D02*
X52300000Y-5500000D01*
X18700000Y-3300000D02*
X21500000Y-3300000D01*
X52300000Y-5500000D02*
X30000000Y-5500000D01*
G04 #@! TO.N,MIC_SD*
X20000000Y-500000D02*
X20000000Y-18160000D01*
X8540000Y-2000000D02*
X8540000Y-500000D01*
X20000000Y-18160000D02*
X12000000Y-18160000D01*
X8540000Y-500000D02*
X20000000Y-500000D01*
G04 #@! TO.N,OLED_SDA*
X41000000Y-33620000D02*
X50000000Y-33620000D01*
X41000000Y-25780000D02*
X41000000Y-33620000D01*
X34860000Y-25780000D02*
X41000000Y-25780000D01*
G04 #@! TD*
D21*
X30000000Y-56000000D03*
X50000000Y-8000000D03*
X50000000Y-10540000D03*
X50000000Y-13080000D03*
X50000000Y-15620000D03*
X50000000Y-18160000D03*
X58000000Y-4000000D03*
X43000000Y-42000000D03*
X40500000Y-42000000D03*
X58000000Y-60000000D03*
X34860000Y-8000000D03*
X34860000Y-10540000D03*
X34860000Y-13080000D03*
X34860000Y-15620000D03*
X34860000Y-18160000D03*
X34860000Y-20700000D03*
X34860000Y-23240000D03*
X34860000Y-25780000D03*
X34860000Y-28320000D03*
X34860000Y-30860000D03*
X34860000Y-33400000D03*
X34860000Y-35940000D03*
X34860000Y-38480000D03*
X34860000Y-41020000D03*
X34860000Y-43560000D03*
X34860000Y-46100000D03*
X34860000Y-48640000D03*
X34860000Y-51180000D03*
X34860000Y-53720000D03*
X43000000Y-58000000D03*
X50620000Y-58000000D03*
X34000000Y-58000000D03*
X36540000Y-58000000D03*
X4000000Y-4000000D03*
X50000000Y-26000000D03*
X50000000Y-28540000D03*
X50000000Y-31080000D03*
X50000000Y-33620000D03*
X16000000Y-58000000D03*
X16000000Y-60540000D03*
X4000000Y-60000000D03*
X26000000Y-58000000D03*
X32500000Y-58000000D03*
X32500000Y-62500000D03*
X26000000Y-62500000D03*
X12000000Y-8000000D03*
X12000000Y-10540000D03*
X12000000Y-13080000D03*
X12000000Y-15620000D03*
X12000000Y-18160000D03*
X12000000Y-20700000D03*
X12000000Y-23240000D03*
X12000000Y-25780000D03*
X12000000Y-28320000D03*
X12000000Y-30860000D03*
X12000000Y-33400000D03*
X12000000Y-35940000D03*
X12000000Y-38480000D03*
X12000000Y-41020000D03*
X12000000Y-43560000D03*
X12000000Y-46100000D03*
X12000000Y-48640000D03*
X12000000Y-51180000D03*
X12000000Y-53720000D03*
X6000000Y-2000000D03*
X8540000Y-2000000D03*
X11080000Y-2000000D03*
X13620000Y-2000000D03*
X16160000Y-2000000D03*
X18700000Y-2000000D03*
X50000000Y-45000000D03*
X47500000Y-45000000D03*
M02*
