G04 #@! TF.GenerationSoftware,KiCad,Pcbnew,6.0.2+dfsg-1*
G04 #@! TF.CreationDate,2026-09-29T10:09:51+08:00*
G04 #@! TF.ProjectId,shield,73686965-6c64-42e6-9b69-6361645f7063,rev?*
G04 #@! TF.SameCoordinates,Original*
G04 #@! TF.FileFunction,Soldermask,Bot*
G04 #@! TF.FilePolarity,Negative*
%FSLAX46Y46*%
G04 Gerber Fmt 4.6, Leading zero omitted, Abs format (unit mm)*
G04 Created by KiCad (PCBNEW 6.0.2+dfsg-1) date 2026-09-29 10:09:51*
%MOMM*%
%LPD*%
G01*
G04 APERTURE LIST*
%ADD10R,1.700000X1.700000*%
%ADD11O,1.700000X1.700000*%
%ADD12C,3.200000*%
%ADD13C,1.600000*%
%ADD14O,1.600000X1.600000*%
%ADD15R,1.800000X1.800000*%
%ADD16C,1.800000*%
%ADD17C,2.000000*%
%ADD18R,1.600000X1.600000*%
G04 APERTURE END LIST*
D10*
G04 #@! TO.C,J4*
X50000000Y-8000000D03*
D11*
X50000000Y-10540000D03*
X50000000Y-13080000D03*
X50000000Y-15620000D03*
X50000000Y-18160000D03*
G04 #@! TD*
D12*
G04 #@! TO.C,H*
X58000000Y-4000000D03*
G04 #@! TD*
D13*
G04 #@! TO.C,C2*
X43000000Y-42000000D03*
X40500000Y-42000000D03*
G04 #@! TD*
D12*
G04 #@! TO.C,H*
X58000000Y-60000000D03*
G04 #@! TD*
D10*
G04 #@! TO.C,J3*
X34860000Y-8000000D03*
D11*
X34860000Y-10540000D03*
X34860000Y-13080000D03*
X34860000Y-15620000D03*
X34860000Y-18160000D03*
X34860000Y-20700000D03*
X34860000Y-23240000D03*
X34860000Y-25780000D03*
X34860000Y-28320000D03*
X34860000Y-30860000D03*
X34860000Y-33400000D03*
X34860000Y-35940000D03*
X34860000Y-38480000D03*
X34860000Y-41020000D03*
X34860000Y-43560000D03*
X34860000Y-46100000D03*
X34860000Y-48640000D03*
X34860000Y-51180000D03*
X34860000Y-53720000D03*
G04 #@! TD*
D13*
G04 #@! TO.C,R1*
X43000000Y-58000000D03*
D14*
X50620000Y-58000000D03*
G04 #@! TD*
D15*
G04 #@! TO.C,D1*
X34000000Y-58000000D03*
D16*
X36540000Y-58000000D03*
G04 #@! TD*
D12*
G04 #@! TO.C,H*
X4000000Y-4000000D03*
G04 #@! TD*
D10*
G04 #@! TO.C,J5*
X50000000Y-26000000D03*
D11*
X50000000Y-28540000D03*
X50000000Y-31080000D03*
X50000000Y-33620000D03*
G04 #@! TD*
D10*
G04 #@! TO.C,J6*
X16000000Y-58000000D03*
D11*
X16000000Y-60540000D03*
G04 #@! TD*
D12*
G04 #@! TO.C,H*
X4000000Y-60000000D03*
G04 #@! TD*
D17*
G04 #@! TO.C,SW1*
X26000000Y-58000000D03*
X32500000Y-58000000D03*
X32500000Y-62500000D03*
X26000000Y-62500000D03*
G04 #@! TD*
D10*
G04 #@! TO.C,J1*
X12000000Y-8000000D03*
D11*
X12000000Y-10540000D03*
X12000000Y-13080000D03*
X12000000Y-15620000D03*
X12000000Y-18160000D03*
X12000000Y-20700000D03*
X12000000Y-23240000D03*
X12000000Y-25780000D03*
X12000000Y-28320000D03*
X12000000Y-30860000D03*
X12000000Y-33400000D03*
X12000000Y-35940000D03*
X12000000Y-38480000D03*
X12000000Y-41020000D03*
X12000000Y-43560000D03*
X12000000Y-46100000D03*
X12000000Y-48640000D03*
X12000000Y-51180000D03*
X12000000Y-53720000D03*
G04 #@! TD*
D10*
G04 #@! TO.C,J2*
X6000000Y-2000000D03*
D11*
X8540000Y-2000000D03*
X11080000Y-2000000D03*
X13620000Y-2000000D03*
X16160000Y-2000000D03*
X18700000Y-2000000D03*
G04 #@! TD*
D18*
G04 #@! TO.C,C1*
X50000000Y-45000000D03*
D13*
X47500000Y-45000000D03*
G04 #@! TD*
M02*
