G04 #@! TF.GenerationSoftware,KiCad,Pcbnew,6.0.2+dfsg-1*
G04 #@! TF.CreationDate,2026-09-29T10:09:51+08:00*
G04 #@! TF.ProjectId,shield,73686965-6c64-42e6-9b69-6361645f7063,rev?*
G04 #@! TF.SameCoordinates,Original*
G04 #@! TF.FileFunction,Legend,Bot*
G04 #@! TF.FilePolarity,Positive*
%FSLAX46Y46*%
G04 Gerber Fmt 4.6, Leading zero omitted, Abs format (unit mm)*
G04 Created by KiCad (PCBNEW 6.0.2+dfsg-1) date 2026-09-29 10:09:51*
%MOMM*%
%LPD*%
G01*
G04 APERTURE LIST*
%ADD10C,0.350000*%
G04 APERTURE END LIST*
D10*
X30000000Y-56000000D03*
X50000000Y-8000000D03*
X50000000Y-10540000D03*
X50000000Y-13080000D03*
X50000000Y-15620000D03*
X50000000Y-18160000D03*
X58000000Y-4000000D03*
X43000000Y-42000000D03*
X40500000Y-42000000D03*
X58000000Y-60000000D03*
X34860000Y-8000000D03*
X34860000Y-10540000D03*
X34860000Y-13080000D03*
X34860000Y-15620000D03*
X34860000Y-18160000D03*
X34860000Y-20700000D03*
X34860000Y-23240000D03*
X34860000Y-25780000D03*
X34860000Y-28320000D03*
X34860000Y-30860000D03*
X34860000Y-33400000D03*
X34860000Y-35940000D03*
X34860000Y-38480000D03*
X34860000Y-41020000D03*
X34860000Y-43560000D03*
X34860000Y-46100000D03*
X34860000Y-48640000D03*
X34860000Y-51180000D03*
X34860000Y-53720000D03*
X43000000Y-58000000D03*
X50620000Y-58000000D03*
X34000000Y-58000000D03*
X36540000Y-58000000D03*
X4000000Y-4000000D03*
X50000000Y-26000000D03*
X50000000Y-28540000D03*
X50000000Y-31080000D03*
X50000000Y-33620000D03*
X16000000Y-58000000D03*
X16000000Y-60540000D03*
X4000000Y-60000000D03*
X26000000Y-58000000D03*
X32500000Y-58000000D03*
X32500000Y-62500000D03*
X26000000Y-62500000D03*
X12000000Y-8000000D03*
X12000000Y-10540000D03*
X12000000Y-13080000D03*
X12000000Y-15620000D03*
X12000000Y-18160000D03*
X12000000Y-20700000D03*
X12000000Y-23240000D03*
X12000000Y-25780000D03*
X12000000Y-28320000D03*
X12000000Y-30860000D03*
X12000000Y-33400000D03*
X12000000Y-35940000D03*
X12000000Y-38480000D03*
X12000000Y-41020000D03*
X12000000Y-43560000D03*
X12000000Y-46100000D03*
X12000000Y-48640000D03*
X12000000Y-51180000D03*
X12000000Y-53720000D03*
X6000000Y-2000000D03*
X8540000Y-2000000D03*
X11080000Y-2000000D03*
X13620000Y-2000000D03*
X16160000Y-2000000D03*
X18700000Y-2000000D03*
X50000000Y-45000000D03*
X47500000Y-45000000D03*
M02*
