G04 #@! TF.GenerationSoftware,KiCad,Pcbnew,6.0.2+dfsg-1*
G04 #@! TF.CreationDate,2026-09-29T10:09:51+08:00*
G04 #@! TF.ProjectId,shield,73686965-6c64-42e6-9b69-6361645f7063,rev?*
G04 #@! TF.SameCoordinates,Original*
G04 #@! TF.FileFunction,Legend,Top*
G04 #@! TF.FilePolarity,Positive*
%FSLAX46Y46*%
G04 Gerber Fmt 4.6, Leading zero omitted, Abs format (unit mm)*
G04 Created by KiCad (PCBNEW 6.0.2+dfsg-1) date 2026-09-29 10:09:51*
%MOMM*%
%LPD*%
G01*
G04 APERTURE LIST*
%ADD10C,0.150000*%
%ADD11C,0.120000*%
%ADD12C,0.350000*%
G04 APERTURE END LIST*
D10*
X3085714Y-62307142D02*
X3085714Y-62950000D01*
X3042857Y-63078571D01*
X2957142Y-63164285D01*
X2828571Y-63207142D01*
X2742857Y-63207142D01*
X3985714Y-63207142D02*
X3471428Y-63207142D01*
X3728571Y-63207142D02*
X3728571Y-62307142D01*
X3642857Y-62435714D01*
X3557142Y-62521428D01*
X3471428Y-62564285D01*
X4371428Y-63121428D02*
X4414285Y-63164285D01*
X4371428Y-63207142D01*
X4328571Y-63164285D01*
X4371428Y-63121428D01*
X4371428Y-63207142D01*
X4371428Y-62650000D02*
X4414285Y-62692857D01*
X4371428Y-62735714D01*
X4328571Y-62692857D01*
X4371428Y-62650000D01*
X4371428Y-62735714D01*
X5271428Y-63207142D02*
X4757142Y-63207142D01*
X5014285Y-63207142D02*
X5014285Y-62307142D01*
X4928571Y-62435714D01*
X4842857Y-62521428D01*
X4757142Y-62564285D01*
X5657142Y-62735714D02*
X6342857Y-62735714D01*
X6342857Y-62992857D02*
X5657142Y-62992857D01*
X6685714Y-62307142D02*
X7242857Y-62307142D01*
X6942857Y-62650000D01*
X7071428Y-62650000D01*
X7157142Y-62692857D01*
X7200000Y-62735714D01*
X7242857Y-62821428D01*
X7242857Y-63035714D01*
X7200000Y-63121428D01*
X7157142Y-63164285D01*
X7071428Y-63207142D01*
X6814285Y-63207142D01*
X6728571Y-63164285D01*
X6685714Y-63121428D01*
X7500000Y-62307142D02*
X7800000Y-63207142D01*
X8100000Y-62307142D01*
X8314285Y-62307142D02*
X8871428Y-62307142D01*
X8571428Y-62650000D01*
X8700000Y-62650000D01*
X8785714Y-62692857D01*
X8828571Y-62735714D01*
X8871428Y-62821428D01*
X8871428Y-63035714D01*
X8828571Y-63121428D01*
X8785714Y-63164285D01*
X8700000Y-63207142D01*
X8442857Y-63207142D01*
X8357142Y-63164285D01*
X8314285Y-63121428D01*
X10885714Y-62307142D02*
X10885714Y-62950000D01*
X10842857Y-63078571D01*
X10757142Y-63164285D01*
X10628571Y-63207142D01*
X10542857Y-63207142D01*
X11228571Y-62307142D02*
X11785714Y-62307142D01*
X11485714Y-62650000D01*
X11614285Y-62650000D01*
X11700000Y-62692857D01*
X11742857Y-62735714D01*
X11785714Y-62821428D01*
X11785714Y-63035714D01*
X11742857Y-63121428D01*
X11700000Y-63164285D01*
X11614285Y-63207142D01*
X11357142Y-63207142D01*
X11271428Y-63164285D01*
X11228571Y-63121428D01*
X12171428Y-63121428D02*
X12214285Y-63164285D01*
X12171428Y-63207142D01*
X12128571Y-63164285D01*
X12171428Y-63121428D01*
X12171428Y-63207142D01*
X12171428Y-62650000D02*
X12214285Y-62692857D01*
X12171428Y-62735714D01*
X12128571Y-62692857D01*
X12171428Y-62650000D01*
X12171428Y-62735714D01*
X13071428Y-63207142D02*
X12557142Y-63207142D01*
X12814285Y-63207142D02*
X12814285Y-62307142D01*
X12728571Y-62435714D01*
X12642857Y-62521428D01*
X12557142Y-62564285D01*
X13457142Y-62735714D02*
X14142857Y-62735714D01*
X14142857Y-62992857D02*
X13457142Y-62992857D01*
X15042857Y-62350000D02*
X14957142Y-62307142D01*
X14828571Y-62307142D01*
X14700000Y-62350000D01*
X14614285Y-62435714D01*
X14571428Y-62521428D01*
X14528571Y-62692857D01*
X14528571Y-62821428D01*
X14571428Y-62992857D01*
X14614285Y-63078571D01*
X14700000Y-63164285D01*
X14828571Y-63207142D01*
X14914285Y-63207142D01*
X15042857Y-63164285D01*
X15085714Y-63121428D01*
X15085714Y-62821428D01*
X14914285Y-62821428D01*
X15471428Y-63207142D02*
X15471428Y-62307142D01*
X15985714Y-63207142D01*
X15985714Y-62307142D01*
X16414285Y-63207142D02*
X16414285Y-62307142D01*
X16628571Y-62307142D01*
X16757142Y-62350000D01*
X16842857Y-62435714D01*
X16885714Y-62521428D01*
X16928571Y-62692857D01*
X16928571Y-62821428D01*
X16885714Y-62992857D01*
X16842857Y-63078571D01*
X16757142Y-63164285D01*
X16628571Y-63207142D01*
X16414285Y-63207142D01*
X17957142Y-62392857D02*
X18000000Y-62350000D01*
X18085714Y-62307142D01*
X18300000Y-62307142D01*
X18385714Y-62350000D01*
X18428571Y-62392857D01*
X18471428Y-62478571D01*
X18471428Y-62564285D01*
X18428571Y-62692857D01*
X17914285Y-63207142D01*
X18471428Y-63207142D01*
X18857142Y-62735714D02*
X19542857Y-62735714D01*
X19542857Y-62992857D02*
X18857142Y-62992857D01*
X20399999Y-62307142D02*
X19971428Y-62307142D01*
X19928571Y-62735714D01*
X19971428Y-62692857D01*
X20057142Y-62650000D01*
X20271428Y-62650000D01*
X20357142Y-62692857D01*
X20399999Y-62735714D01*
X20442857Y-62821428D01*
X20442857Y-63035714D01*
X20399999Y-63121428D01*
X20357142Y-63164285D01*
X20271428Y-63207142D01*
X20057142Y-63207142D01*
X19971428Y-63164285D01*
X19928571Y-63121428D01*
X20700000Y-62307142D02*
X21000000Y-63207142D01*
X21300000Y-62307142D01*
X13321428Y-54507142D02*
X13321428Y-55235714D01*
X13364285Y-55321428D01*
X13407142Y-55364285D01*
X13492857Y-55407142D01*
X13664285Y-55407142D01*
X13750000Y-55364285D01*
X13792857Y-55321428D01*
X13835714Y-55235714D01*
X13835714Y-54507142D01*
X14221428Y-55364285D02*
X14350000Y-55407142D01*
X14564285Y-55407142D01*
X14650000Y-55364285D01*
X14692857Y-55321428D01*
X14735714Y-55235714D01*
X14735714Y-55150000D01*
X14692857Y-55064285D01*
X14650000Y-55021428D01*
X14564285Y-54978571D01*
X14392857Y-54935714D01*
X14307142Y-54892857D01*
X14264285Y-54850000D01*
X14221428Y-54764285D01*
X14221428Y-54678571D01*
X14264285Y-54592857D01*
X14307142Y-54550000D01*
X14392857Y-54507142D01*
X14607142Y-54507142D01*
X14735714Y-54550000D01*
X15421428Y-54935714D02*
X15550000Y-54978571D01*
X15592857Y-55021428D01*
X15635714Y-55107142D01*
X15635714Y-55235714D01*
X15592857Y-55321428D01*
X15550000Y-55364285D01*
X15464285Y-55407142D01*
X15121428Y-55407142D01*
X15121428Y-54507142D01*
X15421428Y-54507142D01*
X15507142Y-54550000D01*
X15550000Y-54592857D01*
X15592857Y-54678571D01*
X15592857Y-54764285D01*
X15550000Y-54850000D01*
X15507142Y-54892857D01*
X15421428Y-54935714D01*
X15121428Y-54935714D01*
X16578571Y-55321428D02*
X17692857Y-55321428D01*
X16578571Y-54507142D02*
X16578571Y-55407142D01*
X16578571Y-54507142D02*
X17692857Y-54507142D01*
X17692857Y-55407142D01*
X17907142Y-54550000D02*
X18464285Y-54550000D01*
X18635714Y-54721428D02*
X19021428Y-54721428D01*
X17950000Y-54850000D02*
X18421428Y-54850000D01*
X18592857Y-55021428D02*
X19021428Y-55021428D01*
X17950000Y-55021428D02*
X18421428Y-55021428D01*
X17907142Y-55192857D02*
X18507142Y-55192857D01*
X18850000Y-55407142D02*
X19021428Y-55407142D01*
X17950000Y-54678571D02*
X17950000Y-55021428D01*
X18207142Y-54378571D02*
X18207142Y-54678571D01*
X18207142Y-55021428D02*
X18207142Y-55407142D01*
X17950000Y-54678571D02*
X18421428Y-54678571D01*
X18421428Y-55021428D01*
X18635714Y-54464285D02*
X19021428Y-54464285D01*
X19021428Y-55407142D01*
X18635714Y-54464285D02*
X18592857Y-55021428D01*
X18550000Y-55278571D01*
X19235714Y-54464285D02*
X20350000Y-54464285D01*
X19750000Y-54464285D02*
X19750000Y-55407142D01*
X19750000Y-54721428D02*
X20264285Y-54978571D01*
X20564285Y-54635714D02*
X20907142Y-54635714D01*
X20950000Y-54678571D02*
X21678571Y-54678571D01*
X20992857Y-55064285D02*
X21207142Y-55064285D01*
X21421428Y-55064285D02*
X21635714Y-55064285D01*
X20992857Y-55364285D02*
X21635714Y-55364285D01*
X20607142Y-55407142D02*
X20735714Y-55407142D01*
X20778571Y-54378571D02*
X20778571Y-55407142D01*
X20992857Y-54850000D02*
X20992857Y-55407142D01*
X21035714Y-54507142D02*
X21335714Y-54464285D01*
X21335714Y-55321428D01*
X21421428Y-54850000D02*
X21635714Y-54850000D01*
X21635714Y-55407142D01*
X21207142Y-54807142D02*
X20992857Y-54850000D01*
X20907142Y-54892857D02*
X20564285Y-54978571D01*
X21592857Y-54421428D02*
X21207142Y-54464285D01*
X22321428Y-54507142D02*
X22964285Y-54507142D01*
X21892857Y-54635714D02*
X22235714Y-54635714D01*
X22278571Y-54807142D02*
X23007142Y-54807142D01*
X22278571Y-54978571D02*
X23007142Y-54978571D01*
X21935714Y-55407142D02*
X22107142Y-55407142D01*
X22107142Y-54378571D02*
X22107142Y-55407142D01*
X22664285Y-54378571D02*
X22664285Y-54550000D01*
X22835714Y-54550000D02*
X22792857Y-54764285D01*
X22492857Y-54592857D02*
X22535714Y-54807142D01*
X22407142Y-55192857D01*
X22964285Y-55407142D01*
X22235714Y-54935714D02*
X21892857Y-55021428D01*
X22835714Y-54978571D02*
X22750000Y-55192857D01*
X22664285Y-55278571D01*
X22278571Y-55407142D01*
X24035714Y-55407142D02*
X24035714Y-54507142D01*
X24250000Y-54507142D01*
X24378571Y-54550000D01*
X24464285Y-54635714D01*
X24507142Y-54721428D01*
X24550000Y-54892857D01*
X24550000Y-55021428D01*
X24507142Y-55192857D01*
X24464285Y-55278571D01*
X24378571Y-55364285D01*
X24250000Y-55407142D01*
X24035714Y-55407142D01*
X25278571Y-55364285D02*
X25192857Y-55407142D01*
X25021428Y-55407142D01*
X24935714Y-55364285D01*
X24892857Y-55278571D01*
X24892857Y-54935714D01*
X24935714Y-54850000D01*
X25021428Y-54807142D01*
X25192857Y-54807142D01*
X25278571Y-54850000D01*
X25321428Y-54935714D01*
X25321428Y-55021428D01*
X24892857Y-55107142D01*
X25621428Y-54807142D02*
X25835714Y-55407142D01*
X26050000Y-54807142D01*
X26392857Y-55407142D02*
X26392857Y-54507142D01*
X26907142Y-55407142D02*
X26521428Y-54892857D01*
X26907142Y-54507142D02*
X26392857Y-55021428D01*
X27292857Y-55407142D02*
X27292857Y-54807142D01*
X27292857Y-54507142D02*
X27250000Y-54550000D01*
X27292857Y-54592857D01*
X27335714Y-54550000D01*
X27292857Y-54507142D01*
X27292857Y-54592857D01*
X27592857Y-54807142D02*
X27935714Y-54807142D01*
X27721428Y-54507142D02*
X27721428Y-55278571D01*
X27764285Y-55364285D01*
X27850000Y-55407142D01*
X27935714Y-55407142D01*
X28750000Y-55321428D02*
X28707142Y-55364285D01*
X28578571Y-55407142D01*
X28492857Y-55407142D01*
X28364285Y-55364285D01*
X28278571Y-55278571D01*
X28235714Y-55192857D01*
X28192857Y-55021428D01*
X28192857Y-54892857D01*
X28235714Y-54721428D01*
X28278571Y-54635714D01*
X28364285Y-54550000D01*
X28492857Y-54507142D01*
X28578571Y-54507142D01*
X28707142Y-54550000D01*
X28750000Y-54592857D01*
X29135714Y-55064285D02*
X29821428Y-55064285D01*
X30721428Y-55407142D02*
X30207142Y-55407142D01*
X30464285Y-55407142D02*
X30464285Y-54507142D01*
X30378571Y-54635714D01*
X30292857Y-54721428D01*
X30207142Y-54764285D01*
X44757142Y-34842857D02*
X44985714Y-34842857D01*
X45100000Y-34900000D01*
X45214285Y-35014285D01*
X45271428Y-35242857D01*
X45271428Y-35642857D01*
X45214285Y-35871428D01*
X45100000Y-35985714D01*
X44985714Y-36042857D01*
X44757142Y-36042857D01*
X44642857Y-35985714D01*
X44528571Y-35871428D01*
X44471428Y-35642857D01*
X44471428Y-35242857D01*
X44528571Y-35014285D01*
X44642857Y-34900000D01*
X44757142Y-34842857D01*
X46357142Y-36042857D02*
X45785714Y-36042857D01*
X45785714Y-34842857D01*
X46757142Y-35414285D02*
X47157142Y-35414285D01*
X47328571Y-36042857D02*
X46757142Y-36042857D01*
X46757142Y-34842857D01*
X47328571Y-34842857D01*
X47842857Y-36042857D02*
X47842857Y-34842857D01*
X48128571Y-34842857D01*
X48300000Y-34900000D01*
X48414285Y-35014285D01*
X48471428Y-35128571D01*
X48528571Y-35357142D01*
X48528571Y-35528571D01*
X48471428Y-35757142D01*
X48414285Y-35871428D01*
X48300000Y-35985714D01*
X48128571Y-36042857D01*
X47842857Y-36042857D01*
X11492857Y-61950000D02*
X11407142Y-61907142D01*
X11278571Y-61907142D01*
X11150000Y-61950000D01*
X11064285Y-62035714D01*
X11021428Y-62121428D01*
X10978571Y-62292857D01*
X10978571Y-62421428D01*
X11021428Y-62592857D01*
X11064285Y-62678571D01*
X11150000Y-62764285D01*
X11278571Y-62807142D01*
X11364285Y-62807142D01*
X11492857Y-62764285D01*
X11535714Y-62721428D01*
X11535714Y-62421428D01*
X11364285Y-62421428D01*
X11921428Y-62807142D02*
X11921428Y-61907142D01*
X12264285Y-61907142D01*
X12350000Y-61950000D01*
X12392857Y-61992857D01*
X12435714Y-62078571D01*
X12435714Y-62207142D01*
X12392857Y-62292857D01*
X12350000Y-62335714D01*
X12264285Y-62378571D01*
X11921428Y-62378571D01*
X12821428Y-62807142D02*
X12821428Y-61907142D01*
X13421428Y-61907142D02*
X13592857Y-61907142D01*
X13678571Y-61950000D01*
X13764285Y-62035714D01*
X13807142Y-62207142D01*
X13807142Y-62507142D01*
X13764285Y-62678571D01*
X13678571Y-62764285D01*
X13592857Y-62807142D01*
X13421428Y-62807142D01*
X13335714Y-62764285D01*
X13250000Y-62678571D01*
X13207142Y-62507142D01*
X13207142Y-62207142D01*
X13250000Y-62035714D01*
X13335714Y-61950000D01*
X13421428Y-61907142D01*
X14107142Y-61907142D02*
X14664285Y-61907142D01*
X14364285Y-62250000D01*
X14492857Y-62250000D01*
X14578571Y-62292857D01*
X14621428Y-62335714D01*
X14664285Y-62421428D01*
X14664285Y-62635714D01*
X14621428Y-62721428D01*
X14578571Y-62764285D01*
X14492857Y-62807142D01*
X14235714Y-62807142D01*
X14150000Y-62764285D01*
X14107142Y-62721428D01*
X15178571Y-62292857D02*
X15092857Y-62250000D01*
X15050000Y-62207142D01*
X15007142Y-62121428D01*
X15007142Y-62078571D01*
X15050000Y-61992857D01*
X15092857Y-61950000D01*
X15178571Y-61907142D01*
X15350000Y-61907142D01*
X15435714Y-61950000D01*
X15478571Y-61992857D01*
X15521428Y-62078571D01*
X15521428Y-62121428D01*
X15478571Y-62207142D01*
X15435714Y-62250000D01*
X15350000Y-62292857D01*
X15178571Y-62292857D01*
X15092857Y-62335714D01*
X15050000Y-62378571D01*
X15007142Y-62464285D01*
X15007142Y-62635714D01*
X15050000Y-62721428D01*
X15092857Y-62764285D01*
X15178571Y-62807142D01*
X15350000Y-62807142D01*
X15435714Y-62764285D01*
X15478571Y-62721428D01*
X15521428Y-62635714D01*
X15521428Y-62464285D01*
X15478571Y-62378571D01*
X15435714Y-62335714D01*
X15350000Y-62292857D01*
X15907142Y-62464285D02*
X16592857Y-62464285D01*
X17450000Y-62807142D02*
X17021428Y-62807142D01*
X17021428Y-61907142D01*
X17750000Y-62335714D02*
X18050000Y-62335714D01*
X18178571Y-62807142D02*
X17750000Y-62807142D01*
X17750000Y-61907142D01*
X18178571Y-61907142D01*
X18564285Y-62807142D02*
X18564285Y-61907142D01*
X18778571Y-61907142D01*
X18907142Y-61950000D01*
X18992857Y-62035714D01*
X19035714Y-62121428D01*
X19078571Y-62292857D01*
X19078571Y-62421428D01*
X19035714Y-62592857D01*
X18992857Y-62678571D01*
X18907142Y-62764285D01*
X18778571Y-62807142D01*
X18564285Y-62807142D01*
X20792857Y-61864285D02*
X20021428Y-63021428D01*
X22250000Y-61950000D02*
X22164285Y-61907142D01*
X22035714Y-61907142D01*
X21907142Y-61950000D01*
X21821428Y-62035714D01*
X21778571Y-62121428D01*
X21735714Y-62292857D01*
X21735714Y-62421428D01*
X21778571Y-62592857D01*
X21821428Y-62678571D01*
X21907142Y-62764285D01*
X22035714Y-62807142D01*
X22121428Y-62807142D01*
X22250000Y-62764285D01*
X22292857Y-62721428D01*
X22292857Y-62421428D01*
X22121428Y-62421428D01*
X22678571Y-62807142D02*
X22678571Y-61907142D01*
X23021428Y-61907142D01*
X23107142Y-61950000D01*
X23150000Y-61992857D01*
X23192857Y-62078571D01*
X23192857Y-62207142D01*
X23150000Y-62292857D01*
X23107142Y-62335714D01*
X23021428Y-62378571D01*
X22678571Y-62378571D01*
X23578571Y-62807142D02*
X23578571Y-61907142D01*
X24178571Y-61907142D02*
X24350000Y-61907142D01*
X24435714Y-61950000D01*
X24521428Y-62035714D01*
X24564285Y-62207142D01*
X24564285Y-62507142D01*
X24521428Y-62678571D01*
X24435714Y-62764285D01*
X24350000Y-62807142D01*
X24178571Y-62807142D01*
X24092857Y-62764285D01*
X24007142Y-62678571D01*
X23964285Y-62507142D01*
X23964285Y-62207142D01*
X24007142Y-62035714D01*
X24092857Y-61950000D01*
X24178571Y-61907142D01*
X25121428Y-61907142D02*
X25207142Y-61907142D01*
X25292857Y-61950000D01*
X25335714Y-61992857D01*
X25378571Y-62078571D01*
X25421428Y-62250000D01*
X25421428Y-62464285D01*
X25378571Y-62635714D01*
X25335714Y-62721428D01*
X25292857Y-62764285D01*
X25207142Y-62807142D01*
X25121428Y-62807142D01*
X25035714Y-62764285D01*
X24992857Y-62721428D01*
X24950000Y-62635714D01*
X24907142Y-62464285D01*
X24907142Y-62250000D01*
X24950000Y-62078571D01*
X24992857Y-61992857D01*
X25035714Y-61950000D01*
X25121428Y-61907142D01*
X25807142Y-62464285D02*
X26492857Y-62464285D01*
X26921428Y-62807142D02*
X26921428Y-61907142D01*
X27435714Y-62807142D02*
X27050000Y-62292857D01*
X27435714Y-61907142D02*
X26921428Y-62421428D01*
X27821428Y-62335714D02*
X28121428Y-62335714D01*
X28250000Y-62807142D02*
X27821428Y-62807142D01*
X27821428Y-61907142D01*
X28250000Y-61907142D01*
X28807142Y-62378571D02*
X28807142Y-62807142D01*
X28507142Y-61907142D02*
X28807142Y-62378571D01*
X29107142Y-61907142D01*
X22628571Y-60742857D02*
X22628571Y-59542857D01*
X23314285Y-60742857D02*
X22800000Y-60057142D01*
X23314285Y-59542857D02*
X22628571Y-60228571D01*
X23828571Y-60114285D02*
X24228571Y-60114285D01*
X24400000Y-60742857D02*
X23828571Y-60742857D01*
X23828571Y-59542857D01*
X24400000Y-59542857D01*
X25142857Y-60171428D02*
X25142857Y-60742857D01*
X24742857Y-59542857D02*
X25142857Y-60171428D01*
X25542857Y-59542857D01*
X2371428Y-5042857D02*
X2371428Y-3842857D01*
X2942857Y-5042857D02*
X2942857Y-3842857D01*
X3628571Y-5042857D01*
X3628571Y-3842857D01*
X4200000Y-5042857D02*
X4200000Y-3842857D01*
X4600000Y-4700000D01*
X5000000Y-3842857D01*
X5000000Y-5042857D01*
X5571428Y-5042857D02*
X5571428Y-3842857D01*
X6028571Y-3842857D01*
X6142857Y-3900000D01*
X6200000Y-3957142D01*
X6257142Y-4071428D01*
X6257142Y-4242857D01*
X6200000Y-4357142D01*
X6142857Y-4414285D01*
X6028571Y-4471428D01*
X5571428Y-4471428D01*
X7285714Y-4242857D02*
X7285714Y-5042857D01*
X7000000Y-3785714D02*
X6714285Y-4642857D01*
X7457142Y-4642857D01*
X8428571Y-4242857D02*
X8428571Y-5042857D01*
X8142857Y-3785714D02*
X7857142Y-4642857D01*
X8600000Y-4642857D01*
X9685714Y-5042857D02*
X9000000Y-5042857D01*
X9342857Y-5042857D02*
X9342857Y-3842857D01*
X9228571Y-4014285D01*
X9114285Y-4128571D01*
X9000000Y-4185714D01*
X12657142Y-60685714D02*
X12828571Y-60742857D01*
X13114285Y-60742857D01*
X13228571Y-60685714D01*
X13285714Y-60628571D01*
X13342857Y-60514285D01*
X13342857Y-60400000D01*
X13285714Y-60285714D01*
X13228571Y-60228571D01*
X13114285Y-60171428D01*
X12885714Y-60114285D01*
X12771428Y-60057142D01*
X12714285Y-60000000D01*
X12657142Y-59885714D01*
X12657142Y-59771428D01*
X12714285Y-59657142D01*
X12771428Y-59600000D01*
X12885714Y-59542857D01*
X13171428Y-59542857D01*
X13342857Y-59600000D01*
X13857142Y-60742857D02*
X13857142Y-59542857D01*
X14314285Y-59542857D01*
X14428571Y-59600000D01*
X14485714Y-59657142D01*
X14542857Y-59771428D01*
X14542857Y-59942857D01*
X14485714Y-60057142D01*
X14428571Y-60114285D01*
X14314285Y-60171428D01*
X13857142Y-60171428D01*
X15057142Y-60742857D02*
X15057142Y-59542857D01*
X15742857Y-60742857D02*
X15228571Y-60057142D01*
X15742857Y-59542857D02*
X15057142Y-60228571D01*
X32428571Y-60742857D02*
X31857142Y-60742857D01*
X31857142Y-59542857D01*
X32828571Y-60114285D02*
X33228571Y-60114285D01*
X33400000Y-60742857D02*
X32828571Y-60742857D01*
X32828571Y-59542857D01*
X33400000Y-59542857D01*
X33914285Y-60742857D02*
X33914285Y-59542857D01*
X34200000Y-59542857D01*
X34371428Y-59600000D01*
X34485714Y-59714285D01*
X34542857Y-59828571D01*
X34600000Y-60057142D01*
X34600000Y-60228571D01*
X34542857Y-60457142D01*
X34485714Y-60571428D01*
X34371428Y-60685714D01*
X34200000Y-60742857D01*
X33914285Y-60742857D01*
X42157142Y-21042857D02*
X42157142Y-19842857D01*
X42557142Y-20700000D01*
X42957142Y-19842857D01*
X42957142Y-21042857D01*
X43471428Y-20700000D02*
X44042857Y-20700000D01*
X43357142Y-21042857D02*
X43757142Y-19842857D01*
X44157142Y-21042857D01*
X44442857Y-19842857D02*
X45242857Y-21042857D01*
X45242857Y-19842857D02*
X44442857Y-21042857D01*
X45757142Y-21042857D02*
X45985714Y-21042857D01*
X46099999Y-20985714D01*
X46157142Y-20928571D01*
X46271428Y-20757142D01*
X46328571Y-20528571D01*
X46328571Y-20071428D01*
X46271428Y-19957142D01*
X46214285Y-19900000D01*
X46099999Y-19842857D01*
X45871428Y-19842857D01*
X45757142Y-19900000D01*
X45699999Y-19957142D01*
X45642857Y-20071428D01*
X45642857Y-20357142D01*
X45699999Y-20471428D01*
X45757142Y-20528571D01*
X45871428Y-20585714D01*
X46099999Y-20585714D01*
X46214285Y-20528571D01*
X46271428Y-20471428D01*
X46328571Y-20357142D01*
X47014285Y-20357142D02*
X46899999Y-20300000D01*
X46842857Y-20242857D01*
X46785714Y-20128571D01*
X46785714Y-20071428D01*
X46842857Y-19957142D01*
X46899999Y-19900000D01*
X47014285Y-19842857D01*
X47242857Y-19842857D01*
X47357142Y-19900000D01*
X47414285Y-19957142D01*
X47471428Y-20071428D01*
X47471428Y-20128571D01*
X47414285Y-20242857D01*
X47357142Y-20300000D01*
X47242857Y-20357142D01*
X47014285Y-20357142D01*
X46899999Y-20414285D01*
X46842857Y-20471428D01*
X46785714Y-20585714D01*
X46785714Y-20814285D01*
X46842857Y-20928571D01*
X46899999Y-20985714D01*
X47014285Y-21042857D01*
X47242857Y-21042857D01*
X47357142Y-20985714D01*
X47414285Y-20928571D01*
X47471428Y-20814285D01*
X47471428Y-20585714D01*
X47414285Y-20471428D01*
X47357142Y-20414285D01*
X47242857Y-20357142D01*
X47871428Y-19842857D02*
X48614285Y-19842857D01*
X48214285Y-20300000D01*
X48385714Y-20300000D01*
X48499999Y-20357142D01*
X48557142Y-20414285D01*
X48614285Y-20528571D01*
X48614285Y-20814285D01*
X48557142Y-20928571D01*
X48499999Y-20985714D01*
X48385714Y-21042857D01*
X48042857Y-21042857D01*
X47928571Y-20985714D01*
X47871428Y-20928571D01*
X49699999Y-19842857D02*
X49128571Y-19842857D01*
X49071428Y-20414285D01*
X49128571Y-20357142D01*
X49242857Y-20300000D01*
X49528571Y-20300000D01*
X49642857Y-20357142D01*
X49699999Y-20414285D01*
X49757142Y-20528571D01*
X49757142Y-20814285D01*
X49699999Y-20928571D01*
X49642857Y-20985714D01*
X49528571Y-21042857D01*
X49242857Y-21042857D01*
X49128571Y-20985714D01*
X49071428Y-20928571D01*
X50157142Y-19842857D02*
X50957142Y-19842857D01*
X50442857Y-21042857D01*
X12585714Y-29550000D02*
X13014285Y-29550000D01*
X12628571Y-29978571D02*
X13014285Y-29978571D01*
X12242857Y-30107142D02*
X12457142Y-30107142D01*
X13185714Y-30407142D02*
X13357142Y-30407142D01*
X12242857Y-29507142D02*
X12242857Y-30235714D01*
X12242857Y-29507142D02*
X12457142Y-29507142D01*
X12457142Y-30107142D01*
X12628571Y-29721428D02*
X12628571Y-29978571D01*
X12800000Y-29378571D02*
X12800000Y-30407142D01*
X12628571Y-29721428D02*
X13014285Y-29721428D01*
X13014285Y-29978571D01*
X13185714Y-29507142D02*
X13185714Y-30107142D01*
X13357142Y-29421428D02*
X13357142Y-30407142D01*
X12885714Y-30064285D02*
X13014285Y-30192857D01*
X12757142Y-30021428D02*
X12971428Y-30107142D01*
X12757142Y-30107142D02*
X12500000Y-30321428D01*
X12800000Y-29935714D02*
X12671428Y-30192857D01*
X14085714Y-29464285D02*
X14428571Y-29464285D01*
X13571428Y-30064285D02*
X13871428Y-30064285D01*
X13571428Y-29507142D02*
X13571428Y-30150000D01*
X13571428Y-29507142D02*
X13871428Y-29507142D01*
X13871428Y-30064285D01*
X13957142Y-30192857D02*
X13785714Y-30407142D01*
X14514285Y-30064285D02*
X14642857Y-30407142D01*
X14085714Y-29935714D02*
X13914285Y-30321428D01*
X14128571Y-29678571D02*
X14000000Y-30150000D01*
X14428571Y-29550000D02*
X14514285Y-30235714D01*
X15757142Y-29721428D02*
X15628571Y-29850000D01*
X15928571Y-29592857D02*
X15757142Y-29764285D01*
X14900000Y-29464285D02*
X15628571Y-29464285D01*
X15628571Y-29892857D01*
X15928571Y-29978571D01*
X15757142Y-30364285D02*
X15928571Y-30407142D01*
X16014285Y-30192857D02*
X15971428Y-30407142D01*
X15628571Y-29721428D02*
X15714285Y-30278571D01*
X17342857Y-30278571D02*
X17342857Y-30407142D01*
X16571428Y-29678571D02*
X16485714Y-29850000D01*
X16228571Y-30064285D01*
X17128571Y-30407142D02*
X17300000Y-30407142D01*
X17085714Y-29421428D02*
X17257142Y-29507142D01*
X16442857Y-29378571D02*
X16271428Y-29807142D01*
X17300000Y-29978571D02*
X17085714Y-30192857D01*
X16657142Y-30407142D01*
X16957142Y-29892857D02*
X17085714Y-30321428D01*
X16485714Y-29764285D02*
X16228571Y-29807142D01*
X16614285Y-30021428D02*
X16228571Y-30107142D01*
X16614285Y-30235714D02*
X16228571Y-30321428D01*
X16957142Y-29378571D02*
X16957142Y-29764285D01*
X17000000Y-30235714D01*
X17085714Y-29635714D02*
X16742857Y-29678571D01*
X17171428Y-29635714D02*
X16828571Y-29678571D01*
X17257142Y-29592857D02*
X16957142Y-29635714D01*
X17300000Y-29807142D02*
X16700000Y-29935714D01*
X17685714Y-30321428D02*
X17728571Y-30364285D01*
X17685714Y-30407142D01*
X17642857Y-30364285D01*
X17685714Y-30321428D01*
X17685714Y-30407142D01*
X17685714Y-29850000D02*
X17728571Y-29892857D01*
X17685714Y-29935714D01*
X17642857Y-29892857D01*
X17685714Y-29850000D01*
X17685714Y-29935714D01*
X18800000Y-30407142D02*
X18800000Y-29507142D01*
X19100000Y-30150000D01*
X19400000Y-29507142D01*
X19400000Y-30407142D01*
X19785714Y-30150000D02*
X20214285Y-30150000D01*
X19700000Y-30407142D02*
X20000000Y-29507142D01*
X20300000Y-30407142D01*
X20514285Y-29507142D02*
X21114285Y-30407142D01*
X21114285Y-29507142D02*
X20514285Y-30407142D01*
X21499999Y-30407142D02*
X21671428Y-30407142D01*
X21757142Y-30364285D01*
X21799999Y-30321428D01*
X21885714Y-30192857D01*
X21928571Y-30021428D01*
X21928571Y-29678571D01*
X21885714Y-29592857D01*
X21842857Y-29550000D01*
X21757142Y-29507142D01*
X21585714Y-29507142D01*
X21499999Y-29550000D01*
X21457142Y-29592857D01*
X21414285Y-29678571D01*
X21414285Y-29892857D01*
X21457142Y-29978571D01*
X21499999Y-30021428D01*
X21585714Y-30064285D01*
X21757142Y-30064285D01*
X21842857Y-30021428D01*
X21885714Y-29978571D01*
X21928571Y-29892857D01*
X22442857Y-29892857D02*
X22357142Y-29850000D01*
X22314285Y-29807142D01*
X22271428Y-29721428D01*
X22271428Y-29678571D01*
X22314285Y-29592857D01*
X22357142Y-29550000D01*
X22442857Y-29507142D01*
X22614285Y-29507142D01*
X22699999Y-29550000D01*
X22742857Y-29592857D01*
X22785714Y-29678571D01*
X22785714Y-29721428D01*
X22742857Y-29807142D01*
X22699999Y-29850000D01*
X22614285Y-29892857D01*
X22442857Y-29892857D01*
X22357142Y-29935714D01*
X22314285Y-29978571D01*
X22271428Y-30064285D01*
X22271428Y-30235714D01*
X22314285Y-30321428D01*
X22357142Y-30364285D01*
X22442857Y-30407142D01*
X22614285Y-30407142D01*
X22699999Y-30364285D01*
X22742857Y-30321428D01*
X22785714Y-30235714D01*
X22785714Y-30064285D01*
X22742857Y-29978571D01*
X22699999Y-29935714D01*
X22614285Y-29892857D01*
X23085714Y-29507142D02*
X23642857Y-29507142D01*
X23342857Y-29850000D01*
X23471428Y-29850000D01*
X23557142Y-29892857D01*
X23599999Y-29935714D01*
X23642857Y-30021428D01*
X23642857Y-30235714D01*
X23599999Y-30321428D01*
X23557142Y-30364285D01*
X23471428Y-30407142D01*
X23214285Y-30407142D01*
X23128571Y-30364285D01*
X23085714Y-30321428D01*
X24457142Y-29507142D02*
X24028571Y-29507142D01*
X23985714Y-29935714D01*
X24028571Y-29892857D01*
X24114285Y-29850000D01*
X24328571Y-29850000D01*
X24414285Y-29892857D01*
X24457142Y-29935714D01*
X24499999Y-30021428D01*
X24499999Y-30235714D01*
X24457142Y-30321428D01*
X24414285Y-30364285D01*
X24328571Y-30407142D01*
X24114285Y-30407142D01*
X24028571Y-30364285D01*
X23985714Y-30321428D01*
X24799999Y-29507142D02*
X25399999Y-29507142D01*
X25014285Y-30407142D01*
X25999999Y-29507142D02*
X26728571Y-29507142D01*
X25614285Y-29635714D02*
X25957142Y-29635714D01*
X26085714Y-29807142D02*
X26642857Y-29807142D01*
X26085714Y-29978571D02*
X26642857Y-29978571D01*
X25957142Y-30150000D02*
X26728571Y-30150000D01*
X25828571Y-29378571D02*
X25828571Y-30407142D01*
X26085714Y-29678571D02*
X26085714Y-29978571D01*
X26214285Y-29378571D02*
X26214285Y-29592857D01*
X26514285Y-29378571D02*
X26514285Y-29592857D01*
X26085714Y-29678571D02*
X26642857Y-29678571D01*
X26642857Y-29978571D01*
X25785714Y-29635714D02*
X25914285Y-29935714D01*
X26342857Y-30107142D02*
X26514285Y-30321428D01*
X26728571Y-30407142D01*
X25785714Y-29592857D02*
X25657142Y-30107142D01*
X26342857Y-29978571D02*
X26257142Y-30235714D01*
X26171428Y-30321428D01*
X25957142Y-30407142D01*
X26942857Y-29678571D02*
X27285714Y-29678571D01*
X27328571Y-29935714D02*
X28057142Y-29935714D01*
X27114285Y-29421428D02*
X27114285Y-30150000D01*
X27371428Y-29592857D02*
X27928571Y-29592857D01*
X27928571Y-29935714D01*
X27757142Y-30150000D02*
X27971428Y-30407142D01*
X27585714Y-30150000D02*
X27371428Y-30364285D01*
X27671428Y-29421428D02*
X27671428Y-29935714D01*
X27842857Y-30278571D01*
X27671428Y-29935714D02*
X27499999Y-30278571D01*
X27285714Y-30064285D02*
X26942857Y-30192857D01*
X27671428Y-29764285D02*
X27628571Y-30150000D01*
X29042857Y-30364285D02*
X29171428Y-30407142D01*
X29385714Y-30407142D01*
X29471428Y-30364285D01*
X29514285Y-30321428D01*
X29557142Y-30235714D01*
X29557142Y-30150000D01*
X29514285Y-30064285D01*
X29471428Y-30021428D01*
X29385714Y-29978571D01*
X29214285Y-29935714D01*
X29128571Y-29892857D01*
X29085714Y-29850000D01*
X29042857Y-29764285D01*
X29042857Y-29678571D01*
X29085714Y-29592857D01*
X29128571Y-29550000D01*
X29214285Y-29507142D01*
X29428571Y-29507142D01*
X29557142Y-29550000D01*
X29942857Y-30407142D02*
X29942857Y-29507142D01*
X30285714Y-29507142D01*
X30371428Y-29550000D01*
X30414285Y-29592857D01*
X30457142Y-29678571D01*
X30457142Y-29807142D01*
X30414285Y-29892857D01*
X30371428Y-29935714D01*
X30285714Y-29978571D01*
X29942857Y-29978571D01*
X30842857Y-30407142D02*
X30842857Y-29507142D01*
X31357142Y-30407142D02*
X30971428Y-29892857D01*
X31357142Y-29507142D02*
X30842857Y-30021428D01*
X31742857Y-30064285D02*
X32428571Y-30064285D01*
X32085714Y-30407142D02*
X32085714Y-29721428D01*
X33499999Y-29464285D02*
X32728571Y-30621428D01*
X33799999Y-30064285D02*
X34485714Y-30064285D01*
X35599999Y-30064285D02*
X36285714Y-30064285D01*
X36714285Y-29807142D02*
X37399999Y-30064285D01*
X36714285Y-30321428D01*
X38771428Y-29507142D02*
X38771428Y-30150000D01*
X38728571Y-30278571D01*
X38642857Y-30364285D01*
X38514285Y-30407142D01*
X38428571Y-30407142D01*
X39585714Y-29507142D02*
X39414285Y-29507142D01*
X39328571Y-29550000D01*
X39285714Y-29592857D01*
X39199999Y-29721428D01*
X39157142Y-29892857D01*
X39157142Y-30235714D01*
X39199999Y-30321428D01*
X39242857Y-30364285D01*
X39328571Y-30407142D01*
X39499999Y-30407142D01*
X39585714Y-30364285D01*
X39628571Y-30321428D01*
X39671428Y-30235714D01*
X39671428Y-30021428D01*
X39628571Y-29935714D01*
X39585714Y-29892857D01*
X39499999Y-29850000D01*
X39328571Y-29850000D01*
X39242857Y-29892857D01*
X39199999Y-29935714D01*
X39157142Y-30021428D01*
X11828571Y-1123809D02*
X12361904Y-2723809D01*
X12895238Y-1123809D01*
X13657142Y-2723809D02*
X13504761Y-2647619D01*
X13428571Y-2571428D01*
X13352380Y-2419047D01*
X13352380Y-1961904D01*
X13428571Y-1809523D01*
X13504761Y-1733333D01*
X13657142Y-1657142D01*
X13885714Y-1657142D01*
X14038095Y-1733333D01*
X14114285Y-1809523D01*
X14190476Y-1961904D01*
X14190476Y-2419047D01*
X14114285Y-2571428D01*
X14038095Y-2647619D01*
X13885714Y-2723809D01*
X13657142Y-2723809D01*
X14876190Y-2723809D02*
X14876190Y-1657142D01*
X14876190Y-1123809D02*
X14800000Y-1200000D01*
X14876190Y-1276190D01*
X14952380Y-1200000D01*
X14876190Y-1123809D01*
X14876190Y-1276190D01*
X16323809Y-2647619D02*
X16171428Y-2723809D01*
X15866666Y-2723809D01*
X15714285Y-2647619D01*
X15638095Y-2571428D01*
X15561904Y-2419047D01*
X15561904Y-1961904D01*
X15638095Y-1809523D01*
X15714285Y-1733333D01*
X15866666Y-1657142D01*
X16171428Y-1657142D01*
X16323809Y-1733333D01*
X17619047Y-2647619D02*
X17466666Y-2723809D01*
X17161904Y-2723809D01*
X17009523Y-2647619D01*
X16933333Y-2495238D01*
X16933333Y-1885714D01*
X17009523Y-1733333D01*
X17161904Y-1657142D01*
X17466666Y-1657142D01*
X17619047Y-1733333D01*
X17695238Y-1885714D01*
X17695238Y-2038095D01*
X16933333Y-2190476D01*
X18000000Y-2876190D02*
X19219047Y-2876190D01*
X20133333Y-1885714D02*
X20361904Y-1961904D01*
X20438095Y-2038095D01*
X20514285Y-2190476D01*
X20514285Y-2419047D01*
X20438095Y-2571428D01*
X20361904Y-2647619D01*
X20209523Y-2723809D01*
X19600000Y-2723809D01*
X19600000Y-1123809D01*
X20133333Y-1123809D01*
X20285714Y-1200000D01*
X20361904Y-1276190D01*
X20438095Y-1428571D01*
X20438095Y-1580952D01*
X20361904Y-1733333D01*
X20285714Y-1809523D01*
X20133333Y-1885714D01*
X19600000Y-1885714D01*
X21885714Y-1657142D02*
X21885714Y-2723809D01*
X21200000Y-1657142D02*
X21200000Y-2495238D01*
X21276190Y-2647619D01*
X21428571Y-2723809D01*
X21657142Y-2723809D01*
X21809523Y-2647619D01*
X21885714Y-2571428D01*
X23333333Y-2723809D02*
X23333333Y-1123809D01*
X23333333Y-2647619D02*
X23180952Y-2723809D01*
X22876190Y-2723809D01*
X22723809Y-2647619D01*
X22647619Y-2571428D01*
X22571428Y-2419047D01*
X22571428Y-1961904D01*
X22647619Y-1809523D01*
X22723809Y-1733333D01*
X22876190Y-1657142D01*
X23180952Y-1657142D01*
X23333333Y-1733333D01*
X24780952Y-2723809D02*
X24780952Y-1123809D01*
X24780952Y-2647619D02*
X24628571Y-2723809D01*
X24323809Y-2723809D01*
X24171428Y-2647619D01*
X24095238Y-2571428D01*
X24019047Y-2419047D01*
X24019047Y-1961904D01*
X24095238Y-1809523D01*
X24171428Y-1733333D01*
X24323809Y-1657142D01*
X24628571Y-1657142D01*
X24780952Y-1733333D01*
X25390476Y-1657142D02*
X25771428Y-2723809D01*
X26152380Y-1657142D02*
X25771428Y-2723809D01*
X25619047Y-3104761D01*
X25542857Y-3180952D01*
X25390476Y-3257142D01*
X27980952Y-1428571D02*
X29733333Y-1428571D01*
X28361904Y-2038095D02*
X29580952Y-2038095D01*
X28361904Y-2342857D02*
X29580952Y-2342857D01*
X28361904Y-2647619D02*
X29580952Y-2647619D01*
X28361904Y-1733333D02*
X28361904Y-2723809D01*
X27980952Y-1123809D02*
X28438095Y-1123809D01*
X28895238Y-1047619D01*
X28895238Y-1657142D01*
X28361904Y-1733333D02*
X29580952Y-1733333D01*
X29580952Y-2723809D01*
X27980952Y-1047619D02*
X27980952Y-1961904D01*
X27904761Y-2571428D01*
X29504761Y-971428D02*
X28742857Y-1047619D01*
X31028571Y-1047619D02*
X32019047Y-1047619D01*
X30190476Y-1352380D02*
X30876190Y-1352380D01*
X30571428Y-895238D02*
X30571428Y-2723809D01*
X30571428Y-1657142D02*
X30876190Y-1961904D01*
X31180952Y-1580952D02*
X31485714Y-2266666D01*
X31866666Y-2571428D01*
X32095238Y-2723809D01*
X30495238Y-1428571D02*
X30114285Y-2266666D01*
X31028571Y-1580952D02*
X32019047Y-1580952D01*
X31714285Y-2190476D01*
X31409523Y-2571428D01*
X31104761Y-2723809D01*
X31028571Y-1047619D02*
X31028571Y-1961904D01*
X30952380Y-2571428D01*
G04 #@! TO.C,J4*
X49666666Y-4682380D02*
X49666666Y-5396666D01*
X49619047Y-5539523D01*
X49523809Y-5634761D01*
X49380952Y-5682380D01*
X49285714Y-5682380D01*
X50571428Y-5015714D02*
X50571428Y-5682380D01*
X50333333Y-4634761D02*
X50095238Y-5349047D01*
X50714285Y-5349047D01*
G04 #@! TO.C,H*
X57714285Y-252380D02*
X57714285Y747619D01*
X57714285Y271428D02*
X58285714Y271428D01*
X58285714Y-252380D02*
X58285714Y747619D01*
G04 #@! TO.C,C2*
X41583333Y-44857142D02*
X41535714Y-44904761D01*
X41392857Y-44952380D01*
X41297619Y-44952380D01*
X41154761Y-44904761D01*
X41059523Y-44809523D01*
X41011904Y-44714285D01*
X40964285Y-44523809D01*
X40964285Y-44380952D01*
X41011904Y-44190476D01*
X41059523Y-44095238D01*
X41154761Y-44000000D01*
X41297619Y-43952380D01*
X41392857Y-43952380D01*
X41535714Y-44000000D01*
X41583333Y-44047619D01*
X41964285Y-44047619D02*
X42011904Y-44000000D01*
X42107142Y-43952380D01*
X42345238Y-43952380D01*
X42440476Y-44000000D01*
X42488095Y-44047619D01*
X42535714Y-44142857D01*
X42535714Y-44238095D01*
X42488095Y-44380952D01*
X41916666Y-44952380D01*
X42535714Y-44952380D01*
G04 #@! TO.C,H*
X57714285Y-56252380D02*
X57714285Y-55252380D01*
X57714285Y-55728571D02*
X58285714Y-55728571D01*
X58285714Y-56252380D02*
X58285714Y-55252380D01*
G04 #@! TO.C,J3*
X34526666Y-4682380D02*
X34526666Y-5396666D01*
X34479047Y-5539523D01*
X34383809Y-5634761D01*
X34240952Y-5682380D01*
X34145714Y-5682380D01*
X34907619Y-4682380D02*
X35526666Y-4682380D01*
X35193333Y-5063333D01*
X35336190Y-5063333D01*
X35431428Y-5110952D01*
X35479047Y-5158571D01*
X35526666Y-5253809D01*
X35526666Y-5491904D01*
X35479047Y-5587142D01*
X35431428Y-5634761D01*
X35336190Y-5682380D01*
X35050476Y-5682380D01*
X34955238Y-5634761D01*
X34907619Y-5587142D01*
G04 #@! TO.C,R1*
X46643333Y-56082380D02*
X46310000Y-55606190D01*
X46071904Y-56082380D02*
X46071904Y-55082380D01*
X46452857Y-55082380D01*
X46548095Y-55130000D01*
X46595714Y-55177619D01*
X46643333Y-55272857D01*
X46643333Y-55415714D01*
X46595714Y-55510952D01*
X46548095Y-55558571D01*
X46452857Y-55606190D01*
X46071904Y-55606190D01*
X47595714Y-56082380D02*
X47024285Y-56082380D01*
X47310000Y-56082380D02*
X47310000Y-55082380D01*
X47214761Y-55225238D01*
X47119523Y-55320476D01*
X47024285Y-55368095D01*
G04 #@! TO.C,D1*
X34531904Y-54492380D02*
X34531904Y-53492380D01*
X34770000Y-53492380D01*
X34912857Y-53540000D01*
X35008095Y-53635238D01*
X35055714Y-53730476D01*
X35103333Y-53920952D01*
X35103333Y-54063809D01*
X35055714Y-54254285D01*
X35008095Y-54349523D01*
X34912857Y-54444761D01*
X34770000Y-54492380D01*
X34531904Y-54492380D01*
X36055714Y-54492380D02*
X35484285Y-54492380D01*
X35770000Y-54492380D02*
X35770000Y-53492380D01*
X35674761Y-53635238D01*
X35579523Y-53730476D01*
X35484285Y-53778095D01*
G04 #@! TO.C,H*
X3714285Y-252380D02*
X3714285Y747619D01*
X3714285Y271428D02*
X4285714Y271428D01*
X4285714Y-252380D02*
X4285714Y747619D01*
G04 #@! TO.C,J5*
X49666666Y-22682380D02*
X49666666Y-23396666D01*
X49619047Y-23539523D01*
X49523809Y-23634761D01*
X49380952Y-23682380D01*
X49285714Y-23682380D01*
X50619047Y-22682380D02*
X50142857Y-22682380D01*
X50095238Y-23158571D01*
X50142857Y-23110952D01*
X50238095Y-23063333D01*
X50476190Y-23063333D01*
X50571428Y-23110952D01*
X50619047Y-23158571D01*
X50666666Y-23253809D01*
X50666666Y-23491904D01*
X50619047Y-23587142D01*
X50571428Y-23634761D01*
X50476190Y-23682380D01*
X50238095Y-23682380D01*
X50142857Y-23634761D01*
X50095238Y-23587142D01*
G04 #@! TO.C,J6*
X15666666Y-55122380D02*
X15666666Y-55836666D01*
X15619047Y-55979523D01*
X15523809Y-56074761D01*
X15380952Y-56122380D01*
X15285714Y-56122380D01*
X16571428Y-55122380D02*
X16380952Y-55122380D01*
X16285714Y-55170000D01*
X16238095Y-55217619D01*
X16142857Y-55360476D01*
X16095238Y-55550952D01*
X16095238Y-55931904D01*
X16142857Y-56027142D01*
X16190476Y-56074761D01*
X16285714Y-56122380D01*
X16476190Y-56122380D01*
X16571428Y-56074761D01*
X16619047Y-56027142D01*
X16666666Y-55931904D01*
X16666666Y-55693809D01*
X16619047Y-55598571D01*
X16571428Y-55550952D01*
X16476190Y-55503333D01*
X16285714Y-55503333D01*
X16190476Y-55550952D01*
X16142857Y-55598571D01*
X16095238Y-55693809D01*
G04 #@! TO.C,H*
X3714285Y-56252380D02*
X3714285Y-55252380D01*
X3714285Y-55728571D02*
X4285714Y-55728571D01*
X4285714Y-56252380D02*
X4285714Y-55252380D01*
G04 #@! TO.C,SW1*
X27916666Y-56404761D02*
X28059523Y-56452380D01*
X28297619Y-56452380D01*
X28392857Y-56404761D01*
X28440476Y-56357142D01*
X28488095Y-56261904D01*
X28488095Y-56166666D01*
X28440476Y-56071428D01*
X28392857Y-56023809D01*
X28297619Y-55976190D01*
X28107142Y-55928571D01*
X28011904Y-55880952D01*
X27964285Y-55833333D01*
X27916666Y-55738095D01*
X27916666Y-55642857D01*
X27964285Y-55547619D01*
X28011904Y-55500000D01*
X28107142Y-55452380D01*
X28345238Y-55452380D01*
X28488095Y-55500000D01*
X28821428Y-55452380D02*
X29059523Y-56452380D01*
X29250000Y-55738095D01*
X29440476Y-56452380D01*
X29678571Y-55452380D01*
X30583333Y-56452380D02*
X30011904Y-56452380D01*
X30297619Y-56452380D02*
X30297619Y-55452380D01*
X30202380Y-55595238D01*
X30107142Y-55690476D01*
X30011904Y-55738095D01*
G04 #@! TO.C,J1*
X11666666Y-4682380D02*
X11666666Y-5396666D01*
X11619047Y-5539523D01*
X11523809Y-5634761D01*
X11380952Y-5682380D01*
X11285714Y-5682380D01*
X12666666Y-5682380D02*
X12095238Y-5682380D01*
X12380952Y-5682380D02*
X12380952Y-4682380D01*
X12285714Y-4825238D01*
X12190476Y-4920476D01*
X12095238Y-4968095D01*
G04 #@! TO.C,J2*
X2682380Y-2333333D02*
X3396666Y-2333333D01*
X3539523Y-2380952D01*
X3634761Y-2476190D01*
X3682380Y-2619047D01*
X3682380Y-2714285D01*
X2777619Y-1904761D02*
X2730000Y-1857142D01*
X2682380Y-1761904D01*
X2682380Y-1523809D01*
X2730000Y-1428571D01*
X2777619Y-1380952D01*
X2872857Y-1333333D01*
X2968095Y-1333333D01*
X3110952Y-1380952D01*
X3682380Y-1952380D01*
X3682380Y-1333333D01*
G04 #@! TO.C,C1*
X48583333Y-49757142D02*
X48535714Y-49804761D01*
X48392857Y-49852380D01*
X48297619Y-49852380D01*
X48154761Y-49804761D01*
X48059523Y-49709523D01*
X48011904Y-49614285D01*
X47964285Y-49423809D01*
X47964285Y-49280952D01*
X48011904Y-49090476D01*
X48059523Y-48995238D01*
X48154761Y-48900000D01*
X48297619Y-48852380D01*
X48392857Y-48852380D01*
X48535714Y-48900000D01*
X48583333Y-48947619D01*
X49535714Y-49852380D02*
X48964285Y-49852380D01*
X49250000Y-49852380D02*
X49250000Y-48852380D01*
X49154761Y-48995238D01*
X49059523Y-49090476D01*
X48964285Y-49138095D01*
D11*
G04 #@! TO.C,J4*
X51330000Y-9270000D02*
X51330000Y-19490000D01*
X48670000Y-19490000D02*
X51330000Y-19490000D01*
X50000000Y-6670000D02*
X51330000Y-6670000D01*
X48670000Y-9270000D02*
X51330000Y-9270000D01*
X48670000Y-9270000D02*
X48670000Y-19490000D01*
X51330000Y-6670000D02*
X51330000Y-8000000D01*
G04 #@! TO.C,C2*
X44370000Y-40630000D02*
X39130000Y-40630000D01*
X39130000Y-43370000D02*
X39130000Y-40630000D01*
X44370000Y-43370000D02*
X44370000Y-40630000D01*
X44370000Y-43370000D02*
X39130000Y-43370000D01*
G04 #@! TO.C,J3*
X33530000Y-9270000D02*
X36190000Y-9270000D01*
X34860000Y-6670000D02*
X36190000Y-6670000D01*
X36190000Y-9270000D02*
X36190000Y-55050000D01*
X33530000Y-55050000D02*
X36190000Y-55050000D01*
X36190000Y-6670000D02*
X36190000Y-8000000D01*
X33530000Y-9270000D02*
X33530000Y-55050000D01*
G04 #@! TO.C,R1*
X43540000Y-59040000D02*
X43540000Y-59370000D01*
X50080000Y-56630000D02*
X50080000Y-56960000D01*
X43540000Y-59370000D02*
X50080000Y-59370000D01*
X43540000Y-56960000D02*
X43540000Y-56630000D01*
X50080000Y-59370000D02*
X50080000Y-59040000D01*
X43540000Y-56630000D02*
X50080000Y-56630000D01*
G04 #@! TO.C,D1*
X32710000Y-56455000D02*
X32710000Y-59545000D01*
X32710000Y-59544830D02*
G75*
G03*
X38260000Y-57999538I2560000J1544830D01*
G01*
X38260000Y-58000462D02*
G75*
G03*
X32710000Y-56455170I-2990000J462D01*
G01*
X37770000Y-58000000D02*
G75*
G03*
X37770000Y-58000000I-2500000J0D01*
G01*
G04 #@! TO.C,J5*
X48670000Y-27270000D02*
X51330000Y-27270000D01*
X51330000Y-24670000D02*
X51330000Y-26000000D01*
X51330000Y-27270000D02*
X51330000Y-34950000D01*
X48670000Y-34950000D02*
X51330000Y-34950000D01*
X50000000Y-24670000D02*
X51330000Y-24670000D01*
X48670000Y-27270000D02*
X48670000Y-34950000D01*
G04 #@! TO.C,J6*
X14670000Y-56670000D02*
X16000000Y-56670000D01*
X14670000Y-61870000D02*
X17330000Y-61870000D01*
X14670000Y-58000000D02*
X14670000Y-56670000D01*
X17330000Y-59270000D02*
X17330000Y-61870000D01*
X14670000Y-59270000D02*
X17330000Y-59270000D01*
X14670000Y-59270000D02*
X14670000Y-61870000D01*
G04 #@! TO.C,SW1*
X32750000Y-61000000D02*
X32750000Y-59500000D01*
X27000000Y-63500000D02*
X31500000Y-63500000D01*
X25750000Y-59500000D02*
X25750000Y-61000000D01*
X31500000Y-57000000D02*
X27000000Y-57000000D01*
G04 #@! TO.C,J1*
X13330000Y-9270000D02*
X13330000Y-55050000D01*
X13330000Y-6670000D02*
X13330000Y-8000000D01*
X10670000Y-55050000D02*
X13330000Y-55050000D01*
X12000000Y-6670000D02*
X13330000Y-6670000D01*
X10670000Y-9270000D02*
X10670000Y-55050000D01*
X10670000Y-9270000D02*
X13330000Y-9270000D01*
G04 #@! TO.C,J2*
X7270000Y-670000D02*
X20030000Y-670000D01*
X4670000Y-670000D02*
X6000000Y-670000D01*
X7270000Y-3330000D02*
X7270000Y-670000D01*
X4670000Y-2000000D02*
X4670000Y-670000D01*
X20030000Y-3330000D02*
X20030000Y-670000D01*
X7270000Y-3330000D02*
X20030000Y-3330000D01*
G04 #@! TO.C,C1*
X47149000Y-47812000D02*
X47149000Y-46040000D01*
X47229000Y-47856000D02*
X47229000Y-46040000D01*
X46349000Y-47182000D02*
X46349000Y-42818000D01*
X48750000Y-48230000D02*
X48750000Y-41770000D01*
X47029000Y-43960000D02*
X47029000Y-42258000D01*
X47909000Y-43960000D02*
X47909000Y-41879000D01*
X47229000Y-43960000D02*
X47229000Y-42144000D01*
X46469000Y-47305000D02*
X46469000Y-46040000D01*
X48310000Y-43960000D02*
X48310000Y-41799000D01*
X45589000Y-45802000D02*
X45589000Y-44198000D01*
X48470000Y-48218000D02*
X48470000Y-46040000D01*
X47549000Y-48002000D02*
X47549000Y-46040000D01*
X47269000Y-43960000D02*
X47269000Y-42124000D01*
X47109000Y-43960000D02*
X47109000Y-42210000D01*
X46909000Y-47664000D02*
X46909000Y-46040000D01*
X46389000Y-47224000D02*
X46389000Y-42776000D01*
X46269000Y-47092000D02*
X46269000Y-42908000D01*
X47269000Y-47876000D02*
X47269000Y-46040000D01*
X46429000Y-47265000D02*
X46429000Y-42735000D01*
X47349000Y-47916000D02*
X47349000Y-46040000D01*
X48190000Y-43960000D02*
X48190000Y-41818000D01*
X46789000Y-47578000D02*
X46789000Y-46040000D01*
X47829000Y-43960000D02*
X47829000Y-41902000D01*
X47389000Y-43960000D02*
X47389000Y-42066000D01*
X46509000Y-47343000D02*
X46509000Y-46040000D01*
X47069000Y-43960000D02*
X47069000Y-42234000D01*
X48270000Y-43960000D02*
X48270000Y-41805000D01*
X45669000Y-46059000D02*
X45669000Y-43941000D01*
X48150000Y-43960000D02*
X48150000Y-41825000D01*
X48150000Y-48175000D02*
X48150000Y-46040000D01*
X47309000Y-43960000D02*
X47309000Y-42104000D01*
X47189000Y-47834000D02*
X47189000Y-46040000D01*
X46749000Y-47548000D02*
X46749000Y-46040000D01*
X47709000Y-48061000D02*
X47709000Y-46040000D01*
X47549000Y-43960000D02*
X47549000Y-41998000D01*
X45509000Y-45402000D02*
X45509000Y-44598000D01*
X47069000Y-47766000D02*
X47069000Y-46040000D01*
X46989000Y-43960000D02*
X46989000Y-42284000D01*
X47149000Y-43960000D02*
X47149000Y-42188000D01*
X48590000Y-48227000D02*
X48590000Y-41773000D01*
X47749000Y-43960000D02*
X47749000Y-41926000D01*
X46229000Y-47044000D02*
X46229000Y-42956000D01*
X47949000Y-43960000D02*
X47949000Y-41869000D01*
X46869000Y-47636000D02*
X46869000Y-46040000D01*
X47989000Y-43960000D02*
X47989000Y-41859000D01*
X48470000Y-43960000D02*
X48470000Y-41782000D01*
X48029000Y-43960000D02*
X48029000Y-41850000D01*
X48230000Y-48189000D02*
X48230000Y-46040000D01*
X48510000Y-43960000D02*
X48510000Y-41778000D01*
X47989000Y-48141000D02*
X47989000Y-46040000D01*
X46949000Y-47690000D02*
X46949000Y-46040000D01*
X48310000Y-48201000D02*
X48310000Y-46040000D01*
X47949000Y-48131000D02*
X47949000Y-46040000D01*
X46549000Y-47380000D02*
X46549000Y-46040000D01*
X46509000Y-43960000D02*
X46509000Y-42657000D01*
X45789000Y-46350000D02*
X45789000Y-43650000D01*
X46589000Y-43960000D02*
X46589000Y-42584000D01*
X45549000Y-45633000D02*
X45549000Y-44367000D01*
X48390000Y-43960000D02*
X48390000Y-41789000D01*
X45989000Y-46714000D02*
X45989000Y-43286000D01*
X47469000Y-47970000D02*
X47469000Y-46040000D01*
X48350000Y-43960000D02*
X48350000Y-41794000D01*
X47749000Y-48074000D02*
X47749000Y-46040000D01*
X47429000Y-43960000D02*
X47429000Y-42048000D01*
X47189000Y-43960000D02*
X47189000Y-42166000D01*
X48110000Y-43960000D02*
X48110000Y-41833000D01*
X48510000Y-48222000D02*
X48510000Y-46040000D01*
X46949000Y-43960000D02*
X46949000Y-42310000D01*
X46669000Y-43960000D02*
X46669000Y-42516000D01*
X48390000Y-48211000D02*
X48390000Y-46040000D01*
X47469000Y-43960000D02*
X47469000Y-42030000D01*
X48029000Y-48150000D02*
X48029000Y-46040000D01*
X47589000Y-43960000D02*
X47589000Y-41982000D01*
X47669000Y-43960000D02*
X47669000Y-41953000D01*
X45829000Y-46432000D02*
X45829000Y-43568000D01*
X46789000Y-43960000D02*
X46789000Y-42422000D01*
X47909000Y-48121000D02*
X47909000Y-46040000D01*
X45909000Y-46581000D02*
X45909000Y-43419000D01*
X48070000Y-48159000D02*
X48070000Y-46040000D01*
X47869000Y-43960000D02*
X47869000Y-41890000D01*
X45709000Y-46165000D02*
X45709000Y-43835000D01*
X46749000Y-43960000D02*
X46749000Y-42452000D01*
X47789000Y-43960000D02*
X47789000Y-41914000D01*
X46629000Y-43960000D02*
X46629000Y-42550000D01*
X47629000Y-48033000D02*
X47629000Y-46040000D01*
X47669000Y-48047000D02*
X47669000Y-46040000D01*
X47509000Y-47986000D02*
X47509000Y-46040000D01*
X45629000Y-45940000D02*
X45629000Y-44060000D01*
X48230000Y-43960000D02*
X48230000Y-41811000D01*
X47309000Y-47896000D02*
X47309000Y-46040000D01*
X47029000Y-47742000D02*
X47029000Y-46040000D01*
X47789000Y-48086000D02*
X47789000Y-46040000D01*
X48670000Y-48230000D02*
X48670000Y-41770000D01*
X47429000Y-47952000D02*
X47429000Y-46040000D01*
X46469000Y-43960000D02*
X46469000Y-42695000D01*
X48710000Y-48230000D02*
X48710000Y-41770000D01*
X48630000Y-48228000D02*
X48630000Y-41772000D01*
X48070000Y-43960000D02*
X48070000Y-41841000D01*
X48430000Y-48215000D02*
X48430000Y-46040000D01*
X46869000Y-43960000D02*
X46869000Y-42364000D01*
X46189000Y-46995000D02*
X46189000Y-43005000D01*
X48350000Y-48206000D02*
X48350000Y-46040000D01*
X46309000Y-47137000D02*
X46309000Y-42863000D01*
X47389000Y-47934000D02*
X47389000Y-46040000D01*
X45749000Y-46262000D02*
X45749000Y-43738000D01*
X46109000Y-46890000D02*
X46109000Y-43110000D01*
X46829000Y-43960000D02*
X46829000Y-42393000D01*
X47709000Y-43960000D02*
X47709000Y-41939000D01*
X46989000Y-47716000D02*
X46989000Y-46040000D01*
X47509000Y-43960000D02*
X47509000Y-42014000D01*
X47829000Y-48098000D02*
X47829000Y-46040000D01*
X48430000Y-43960000D02*
X48430000Y-41785000D01*
X46709000Y-47516000D02*
X46709000Y-46040000D01*
X46029000Y-46776000D02*
X46029000Y-43224000D01*
X48110000Y-48167000D02*
X48110000Y-46040000D01*
X48270000Y-48195000D02*
X48270000Y-46040000D01*
X52250241Y-46839000D02*
X51620241Y-46839000D01*
X46589000Y-47416000D02*
X46589000Y-46040000D01*
X46829000Y-47607000D02*
X46829000Y-46040000D01*
X46069000Y-46834000D02*
X46069000Y-43166000D01*
X45949000Y-46650000D02*
X45949000Y-43350000D01*
X46629000Y-47450000D02*
X46629000Y-46040000D01*
X46669000Y-47484000D02*
X46669000Y-46040000D01*
X46909000Y-43960000D02*
X46909000Y-42336000D01*
X45869000Y-46509000D02*
X45869000Y-43491000D01*
X48190000Y-48182000D02*
X48190000Y-46040000D01*
X46549000Y-43960000D02*
X46549000Y-42620000D01*
X47589000Y-48018000D02*
X47589000Y-46040000D01*
X47349000Y-43960000D02*
X47349000Y-42084000D01*
X47109000Y-47790000D02*
X47109000Y-46040000D01*
X47869000Y-48110000D02*
X47869000Y-46040000D01*
X46709000Y-43960000D02*
X46709000Y-42484000D01*
X47629000Y-43960000D02*
X47629000Y-41967000D01*
X46149000Y-46944000D02*
X46149000Y-43056000D01*
X48550000Y-48224000D02*
X48550000Y-41776000D01*
X51935241Y-47154000D02*
X51935241Y-46524000D01*
X52020000Y-45000000D02*
G75*
G03*
X52020000Y-45000000I-3270000J0D01*
G01*
G04 #@! TD*
D12*
X30000000Y-56000000D03*
X50000000Y-8000000D03*
X50000000Y-10540000D03*
X50000000Y-13080000D03*
X50000000Y-15620000D03*
X50000000Y-18160000D03*
X58000000Y-4000000D03*
X43000000Y-42000000D03*
X40500000Y-42000000D03*
X58000000Y-60000000D03*
X34860000Y-8000000D03*
X34860000Y-10540000D03*
X34860000Y-13080000D03*
X34860000Y-15620000D03*
X34860000Y-18160000D03*
X34860000Y-20700000D03*
X34860000Y-23240000D03*
X34860000Y-25780000D03*
X34860000Y-28320000D03*
X34860000Y-30860000D03*
X34860000Y-33400000D03*
X34860000Y-35940000D03*
X34860000Y-38480000D03*
X34860000Y-41020000D03*
X34860000Y-43560000D03*
X34860000Y-46100000D03*
X34860000Y-48640000D03*
X34860000Y-51180000D03*
X34860000Y-53720000D03*
X43000000Y-58000000D03*
X50620000Y-58000000D03*
X34000000Y-58000000D03*
X36540000Y-58000000D03*
X4000000Y-4000000D03*
X50000000Y-26000000D03*
X50000000Y-28540000D03*
X50000000Y-31080000D03*
X50000000Y-33620000D03*
X16000000Y-58000000D03*
X16000000Y-60540000D03*
X4000000Y-60000000D03*
X26000000Y-58000000D03*
X32500000Y-58000000D03*
X32500000Y-62500000D03*
X26000000Y-62500000D03*
X12000000Y-8000000D03*
X12000000Y-10540000D03*
X12000000Y-13080000D03*
X12000000Y-15620000D03*
X12000000Y-18160000D03*
X12000000Y-20700000D03*
X12000000Y-23240000D03*
X12000000Y-25780000D03*
X12000000Y-28320000D03*
X12000000Y-30860000D03*
X12000000Y-33400000D03*
X12000000Y-35940000D03*
X12000000Y-38480000D03*
X12000000Y-41020000D03*
X12000000Y-43560000D03*
X12000000Y-46100000D03*
X12000000Y-48640000D03*
X12000000Y-51180000D03*
X12000000Y-53720000D03*
X6000000Y-2000000D03*
X8540000Y-2000000D03*
X11080000Y-2000000D03*
X13620000Y-2000000D03*
X16160000Y-2000000D03*
X18700000Y-2000000D03*
X50000000Y-45000000D03*
X47500000Y-45000000D03*
M02*
