%TF.GenerationSoftware,KiCad,Pcbnew,10.0.6-10.0.6~ubuntu22.04.1*%
%TF.CreationDate,2026-09-29T13:37:09+08:00*%
%TF.ProjectId,shield,73686965-6c64-42e6-9b69-6361645f7063,rev?*%
%TF.SameCoordinates,Original*%
%TF.FileFunction,Legend,Top*%
%TF.FilePolarity,Positive*%
%FSLAX46Y46*%
G04 Gerber Fmt 4.6, Leading zero omitted, Abs format (unit mm)*
G04 Created by KiCad (PCBNEW 10.0.6-10.0.6~ubuntu22.04.1) date 2026-09-29 13:37:09*
%MOMM*%
%LPD*%
G01*
G04 APERTURE LIST*
%ADD10C,0.150000*%
%ADD11C,0.120000*%
G04 APERTURE END LIST*
D10*
X-10264282Y-13408557D02*
X-10264282Y-12508557D01*
X-9835711Y-13408557D02*
X-9835711Y-12508557D01*
X-9835711Y-12508557D02*
X-9321425Y-13408557D01*
X-9321425Y-13408557D02*
X-9321425Y-12508557D01*
X-8892854Y-13408557D02*
X-8892854Y-12508557D01*
X-8892854Y-12508557D02*
X-8592854Y-13151414D01*
X-8592854Y-13151414D02*
X-8292854Y-12508557D01*
X-8292854Y-12508557D02*
X-8292854Y-13408557D01*
X-7864283Y-13408557D02*
X-7864283Y-12508557D01*
X-7864283Y-12508557D02*
X-7521426Y-12508557D01*
X-7521426Y-12508557D02*
X-7435711Y-12551414D01*
X-7435711Y-12551414D02*
X-7392854Y-12594271D01*
X-7392854Y-12594271D02*
X-7349997Y-12679985D01*
X-7349997Y-12679985D02*
X-7349997Y-12808557D01*
X-7349997Y-12808557D02*
X-7392854Y-12894271D01*
X-7392854Y-12894271D02*
X-7435711Y-12937128D01*
X-7435711Y-12937128D02*
X-7521426Y-12979985D01*
X-7521426Y-12979985D02*
X-7864283Y-12979985D01*
X-6578569Y-12808557D02*
X-6578569Y-13408557D01*
X-6792854Y-12465700D02*
X-7007140Y-13108557D01*
X-7007140Y-13108557D02*
X-6449997Y-13108557D01*
X-5721426Y-12808557D02*
X-5721426Y-13408557D01*
X-5935711Y-12465700D02*
X-6149997Y-13108557D01*
X-6149997Y-13108557D02*
X-5592854Y-13108557D01*
X-4778568Y-13408557D02*
X-5292854Y-13408557D01*
X-5035711Y-13408557D02*
X-5035711Y-12508557D01*
X-5035711Y-12508557D02*
X-5121425Y-12637128D01*
X-5121425Y-12637128D02*
X-5207140Y-12722842D01*
X-5207140Y-12722842D02*
X-5292854Y-12765700D01*
X-4135711Y-13751414D02*
X-4178568Y-13708557D01*
X-4178568Y-13708557D02*
X-4264282Y-13579985D01*
X-4264282Y-13579985D02*
X-4307140Y-13494271D01*
X-4307140Y-13494271D02*
X-4349997Y-13365700D01*
X-4349997Y-13365700D02*
X-4392854Y-13151414D01*
X-4392854Y-13151414D02*
X-4392854Y-12979985D01*
X-4392854Y-12979985D02*
X-4349997Y-12765700D01*
X-4349997Y-12765700D02*
X-4307140Y-12637128D01*
X-4307140Y-12637128D02*
X-4264282Y-12551414D01*
X-4264282Y-12551414D02*
X-4178568Y-12422842D01*
X-4178568Y-12422842D02*
X-4135711Y-12379985D01*
X-3835711Y-12594271D02*
X-3792854Y-12551414D01*
X-3792854Y-12551414D02*
X-3707140Y-12508557D01*
X-3707140Y-12508557D02*
X-3492854Y-12508557D01*
X-3492854Y-12508557D02*
X-3407140Y-12551414D01*
X-3407140Y-12551414D02*
X-3364282Y-12594271D01*
X-3364282Y-12594271D02*
X-3321425Y-12679985D01*
X-3321425Y-12679985D02*
X-3321425Y-12765700D01*
X-3321425Y-12765700D02*
X-3364282Y-12894271D01*
X-3364282Y-12894271D02*
X-3878568Y-13408557D01*
X-3878568Y-13408557D02*
X-3321425Y-13408557D01*
X-3021425Y-13408557D02*
X-2549997Y-12808557D01*
X-3021425Y-12808557D02*
X-2549997Y-13408557D01*
X-2292854Y-12508557D02*
X-1735711Y-12508557D01*
X-1735711Y-12508557D02*
X-2035711Y-12851414D01*
X-2035711Y-12851414D02*
X-1907140Y-12851414D01*
X-1907140Y-12851414D02*
X-1821426Y-12894271D01*
X-1821426Y-12894271D02*
X-1778568Y-12937128D01*
X-1778568Y-12937128D02*
X-1735711Y-13022842D01*
X-1735711Y-13022842D02*
X-1735711Y-13237128D01*
X-1735711Y-13237128D02*
X-1778568Y-13322842D01*
X-1778568Y-13322842D02*
X-1821426Y-13365700D01*
X-1821426Y-13365700D02*
X-1907140Y-13408557D01*
X-1907140Y-13408557D02*
X-2164283Y-13408557D01*
X-2164283Y-13408557D02*
X-2249997Y-13365700D01*
X-2249997Y-13365700D02*
X-2292854Y-13322842D01*
X-1435711Y-13751414D02*
X-1392854Y-13708557D01*
X-1392854Y-13708557D02*
X-1307140Y-13579985D01*
X-1307140Y-13579985D02*
X-1264283Y-13494271D01*
X-1264283Y-13494271D02*
X-1221425Y-13365700D01*
X-1221425Y-13365700D02*
X-1178568Y-13151414D01*
X-1178568Y-13151414D02*
X-1178568Y-12979985D01*
X-1178568Y-12979985D02*
X-1221425Y-12765700D01*
X-1221425Y-12765700D02*
X-1264283Y-12637128D01*
X-1264283Y-12637128D02*
X-1307140Y-12551414D01*
X-1307140Y-12551414D02*
X-1392854Y-12422842D01*
X-1392854Y-12422842D02*
X-1435711Y-12379985D01*
X-149997Y-12637128D02*
X921431Y-12637128D01*
X21431Y-13408557D02*
X921431Y-13408557D01*
X150002Y-12937128D02*
X835716Y-12937128D01*
X492859Y-12937128D02*
X492859Y-13408557D01*
X235716Y-12422842D02*
X150002Y-12894271D01*
X150002Y-12894271D02*
X-21426Y-13194271D01*
X-21426Y-13194271D02*
X-192854Y-13365700D01*
X1178573Y-12465700D02*
X1821430Y-12465700D01*
X1264287Y-12894271D02*
X1607144Y-13065700D01*
X1907144Y-12508557D02*
X1907144Y-13108557D01*
X2035716Y-13408557D02*
X2250002Y-13408557D01*
X2250002Y-12422842D02*
X2250002Y-13408557D01*
X1435716Y-12465700D02*
X1264287Y-12851414D01*
X1264287Y-12851414D02*
X1135716Y-12979985D01*
X1307144Y-12765700D02*
X1735716Y-12765700D01*
X1735716Y-12765700D02*
X1564287Y-13108557D01*
X1564287Y-13108557D02*
X1307144Y-13408557D01*
X2592858Y-13322842D02*
X2635715Y-13365700D01*
X2635715Y-13365700D02*
X2592858Y-13408557D01*
X2592858Y-13408557D02*
X2550001Y-13365700D01*
X2550001Y-13365700D02*
X2592858Y-13322842D01*
X2592858Y-13322842D02*
X2592858Y-13408557D01*
X2592858Y-12851414D02*
X2635715Y-12894271D01*
X2635715Y-12894271D02*
X2592858Y-12937128D01*
X2592858Y-12937128D02*
X2550001Y-12894271D01*
X2550001Y-12894271D02*
X2592858Y-12851414D01*
X2592858Y-12851414D02*
X2592858Y-12937128D01*
X3450001Y-13408557D02*
X3021429Y-13408557D01*
X3021429Y-13408557D02*
X3021429Y-12508557D01*
X4392857Y-12465700D02*
X3621429Y-13622842D01*
X5207143Y-13408557D02*
X4907143Y-12979985D01*
X4692857Y-13408557D02*
X4692857Y-12508557D01*
X4692857Y-12508557D02*
X5035714Y-12508557D01*
X5035714Y-12508557D02*
X5121429Y-12551414D01*
X5121429Y-12551414D02*
X5164286Y-12594271D01*
X5164286Y-12594271D02*
X5207143Y-12679985D01*
X5207143Y-12679985D02*
X5207143Y-12808557D01*
X5207143Y-12808557D02*
X5164286Y-12894271D01*
X5164286Y-12894271D02*
X5121429Y-12937128D01*
X5121429Y-12937128D02*
X5035714Y-12979985D01*
X5035714Y-12979985D02*
X4692857Y-12979985D01*
X5635714Y-13365700D02*
X5635714Y-13408557D01*
X5635714Y-13408557D02*
X5592857Y-13494271D01*
X5592857Y-13494271D02*
X5550000Y-13537128D01*
X5935714Y-12508557D02*
X6150000Y-13408557D01*
X6150000Y-13408557D02*
X6321428Y-12765700D01*
X6321428Y-12765700D02*
X6492857Y-13408557D01*
X6492857Y-13408557D02*
X6707143Y-12508557D01*
X7007142Y-13365700D02*
X7135714Y-13408557D01*
X7135714Y-13408557D02*
X7349999Y-13408557D01*
X7349999Y-13408557D02*
X7435714Y-13365700D01*
X7435714Y-13365700D02*
X7478571Y-13322842D01*
X7478571Y-13322842D02*
X7521428Y-13237128D01*
X7521428Y-13237128D02*
X7521428Y-13151414D01*
X7521428Y-13151414D02*
X7478571Y-13065700D01*
X7478571Y-13065700D02*
X7435714Y-13022842D01*
X7435714Y-13022842D02*
X7349999Y-12979985D01*
X7349999Y-12979985D02*
X7178571Y-12937128D01*
X7178571Y-12937128D02*
X7092856Y-12894271D01*
X7092856Y-12894271D02*
X7049999Y-12851414D01*
X7049999Y-12851414D02*
X7007142Y-12765700D01*
X7007142Y-12765700D02*
X7007142Y-12679985D01*
X7007142Y-12679985D02*
X7049999Y-12594271D01*
X7049999Y-12594271D02*
X7092856Y-12551414D01*
X7092856Y-12551414D02*
X7178571Y-12508557D01*
X7178571Y-12508557D02*
X7392856Y-12508557D01*
X7392856Y-12508557D02*
X7521428Y-12551414D01*
X7949999Y-13365700D02*
X7949999Y-13408557D01*
X7949999Y-13408557D02*
X7907142Y-13494271D01*
X7907142Y-13494271D02*
X7864285Y-13537128D01*
X8292856Y-13365700D02*
X8421428Y-13408557D01*
X8421428Y-13408557D02*
X8635713Y-13408557D01*
X8635713Y-13408557D02*
X8721428Y-13365700D01*
X8721428Y-13365700D02*
X8764285Y-13322842D01*
X8764285Y-13322842D02*
X8807142Y-13237128D01*
X8807142Y-13237128D02*
X8807142Y-13151414D01*
X8807142Y-13151414D02*
X8764285Y-13065700D01*
X8764285Y-13065700D02*
X8721428Y-13022842D01*
X8721428Y-13022842D02*
X8635713Y-12979985D01*
X8635713Y-12979985D02*
X8464285Y-12937128D01*
X8464285Y-12937128D02*
X8378570Y-12894271D01*
X8378570Y-12894271D02*
X8335713Y-12851414D01*
X8335713Y-12851414D02*
X8292856Y-12765700D01*
X8292856Y-12765700D02*
X8292856Y-12679985D01*
X8292856Y-12679985D02*
X8335713Y-12594271D01*
X8335713Y-12594271D02*
X8378570Y-12551414D01*
X8378570Y-12551414D02*
X8464285Y-12508557D01*
X8464285Y-12508557D02*
X8678570Y-12508557D01*
X8678570Y-12508557D02*
X8807142Y-12551414D01*
X9707142Y-13322842D02*
X9664285Y-13365700D01*
X9664285Y-13365700D02*
X9535713Y-13408557D01*
X9535713Y-13408557D02*
X9449999Y-13408557D01*
X9449999Y-13408557D02*
X9321428Y-13365700D01*
X9321428Y-13365700D02*
X9235713Y-13279985D01*
X9235713Y-13279985D02*
X9192856Y-13194271D01*
X9192856Y-13194271D02*
X9149999Y-13022842D01*
X9149999Y-13022842D02*
X9149999Y-12894271D01*
X9149999Y-12894271D02*
X9192856Y-12722842D01*
X9192856Y-12722842D02*
X9235713Y-12637128D01*
X9235713Y-12637128D02*
X9321428Y-12551414D01*
X9321428Y-12551414D02*
X9449999Y-12508557D01*
X9449999Y-12508557D02*
X9535713Y-12508557D01*
X9535713Y-12508557D02*
X9664285Y-12551414D01*
X9664285Y-12551414D02*
X9707142Y-12594271D01*
X10092856Y-13408557D02*
X10092856Y-12508557D01*
X10607142Y-13408557D02*
X10221428Y-12894271D01*
X10607142Y-12508557D02*
X10092856Y-13022842D01*
X11592856Y-12637128D02*
X12664285Y-12637128D01*
X11849999Y-13365700D02*
X12578570Y-13365700D01*
X11849999Y-12894271D02*
X11849999Y-13408557D01*
X11849999Y-12851414D02*
X11549999Y-13151414D01*
X12064285Y-12465700D02*
X11807142Y-12937128D01*
X11807142Y-12937128D02*
X12578570Y-12937128D01*
X12578570Y-12937128D02*
X12578570Y-13408557D01*
X12921427Y-12465700D02*
X13564284Y-12465700D01*
X13007141Y-12894271D02*
X13349998Y-13065700D01*
X13649998Y-12508557D02*
X13649998Y-13108557D01*
X13778570Y-13408557D02*
X13992856Y-13408557D01*
X13992856Y-12422842D02*
X13992856Y-13408557D01*
X13178570Y-12465700D02*
X13007141Y-12851414D01*
X13007141Y-12851414D02*
X12878570Y-12979985D01*
X13049998Y-12765700D02*
X13478570Y-12765700D01*
X13478570Y-12765700D02*
X13307141Y-13108557D01*
X13307141Y-13108557D02*
X13049998Y-13408557D01*
X14335712Y-13322842D02*
X14378569Y-13365700D01*
X14378569Y-13365700D02*
X14335712Y-13408557D01*
X14335712Y-13408557D02*
X14292855Y-13365700D01*
X14292855Y-13365700D02*
X14335712Y-13322842D01*
X14335712Y-13322842D02*
X14335712Y-13408557D01*
X14335712Y-12851414D02*
X14378569Y-12894271D01*
X14378569Y-12894271D02*
X14335712Y-12937128D01*
X14335712Y-12937128D02*
X14292855Y-12894271D01*
X14292855Y-12894271D02*
X14335712Y-12851414D01*
X14335712Y-12851414D02*
X14335712Y-12937128D01*
X15235712Y-12551414D02*
X15149998Y-12508557D01*
X15149998Y-12508557D02*
X15021426Y-12508557D01*
X15021426Y-12508557D02*
X14892855Y-12551414D01*
X14892855Y-12551414D02*
X14807140Y-12637128D01*
X14807140Y-12637128D02*
X14764283Y-12722842D01*
X14764283Y-12722842D02*
X14721426Y-12894271D01*
X14721426Y-12894271D02*
X14721426Y-13022842D01*
X14721426Y-13022842D02*
X14764283Y-13194271D01*
X14764283Y-13194271D02*
X14807140Y-13279985D01*
X14807140Y-13279985D02*
X14892855Y-13365700D01*
X14892855Y-13365700D02*
X15021426Y-13408557D01*
X15021426Y-13408557D02*
X15107140Y-13408557D01*
X15107140Y-13408557D02*
X15235712Y-13365700D01*
X15235712Y-13365700D02*
X15278569Y-13322842D01*
X15278569Y-13322842D02*
X15278569Y-13022842D01*
X15278569Y-13022842D02*
X15107140Y-13022842D01*
X15664283Y-13408557D02*
X15664283Y-12508557D01*
X15664283Y-12508557D02*
X16178569Y-13408557D01*
X16178569Y-13408557D02*
X16178569Y-12508557D01*
X16607140Y-13408557D02*
X16607140Y-12508557D01*
X16607140Y-12508557D02*
X16821426Y-12508557D01*
X16821426Y-12508557D02*
X16949997Y-12551414D01*
X16949997Y-12551414D02*
X17035712Y-12637128D01*
X17035712Y-12637128D02*
X17078569Y-12722842D01*
X17078569Y-12722842D02*
X17121426Y-12894271D01*
X17121426Y-12894271D02*
X17121426Y-13022842D01*
X17121426Y-13022842D02*
X17078569Y-13194271D01*
X17078569Y-13194271D02*
X17035712Y-13279985D01*
X17035712Y-13279985D02*
X16949997Y-13365700D01*
X16949997Y-13365700D02*
X16821426Y-13408557D01*
X16821426Y-13408557D02*
X16607140Y-13408557D01*
X17549997Y-13365700D02*
X17549997Y-13408557D01*
X17549997Y-13408557D02*
X17507140Y-13494271D01*
X17507140Y-13494271D02*
X17464283Y-13537128D01*
X17807140Y-12508557D02*
X18107140Y-13408557D01*
X18107140Y-13408557D02*
X18407140Y-12508557D01*
X18707140Y-13408557D02*
X18707140Y-12508557D01*
X18707140Y-12508557D02*
X18921426Y-12508557D01*
X18921426Y-12508557D02*
X19049997Y-12551414D01*
X19049997Y-12551414D02*
X19135712Y-12637128D01*
X19135712Y-12637128D02*
X19178569Y-12722842D01*
X19178569Y-12722842D02*
X19221426Y-12894271D01*
X19221426Y-12894271D02*
X19221426Y-13022842D01*
X19221426Y-13022842D02*
X19178569Y-13194271D01*
X19178569Y-13194271D02*
X19135712Y-13279985D01*
X19135712Y-13279985D02*
X19049997Y-13365700D01*
X19049997Y-13365700D02*
X18921426Y-13408557D01*
X18921426Y-13408557D02*
X18707140Y-13408557D01*
X19607140Y-13408557D02*
X19607140Y-12508557D01*
X19607140Y-12508557D02*
X19821426Y-12508557D01*
X19821426Y-12508557D02*
X19949997Y-12551414D01*
X19949997Y-12551414D02*
X20035712Y-12637128D01*
X20035712Y-12637128D02*
X20078569Y-12722842D01*
X20078569Y-12722842D02*
X20121426Y-12894271D01*
X20121426Y-12894271D02*
X20121426Y-13022842D01*
X20121426Y-13022842D02*
X20078569Y-13194271D01*
X20078569Y-13194271D02*
X20035712Y-13279985D01*
X20035712Y-13279985D02*
X19949997Y-13365700D01*
X19949997Y-13365700D02*
X19821426Y-13408557D01*
X19821426Y-13408557D02*
X19607140Y-13408557D01*
X20549997Y-13365700D02*
X20549997Y-13408557D01*
X20549997Y-13408557D02*
X20507140Y-13494271D01*
X20507140Y-13494271D02*
X20464283Y-13537128D01*
X20892854Y-13365700D02*
X21021426Y-13408557D01*
X21021426Y-13408557D02*
X21235711Y-13408557D01*
X21235711Y-13408557D02*
X21321426Y-13365700D01*
X21321426Y-13365700D02*
X21364283Y-13322842D01*
X21364283Y-13322842D02*
X21407140Y-13237128D01*
X21407140Y-13237128D02*
X21407140Y-13151414D01*
X21407140Y-13151414D02*
X21364283Y-13065700D01*
X21364283Y-13065700D02*
X21321426Y-13022842D01*
X21321426Y-13022842D02*
X21235711Y-12979985D01*
X21235711Y-12979985D02*
X21064283Y-12937128D01*
X21064283Y-12937128D02*
X20978568Y-12894271D01*
X20978568Y-12894271D02*
X20935711Y-12851414D01*
X20935711Y-12851414D02*
X20892854Y-12765700D01*
X20892854Y-12765700D02*
X20892854Y-12679985D01*
X20892854Y-12679985D02*
X20935711Y-12594271D01*
X20935711Y-12594271D02*
X20978568Y-12551414D01*
X20978568Y-12551414D02*
X21064283Y-12508557D01*
X21064283Y-12508557D02*
X21278568Y-12508557D01*
X21278568Y-12508557D02*
X21407140Y-12551414D01*
X21792854Y-13408557D02*
X21792854Y-12508557D01*
X21792854Y-12508557D02*
X22007140Y-12508557D01*
X22007140Y-12508557D02*
X22135711Y-12551414D01*
X22135711Y-12551414D02*
X22221426Y-12637128D01*
X22221426Y-12637128D02*
X22264283Y-12722842D01*
X22264283Y-12722842D02*
X22307140Y-12894271D01*
X22307140Y-12894271D02*
X22307140Y-13022842D01*
X22307140Y-13022842D02*
X22264283Y-13194271D01*
X22264283Y-13194271D02*
X22221426Y-13279985D01*
X22221426Y-13279985D02*
X22135711Y-13365700D01*
X22135711Y-13365700D02*
X22007140Y-13408557D01*
X22007140Y-13408557D02*
X21792854Y-13408557D01*
X9728574Y-46508557D02*
X9728574Y-47237128D01*
X9728574Y-47237128D02*
X9771431Y-47322842D01*
X9771431Y-47322842D02*
X9814289Y-47365700D01*
X9814289Y-47365700D02*
X9900003Y-47408557D01*
X9900003Y-47408557D02*
X10071431Y-47408557D01*
X10071431Y-47408557D02*
X10157146Y-47365700D01*
X10157146Y-47365700D02*
X10200003Y-47322842D01*
X10200003Y-47322842D02*
X10242860Y-47237128D01*
X10242860Y-47237128D02*
X10242860Y-46508557D01*
X10628574Y-47365700D02*
X10757146Y-47408557D01*
X10757146Y-47408557D02*
X10971431Y-47408557D01*
X10971431Y-47408557D02*
X11057146Y-47365700D01*
X11057146Y-47365700D02*
X11100003Y-47322842D01*
X11100003Y-47322842D02*
X11142860Y-47237128D01*
X11142860Y-47237128D02*
X11142860Y-47151414D01*
X11142860Y-47151414D02*
X11100003Y-47065700D01*
X11100003Y-47065700D02*
X11057146Y-47022842D01*
X11057146Y-47022842D02*
X10971431Y-46979985D01*
X10971431Y-46979985D02*
X10800003Y-46937128D01*
X10800003Y-46937128D02*
X10714288Y-46894271D01*
X10714288Y-46894271D02*
X10671431Y-46851414D01*
X10671431Y-46851414D02*
X10628574Y-46765700D01*
X10628574Y-46765700D02*
X10628574Y-46679985D01*
X10628574Y-46679985D02*
X10671431Y-46594271D01*
X10671431Y-46594271D02*
X10714288Y-46551414D01*
X10714288Y-46551414D02*
X10800003Y-46508557D01*
X10800003Y-46508557D02*
X11014288Y-46508557D01*
X11014288Y-46508557D02*
X11142860Y-46551414D01*
X11828574Y-46937128D02*
X11957146Y-46979985D01*
X11957146Y-46979985D02*
X12000003Y-47022842D01*
X12000003Y-47022842D02*
X12042860Y-47108557D01*
X12042860Y-47108557D02*
X12042860Y-47237128D01*
X12042860Y-47237128D02*
X12000003Y-47322842D01*
X12000003Y-47322842D02*
X11957146Y-47365700D01*
X11957146Y-47365700D02*
X11871431Y-47408557D01*
X11871431Y-47408557D02*
X11528574Y-47408557D01*
X11528574Y-47408557D02*
X11528574Y-46508557D01*
X11528574Y-46508557D02*
X11828574Y-46508557D01*
X11828574Y-46508557D02*
X11914289Y-46551414D01*
X11914289Y-46551414D02*
X11957146Y-46594271D01*
X11957146Y-46594271D02*
X12000003Y-46679985D01*
X12000003Y-46679985D02*
X12000003Y-46765700D01*
X12000003Y-46765700D02*
X11957146Y-46851414D01*
X11957146Y-46851414D02*
X11914289Y-46894271D01*
X11914289Y-46894271D02*
X11828574Y-46937128D01*
X11828574Y-46937128D02*
X11528574Y-46937128D01*
X12985717Y-46508557D02*
X12985717Y-47408557D01*
X12985717Y-47322842D02*
X14100003Y-47322842D01*
X12985717Y-46508557D02*
X14100003Y-46508557D01*
X14100003Y-46508557D02*
X14100003Y-47408557D01*
X14314288Y-47194271D02*
X14914288Y-47194271D01*
X14314288Y-46551414D02*
X14871431Y-46551414D01*
X14357145Y-47022842D02*
X14828574Y-47022842D01*
X14357145Y-46851414D02*
X14828574Y-46851414D01*
X14357145Y-46679985D02*
X14357145Y-47022842D01*
X14614288Y-47022842D02*
X14614288Y-47408557D01*
X14614288Y-46379985D02*
X14614288Y-46679985D01*
X15000002Y-47022842D02*
X15428574Y-47022842D01*
X15042859Y-46722842D02*
X15428574Y-46722842D01*
X15257145Y-47408557D02*
X15428574Y-47408557D01*
X14357145Y-46679985D02*
X14828574Y-46679985D01*
X14828574Y-46679985D02*
X14828574Y-47022842D01*
X15042859Y-46465700D02*
X15000002Y-47022842D01*
X15000002Y-47022842D02*
X14957145Y-47279985D01*
X15042859Y-46465700D02*
X15428574Y-46465700D01*
X15428574Y-46465700D02*
X15428574Y-47408557D01*
X15642859Y-46465700D02*
X16757145Y-46465700D01*
X16157145Y-46722842D02*
X16671430Y-46979985D01*
X16157145Y-46465700D02*
X16157145Y-47408557D01*
X16971430Y-46637128D02*
X17314287Y-46637128D01*
X17014287Y-47408557D02*
X17142858Y-47408557D01*
X17185716Y-46379985D02*
X17185716Y-47408557D01*
X17314287Y-46894271D02*
X16971430Y-46979985D01*
X17357144Y-46679985D02*
X18085716Y-46679985D01*
X17400001Y-47365700D02*
X18042858Y-47365700D01*
X17400001Y-47065700D02*
X17614287Y-47065700D01*
X17400001Y-46851414D02*
X17400001Y-47408557D01*
X17614287Y-46808557D02*
X17400001Y-46851414D01*
X17828573Y-47065700D02*
X18042858Y-47065700D01*
X18000001Y-46422842D02*
X17614287Y-46465700D01*
X17442858Y-46508557D02*
X17742858Y-46465700D01*
X17742858Y-46465700D02*
X17742858Y-47322842D01*
X17828573Y-46851414D02*
X18042858Y-46851414D01*
X18042858Y-46851414D02*
X18042858Y-47408557D01*
X18300001Y-46637128D02*
X18642858Y-46637128D01*
X18642858Y-46937128D02*
X18300001Y-47022842D01*
X18685715Y-46808557D02*
X19414287Y-46808557D01*
X18685715Y-46979985D02*
X19414287Y-46979985D01*
X18728572Y-46508557D02*
X19371429Y-46508557D01*
X18857144Y-46594271D02*
X18900001Y-46722842D01*
X19071429Y-46379985D02*
X19071429Y-46508557D01*
X19200001Y-46594271D02*
X19200001Y-46722842D01*
X18514287Y-46379985D02*
X18514287Y-47408557D01*
X18514287Y-47408557D02*
X18342858Y-47408557D01*
X18942858Y-46808557D02*
X18814287Y-47194271D01*
X18814287Y-47194271D02*
X19371429Y-47408557D01*
X19242858Y-46979985D02*
X19157144Y-47194271D01*
X19157144Y-47194271D02*
X19071429Y-47279985D01*
X19071429Y-47279985D02*
X18685715Y-47408557D01*
X20442857Y-47408557D02*
X20442857Y-46508557D01*
X20442857Y-46508557D02*
X20657143Y-46508557D01*
X20657143Y-46508557D02*
X20785714Y-46551414D01*
X20785714Y-46551414D02*
X20871429Y-46637128D01*
X20871429Y-46637128D02*
X20914286Y-46722842D01*
X20914286Y-46722842D02*
X20957143Y-46894271D01*
X20957143Y-46894271D02*
X20957143Y-47022842D01*
X20957143Y-47022842D02*
X20914286Y-47194271D01*
X20914286Y-47194271D02*
X20871429Y-47279985D01*
X20871429Y-47279985D02*
X20785714Y-47365700D01*
X20785714Y-47365700D02*
X20657143Y-47408557D01*
X20657143Y-47408557D02*
X20442857Y-47408557D01*
X21685714Y-47365700D02*
X21600000Y-47408557D01*
X21600000Y-47408557D02*
X21428572Y-47408557D01*
X21428572Y-47408557D02*
X21342857Y-47365700D01*
X21342857Y-47365700D02*
X21300000Y-47279985D01*
X21300000Y-47279985D02*
X21300000Y-46937128D01*
X21300000Y-46937128D02*
X21342857Y-46851414D01*
X21342857Y-46851414D02*
X21428572Y-46808557D01*
X21428572Y-46808557D02*
X21600000Y-46808557D01*
X21600000Y-46808557D02*
X21685714Y-46851414D01*
X21685714Y-46851414D02*
X21728572Y-46937128D01*
X21728572Y-46937128D02*
X21728572Y-47022842D01*
X21728572Y-47022842D02*
X21300000Y-47108557D01*
X22028572Y-46808557D02*
X22242858Y-47408557D01*
X22242858Y-47408557D02*
X22457143Y-46808557D01*
X22800000Y-47408557D02*
X22800000Y-46508557D01*
X23314286Y-47408557D02*
X22928572Y-46894271D01*
X23314286Y-46508557D02*
X22800000Y-47022842D01*
X23700000Y-47408557D02*
X23700000Y-46808557D01*
X23700000Y-46508557D02*
X23657143Y-46551414D01*
X23657143Y-46551414D02*
X23700000Y-46594271D01*
X23700000Y-46594271D02*
X23742857Y-46551414D01*
X23742857Y-46551414D02*
X23700000Y-46508557D01*
X23700000Y-46508557D02*
X23700000Y-46594271D01*
X24000000Y-46808557D02*
X24342857Y-46808557D01*
X24128571Y-46508557D02*
X24128571Y-47279985D01*
X24128571Y-47279985D02*
X24171428Y-47365700D01*
X24171428Y-47365700D02*
X24257143Y-47408557D01*
X24257143Y-47408557D02*
X24342857Y-47408557D01*
X25157143Y-47322842D02*
X25114286Y-47365700D01*
X25114286Y-47365700D02*
X24985714Y-47408557D01*
X24985714Y-47408557D02*
X24900000Y-47408557D01*
X24900000Y-47408557D02*
X24771429Y-47365700D01*
X24771429Y-47365700D02*
X24685714Y-47279985D01*
X24685714Y-47279985D02*
X24642857Y-47194271D01*
X24642857Y-47194271D02*
X24600000Y-47022842D01*
X24600000Y-47022842D02*
X24600000Y-46894271D01*
X24600000Y-46894271D02*
X24642857Y-46722842D01*
X24642857Y-46722842D02*
X24685714Y-46637128D01*
X24685714Y-46637128D02*
X24771429Y-46551414D01*
X24771429Y-46551414D02*
X24900000Y-46508557D01*
X24900000Y-46508557D02*
X24985714Y-46508557D01*
X24985714Y-46508557D02*
X25114286Y-46551414D01*
X25114286Y-46551414D02*
X25157143Y-46594271D01*
X25542857Y-47065700D02*
X26228572Y-47065700D01*
X27128572Y-47408557D02*
X26614286Y-47408557D01*
X26871429Y-47408557D02*
X26871429Y-46508557D01*
X26871429Y-46508557D02*
X26785715Y-46637128D01*
X26785715Y-46637128D02*
X26700000Y-46722842D01*
X26700000Y-46722842D02*
X26614286Y-46765700D01*
X27985715Y-46379985D02*
X27942858Y-46508557D01*
X27942858Y-46508557D02*
X27900001Y-46679985D01*
X27900001Y-46679985D02*
X27900001Y-47108557D01*
X27900001Y-47108557D02*
X27942858Y-47279985D01*
X27942858Y-47279985D02*
X27985715Y-47365700D01*
X28457143Y-46508557D02*
X29442858Y-46508557D01*
X28542858Y-47408557D02*
X29100000Y-47408557D01*
X28671429Y-46937128D02*
X29442858Y-46937128D01*
X28928572Y-46379985D02*
X28928572Y-46508557D01*
X28971429Y-47194271D02*
X28628572Y-47237128D01*
X28457143Y-46508557D02*
X28457143Y-47065700D01*
X28457143Y-47065700D02*
X28371429Y-47365700D01*
X29271429Y-46594271D02*
X28671429Y-46722842D01*
X28671429Y-46722842D02*
X28671429Y-47237128D01*
X29100000Y-46637128D02*
X29100000Y-46937128D01*
X29100000Y-46937128D02*
X29228572Y-47322842D01*
X29228572Y-47322842D02*
X29400000Y-47408557D01*
X29400000Y-47408557D02*
X29442858Y-47237128D01*
X29657143Y-46637128D02*
X30000000Y-46637128D01*
X29700000Y-47408557D02*
X29828571Y-47408557D01*
X29871429Y-46379985D02*
X29871429Y-47408557D01*
X30000000Y-46894271D02*
X29657143Y-46979985D01*
X30042857Y-47108557D02*
X30300000Y-47108557D01*
X30085714Y-46594271D02*
X30300000Y-46594271D01*
X30085714Y-46851414D02*
X30300000Y-46851414D01*
X30514286Y-47108557D02*
X30771429Y-47108557D01*
X30514286Y-46594271D02*
X30771429Y-46594271D01*
X30514286Y-46379985D02*
X30514286Y-47408557D01*
X30514286Y-46851414D02*
X30728571Y-46851414D01*
X30300000Y-46379985D02*
X30300000Y-46979985D01*
X30300000Y-46979985D02*
X30257143Y-47237128D01*
X30257143Y-47237128D02*
X30085714Y-47408557D01*
X30985714Y-46851414D02*
X32100000Y-46851414D01*
X31114285Y-46508557D02*
X31971428Y-46508557D01*
X31714285Y-46851414D02*
X31714285Y-47408557D01*
X31714285Y-47408557D02*
X32057142Y-47408557D01*
X32057142Y-47408557D02*
X32100000Y-47194271D01*
X31371428Y-46851414D02*
X31328571Y-47065700D01*
X31328571Y-47065700D02*
X31242857Y-47237128D01*
X31242857Y-47237128D02*
X31157142Y-47322842D01*
X31157142Y-47322842D02*
X30985714Y-47408557D01*
X32528571Y-46594271D02*
X32528571Y-47408557D01*
X32657142Y-46979985D02*
X33428571Y-46979985D01*
X32785713Y-46679985D02*
X33385713Y-46679985D01*
X32828571Y-46465700D02*
X32699999Y-46808557D01*
X33042856Y-46379985D02*
X33042856Y-47408557D01*
X32614285Y-46422842D02*
X32442856Y-46722842D01*
X32442856Y-46722842D02*
X32314285Y-46851414D01*
X33728570Y-46894271D02*
X34585713Y-46894271D01*
X33771427Y-46679985D02*
X33771427Y-47365700D01*
X33771427Y-47408557D02*
X34671427Y-47408557D01*
X34757142Y-47151414D02*
X34714284Y-47365700D01*
X33642856Y-46465700D02*
X34585713Y-46465700D01*
X34585713Y-46465700D02*
X34585713Y-46937128D01*
X35099998Y-46422842D02*
X35271427Y-46594271D01*
X35357141Y-47408557D02*
X36085713Y-47408557D01*
X35399998Y-47237128D02*
X35185713Y-47365700D01*
X35699998Y-46808557D02*
X35999998Y-46808557D01*
X35699998Y-46379985D02*
X35699998Y-47408557D01*
X34971427Y-46808557D02*
X35185713Y-46808557D01*
X35185713Y-46808557D02*
X35185713Y-47365700D01*
X36514284Y-46594271D02*
X36514284Y-47408557D01*
X36599998Y-47365700D02*
X37414284Y-47365700D01*
X36642855Y-46637128D02*
X37371426Y-46637128D01*
X36814284Y-46765700D02*
X36857141Y-47237128D01*
X37028569Y-46379985D02*
X37028569Y-46637128D01*
X37242855Y-46765700D02*
X37071426Y-47365700D01*
X36599998Y-46422842D02*
X36471426Y-46679985D01*
X36471426Y-46679985D02*
X36299998Y-46851414D01*
X37757140Y-46379985D02*
X37842855Y-46508557D01*
X37842855Y-46508557D02*
X37885712Y-46679985D01*
X37885712Y-46679985D02*
X37885712Y-47108557D01*
X37885712Y-47108557D02*
X37842855Y-47279985D01*
X37842855Y-47279985D02*
X37757140Y-47365700D01*
X15492857Y-66851414D02*
X15407143Y-66808557D01*
X15407143Y-66808557D02*
X15278571Y-66808557D01*
X15278571Y-66808557D02*
X15150000Y-66851414D01*
X15150000Y-66851414D02*
X15064285Y-66937128D01*
X15064285Y-66937128D02*
X15021428Y-67022842D01*
X15021428Y-67022842D02*
X14978571Y-67194271D01*
X14978571Y-67194271D02*
X14978571Y-67322842D01*
X14978571Y-67322842D02*
X15021428Y-67494271D01*
X15021428Y-67494271D02*
X15064285Y-67579985D01*
X15064285Y-67579985D02*
X15150000Y-67665700D01*
X15150000Y-67665700D02*
X15278571Y-67708557D01*
X15278571Y-67708557D02*
X15364285Y-67708557D01*
X15364285Y-67708557D02*
X15492857Y-67665700D01*
X15492857Y-67665700D02*
X15535714Y-67622842D01*
X15535714Y-67622842D02*
X15535714Y-67322842D01*
X15535714Y-67322842D02*
X15364285Y-67322842D01*
X15921428Y-67708557D02*
X15921428Y-66808557D01*
X15921428Y-66808557D02*
X16264285Y-66808557D01*
X16264285Y-66808557D02*
X16350000Y-66851414D01*
X16350000Y-66851414D02*
X16392857Y-66894271D01*
X16392857Y-66894271D02*
X16435714Y-66979985D01*
X16435714Y-66979985D02*
X16435714Y-67108557D01*
X16435714Y-67108557D02*
X16392857Y-67194271D01*
X16392857Y-67194271D02*
X16350000Y-67237128D01*
X16350000Y-67237128D02*
X16264285Y-67279985D01*
X16264285Y-67279985D02*
X15921428Y-67279985D01*
X16821428Y-67708557D02*
X16821428Y-66808557D01*
X17421428Y-66808557D02*
X17592856Y-66808557D01*
X17592856Y-66808557D02*
X17678571Y-66851414D01*
X17678571Y-66851414D02*
X17764285Y-66937128D01*
X17764285Y-66937128D02*
X17807142Y-67108557D01*
X17807142Y-67108557D02*
X17807142Y-67408557D01*
X17807142Y-67408557D02*
X17764285Y-67579985D01*
X17764285Y-67579985D02*
X17678571Y-67665700D01*
X17678571Y-67665700D02*
X17592856Y-67708557D01*
X17592856Y-67708557D02*
X17421428Y-67708557D01*
X17421428Y-67708557D02*
X17335714Y-67665700D01*
X17335714Y-67665700D02*
X17249999Y-67579985D01*
X17249999Y-67579985D02*
X17207142Y-67408557D01*
X17207142Y-67408557D02*
X17207142Y-67108557D01*
X17207142Y-67108557D02*
X17249999Y-66937128D01*
X17249999Y-66937128D02*
X17335714Y-66851414D01*
X17335714Y-66851414D02*
X17421428Y-66808557D01*
X18107142Y-66808557D02*
X18664285Y-66808557D01*
X18664285Y-66808557D02*
X18364285Y-67151414D01*
X18364285Y-67151414D02*
X18492856Y-67151414D01*
X18492856Y-67151414D02*
X18578571Y-67194271D01*
X18578571Y-67194271D02*
X18621428Y-67237128D01*
X18621428Y-67237128D02*
X18664285Y-67322842D01*
X18664285Y-67322842D02*
X18664285Y-67537128D01*
X18664285Y-67537128D02*
X18621428Y-67622842D01*
X18621428Y-67622842D02*
X18578571Y-67665700D01*
X18578571Y-67665700D02*
X18492856Y-67708557D01*
X18492856Y-67708557D02*
X18235713Y-67708557D01*
X18235713Y-67708557D02*
X18149999Y-67665700D01*
X18149999Y-67665700D02*
X18107142Y-67622842D01*
X19178571Y-67194271D02*
X19092856Y-67151414D01*
X19092856Y-67151414D02*
X19049999Y-67108557D01*
X19049999Y-67108557D02*
X19007142Y-67022842D01*
X19007142Y-67022842D02*
X19007142Y-66979985D01*
X19007142Y-66979985D02*
X19049999Y-66894271D01*
X19049999Y-66894271D02*
X19092856Y-66851414D01*
X19092856Y-66851414D02*
X19178571Y-66808557D01*
X19178571Y-66808557D02*
X19349999Y-66808557D01*
X19349999Y-66808557D02*
X19435714Y-66851414D01*
X19435714Y-66851414D02*
X19478571Y-66894271D01*
X19478571Y-66894271D02*
X19521428Y-66979985D01*
X19521428Y-66979985D02*
X19521428Y-67022842D01*
X19521428Y-67022842D02*
X19478571Y-67108557D01*
X19478571Y-67108557D02*
X19435714Y-67151414D01*
X19435714Y-67151414D02*
X19349999Y-67194271D01*
X19349999Y-67194271D02*
X19178571Y-67194271D01*
X19178571Y-67194271D02*
X19092856Y-67237128D01*
X19092856Y-67237128D02*
X19049999Y-67279985D01*
X19049999Y-67279985D02*
X19007142Y-67365700D01*
X19007142Y-67365700D02*
X19007142Y-67537128D01*
X19007142Y-67537128D02*
X19049999Y-67622842D01*
X19049999Y-67622842D02*
X19092856Y-67665700D01*
X19092856Y-67665700D02*
X19178571Y-67708557D01*
X19178571Y-67708557D02*
X19349999Y-67708557D01*
X19349999Y-67708557D02*
X19435714Y-67665700D01*
X19435714Y-67665700D02*
X19478571Y-67622842D01*
X19478571Y-67622842D02*
X19521428Y-67537128D01*
X19521428Y-67537128D02*
X19521428Y-67365700D01*
X19521428Y-67365700D02*
X19478571Y-67279985D01*
X19478571Y-67279985D02*
X19435714Y-67237128D01*
X19435714Y-67237128D02*
X19349999Y-67194271D01*
X19907142Y-67365700D02*
X20592857Y-67365700D01*
X21450000Y-67708557D02*
X21021428Y-67708557D01*
X21021428Y-67708557D02*
X21021428Y-66808557D01*
X21749999Y-67237128D02*
X22049999Y-67237128D01*
X22178571Y-67708557D02*
X21749999Y-67708557D01*
X21749999Y-67708557D02*
X21749999Y-66808557D01*
X21749999Y-66808557D02*
X22178571Y-66808557D01*
X22564285Y-67708557D02*
X22564285Y-66808557D01*
X22564285Y-66808557D02*
X22778571Y-66808557D01*
X22778571Y-66808557D02*
X22907142Y-66851414D01*
X22907142Y-66851414D02*
X22992857Y-66937128D01*
X22992857Y-66937128D02*
X23035714Y-67022842D01*
X23035714Y-67022842D02*
X23078571Y-67194271D01*
X23078571Y-67194271D02*
X23078571Y-67322842D01*
X23078571Y-67322842D02*
X23035714Y-67494271D01*
X23035714Y-67494271D02*
X22992857Y-67579985D01*
X22992857Y-67579985D02*
X22907142Y-67665700D01*
X22907142Y-67665700D02*
X22778571Y-67708557D01*
X22778571Y-67708557D02*
X22564285Y-67708557D01*
X24792856Y-66765700D02*
X24021428Y-67922842D01*
X26249999Y-66851414D02*
X26164285Y-66808557D01*
X26164285Y-66808557D02*
X26035713Y-66808557D01*
X26035713Y-66808557D02*
X25907142Y-66851414D01*
X25907142Y-66851414D02*
X25821427Y-66937128D01*
X25821427Y-66937128D02*
X25778570Y-67022842D01*
X25778570Y-67022842D02*
X25735713Y-67194271D01*
X25735713Y-67194271D02*
X25735713Y-67322842D01*
X25735713Y-67322842D02*
X25778570Y-67494271D01*
X25778570Y-67494271D02*
X25821427Y-67579985D01*
X25821427Y-67579985D02*
X25907142Y-67665700D01*
X25907142Y-67665700D02*
X26035713Y-67708557D01*
X26035713Y-67708557D02*
X26121427Y-67708557D01*
X26121427Y-67708557D02*
X26249999Y-67665700D01*
X26249999Y-67665700D02*
X26292856Y-67622842D01*
X26292856Y-67622842D02*
X26292856Y-67322842D01*
X26292856Y-67322842D02*
X26121427Y-67322842D01*
X26678570Y-67708557D02*
X26678570Y-66808557D01*
X26678570Y-66808557D02*
X27021427Y-66808557D01*
X27021427Y-66808557D02*
X27107142Y-66851414D01*
X27107142Y-66851414D02*
X27149999Y-66894271D01*
X27149999Y-66894271D02*
X27192856Y-66979985D01*
X27192856Y-66979985D02*
X27192856Y-67108557D01*
X27192856Y-67108557D02*
X27149999Y-67194271D01*
X27149999Y-67194271D02*
X27107142Y-67237128D01*
X27107142Y-67237128D02*
X27021427Y-67279985D01*
X27021427Y-67279985D02*
X26678570Y-67279985D01*
X27578570Y-67708557D02*
X27578570Y-66808557D01*
X28178570Y-66808557D02*
X28349998Y-66808557D01*
X28349998Y-66808557D02*
X28435713Y-66851414D01*
X28435713Y-66851414D02*
X28521427Y-66937128D01*
X28521427Y-66937128D02*
X28564284Y-67108557D01*
X28564284Y-67108557D02*
X28564284Y-67408557D01*
X28564284Y-67408557D02*
X28521427Y-67579985D01*
X28521427Y-67579985D02*
X28435713Y-67665700D01*
X28435713Y-67665700D02*
X28349998Y-67708557D01*
X28349998Y-67708557D02*
X28178570Y-67708557D01*
X28178570Y-67708557D02*
X28092856Y-67665700D01*
X28092856Y-67665700D02*
X28007141Y-67579985D01*
X28007141Y-67579985D02*
X27964284Y-67408557D01*
X27964284Y-67408557D02*
X27964284Y-67108557D01*
X27964284Y-67108557D02*
X28007141Y-66937128D01*
X28007141Y-66937128D02*
X28092856Y-66851414D01*
X28092856Y-66851414D02*
X28178570Y-66808557D01*
X29121427Y-66808557D02*
X29207141Y-66808557D01*
X29207141Y-66808557D02*
X29292855Y-66851414D01*
X29292855Y-66851414D02*
X29335713Y-66894271D01*
X29335713Y-66894271D02*
X29378570Y-66979985D01*
X29378570Y-66979985D02*
X29421427Y-67151414D01*
X29421427Y-67151414D02*
X29421427Y-67365700D01*
X29421427Y-67365700D02*
X29378570Y-67537128D01*
X29378570Y-67537128D02*
X29335713Y-67622842D01*
X29335713Y-67622842D02*
X29292855Y-67665700D01*
X29292855Y-67665700D02*
X29207141Y-67708557D01*
X29207141Y-67708557D02*
X29121427Y-67708557D01*
X29121427Y-67708557D02*
X29035713Y-67665700D01*
X29035713Y-67665700D02*
X28992855Y-67622842D01*
X28992855Y-67622842D02*
X28949998Y-67537128D01*
X28949998Y-67537128D02*
X28907141Y-67365700D01*
X28907141Y-67365700D02*
X28907141Y-67151414D01*
X28907141Y-67151414D02*
X28949998Y-66979985D01*
X28949998Y-66979985D02*
X28992855Y-66894271D01*
X28992855Y-66894271D02*
X29035713Y-66851414D01*
X29035713Y-66851414D02*
X29121427Y-66808557D01*
X29807141Y-67365700D02*
X30492856Y-67365700D01*
X30921427Y-67708557D02*
X30921427Y-66808557D01*
X31435713Y-67708557D02*
X31049999Y-67194271D01*
X31435713Y-66808557D02*
X30921427Y-67322842D01*
X31821427Y-67237128D02*
X32121427Y-67237128D01*
X32249999Y-67708557D02*
X31821427Y-67708557D01*
X31821427Y-67708557D02*
X31821427Y-66808557D01*
X31821427Y-66808557D02*
X32249999Y-66808557D01*
X32807142Y-67279985D02*
X32807142Y-67708557D01*
X32507142Y-66808557D02*
X32807142Y-67279985D01*
X32807142Y-67279985D02*
X33107142Y-66808557D01*
X18321432Y-29508557D02*
X18492860Y-29508557D01*
X18492860Y-29508557D02*
X18578575Y-29551414D01*
X18578575Y-29551414D02*
X18664289Y-29637128D01*
X18664289Y-29637128D02*
X18707146Y-29808557D01*
X18707146Y-29808557D02*
X18707146Y-30108557D01*
X18707146Y-30108557D02*
X18664289Y-30279985D01*
X18664289Y-30279985D02*
X18578575Y-30365700D01*
X18578575Y-30365700D02*
X18492860Y-30408557D01*
X18492860Y-30408557D02*
X18321432Y-30408557D01*
X18321432Y-30408557D02*
X18235718Y-30365700D01*
X18235718Y-30365700D02*
X18150003Y-30279985D01*
X18150003Y-30279985D02*
X18107146Y-30108557D01*
X18107146Y-30108557D02*
X18107146Y-29808557D01*
X18107146Y-29808557D02*
X18150003Y-29637128D01*
X18150003Y-29637128D02*
X18235718Y-29551414D01*
X18235718Y-29551414D02*
X18321432Y-29508557D01*
X19521432Y-30408557D02*
X19092860Y-30408557D01*
X19092860Y-30408557D02*
X19092860Y-29508557D01*
X19821431Y-29937128D02*
X20121431Y-29937128D01*
X20250003Y-30408557D02*
X19821431Y-30408557D01*
X19821431Y-30408557D02*
X19821431Y-29508557D01*
X19821431Y-29508557D02*
X20250003Y-29508557D01*
X20635717Y-30408557D02*
X20635717Y-29508557D01*
X20635717Y-29508557D02*
X20850003Y-29508557D01*
X20850003Y-29508557D02*
X20978574Y-29551414D01*
X20978574Y-29551414D02*
X21064289Y-29637128D01*
X21064289Y-29637128D02*
X21107146Y-29722842D01*
X21107146Y-29722842D02*
X21150003Y-29894271D01*
X21150003Y-29894271D02*
X21150003Y-30022842D01*
X21150003Y-30022842D02*
X21107146Y-30194271D01*
X21107146Y-30194271D02*
X21064289Y-30279985D01*
X21064289Y-30279985D02*
X20978574Y-30365700D01*
X20978574Y-30365700D02*
X20850003Y-30408557D01*
X20850003Y-30408557D02*
X20635717Y-30408557D01*
X22092860Y-29979985D02*
X23207146Y-29979985D01*
X22135717Y-29594271D02*
X22135717Y-29765700D01*
X22178574Y-29465700D02*
X23121431Y-29465700D01*
X22221431Y-30108557D02*
X22221431Y-30408557D01*
X22221431Y-29808557D02*
X22521431Y-29808557D01*
X22221431Y-29679985D02*
X22521431Y-29679985D01*
X22521431Y-30108557D02*
X22521431Y-30408557D01*
X22607146Y-29979985D02*
X22564288Y-30108557D01*
X22650003Y-29465700D02*
X22650003Y-29894271D01*
X22778574Y-29808557D02*
X23078574Y-29808557D01*
X22778574Y-29679985D02*
X23035717Y-29679985D01*
X22821431Y-30108557D02*
X22821431Y-30408557D01*
X22992860Y-30408557D02*
X23121431Y-30408557D01*
X22135717Y-29594271D02*
X23164288Y-29594271D01*
X23164288Y-29594271D02*
X23164288Y-29765700D01*
X22221431Y-30108557D02*
X23121431Y-30108557D01*
X23121431Y-30108557D02*
X23121431Y-30408557D01*
X23464288Y-29637128D02*
X23850002Y-29637128D01*
X23635717Y-29679985D02*
X23421431Y-30151414D01*
X23678574Y-29808557D02*
X23850002Y-29979985D01*
X23678574Y-29379985D02*
X23678574Y-30408557D01*
X23935717Y-29465700D02*
X24492859Y-29465700D01*
X23935717Y-29465700D02*
X23935717Y-29979985D01*
X23935717Y-29979985D02*
X23892859Y-30322842D01*
X24021431Y-29765700D02*
X24192859Y-30151414D01*
X24192859Y-30151414D02*
X24407145Y-30322842D01*
X24407145Y-30322842D02*
X24535717Y-30408557D01*
X23935717Y-29765700D02*
X24492859Y-29765700D01*
X24492859Y-29765700D02*
X24321431Y-30108557D01*
X24321431Y-30108557D02*
X24150002Y-30322842D01*
X24150002Y-30322842D02*
X23978574Y-30408557D01*
X24750002Y-29679985D02*
X25864288Y-29679985D01*
X24750002Y-29851414D02*
X25392859Y-29851414D01*
X24835716Y-29508557D02*
X25350002Y-29508557D01*
X24835716Y-30065700D02*
X25350002Y-30065700D01*
X25007145Y-29722842D02*
X24835716Y-30065700D01*
X25092859Y-29379985D02*
X25092859Y-29679985D01*
X25135716Y-30237128D02*
X24835716Y-30279985D01*
X25135716Y-29937128D02*
X25135716Y-30408557D01*
X25264288Y-30237128D02*
X25007145Y-30237128D01*
X25392859Y-30237128D02*
X25135716Y-30237128D01*
X25607145Y-30151414D02*
X25350002Y-30408557D01*
X25650002Y-29422842D02*
X25778573Y-29551414D01*
X25650002Y-30365700D02*
X25778573Y-30408557D01*
X25778573Y-29765700D02*
X25564288Y-30237128D01*
X25864288Y-30194271D02*
X25821430Y-30408557D01*
X25521430Y-29379985D02*
X25521430Y-29765700D01*
X25521430Y-29765700D02*
X25564288Y-30237128D01*
X26892858Y-30408557D02*
X26892858Y-29508557D01*
X27278572Y-29594271D02*
X27321429Y-29551414D01*
X27321429Y-29551414D02*
X27407144Y-29508557D01*
X27407144Y-29508557D02*
X27621429Y-29508557D01*
X27621429Y-29508557D02*
X27707144Y-29551414D01*
X27707144Y-29551414D02*
X27750001Y-29594271D01*
X27750001Y-29594271D02*
X27792858Y-29679985D01*
X27792858Y-29679985D02*
X27792858Y-29765700D01*
X27792858Y-29765700D02*
X27750001Y-29894271D01*
X27750001Y-29894271D02*
X27235715Y-30408557D01*
X27235715Y-30408557D02*
X27792858Y-30408557D01*
X28692858Y-30322842D02*
X28650001Y-30365700D01*
X28650001Y-30365700D02*
X28521429Y-30408557D01*
X28521429Y-30408557D02*
X28435715Y-30408557D01*
X28435715Y-30408557D02*
X28307144Y-30365700D01*
X28307144Y-30365700D02*
X28221429Y-30279985D01*
X28221429Y-30279985D02*
X28178572Y-30194271D01*
X28178572Y-30194271D02*
X28135715Y-30022842D01*
X28135715Y-30022842D02*
X28135715Y-29894271D01*
X28135715Y-29894271D02*
X28178572Y-29722842D01*
X28178572Y-29722842D02*
X28221429Y-29637128D01*
X28221429Y-29637128D02*
X28307144Y-29551414D01*
X28307144Y-29551414D02*
X28435715Y-29508557D01*
X28435715Y-29508557D02*
X28521429Y-29508557D01*
X28521429Y-29508557D02*
X28650001Y-29551414D01*
X28650001Y-29551414D02*
X28692858Y-29594271D01*
X29635715Y-30408557D02*
X30750001Y-30408557D01*
X30150001Y-29808557D02*
X30664286Y-29808557D01*
X30150001Y-29422842D02*
X30150001Y-30408557D01*
X30964286Y-29637128D02*
X31350000Y-29637128D01*
X31350000Y-30365700D02*
X32078572Y-30365700D01*
X31350000Y-29937128D02*
X30964286Y-30022842D01*
X31435714Y-29637128D02*
X32078572Y-29637128D01*
X31521429Y-29765700D02*
X31607143Y-30279985D01*
X31735714Y-29422842D02*
X31735714Y-29637128D01*
X31907143Y-29765700D02*
X31778572Y-30365700D01*
X31178572Y-29379985D02*
X31178572Y-30408557D01*
X31178572Y-30408557D02*
X31007143Y-30408557D01*
X32892857Y-29379985D02*
X32850000Y-29508557D01*
X32850000Y-29508557D02*
X32807143Y-29679985D01*
X32807143Y-29679985D02*
X32807143Y-30108557D01*
X32807143Y-30108557D02*
X32850000Y-30279985D01*
X32850000Y-30279985D02*
X32892857Y-30365700D01*
X33235714Y-29594271D02*
X33235714Y-29765700D01*
X33321428Y-30108557D02*
X33321428Y-30365700D01*
X33364285Y-29422842D02*
X33492857Y-29508557D01*
X33450000Y-29937128D02*
X34135714Y-29937128D01*
X33450000Y-29722842D02*
X33450000Y-29937128D01*
X33792857Y-29937128D02*
X33792857Y-30408557D01*
X33792857Y-29379985D02*
X33792857Y-29594271D01*
X34221428Y-29422842D02*
X34092857Y-29508557D01*
X33235714Y-29594271D02*
X34350000Y-29594271D01*
X34350000Y-29594271D02*
X34350000Y-29765700D01*
X33450000Y-29722842D02*
X34135714Y-29722842D01*
X34135714Y-29722842D02*
X34135714Y-29937128D01*
X33321428Y-30108557D02*
X34264285Y-30108557D01*
X34264285Y-30108557D02*
X34264285Y-30365700D01*
X34264285Y-30365700D02*
X34050000Y-30365700D01*
X34735713Y-29465700D02*
X34735713Y-30108557D01*
X35207142Y-30408557D02*
X35635713Y-30408557D01*
X35249999Y-30022842D02*
X35249999Y-30365700D01*
X35678571Y-30237128D02*
X35635713Y-30408557D01*
X34735713Y-29465700D02*
X35507142Y-29465700D01*
X35507142Y-29465700D02*
X35507142Y-30108557D01*
X35121428Y-29637128D02*
X35121428Y-29851414D01*
X35121428Y-29851414D02*
X35035713Y-30151414D01*
X35035713Y-30151414D02*
X34907142Y-30279985D01*
X34907142Y-30279985D02*
X34778571Y-30365700D01*
X34778571Y-30365700D02*
X34564285Y-30408557D01*
X35892856Y-29637128D02*
X36235713Y-29637128D01*
X36064284Y-29637128D02*
X36192856Y-29937128D01*
X36064284Y-29594271D02*
X35935713Y-30108557D01*
X36107142Y-29379985D02*
X36107142Y-30408557D01*
X36235713Y-30151414D02*
X37007142Y-30151414D01*
X36278570Y-29508557D02*
X37007142Y-29508557D01*
X36364284Y-29979985D02*
X36921427Y-29979985D01*
X36364284Y-29808557D02*
X36921427Y-29808557D01*
X36364284Y-29679985D02*
X36364284Y-29979985D01*
X36492856Y-29379985D02*
X36492856Y-29594271D01*
X36792856Y-29379985D02*
X36792856Y-29594271D01*
X36364284Y-29679985D02*
X36921427Y-29679985D01*
X36921427Y-29679985D02*
X36921427Y-29979985D01*
X36621427Y-30108557D02*
X36792856Y-30322842D01*
X36792856Y-30322842D02*
X37007142Y-30408557D01*
X36621427Y-29979985D02*
X36535713Y-30237128D01*
X36535713Y-30237128D02*
X36449999Y-30322842D01*
X36449999Y-30322842D02*
X36235713Y-30408557D01*
X37221427Y-29679985D02*
X37564284Y-29679985D01*
X37392855Y-29422842D02*
X37392855Y-30151414D01*
X37564284Y-30065700D02*
X37221427Y-30194271D01*
X37607141Y-29937128D02*
X38335713Y-29937128D01*
X37864284Y-30151414D02*
X37649998Y-30365700D01*
X37949998Y-29937128D02*
X37778570Y-30279985D01*
X37949998Y-29765700D02*
X37907141Y-30151414D01*
X38035713Y-30151414D02*
X38249998Y-30408557D01*
X37649998Y-29594271D02*
X38207141Y-29594271D01*
X38207141Y-29594271D02*
X38207141Y-29937128D01*
X37949998Y-29422842D02*
X37949998Y-29937128D01*
X37949998Y-29937128D02*
X38121427Y-30279985D01*
X38549998Y-29679985D02*
X38935712Y-29679985D01*
X38764284Y-29379985D02*
X38764284Y-30151414D01*
X38935712Y-30065700D02*
X38549998Y-30194271D01*
X39064284Y-29808557D02*
X39449998Y-29808557D01*
X39149998Y-29379985D02*
X38978569Y-29808557D01*
X39449998Y-30065700D02*
X39021426Y-30194271D01*
X39107141Y-29594271D02*
X39664284Y-29594271D01*
X39664284Y-29594271D02*
X39664284Y-30065700D01*
X39664284Y-30065700D02*
X39578569Y-30408557D01*
X39578569Y-30408557D02*
X39364284Y-30408557D01*
X39878569Y-29551414D02*
X40992855Y-29551414D01*
X40178569Y-30194271D02*
X40821426Y-30194271D01*
X40178569Y-29979985D02*
X40821426Y-29979985D01*
X40178569Y-29765700D02*
X40178569Y-30408557D01*
X40349997Y-29379985D02*
X40178569Y-29765700D01*
X40178569Y-29765700D02*
X39921426Y-30022842D01*
X40178569Y-29765700D02*
X40821426Y-29765700D01*
X40821426Y-29765700D02*
X40821426Y-30408557D01*
X40821426Y-30408557D02*
X40607140Y-30408557D01*
X41335711Y-29379985D02*
X41421426Y-29508557D01*
X41421426Y-29508557D02*
X41464283Y-29679985D01*
X41464283Y-29679985D02*
X41464283Y-30108557D01*
X41464283Y-30108557D02*
X41421426Y-30279985D01*
X41421426Y-30279985D02*
X41335711Y-30365700D01*
X29364287Y-25408557D02*
X29364287Y-24508557D01*
X29364287Y-24508557D02*
X29664287Y-25151414D01*
X29664287Y-25151414D02*
X29964287Y-24508557D01*
X29964287Y-24508557D02*
X29964287Y-25408557D01*
X30350001Y-25151414D02*
X30778573Y-25151414D01*
X30264287Y-25408557D02*
X30564287Y-24508557D01*
X30564287Y-24508557D02*
X30864287Y-25408557D01*
X31078573Y-24508557D02*
X31678573Y-25408557D01*
X31678573Y-24508557D02*
X31078573Y-25408557D01*
X32064287Y-25408557D02*
X32235716Y-25408557D01*
X32235716Y-25408557D02*
X32321430Y-25365700D01*
X32321430Y-25365700D02*
X32364287Y-25322842D01*
X32364287Y-25322842D02*
X32450002Y-25194271D01*
X32450002Y-25194271D02*
X32492859Y-25022842D01*
X32492859Y-25022842D02*
X32492859Y-24679985D01*
X32492859Y-24679985D02*
X32450002Y-24594271D01*
X32450002Y-24594271D02*
X32407145Y-24551414D01*
X32407145Y-24551414D02*
X32321430Y-24508557D01*
X32321430Y-24508557D02*
X32150002Y-24508557D01*
X32150002Y-24508557D02*
X32064287Y-24551414D01*
X32064287Y-24551414D02*
X32021430Y-24594271D01*
X32021430Y-24594271D02*
X31978573Y-24679985D01*
X31978573Y-24679985D02*
X31978573Y-24894271D01*
X31978573Y-24894271D02*
X32021430Y-24979985D01*
X32021430Y-24979985D02*
X32064287Y-25022842D01*
X32064287Y-25022842D02*
X32150002Y-25065700D01*
X32150002Y-25065700D02*
X32321430Y-25065700D01*
X32321430Y-25065700D02*
X32407145Y-25022842D01*
X32407145Y-25022842D02*
X32450002Y-24979985D01*
X32450002Y-24979985D02*
X32492859Y-24894271D01*
X33007145Y-24894271D02*
X32921430Y-24851414D01*
X32921430Y-24851414D02*
X32878573Y-24808557D01*
X32878573Y-24808557D02*
X32835716Y-24722842D01*
X32835716Y-24722842D02*
X32835716Y-24679985D01*
X32835716Y-24679985D02*
X32878573Y-24594271D01*
X32878573Y-24594271D02*
X32921430Y-24551414D01*
X32921430Y-24551414D02*
X33007145Y-24508557D01*
X33007145Y-24508557D02*
X33178573Y-24508557D01*
X33178573Y-24508557D02*
X33264288Y-24551414D01*
X33264288Y-24551414D02*
X33307145Y-24594271D01*
X33307145Y-24594271D02*
X33350002Y-24679985D01*
X33350002Y-24679985D02*
X33350002Y-24722842D01*
X33350002Y-24722842D02*
X33307145Y-24808557D01*
X33307145Y-24808557D02*
X33264288Y-24851414D01*
X33264288Y-24851414D02*
X33178573Y-24894271D01*
X33178573Y-24894271D02*
X33007145Y-24894271D01*
X33007145Y-24894271D02*
X32921430Y-24937128D01*
X32921430Y-24937128D02*
X32878573Y-24979985D01*
X32878573Y-24979985D02*
X32835716Y-25065700D01*
X32835716Y-25065700D02*
X32835716Y-25237128D01*
X32835716Y-25237128D02*
X32878573Y-25322842D01*
X32878573Y-25322842D02*
X32921430Y-25365700D01*
X32921430Y-25365700D02*
X33007145Y-25408557D01*
X33007145Y-25408557D02*
X33178573Y-25408557D01*
X33178573Y-25408557D02*
X33264288Y-25365700D01*
X33264288Y-25365700D02*
X33307145Y-25322842D01*
X33307145Y-25322842D02*
X33350002Y-25237128D01*
X33350002Y-25237128D02*
X33350002Y-25065700D01*
X33350002Y-25065700D02*
X33307145Y-24979985D01*
X33307145Y-24979985D02*
X33264288Y-24937128D01*
X33264288Y-24937128D02*
X33178573Y-24894271D01*
X33650002Y-24508557D02*
X34207145Y-24508557D01*
X34207145Y-24508557D02*
X33907145Y-24851414D01*
X33907145Y-24851414D02*
X34035716Y-24851414D01*
X34035716Y-24851414D02*
X34121431Y-24894271D01*
X34121431Y-24894271D02*
X34164288Y-24937128D01*
X34164288Y-24937128D02*
X34207145Y-25022842D01*
X34207145Y-25022842D02*
X34207145Y-25237128D01*
X34207145Y-25237128D02*
X34164288Y-25322842D01*
X34164288Y-25322842D02*
X34121431Y-25365700D01*
X34121431Y-25365700D02*
X34035716Y-25408557D01*
X34035716Y-25408557D02*
X33778573Y-25408557D01*
X33778573Y-25408557D02*
X33692859Y-25365700D01*
X33692859Y-25365700D02*
X33650002Y-25322842D01*
X35021431Y-24508557D02*
X34592859Y-24508557D01*
X34592859Y-24508557D02*
X34550002Y-24937128D01*
X34550002Y-24937128D02*
X34592859Y-24894271D01*
X34592859Y-24894271D02*
X34678574Y-24851414D01*
X34678574Y-24851414D02*
X34892859Y-24851414D01*
X34892859Y-24851414D02*
X34978574Y-24894271D01*
X34978574Y-24894271D02*
X35021431Y-24937128D01*
X35021431Y-24937128D02*
X35064288Y-25022842D01*
X35064288Y-25022842D02*
X35064288Y-25237128D01*
X35064288Y-25237128D02*
X35021431Y-25322842D01*
X35021431Y-25322842D02*
X34978574Y-25365700D01*
X34978574Y-25365700D02*
X34892859Y-25408557D01*
X34892859Y-25408557D02*
X34678574Y-25408557D01*
X34678574Y-25408557D02*
X34592859Y-25365700D01*
X34592859Y-25365700D02*
X34550002Y-25322842D01*
X35364288Y-24508557D02*
X35964288Y-24508557D01*
X35964288Y-24508557D02*
X35578574Y-25408557D01*
X36264288Y-25151414D02*
X36692860Y-25151414D01*
X36178574Y-25408557D02*
X36478574Y-24508557D01*
X36478574Y-24508557D02*
X36778574Y-25408557D01*
X37335717Y-25751414D02*
X37292860Y-25708557D01*
X37292860Y-25708557D02*
X37207146Y-25579985D01*
X37207146Y-25579985D02*
X37164289Y-25494271D01*
X37164289Y-25494271D02*
X37121431Y-25365700D01*
X37121431Y-25365700D02*
X37078574Y-25151414D01*
X37078574Y-25151414D02*
X37078574Y-24979985D01*
X37078574Y-24979985D02*
X37121431Y-24765700D01*
X37121431Y-24765700D02*
X37164289Y-24637128D01*
X37164289Y-24637128D02*
X37207146Y-24551414D01*
X37207146Y-24551414D02*
X37292860Y-24422842D01*
X37292860Y-24422842D02*
X37335717Y-24379985D01*
X38150003Y-25408557D02*
X37635717Y-25408557D01*
X37892860Y-25408557D02*
X37892860Y-24508557D01*
X37892860Y-24508557D02*
X37807146Y-24637128D01*
X37807146Y-24637128D02*
X37721431Y-24722842D01*
X37721431Y-24722842D02*
X37635717Y-24765700D01*
X38450003Y-25408557D02*
X38921432Y-24808557D01*
X38450003Y-24808557D02*
X38921432Y-25408557D01*
X39178574Y-24508557D02*
X39778574Y-24508557D01*
X39778574Y-24508557D02*
X39392860Y-25408557D01*
X40035717Y-25751414D02*
X40078574Y-25708557D01*
X40078574Y-25708557D02*
X40164288Y-25579985D01*
X40164288Y-25579985D02*
X40207146Y-25494271D01*
X40207146Y-25494271D02*
X40250003Y-25365700D01*
X40250003Y-25365700D02*
X40292860Y-25151414D01*
X40292860Y-25151414D02*
X40292860Y-24979985D01*
X40292860Y-24979985D02*
X40250003Y-24765700D01*
X40250003Y-24765700D02*
X40207146Y-24637128D01*
X40207146Y-24637128D02*
X40164288Y-24551414D01*
X40164288Y-24551414D02*
X40078574Y-24422842D01*
X40078574Y-24422842D02*
X40035717Y-24379985D01*
X41407145Y-24508557D02*
X41407145Y-25237128D01*
X41407145Y-25237128D02*
X41450002Y-25322842D01*
X41450002Y-25322842D02*
X41492860Y-25365700D01*
X41492860Y-25365700D02*
X41578574Y-25408557D01*
X41578574Y-25408557D02*
X41750002Y-25408557D01*
X41750002Y-25408557D02*
X41835717Y-25365700D01*
X41835717Y-25365700D02*
X41878574Y-25322842D01*
X41878574Y-25322842D02*
X41921431Y-25237128D01*
X41921431Y-25237128D02*
X41921431Y-24508557D01*
X42350002Y-25408557D02*
X42350002Y-24508557D01*
X42778573Y-25408557D02*
X42778573Y-24508557D01*
X42778573Y-24508557D02*
X43292859Y-25408557D01*
X43292859Y-25408557D02*
X43292859Y-24508557D01*
X43764287Y-25365700D02*
X43764287Y-25408557D01*
X43764287Y-25408557D02*
X43721430Y-25494271D01*
X43721430Y-25494271D02*
X43678573Y-25537128D01*
X44621430Y-24551414D02*
X44535716Y-24508557D01*
X44535716Y-24508557D02*
X44407144Y-24508557D01*
X44407144Y-24508557D02*
X44278573Y-24551414D01*
X44278573Y-24551414D02*
X44192858Y-24637128D01*
X44192858Y-24637128D02*
X44150001Y-24722842D01*
X44150001Y-24722842D02*
X44107144Y-24894271D01*
X44107144Y-24894271D02*
X44107144Y-25022842D01*
X44107144Y-25022842D02*
X44150001Y-25194271D01*
X44150001Y-25194271D02*
X44192858Y-25279985D01*
X44192858Y-25279985D02*
X44278573Y-25365700D01*
X44278573Y-25365700D02*
X44407144Y-25408557D01*
X44407144Y-25408557D02*
X44492858Y-25408557D01*
X44492858Y-25408557D02*
X44621430Y-25365700D01*
X44621430Y-25365700D02*
X44664287Y-25322842D01*
X44664287Y-25322842D02*
X44664287Y-25022842D01*
X44664287Y-25022842D02*
X44492858Y-25022842D01*
X45050001Y-25408557D02*
X45050001Y-24508557D01*
X45050001Y-24508557D02*
X45564287Y-25408557D01*
X45564287Y-25408557D02*
X45564287Y-24508557D01*
X45992858Y-25408557D02*
X45992858Y-24508557D01*
X45992858Y-24508557D02*
X46207144Y-24508557D01*
X46207144Y-24508557D02*
X46335715Y-24551414D01*
X46335715Y-24551414D02*
X46421430Y-24637128D01*
X46421430Y-24637128D02*
X46464287Y-24722842D01*
X46464287Y-24722842D02*
X46507144Y-24894271D01*
X46507144Y-24894271D02*
X46507144Y-25022842D01*
X46507144Y-25022842D02*
X46464287Y-25194271D01*
X46464287Y-25194271D02*
X46421430Y-25279985D01*
X46421430Y-25279985D02*
X46335715Y-25365700D01*
X46335715Y-25365700D02*
X46207144Y-25408557D01*
X46207144Y-25408557D02*
X45992858Y-25408557D01*
X46935715Y-25365700D02*
X46935715Y-25408557D01*
X46935715Y-25408557D02*
X46892858Y-25494271D01*
X46892858Y-25494271D02*
X46850001Y-25537128D01*
X47278572Y-25365700D02*
X47407144Y-25408557D01*
X47407144Y-25408557D02*
X47621429Y-25408557D01*
X47621429Y-25408557D02*
X47707144Y-25365700D01*
X47707144Y-25365700D02*
X47750001Y-25322842D01*
X47750001Y-25322842D02*
X47792858Y-25237128D01*
X47792858Y-25237128D02*
X47792858Y-25151414D01*
X47792858Y-25151414D02*
X47750001Y-25065700D01*
X47750001Y-25065700D02*
X47707144Y-25022842D01*
X47707144Y-25022842D02*
X47621429Y-24979985D01*
X47621429Y-24979985D02*
X47450001Y-24937128D01*
X47450001Y-24937128D02*
X47364286Y-24894271D01*
X47364286Y-24894271D02*
X47321429Y-24851414D01*
X47321429Y-24851414D02*
X47278572Y-24765700D01*
X47278572Y-24765700D02*
X47278572Y-24679985D01*
X47278572Y-24679985D02*
X47321429Y-24594271D01*
X47321429Y-24594271D02*
X47364286Y-24551414D01*
X47364286Y-24551414D02*
X47450001Y-24508557D01*
X47450001Y-24508557D02*
X47664286Y-24508557D01*
X47664286Y-24508557D02*
X47792858Y-24551414D01*
X48178572Y-25408557D02*
X48178572Y-24508557D01*
X48178572Y-24508557D02*
X48392858Y-24508557D01*
X48392858Y-24508557D02*
X48521429Y-24551414D01*
X48521429Y-24551414D02*
X48607144Y-24637128D01*
X48607144Y-24637128D02*
X48650001Y-24722842D01*
X48650001Y-24722842D02*
X48692858Y-24894271D01*
X48692858Y-24894271D02*
X48692858Y-25022842D01*
X48692858Y-25022842D02*
X48650001Y-25194271D01*
X48650001Y-25194271D02*
X48607144Y-25279985D01*
X48607144Y-25279985D02*
X48521429Y-25365700D01*
X48521429Y-25365700D02*
X48392858Y-25408557D01*
X48392858Y-25408557D02*
X48178572Y-25408557D01*
X49121429Y-25365700D02*
X49121429Y-25408557D01*
X49121429Y-25408557D02*
X49078572Y-25494271D01*
X49078572Y-25494271D02*
X49035715Y-25537128D01*
X49978572Y-24551414D02*
X49892858Y-24508557D01*
X49892858Y-24508557D02*
X49764286Y-24508557D01*
X49764286Y-24508557D02*
X49635715Y-24551414D01*
X49635715Y-24551414D02*
X49550000Y-24637128D01*
X49550000Y-24637128D02*
X49507143Y-24722842D01*
X49507143Y-24722842D02*
X49464286Y-24894271D01*
X49464286Y-24894271D02*
X49464286Y-25022842D01*
X49464286Y-25022842D02*
X49507143Y-25194271D01*
X49507143Y-25194271D02*
X49550000Y-25279985D01*
X49550000Y-25279985D02*
X49635715Y-25365700D01*
X49635715Y-25365700D02*
X49764286Y-25408557D01*
X49764286Y-25408557D02*
X49850000Y-25408557D01*
X49850000Y-25408557D02*
X49978572Y-25365700D01*
X49978572Y-25365700D02*
X50021429Y-25322842D01*
X50021429Y-25322842D02*
X50021429Y-25022842D01*
X50021429Y-25022842D02*
X49850000Y-25022842D01*
X50364286Y-25151414D02*
X50792858Y-25151414D01*
X50278572Y-25408557D02*
X50578572Y-24508557D01*
X50578572Y-24508557D02*
X50878572Y-25408557D01*
X51178572Y-25408557D02*
X51178572Y-24508557D01*
X51607143Y-25408557D02*
X51607143Y-24508557D01*
X51607143Y-24508557D02*
X52121429Y-25408557D01*
X52121429Y-25408557D02*
X52121429Y-24508557D01*
X52592857Y-25365700D02*
X52592857Y-25408557D01*
X52592857Y-25408557D02*
X52550000Y-25494271D01*
X52550000Y-25494271D02*
X52507143Y-25537128D01*
X52978571Y-25408557D02*
X52978571Y-24508557D01*
X52978571Y-24508557D02*
X53192857Y-24508557D01*
X53192857Y-24508557D02*
X53321428Y-24551414D01*
X53321428Y-24551414D02*
X53407143Y-24637128D01*
X53407143Y-24637128D02*
X53450000Y-24722842D01*
X53450000Y-24722842D02*
X53492857Y-24894271D01*
X53492857Y-24894271D02*
X53492857Y-25022842D01*
X53492857Y-25022842D02*
X53450000Y-25194271D01*
X53450000Y-25194271D02*
X53407143Y-25279985D01*
X53407143Y-25279985D02*
X53321428Y-25365700D01*
X53321428Y-25365700D02*
X53192857Y-25408557D01*
X53192857Y-25408557D02*
X52978571Y-25408557D01*
X53878571Y-25408557D02*
X53878571Y-24508557D01*
X54307142Y-25408557D02*
X54307142Y-24508557D01*
X54307142Y-24508557D02*
X54821428Y-25408557D01*
X54821428Y-25408557D02*
X54821428Y-24508557D01*
X55292856Y-25365700D02*
X55292856Y-25408557D01*
X55292856Y-25408557D02*
X55249999Y-25494271D01*
X55249999Y-25494271D02*
X55207142Y-25537128D01*
X55978570Y-24937128D02*
X56107142Y-24979985D01*
X56107142Y-24979985D02*
X56149999Y-25022842D01*
X56149999Y-25022842D02*
X56192856Y-25108557D01*
X56192856Y-25108557D02*
X56192856Y-25237128D01*
X56192856Y-25237128D02*
X56149999Y-25322842D01*
X56149999Y-25322842D02*
X56107142Y-25365700D01*
X56107142Y-25365700D02*
X56021427Y-25408557D01*
X56021427Y-25408557D02*
X55678570Y-25408557D01*
X55678570Y-25408557D02*
X55678570Y-24508557D01*
X55678570Y-24508557D02*
X55978570Y-24508557D01*
X55978570Y-24508557D02*
X56064285Y-24551414D01*
X56064285Y-24551414D02*
X56107142Y-24594271D01*
X56107142Y-24594271D02*
X56149999Y-24679985D01*
X56149999Y-24679985D02*
X56149999Y-24765700D01*
X56149999Y-24765700D02*
X56107142Y-24851414D01*
X56107142Y-24851414D02*
X56064285Y-24894271D01*
X56064285Y-24894271D02*
X55978570Y-24937128D01*
X55978570Y-24937128D02*
X55678570Y-24937128D01*
X57092856Y-25322842D02*
X57049999Y-25365700D01*
X57049999Y-25365700D02*
X56921427Y-25408557D01*
X56921427Y-25408557D02*
X56835713Y-25408557D01*
X56835713Y-25408557D02*
X56707142Y-25365700D01*
X56707142Y-25365700D02*
X56621427Y-25279985D01*
X56621427Y-25279985D02*
X56578570Y-25194271D01*
X56578570Y-25194271D02*
X56535713Y-25022842D01*
X56535713Y-25022842D02*
X56535713Y-24894271D01*
X56535713Y-24894271D02*
X56578570Y-24722842D01*
X56578570Y-24722842D02*
X56621427Y-24637128D01*
X56621427Y-24637128D02*
X56707142Y-24551414D01*
X56707142Y-24551414D02*
X56835713Y-24508557D01*
X56835713Y-24508557D02*
X56921427Y-24508557D01*
X56921427Y-24508557D02*
X57049999Y-24551414D01*
X57049999Y-24551414D02*
X57092856Y-24594271D01*
X57907142Y-25408557D02*
X57478570Y-25408557D01*
X57478570Y-25408557D02*
X57478570Y-24508557D01*
X58207141Y-25408557D02*
X58207141Y-24508557D01*
X58721427Y-25408557D02*
X58335713Y-24894271D01*
X58721427Y-24508557D02*
X58207141Y-25022842D01*
X59149998Y-25365700D02*
X59149998Y-25408557D01*
X59149998Y-25408557D02*
X59107141Y-25494271D01*
X59107141Y-25494271D02*
X59064284Y-25537128D01*
X59964284Y-25408557D02*
X59535712Y-25408557D01*
X59535712Y-25408557D02*
X59535712Y-24508557D01*
X60778569Y-25408557D02*
X60478569Y-24979985D01*
X60264283Y-25408557D02*
X60264283Y-24508557D01*
X60264283Y-24508557D02*
X60607140Y-24508557D01*
X60607140Y-24508557D02*
X60692855Y-24551414D01*
X60692855Y-24551414D02*
X60735712Y-24594271D01*
X60735712Y-24594271D02*
X60778569Y-24679985D01*
X60778569Y-24679985D02*
X60778569Y-24808557D01*
X60778569Y-24808557D02*
X60735712Y-24894271D01*
X60735712Y-24894271D02*
X60692855Y-24937128D01*
X60692855Y-24937128D02*
X60607140Y-24979985D01*
X60607140Y-24979985D02*
X60264283Y-24979985D01*
X61678569Y-25322842D02*
X61635712Y-25365700D01*
X61635712Y-25365700D02*
X61507140Y-25408557D01*
X61507140Y-25408557D02*
X61421426Y-25408557D01*
X61421426Y-25408557D02*
X61292855Y-25365700D01*
X61292855Y-25365700D02*
X61207140Y-25279985D01*
X61207140Y-25279985D02*
X61164283Y-25194271D01*
X61164283Y-25194271D02*
X61121426Y-25022842D01*
X61121426Y-25022842D02*
X61121426Y-24894271D01*
X61121426Y-24894271D02*
X61164283Y-24722842D01*
X61164283Y-24722842D02*
X61207140Y-24637128D01*
X61207140Y-24637128D02*
X61292855Y-24551414D01*
X61292855Y-24551414D02*
X61421426Y-24508557D01*
X61421426Y-24508557D02*
X61507140Y-24508557D01*
X61507140Y-24508557D02*
X61635712Y-24551414D01*
X61635712Y-24551414D02*
X61678569Y-24594271D01*
X11457143Y-65290200D02*
X11628572Y-65347342D01*
X11628572Y-65347342D02*
X11914286Y-65347342D01*
X11914286Y-65347342D02*
X12028572Y-65290200D01*
X12028572Y-65290200D02*
X12085714Y-65233057D01*
X12085714Y-65233057D02*
X12142857Y-65118771D01*
X12142857Y-65118771D02*
X12142857Y-65004485D01*
X12142857Y-65004485D02*
X12085714Y-64890200D01*
X12085714Y-64890200D02*
X12028572Y-64833057D01*
X12028572Y-64833057D02*
X11914286Y-64775914D01*
X11914286Y-64775914D02*
X11685714Y-64718771D01*
X11685714Y-64718771D02*
X11571429Y-64661628D01*
X11571429Y-64661628D02*
X11514286Y-64604485D01*
X11514286Y-64604485D02*
X11457143Y-64490200D01*
X11457143Y-64490200D02*
X11457143Y-64375914D01*
X11457143Y-64375914D02*
X11514286Y-64261628D01*
X11514286Y-64261628D02*
X11571429Y-64204485D01*
X11571429Y-64204485D02*
X11685714Y-64147342D01*
X11685714Y-64147342D02*
X11971429Y-64147342D01*
X11971429Y-64147342D02*
X12142857Y-64204485D01*
X12657143Y-65347342D02*
X12657143Y-64147342D01*
X12657143Y-64147342D02*
X13114286Y-64147342D01*
X13114286Y-64147342D02*
X13228571Y-64204485D01*
X13228571Y-64204485D02*
X13285714Y-64261628D01*
X13285714Y-64261628D02*
X13342857Y-64375914D01*
X13342857Y-64375914D02*
X13342857Y-64547342D01*
X13342857Y-64547342D02*
X13285714Y-64661628D01*
X13285714Y-64661628D02*
X13228571Y-64718771D01*
X13228571Y-64718771D02*
X13114286Y-64775914D01*
X13114286Y-64775914D02*
X12657143Y-64775914D01*
X13857143Y-65347342D02*
X13857143Y-64147342D01*
X14542857Y-65347342D02*
X14028571Y-64661628D01*
X14542857Y-64147342D02*
X13857143Y-64833057D01*
X18228571Y-65547342D02*
X17657143Y-65547342D01*
X17657143Y-65547342D02*
X17657143Y-64347342D01*
X18628572Y-64918771D02*
X19028572Y-64918771D01*
X19200000Y-65547342D02*
X18628572Y-65547342D01*
X18628572Y-65547342D02*
X18628572Y-64347342D01*
X18628572Y-64347342D02*
X19200000Y-64347342D01*
X19714286Y-65547342D02*
X19714286Y-64347342D01*
X19714286Y-64347342D02*
X20000000Y-64347342D01*
X20000000Y-64347342D02*
X20171429Y-64404485D01*
X20171429Y-64404485D02*
X20285714Y-64518771D01*
X20285714Y-64518771D02*
X20342857Y-64633057D01*
X20342857Y-64633057D02*
X20400000Y-64861628D01*
X20400000Y-64861628D02*
X20400000Y-65033057D01*
X20400000Y-65033057D02*
X20342857Y-65261628D01*
X20342857Y-65261628D02*
X20285714Y-65375914D01*
X20285714Y-65375914D02*
X20171429Y-65490200D01*
X20171429Y-65490200D02*
X20000000Y-65547342D01*
X20000000Y-65547342D02*
X19714286Y-65547342D01*
X22628572Y-65547342D02*
X22628572Y-64347342D01*
X23314286Y-65547342D02*
X22800000Y-64861628D01*
X23314286Y-64347342D02*
X22628572Y-65033057D01*
X23828572Y-64918771D02*
X24228572Y-64918771D01*
X24400000Y-65547342D02*
X23828572Y-65547342D01*
X23828572Y-65547342D02*
X23828572Y-64347342D01*
X23828572Y-64347342D02*
X24400000Y-64347342D01*
X25142857Y-64975914D02*
X25142857Y-65547342D01*
X24742857Y-64347342D02*
X25142857Y-64975914D01*
X25142857Y-64975914D02*
X25542857Y-64347342D01*
X44757142Y-34847342D02*
X44985714Y-34847342D01*
X44985714Y-34847342D02*
X45099999Y-34904485D01*
X45099999Y-34904485D02*
X45214285Y-35018771D01*
X45214285Y-35018771D02*
X45271428Y-35247342D01*
X45271428Y-35247342D02*
X45271428Y-35647342D01*
X45271428Y-35647342D02*
X45214285Y-35875914D01*
X45214285Y-35875914D02*
X45099999Y-35990200D01*
X45099999Y-35990200D02*
X44985714Y-36047342D01*
X44985714Y-36047342D02*
X44757142Y-36047342D01*
X44757142Y-36047342D02*
X44642857Y-35990200D01*
X44642857Y-35990200D02*
X44528571Y-35875914D01*
X44528571Y-35875914D02*
X44471428Y-35647342D01*
X44471428Y-35647342D02*
X44471428Y-35247342D01*
X44471428Y-35247342D02*
X44528571Y-35018771D01*
X44528571Y-35018771D02*
X44642857Y-34904485D01*
X44642857Y-34904485D02*
X44757142Y-34847342D01*
X46357142Y-36047342D02*
X45785714Y-36047342D01*
X45785714Y-36047342D02*
X45785714Y-34847342D01*
X46757143Y-35418771D02*
X47157143Y-35418771D01*
X47328571Y-36047342D02*
X46757143Y-36047342D01*
X46757143Y-36047342D02*
X46757143Y-34847342D01*
X46757143Y-34847342D02*
X47328571Y-34847342D01*
X47842857Y-36047342D02*
X47842857Y-34847342D01*
X47842857Y-34847342D02*
X48128571Y-34847342D01*
X48128571Y-34847342D02*
X48300000Y-34904485D01*
X48300000Y-34904485D02*
X48414285Y-35018771D01*
X48414285Y-35018771D02*
X48471428Y-35133057D01*
X48471428Y-35133057D02*
X48528571Y-35361628D01*
X48528571Y-35361628D02*
X48528571Y-35533057D01*
X48528571Y-35533057D02*
X48471428Y-35761628D01*
X48471428Y-35761628D02*
X48414285Y-35875914D01*
X48414285Y-35875914D02*
X48300000Y-35990200D01*
X48300000Y-35990200D02*
X48128571Y-36047342D01*
X48128571Y-36047342D02*
X47842857Y-36047342D01*
X13828569Y-2132390D02*
X14361903Y-3732390D01*
X14361903Y-3732390D02*
X14895236Y-2132390D01*
X15657141Y-3732390D02*
X15504760Y-3656200D01*
X15504760Y-3656200D02*
X15428570Y-3580009D01*
X15428570Y-3580009D02*
X15352379Y-3427628D01*
X15352379Y-3427628D02*
X15352379Y-2970485D01*
X15352379Y-2970485D02*
X15428570Y-2818104D01*
X15428570Y-2818104D02*
X15504760Y-2741914D01*
X15504760Y-2741914D02*
X15657141Y-2665723D01*
X15657141Y-2665723D02*
X15885713Y-2665723D01*
X15885713Y-2665723D02*
X16038094Y-2741914D01*
X16038094Y-2741914D02*
X16114284Y-2818104D01*
X16114284Y-2818104D02*
X16190475Y-2970485D01*
X16190475Y-2970485D02*
X16190475Y-3427628D01*
X16190475Y-3427628D02*
X16114284Y-3580009D01*
X16114284Y-3580009D02*
X16038094Y-3656200D01*
X16038094Y-3656200D02*
X15885713Y-3732390D01*
X15885713Y-3732390D02*
X15657141Y-3732390D01*
X16876189Y-3732390D02*
X16876189Y-2665723D01*
X16876189Y-2132390D02*
X16799998Y-2208580D01*
X16799998Y-2208580D02*
X16876189Y-2284771D01*
X16876189Y-2284771D02*
X16952379Y-2208580D01*
X16952379Y-2208580D02*
X16876189Y-2132390D01*
X16876189Y-2132390D02*
X16876189Y-2284771D01*
X18323808Y-3656200D02*
X18171427Y-3732390D01*
X18171427Y-3732390D02*
X17866665Y-3732390D01*
X17866665Y-3732390D02*
X17714284Y-3656200D01*
X17714284Y-3656200D02*
X17638094Y-3580009D01*
X17638094Y-3580009D02*
X17561903Y-3427628D01*
X17561903Y-3427628D02*
X17561903Y-2970485D01*
X17561903Y-2970485D02*
X17638094Y-2818104D01*
X17638094Y-2818104D02*
X17714284Y-2741914D01*
X17714284Y-2741914D02*
X17866665Y-2665723D01*
X17866665Y-2665723D02*
X18171427Y-2665723D01*
X18171427Y-2665723D02*
X18323808Y-2741914D01*
X19619047Y-3656200D02*
X19466666Y-3732390D01*
X19466666Y-3732390D02*
X19161904Y-3732390D01*
X19161904Y-3732390D02*
X19009523Y-3656200D01*
X19009523Y-3656200D02*
X18933332Y-3503819D01*
X18933332Y-3503819D02*
X18933332Y-2894295D01*
X18933332Y-2894295D02*
X19009523Y-2741914D01*
X19009523Y-2741914D02*
X19161904Y-2665723D01*
X19161904Y-2665723D02*
X19466666Y-2665723D01*
X19466666Y-2665723D02*
X19619047Y-2741914D01*
X19619047Y-2741914D02*
X19695237Y-2894295D01*
X19695237Y-2894295D02*
X19695237Y-3046676D01*
X19695237Y-3046676D02*
X18933332Y-3199057D01*
X20000000Y-3884771D02*
X21219047Y-3884771D01*
X22133333Y-2894295D02*
X22361905Y-2970485D01*
X22361905Y-2970485D02*
X22438095Y-3046676D01*
X22438095Y-3046676D02*
X22514286Y-3199057D01*
X22514286Y-3199057D02*
X22514286Y-3427628D01*
X22514286Y-3427628D02*
X22438095Y-3580009D01*
X22438095Y-3580009D02*
X22361905Y-3656200D01*
X22361905Y-3656200D02*
X22209524Y-3732390D01*
X22209524Y-3732390D02*
X21600000Y-3732390D01*
X21600000Y-3732390D02*
X21600000Y-2132390D01*
X21600000Y-2132390D02*
X22133333Y-2132390D01*
X22133333Y-2132390D02*
X22285714Y-2208580D01*
X22285714Y-2208580D02*
X22361905Y-2284771D01*
X22361905Y-2284771D02*
X22438095Y-2437152D01*
X22438095Y-2437152D02*
X22438095Y-2589533D01*
X22438095Y-2589533D02*
X22361905Y-2741914D01*
X22361905Y-2741914D02*
X22285714Y-2818104D01*
X22285714Y-2818104D02*
X22133333Y-2894295D01*
X22133333Y-2894295D02*
X21600000Y-2894295D01*
X23885714Y-2665723D02*
X23885714Y-3732390D01*
X23200000Y-2665723D02*
X23200000Y-3503819D01*
X23200000Y-3503819D02*
X23276190Y-3656200D01*
X23276190Y-3656200D02*
X23428571Y-3732390D01*
X23428571Y-3732390D02*
X23657143Y-3732390D01*
X23657143Y-3732390D02*
X23809524Y-3656200D01*
X23809524Y-3656200D02*
X23885714Y-3580009D01*
X25333333Y-3732390D02*
X25333333Y-2132390D01*
X25333333Y-3656200D02*
X25180952Y-3732390D01*
X25180952Y-3732390D02*
X24876190Y-3732390D01*
X24876190Y-3732390D02*
X24723809Y-3656200D01*
X24723809Y-3656200D02*
X24647619Y-3580009D01*
X24647619Y-3580009D02*
X24571428Y-3427628D01*
X24571428Y-3427628D02*
X24571428Y-2970485D01*
X24571428Y-2970485D02*
X24647619Y-2818104D01*
X24647619Y-2818104D02*
X24723809Y-2741914D01*
X24723809Y-2741914D02*
X24876190Y-2665723D01*
X24876190Y-2665723D02*
X25180952Y-2665723D01*
X25180952Y-2665723D02*
X25333333Y-2741914D01*
X26780952Y-3732390D02*
X26780952Y-2132390D01*
X26780952Y-3656200D02*
X26628571Y-3732390D01*
X26628571Y-3732390D02*
X26323809Y-3732390D01*
X26323809Y-3732390D02*
X26171428Y-3656200D01*
X26171428Y-3656200D02*
X26095238Y-3580009D01*
X26095238Y-3580009D02*
X26019047Y-3427628D01*
X26019047Y-3427628D02*
X26019047Y-2970485D01*
X26019047Y-2970485D02*
X26095238Y-2818104D01*
X26095238Y-2818104D02*
X26171428Y-2741914D01*
X26171428Y-2741914D02*
X26323809Y-2665723D01*
X26323809Y-2665723D02*
X26628571Y-2665723D01*
X26628571Y-2665723D02*
X26780952Y-2741914D01*
X27390476Y-2665723D02*
X27771428Y-3732390D01*
X28152381Y-2665723D02*
X27771428Y-3732390D01*
X27771428Y-3732390D02*
X27619047Y-4113342D01*
X27619047Y-4113342D02*
X27542857Y-4189533D01*
X27542857Y-4189533D02*
X27390476Y-4265723D01*
X29980953Y-2437152D02*
X31733334Y-2437152D01*
X30361905Y-3656200D02*
X31580953Y-3656200D01*
X30361905Y-3351438D02*
X31580953Y-3351438D01*
X30361905Y-3046676D02*
X31580953Y-3046676D01*
X30361905Y-2741914D02*
X30361905Y-3732390D01*
X31504762Y-1980009D02*
X30742858Y-2056200D01*
X29980953Y-2056200D02*
X29980953Y-2970485D01*
X29980953Y-2970485D02*
X29904762Y-3580009D01*
X30361905Y-2741914D02*
X31580953Y-2741914D01*
X31580953Y-2741914D02*
X31580953Y-3732390D01*
X29980953Y-2132390D02*
X30438096Y-2132390D01*
X30438096Y-2132390D02*
X30895239Y-2056200D01*
X30895239Y-2056200D02*
X30895239Y-2665723D01*
X32190477Y-2360961D02*
X32876191Y-2360961D01*
X32495239Y-2437152D02*
X32114286Y-3275247D01*
X32571429Y-2665723D02*
X32876191Y-2970485D01*
X32571429Y-1903819D02*
X32571429Y-3732390D01*
X33028572Y-2056200D02*
X34019048Y-2056200D01*
X33028572Y-2056200D02*
X33028572Y-2970485D01*
X33028572Y-2970485D02*
X32952382Y-3580009D01*
X33180953Y-2589533D02*
X33485715Y-3275247D01*
X33485715Y-3275247D02*
X33866667Y-3580009D01*
X33866667Y-3580009D02*
X34095239Y-3732390D01*
X33028572Y-2589533D02*
X34019048Y-2589533D01*
X34019048Y-2589533D02*
X33714286Y-3199057D01*
X33714286Y-3199057D02*
X33409525Y-3580009D01*
X33409525Y-3580009D02*
X33104763Y-3732390D01*
X19531905Y-58494819D02*
X19531905Y-57494819D01*
X19531905Y-57494819D02*
X19770000Y-57494819D01*
X19770000Y-57494819D02*
X19912857Y-57542438D01*
X19912857Y-57542438D02*
X20008095Y-57637676D01*
X20008095Y-57637676D02*
X20055714Y-57732914D01*
X20055714Y-57732914D02*
X20103333Y-57923390D01*
X20103333Y-57923390D02*
X20103333Y-58066247D01*
X20103333Y-58066247D02*
X20055714Y-58256723D01*
X20055714Y-58256723D02*
X20008095Y-58351961D01*
X20008095Y-58351961D02*
X19912857Y-58447200D01*
X19912857Y-58447200D02*
X19770000Y-58494819D01*
X19770000Y-58494819D02*
X19531905Y-58494819D01*
X21055714Y-58494819D02*
X20484286Y-58494819D01*
X20770000Y-58494819D02*
X20770000Y-57494819D01*
X20770000Y-57494819D02*
X20674762Y-57637676D01*
X20674762Y-57637676D02*
X20579524Y-57732914D01*
X20579524Y-57732914D02*
X20484286Y-57780533D01*
X49666666Y-22684819D02*
X49666666Y-23399104D01*
X49666666Y-23399104D02*
X49619047Y-23541961D01*
X49619047Y-23541961D02*
X49523809Y-23637200D01*
X49523809Y-23637200D02*
X49380952Y-23684819D01*
X49380952Y-23684819D02*
X49285714Y-23684819D01*
X50619047Y-22684819D02*
X50142857Y-22684819D01*
X50142857Y-22684819D02*
X50095238Y-23161009D01*
X50095238Y-23161009D02*
X50142857Y-23113390D01*
X50142857Y-23113390D02*
X50238095Y-23065771D01*
X50238095Y-23065771D02*
X50476190Y-23065771D01*
X50476190Y-23065771D02*
X50571428Y-23113390D01*
X50571428Y-23113390D02*
X50619047Y-23161009D01*
X50619047Y-23161009D02*
X50666666Y-23256247D01*
X50666666Y-23256247D02*
X50666666Y-23494342D01*
X50666666Y-23494342D02*
X50619047Y-23589580D01*
X50619047Y-23589580D02*
X50571428Y-23637200D01*
X50571428Y-23637200D02*
X50476190Y-23684819D01*
X50476190Y-23684819D02*
X50238095Y-23684819D01*
X50238095Y-23684819D02*
X50142857Y-23637200D01*
X50142857Y-23637200D02*
X50095238Y-23589580D01*
X49859580Y-3416666D02*
X49907200Y-3464285D01*
X49907200Y-3464285D02*
X49954819Y-3607142D01*
X49954819Y-3607142D02*
X49954819Y-3702380D01*
X49954819Y-3702380D02*
X49907200Y-3845237D01*
X49907200Y-3845237D02*
X49811961Y-3940475D01*
X49811961Y-3940475D02*
X49716723Y-3988094D01*
X49716723Y-3988094D02*
X49526247Y-4035713D01*
X49526247Y-4035713D02*
X49383390Y-4035713D01*
X49383390Y-4035713D02*
X49192914Y-3988094D01*
X49192914Y-3988094D02*
X49097676Y-3940475D01*
X49097676Y-3940475D02*
X49002438Y-3845237D01*
X49002438Y-3845237D02*
X48954819Y-3702380D01*
X48954819Y-3702380D02*
X48954819Y-3607142D01*
X48954819Y-3607142D02*
X49002438Y-3464285D01*
X49002438Y-3464285D02*
X49050057Y-3416666D01*
X49050057Y-3035713D02*
X49002438Y-2988094D01*
X49002438Y-2988094D02*
X48954819Y-2892856D01*
X48954819Y-2892856D02*
X48954819Y-2654761D01*
X48954819Y-2654761D02*
X49002438Y-2559523D01*
X49002438Y-2559523D02*
X49050057Y-2511904D01*
X49050057Y-2511904D02*
X49145295Y-2464285D01*
X49145295Y-2464285D02*
X49240533Y-2464285D01*
X49240533Y-2464285D02*
X49383390Y-2511904D01*
X49383390Y-2511904D02*
X49954819Y-3083332D01*
X49954819Y-3083332D02*
X49954819Y-2464285D01*
X11666666Y-4684819D02*
X11666666Y-5399104D01*
X11666666Y-5399104D02*
X11619047Y-5541961D01*
X11619047Y-5541961D02*
X11523809Y-5637200D01*
X11523809Y-5637200D02*
X11380952Y-5684819D01*
X11380952Y-5684819D02*
X11285714Y-5684819D01*
X12666666Y-5684819D02*
X12095238Y-5684819D01*
X12380952Y-5684819D02*
X12380952Y-4684819D01*
X12380952Y-4684819D02*
X12285714Y-4827676D01*
X12285714Y-4827676D02*
X12190476Y-4922914D01*
X12190476Y-4922914D02*
X12095238Y-4970533D01*
X48583333Y-49759580D02*
X48535714Y-49807200D01*
X48535714Y-49807200D02*
X48392857Y-49854819D01*
X48392857Y-49854819D02*
X48297619Y-49854819D01*
X48297619Y-49854819D02*
X48154762Y-49807200D01*
X48154762Y-49807200D02*
X48059524Y-49711961D01*
X48059524Y-49711961D02*
X48011905Y-49616723D01*
X48011905Y-49616723D02*
X47964286Y-49426247D01*
X47964286Y-49426247D02*
X47964286Y-49283390D01*
X47964286Y-49283390D02*
X48011905Y-49092914D01*
X48011905Y-49092914D02*
X48059524Y-48997676D01*
X48059524Y-48997676D02*
X48154762Y-48902438D01*
X48154762Y-48902438D02*
X48297619Y-48854819D01*
X48297619Y-48854819D02*
X48392857Y-48854819D01*
X48392857Y-48854819D02*
X48535714Y-48902438D01*
X48535714Y-48902438D02*
X48583333Y-48950057D01*
X49535714Y-49854819D02*
X48964286Y-49854819D01*
X49250000Y-49854819D02*
X49250000Y-48854819D01*
X49250000Y-48854819D02*
X49154762Y-48997676D01*
X49154762Y-48997676D02*
X49059524Y-49092914D01*
X49059524Y-49092914D02*
X48964286Y-49140533D01*
X43083333Y-33859580D02*
X43035714Y-33907200D01*
X43035714Y-33907200D02*
X42892857Y-33954819D01*
X42892857Y-33954819D02*
X42797619Y-33954819D01*
X42797619Y-33954819D02*
X42654762Y-33907200D01*
X42654762Y-33907200D02*
X42559524Y-33811961D01*
X42559524Y-33811961D02*
X42511905Y-33716723D01*
X42511905Y-33716723D02*
X42464286Y-33526247D01*
X42464286Y-33526247D02*
X42464286Y-33383390D01*
X42464286Y-33383390D02*
X42511905Y-33192914D01*
X42511905Y-33192914D02*
X42559524Y-33097676D01*
X42559524Y-33097676D02*
X42654762Y-33002438D01*
X42654762Y-33002438D02*
X42797619Y-32954819D01*
X42797619Y-32954819D02*
X42892857Y-32954819D01*
X42892857Y-32954819D02*
X43035714Y-33002438D01*
X43035714Y-33002438D02*
X43083333Y-33050057D01*
X43940476Y-33288152D02*
X43940476Y-33954819D01*
X43702381Y-32907200D02*
X43464286Y-33621485D01*
X43464286Y-33621485D02*
X44083333Y-33621485D01*
X8336666Y-11724819D02*
X8336666Y-12439104D01*
X8336666Y-12439104D02*
X8289047Y-12581961D01*
X8289047Y-12581961D02*
X8193809Y-12677200D01*
X8193809Y-12677200D02*
X8050952Y-12724819D01*
X8050952Y-12724819D02*
X7955714Y-12724819D01*
X8765238Y-11820057D02*
X8812857Y-11772438D01*
X8812857Y-11772438D02*
X8908095Y-11724819D01*
X8908095Y-11724819D02*
X9146190Y-11724819D01*
X9146190Y-11724819D02*
X9241428Y-11772438D01*
X9241428Y-11772438D02*
X9289047Y-11820057D01*
X9289047Y-11820057D02*
X9336666Y-11915295D01*
X9336666Y-11915295D02*
X9336666Y-12010533D01*
X9336666Y-12010533D02*
X9289047Y-12153390D01*
X9289047Y-12153390D02*
X8717619Y-12724819D01*
X8717619Y-12724819D02*
X9336666Y-12724819D01*
X13059580Y-3916666D02*
X13107200Y-3964285D01*
X13107200Y-3964285D02*
X13154819Y-4107142D01*
X13154819Y-4107142D02*
X13154819Y-4202380D01*
X13154819Y-4202380D02*
X13107200Y-4345237D01*
X13107200Y-4345237D02*
X13011961Y-4440475D01*
X13011961Y-4440475D02*
X12916723Y-4488094D01*
X12916723Y-4488094D02*
X12726247Y-4535713D01*
X12726247Y-4535713D02*
X12583390Y-4535713D01*
X12583390Y-4535713D02*
X12392914Y-4488094D01*
X12392914Y-4488094D02*
X12297676Y-4440475D01*
X12297676Y-4440475D02*
X12202438Y-4345237D01*
X12202438Y-4345237D02*
X12154819Y-4202380D01*
X12154819Y-4202380D02*
X12154819Y-4107142D01*
X12154819Y-4107142D02*
X12202438Y-3964285D01*
X12202438Y-3964285D02*
X12250057Y-3916666D01*
X12154819Y-3583332D02*
X12154819Y-2964285D01*
X12154819Y-2964285D02*
X12535771Y-3297618D01*
X12535771Y-3297618D02*
X12535771Y-3154761D01*
X12535771Y-3154761D02*
X12583390Y-3059523D01*
X12583390Y-3059523D02*
X12631009Y-3011904D01*
X12631009Y-3011904D02*
X12726247Y-2964285D01*
X12726247Y-2964285D02*
X12964342Y-2964285D01*
X12964342Y-2964285D02*
X13059580Y-3011904D01*
X13059580Y-3011904D02*
X13107200Y-3059523D01*
X13107200Y-3059523D02*
X13154819Y-3154761D01*
X13154819Y-3154761D02*
X13154819Y-3440475D01*
X13154819Y-3440475D02*
X13107200Y-3535713D01*
X13107200Y-3535713D02*
X13059580Y-3583332D01*
X27916667Y-60407200D02*
X28059524Y-60454819D01*
X28059524Y-60454819D02*
X28297619Y-60454819D01*
X28297619Y-60454819D02*
X28392857Y-60407200D01*
X28392857Y-60407200D02*
X28440476Y-60359580D01*
X28440476Y-60359580D02*
X28488095Y-60264342D01*
X28488095Y-60264342D02*
X28488095Y-60169104D01*
X28488095Y-60169104D02*
X28440476Y-60073866D01*
X28440476Y-60073866D02*
X28392857Y-60026247D01*
X28392857Y-60026247D02*
X28297619Y-59978628D01*
X28297619Y-59978628D02*
X28107143Y-59931009D01*
X28107143Y-59931009D02*
X28011905Y-59883390D01*
X28011905Y-59883390D02*
X27964286Y-59835771D01*
X27964286Y-59835771D02*
X27916667Y-59740533D01*
X27916667Y-59740533D02*
X27916667Y-59645295D01*
X27916667Y-59645295D02*
X27964286Y-59550057D01*
X27964286Y-59550057D02*
X28011905Y-59502438D01*
X28011905Y-59502438D02*
X28107143Y-59454819D01*
X28107143Y-59454819D02*
X28345238Y-59454819D01*
X28345238Y-59454819D02*
X28488095Y-59502438D01*
X28821429Y-59454819D02*
X29059524Y-60454819D01*
X29059524Y-60454819D02*
X29250000Y-59740533D01*
X29250000Y-59740533D02*
X29440476Y-60454819D01*
X29440476Y-60454819D02*
X29678572Y-59454819D01*
X30583333Y-60454819D02*
X30011905Y-60454819D01*
X30297619Y-60454819D02*
X30297619Y-59454819D01*
X30297619Y-59454819D02*
X30202381Y-59597676D01*
X30202381Y-59597676D02*
X30107143Y-59692914D01*
X30107143Y-59692914D02*
X30011905Y-59740533D01*
X46643333Y-60084819D02*
X46310000Y-59608628D01*
X46071905Y-60084819D02*
X46071905Y-59084819D01*
X46071905Y-59084819D02*
X46452857Y-59084819D01*
X46452857Y-59084819D02*
X46548095Y-59132438D01*
X46548095Y-59132438D02*
X46595714Y-59180057D01*
X46595714Y-59180057D02*
X46643333Y-59275295D01*
X46643333Y-59275295D02*
X46643333Y-59418152D01*
X46643333Y-59418152D02*
X46595714Y-59513390D01*
X46595714Y-59513390D02*
X46548095Y-59561009D01*
X46548095Y-59561009D02*
X46452857Y-59608628D01*
X46452857Y-59608628D02*
X46071905Y-59608628D01*
X47595714Y-60084819D02*
X47024286Y-60084819D01*
X47310000Y-60084819D02*
X47310000Y-59084819D01*
X47310000Y-59084819D02*
X47214762Y-59227676D01*
X47214762Y-59227676D02*
X47119524Y-59322914D01*
X47119524Y-59322914D02*
X47024286Y-59370533D01*
X34526666Y-4684819D02*
X34526666Y-5399104D01*
X34526666Y-5399104D02*
X34479047Y-5541961D01*
X34479047Y-5541961D02*
X34383809Y-5637200D01*
X34383809Y-5637200D02*
X34240952Y-5684819D01*
X34240952Y-5684819D02*
X34145714Y-5684819D01*
X34907619Y-4684819D02*
X35526666Y-4684819D01*
X35526666Y-4684819D02*
X35193333Y-5065771D01*
X35193333Y-5065771D02*
X35336190Y-5065771D01*
X35336190Y-5065771D02*
X35431428Y-5113390D01*
X35431428Y-5113390D02*
X35479047Y-5161009D01*
X35479047Y-5161009D02*
X35526666Y-5256247D01*
X35526666Y-5256247D02*
X35526666Y-5494342D01*
X35526666Y-5494342D02*
X35479047Y-5589580D01*
X35479047Y-5589580D02*
X35431428Y-5637200D01*
X35431428Y-5637200D02*
X35336190Y-5684819D01*
X35336190Y-5684819D02*
X35050476Y-5684819D01*
X35050476Y-5684819D02*
X34955238Y-5637200D01*
X34955238Y-5637200D02*
X34907619Y-5589580D01*
X49666666Y-4684819D02*
X49666666Y-5399104D01*
X49666666Y-5399104D02*
X49619047Y-5541961D01*
X49619047Y-5541961D02*
X49523809Y-5637200D01*
X49523809Y-5637200D02*
X49380952Y-5684819D01*
X49380952Y-5684819D02*
X49285714Y-5684819D01*
X50571428Y-5018152D02*
X50571428Y-5684819D01*
X50333333Y-4637200D02*
X50095238Y-5351485D01*
X50095238Y-5351485D02*
X50714285Y-5351485D01*
X13666666Y-59124819D02*
X13666666Y-59839104D01*
X13666666Y-59839104D02*
X13619047Y-59981961D01*
X13619047Y-59981961D02*
X13523809Y-60077200D01*
X13523809Y-60077200D02*
X13380952Y-60124819D01*
X13380952Y-60124819D02*
X13285714Y-60124819D01*
X14571428Y-59124819D02*
X14380952Y-59124819D01*
X14380952Y-59124819D02*
X14285714Y-59172438D01*
X14285714Y-59172438D02*
X14238095Y-59220057D01*
X14238095Y-59220057D02*
X14142857Y-59362914D01*
X14142857Y-59362914D02*
X14095238Y-59553390D01*
X14095238Y-59553390D02*
X14095238Y-59934342D01*
X14095238Y-59934342D02*
X14142857Y-60029580D01*
X14142857Y-60029580D02*
X14190476Y-60077200D01*
X14190476Y-60077200D02*
X14285714Y-60124819D01*
X14285714Y-60124819D02*
X14476190Y-60124819D01*
X14476190Y-60124819D02*
X14571428Y-60077200D01*
X14571428Y-60077200D02*
X14619047Y-60029580D01*
X14619047Y-60029580D02*
X14666666Y-59934342D01*
X14666666Y-59934342D02*
X14666666Y-59696247D01*
X14666666Y-59696247D02*
X14619047Y-59601009D01*
X14619047Y-59601009D02*
X14571428Y-59553390D01*
X14571428Y-59553390D02*
X14476190Y-59505771D01*
X14476190Y-59505771D02*
X14285714Y-59505771D01*
X14285714Y-59505771D02*
X14190476Y-59553390D01*
X14190476Y-59553390D02*
X14142857Y-59601009D01*
X14142857Y-59601009D02*
X14095238Y-59696247D01*
%TO.C,D1*%
D11*
X17710000Y-60455000D02*
X17710000Y-63545000D01*
X17710000Y-60455170D02*
G75*
G02*
X23260000Y-62000462I2560000J-1544830D01*
G01*
X23260000Y-61999538D02*
G75*
G02*
X17710000Y-63544830I-2990000J-462D01*
G01*
X22770000Y-62000000D02*
G75*
G02*
X17770000Y-62000000I-2500000J0D01*
G01*
X17770000Y-62000000D02*
G75*
G02*
X22770000Y-62000000I2500000J0D01*
G01*
%TO.C,J5*%
X48670000Y-27270000D02*
X48670000Y-34950000D01*
X48670000Y-27270000D02*
X51330000Y-27270000D01*
X48670000Y-34950000D02*
X51330000Y-34950000D01*
X50000000Y-24670000D02*
X51330000Y-24670000D01*
X51330000Y-24670000D02*
X51330000Y-26000000D01*
X51330000Y-27270000D02*
X51330000Y-34950000D01*
%TO.C,C2*%
X50630000Y-630000D02*
X53370000Y-630000D01*
X50630000Y-5870000D02*
X50630000Y-630000D01*
X50630000Y-5870000D02*
X53370000Y-5870000D01*
X53370000Y-5870000D02*
X53370000Y-630000D01*
%TO.C,J1*%
X10670000Y-9270000D02*
X10670000Y-55050000D01*
X10670000Y-9270000D02*
X13330000Y-9270000D01*
X10670000Y-55050000D02*
X13330000Y-55050000D01*
X12000000Y-6670000D02*
X13330000Y-6670000D01*
X13330000Y-6670000D02*
X13330000Y-8000000D01*
X13330000Y-9270000D02*
X13330000Y-55050000D01*
%TO.C,C1*%
X45509000Y-45402000D02*
X45509000Y-44598000D01*
X45549000Y-45633000D02*
X45549000Y-44367000D01*
X45589000Y-45802000D02*
X45589000Y-44198000D01*
X45629000Y-45940000D02*
X45629000Y-44060000D01*
X45669000Y-46059000D02*
X45669000Y-43941000D01*
X45709000Y-46165000D02*
X45709000Y-43835000D01*
X45749000Y-46262000D02*
X45749000Y-43738000D01*
X45789000Y-46350000D02*
X45789000Y-43650000D01*
X45829000Y-46432000D02*
X45829000Y-43568000D01*
X45869000Y-46509000D02*
X45869000Y-43491000D01*
X45909000Y-46581000D02*
X45909000Y-43419000D01*
X45949000Y-46650000D02*
X45949000Y-43350000D01*
X45989000Y-46714000D02*
X45989000Y-43286000D01*
X46029000Y-46776000D02*
X46029000Y-43224000D01*
X46069000Y-46834000D02*
X46069000Y-43166000D01*
X46109000Y-46890000D02*
X46109000Y-43110000D01*
X46149000Y-46944000D02*
X46149000Y-43056000D01*
X46189000Y-46995000D02*
X46189000Y-43005000D01*
X46229000Y-47044000D02*
X46229000Y-42956000D01*
X46269000Y-47092000D02*
X46269000Y-42908000D01*
X46309000Y-47137000D02*
X46309000Y-42863000D01*
X46349000Y-47182000D02*
X46349000Y-42818000D01*
X46389000Y-47224000D02*
X46389000Y-42776000D01*
X46429000Y-47265000D02*
X46429000Y-42735000D01*
X46469000Y-43960000D02*
X46469000Y-42695000D01*
X46469000Y-47305000D02*
X46469000Y-46040000D01*
X46509000Y-43960000D02*
X46509000Y-42657000D01*
X46509000Y-47343000D02*
X46509000Y-46040000D01*
X46549000Y-43960000D02*
X46549000Y-42620000D01*
X46549000Y-47380000D02*
X46549000Y-46040000D01*
X46589000Y-43960000D02*
X46589000Y-42584000D01*
X46589000Y-47416000D02*
X46589000Y-46040000D01*
X46629000Y-43960000D02*
X46629000Y-42550000D01*
X46629000Y-47450000D02*
X46629000Y-46040000D01*
X46669000Y-43960000D02*
X46669000Y-42516000D01*
X46669000Y-47484000D02*
X46669000Y-46040000D01*
X46709000Y-43960000D02*
X46709000Y-42484000D01*
X46709000Y-47516000D02*
X46709000Y-46040000D01*
X46749000Y-43960000D02*
X46749000Y-42452000D01*
X46749000Y-47548000D02*
X46749000Y-46040000D01*
X46789000Y-43960000D02*
X46789000Y-42422000D01*
X46789000Y-47578000D02*
X46789000Y-46040000D01*
X46829000Y-43960000D02*
X46829000Y-42393000D01*
X46829000Y-47607000D02*
X46829000Y-46040000D01*
X46869000Y-43960000D02*
X46869000Y-42364000D01*
X46869000Y-47636000D02*
X46869000Y-46040000D01*
X46909000Y-43960000D02*
X46909000Y-42336000D01*
X46909000Y-47664000D02*
X46909000Y-46040000D01*
X46949000Y-43960000D02*
X46949000Y-42310000D01*
X46949000Y-47690000D02*
X46949000Y-46040000D01*
X46989000Y-43960000D02*
X46989000Y-42284000D01*
X46989000Y-47716000D02*
X46989000Y-46040000D01*
X47029000Y-43960000D02*
X47029000Y-42258000D01*
X47029000Y-47742000D02*
X47029000Y-46040000D01*
X47069000Y-43960000D02*
X47069000Y-42234000D01*
X47069000Y-47766000D02*
X47069000Y-46040000D01*
X47109000Y-43960000D02*
X47109000Y-42210000D01*
X47109000Y-47790000D02*
X47109000Y-46040000D01*
X47149000Y-43960000D02*
X47149000Y-42188000D01*
X47149000Y-47812000D02*
X47149000Y-46040000D01*
X47189000Y-43960000D02*
X47189000Y-42166000D01*
X47189000Y-47834000D02*
X47189000Y-46040000D01*
X47229000Y-43960000D02*
X47229000Y-42144000D01*
X47229000Y-47856000D02*
X47229000Y-46040000D01*
X47269000Y-43960000D02*
X47269000Y-42124000D01*
X47269000Y-47876000D02*
X47269000Y-46040000D01*
X47309000Y-43960000D02*
X47309000Y-42104000D01*
X47309000Y-47896000D02*
X47309000Y-46040000D01*
X47349000Y-43960000D02*
X47349000Y-42084000D01*
X47349000Y-47916000D02*
X47349000Y-46040000D01*
X47389000Y-43960000D02*
X47389000Y-42066000D01*
X47389000Y-47934000D02*
X47389000Y-46040000D01*
X47429000Y-43960000D02*
X47429000Y-42048000D01*
X47429000Y-47952000D02*
X47429000Y-46040000D01*
X47469000Y-43960000D02*
X47469000Y-42030000D01*
X47469000Y-47970000D02*
X47469000Y-46040000D01*
X47509000Y-43960000D02*
X47509000Y-42014000D01*
X47509000Y-47986000D02*
X47509000Y-46040000D01*
X47549000Y-43960000D02*
X47549000Y-41998000D01*
X47549000Y-48002000D02*
X47549000Y-46040000D01*
X47589000Y-43960000D02*
X47589000Y-41982000D01*
X47589000Y-48018000D02*
X47589000Y-46040000D01*
X47629000Y-43960000D02*
X47629000Y-41967000D01*
X47629000Y-48033000D02*
X47629000Y-46040000D01*
X47669000Y-43960000D02*
X47669000Y-41953000D01*
X47669000Y-48047000D02*
X47669000Y-46040000D01*
X47709000Y-43960000D02*
X47709000Y-41939000D01*
X47709000Y-48061000D02*
X47709000Y-46040000D01*
X47749000Y-43960000D02*
X47749000Y-41926000D01*
X47749000Y-48074000D02*
X47749000Y-46040000D01*
X47789000Y-43960000D02*
X47789000Y-41914000D01*
X47789000Y-48086000D02*
X47789000Y-46040000D01*
X47829000Y-43960000D02*
X47829000Y-41902000D01*
X47829000Y-48098000D02*
X47829000Y-46040000D01*
X47869000Y-43960000D02*
X47869000Y-41890000D01*
X47869000Y-48110000D02*
X47869000Y-46040000D01*
X47909000Y-43960000D02*
X47909000Y-41879000D01*
X47909000Y-48121000D02*
X47909000Y-46040000D01*
X47949000Y-43960000D02*
X47949000Y-41869000D01*
X47949000Y-48131000D02*
X47949000Y-46040000D01*
X47989000Y-43960000D02*
X47989000Y-41859000D01*
X47989000Y-48141000D02*
X47989000Y-46040000D01*
X48029000Y-43960000D02*
X48029000Y-41850000D01*
X48029000Y-48150000D02*
X48029000Y-46040000D01*
X48070000Y-43960000D02*
X48070000Y-41841000D01*
X48070000Y-48159000D02*
X48070000Y-46040000D01*
X48110000Y-43960000D02*
X48110000Y-41833000D01*
X48110000Y-48167000D02*
X48110000Y-46040000D01*
X48150000Y-43960000D02*
X48150000Y-41825000D01*
X48150000Y-48175000D02*
X48150000Y-46040000D01*
X48190000Y-43960000D02*
X48190000Y-41818000D01*
X48190000Y-48182000D02*
X48190000Y-46040000D01*
X48230000Y-43960000D02*
X48230000Y-41811000D01*
X48230000Y-48189000D02*
X48230000Y-46040000D01*
X48270000Y-43960000D02*
X48270000Y-41805000D01*
X48270000Y-48195000D02*
X48270000Y-46040000D01*
X48310000Y-43960000D02*
X48310000Y-41799000D01*
X48310000Y-48201000D02*
X48310000Y-46040000D01*
X48350000Y-43960000D02*
X48350000Y-41794000D01*
X48350000Y-48206000D02*
X48350000Y-46040000D01*
X48390000Y-43960000D02*
X48390000Y-41789000D01*
X48390000Y-48211000D02*
X48390000Y-46040000D01*
X48430000Y-43960000D02*
X48430000Y-41785000D01*
X48430000Y-48215000D02*
X48430000Y-46040000D01*
X48470000Y-43960000D02*
X48470000Y-41782000D01*
X48470000Y-48218000D02*
X48470000Y-46040000D01*
X48510000Y-43960000D02*
X48510000Y-41778000D01*
X48510000Y-48222000D02*
X48510000Y-46040000D01*
X48550000Y-48224000D02*
X48550000Y-41776000D01*
X48590000Y-48227000D02*
X48590000Y-41773000D01*
X48630000Y-48228000D02*
X48630000Y-41772000D01*
X48670000Y-48230000D02*
X48670000Y-41770000D01*
X48710000Y-48230000D02*
X48710000Y-41770000D01*
X48750000Y-48230000D02*
X48750000Y-41770000D01*
X51935241Y-47154000D02*
X51935241Y-46524000D01*
X52250241Y-46839000D02*
X51620241Y-46839000D01*
X52020000Y-45000000D02*
G75*
G02*
X45480000Y-45000000I-3270000J0D01*
G01*
X45480000Y-45000000D02*
G75*
G02*
X52020000Y-45000000I3270000J0D01*
G01*
%TO.C,C4*%
X40630000Y-34630000D02*
X40630000Y-37370000D01*
X40630000Y-34630000D02*
X45870000Y-34630000D01*
X40630000Y-37370000D02*
X45870000Y-37370000D01*
X45870000Y-34630000D02*
X45870000Y-37370000D01*
%TO.C,J2*%
X6070000Y-8230000D02*
X6070000Y-3090000D01*
X6070000Y-10830000D02*
X6070000Y-9500000D01*
X7400000Y-10830000D02*
X6070000Y-10830000D01*
X8670000Y-8230000D02*
X6070000Y-8230000D01*
X8670000Y-10830000D02*
X8670000Y-8230000D01*
X11270000Y-3090000D02*
X6070000Y-3090000D01*
X11270000Y-10830000D02*
X8670000Y-10830000D01*
X11270000Y-10830000D02*
X11270000Y-3090000D01*
%TO.C,C3*%
X13830000Y-1130000D02*
X16570000Y-1130000D01*
X13830000Y-6370000D02*
X13830000Y-1130000D01*
X13830000Y-6370000D02*
X16570000Y-6370000D01*
X16570000Y-6370000D02*
X16570000Y-1130000D01*
%TO.C,SW1*%
X25750000Y-63500000D02*
X25750000Y-65000000D01*
X27000000Y-67500000D02*
X31500000Y-67500000D01*
X31500000Y-61000000D02*
X27000000Y-61000000D01*
X32750000Y-65000000D02*
X32750000Y-63500000D01*
%TO.C,R1*%
X43540000Y-60630000D02*
X50080000Y-60630000D01*
X43540000Y-60960000D02*
X43540000Y-60630000D01*
X43540000Y-63040000D02*
X43540000Y-63370000D01*
X43540000Y-63370000D02*
X50080000Y-63370000D01*
X50080000Y-60630000D02*
X50080000Y-60960000D01*
X50080000Y-63370000D02*
X50080000Y-63040000D01*
%TO.C,J3*%
X33530000Y-9270000D02*
X33530000Y-55050000D01*
X33530000Y-9270000D02*
X36190000Y-9270000D01*
X33530000Y-55050000D02*
X36190000Y-55050000D01*
X34860000Y-6670000D02*
X36190000Y-6670000D01*
X36190000Y-6670000D02*
X36190000Y-8000000D01*
X36190000Y-9270000D02*
X36190000Y-55050000D01*
%TO.C,J4*%
X48670000Y-9270000D02*
X48670000Y-24570000D01*
X48670000Y-9270000D02*
X51330000Y-9270000D01*
X48670000Y-24570000D02*
X51330000Y-24570000D01*
X50000000Y-6670000D02*
X51330000Y-6670000D01*
X51330000Y-6670000D02*
X51330000Y-8000000D01*
X51330000Y-9270000D02*
X51330000Y-24570000D01*
%TO.C,J6*%
X12670000Y-60670000D02*
X14000000Y-60670000D01*
X12670000Y-62000000D02*
X12670000Y-60670000D01*
X12670000Y-63270000D02*
X12670000Y-65870000D01*
X12670000Y-63270000D02*
X15330000Y-63270000D01*
X12670000Y-65870000D02*
X15330000Y-65870000D01*
X15330000Y-63270000D02*
X15330000Y-65870000D01*
%TD*%
M02*
