%TF.GenerationSoftware,KiCad,Pcbnew,10.0.6-10.0.6~ubuntu22.04.1*%
%TF.CreationDate,2026-09-29T11:27:42+08:00*%
%TF.ProjectId,shield,73686965-6c64-42e6-9b69-6361645f7063,rev?*%
%TF.SameCoordinates,Original*%
%TF.FileFunction,Copper,L2,Bot*%
%TF.FilePolarity,Positive*%
%FSLAX46Y46*%
G04 Gerber Fmt 4.6, Leading zero omitted, Abs format (unit mm)*
G04 Created by KiCad (PCBNEW 10.0.6-10.0.6~ubuntu22.04.1) date 2026-09-29 11:27:42*
%MOMM*%
%LPD*%
G01*
G04 APERTURE LIST*
%TA.AperFunction,ComponentPad*%
%ADD10R,1.800000X1.800000*%
%TD*%
%TA.AperFunction,ComponentPad*%
%ADD11C,1.800000*%
%TD*%
%TA.AperFunction,ComponentPad*%
%ADD12C,1.600000*%
%TD*%
%TA.AperFunction,ComponentPad*%
%ADD13C,2.000000*%
%TD*%
%TA.AperFunction,ComponentPad*%
%ADD14R,1.700000X1.700000*%
%TD*%
%TA.AperFunction,ComponentPad*%
%ADD15O,1.700000X1.700000*%
%TD*%
%TA.AperFunction,ComponentPad*%
%ADD16R,1.600000X1.600000*%
%TD*%
%TA.AperFunction,ComponentPad*%
%ADD17O,1.600000X1.600000*%
%TD*%
%TA.AperFunction,Conductor*%
%ADD18C,0.300000*%
%TD*%
%TA.AperFunction,Conductor*%
%ADD19C,0.500000*%
%TD*%
G04 APERTURE END LIST*
D10*
%TO.P,D1,1*%
%TO.N,LED_A*%
X19000000Y-58000000D03*
D11*
%TO.P,D1,2*%
%TO.N,GND*%
X21540000Y-58000000D03*
%TD*%
D12*
%TO.P,C2,1*%
%TO.N,5V*%
X43000000Y-42000000D03*
%TO.P,C2,2*%
%TO.N,GND*%
X40500000Y-42000000D03*
%TD*%
D13*
%TO.P,SW1,1*%
%TO.N,KEY*%
X26000000Y-58000000D03*
X32500000Y-58000000D03*
%TO.P,SW1,2*%
%TO.N,GND*%
X26000000Y-62500000D03*
X32500000Y-62500000D03*
%TD*%
D14*
%TO.P,J4,1*%
%TO.N,5V*%
X50000000Y-8000000D03*
D15*
%TO.P,J4,2*%
%TO.N,GND*%
X50000000Y-10540000D03*
%TO.P,J4,3*%
%TO.N,AMP_DIN*%
X50000000Y-13080000D03*
%TO.P,J4,4*%
%TO.N,AMP_BCLK*%
X50000000Y-15620000D03*
%TO.P,J4,5*%
%TO.N,AMP_LRC*%
X50000000Y-18160000D03*
%TD*%
D16*
%TO.P,C1,1*%
%TO.N,5V*%
X50000000Y-45000000D03*
D12*
%TO.P,C1,2*%
%TO.N,GND*%
X47500000Y-45000000D03*
%TD*%
D14*
%TO.P,J5,1*%
%TO.N,GND*%
X50000000Y-26000000D03*
D15*
%TO.P,J5,2*%
%TO.N,3V3*%
X50000000Y-28540000D03*
%TO.P,J5,3*%
%TO.N,OLED_SCL*%
X50000000Y-31080000D03*
%TO.P,J5,4*%
%TO.N,OLED_SDA*%
X50000000Y-33620000D03*
%TD*%
D14*
%TO.P,J3,1*%
%TO.N,GND*%
X34860000Y-8000000D03*
D15*
%TO.P,J3,2*%
%TO.N,5V*%
X34860000Y-10540000D03*
%TO.P,J3,3*%
%TO.N,N/C*%
X34860000Y-13080000D03*
%TO.P,J3,4*%
X34860000Y-15620000D03*
%TO.P,J3,5*%
X34860000Y-18160000D03*
%TO.P,J3,6*%
X34860000Y-20700000D03*
%TO.P,J3,7*%
%TO.N,OLED_SCL*%
X34860000Y-23240000D03*
%TO.P,J3,8*%
%TO.N,OLED_SDA*%
X34860000Y-25780000D03*
%TO.P,J3,9*%
%TO.N,N/C*%
X34860000Y-28320000D03*
%TO.P,J3,10*%
X34860000Y-30860000D03*
%TO.P,J3,11*%
%TO.N,LIGHT*%
X34860000Y-33400000D03*
%TO.P,J3,12*%
%TO.N,N/C*%
X34860000Y-35940000D03*
%TO.P,J3,13*%
X34860000Y-38480000D03*
%TO.P,J3,14*%
X34860000Y-41020000D03*
%TO.P,J3,15*%
%TO.N,KEY*%
X34860000Y-43560000D03*
%TO.P,J3,16*%
%TO.N,N/C*%
X34860000Y-46100000D03*
%TO.P,J3,17*%
X34860000Y-48640000D03*
%TO.P,J3,18*%
X34860000Y-51180000D03*
%TO.P,J3,19*%
X34860000Y-53720000D03*
%TD*%
D12*
%TO.P,R1,1*%
%TO.N,LIGHT*%
X43000000Y-58000000D03*
D17*
%TO.P,R1,2*%
%TO.N,LED_A*%
X50620000Y-58000000D03*
%TD*%
D14*
%TO.P,J2,1*%
%TO.N,MIC_BCLK*%
X6500000Y-2000000D03*
D15*
%TO.P,J2,2*%
%TO.N,MIC_SD*%
X9040000Y-2000000D03*
%TO.P,J2,3*%
%TO.N,MIC_WS*%
X11580000Y-2000000D03*
%TO.P,J2,4*%
%TO.N,GND*%
X14120000Y-2000000D03*
%TO.P,J2,5*%
%TO.N,3V3*%
X16660000Y-2000000D03*
%TO.P,J2,6*%
%TO.N,GND*%
X19200000Y-2000000D03*
%TD*%
D14*
%TO.P,J6,1*%
%TO.N,N/C*%
X14000000Y-58000000D03*
D15*
%TO.P,J6,2*%
X14000000Y-60540000D03*
%TD*%
D14*
%TO.P,J1,1*%
%TO.N,3V3*%
X12000000Y-8000000D03*
D15*
%TO.P,J1,2*%
%TO.N,N/C*%
X12000000Y-10540000D03*
%TO.P,J1,3*%
%TO.N,MIC_WS*%
X12000000Y-13080000D03*
%TO.P,J1,4*%
%TO.N,MIC_BCLK*%
X12000000Y-15620000D03*
%TO.P,J1,5*%
%TO.N,MIC_SD*%
X12000000Y-18160000D03*
%TO.P,J1,6*%
%TO.N,AMP_DIN*%
X12000000Y-20700000D03*
%TO.P,J1,7*%
%TO.N,AMP_BCLK*%
X12000000Y-23240000D03*
%TO.P,J1,8*%
%TO.N,AMP_LRC*%
X12000000Y-25780000D03*
%TO.P,J1,9*%
%TO.N,N/C*%
X12000000Y-28320000D03*
%TO.P,J1,10*%
X12000000Y-30860000D03*
%TO.P,J1,11*%
X12000000Y-33400000D03*
%TO.P,J1,12*%
X12000000Y-35940000D03*
%TO.P,J1,13*%
X12000000Y-38480000D03*
%TO.P,J1,14*%
X12000000Y-41020000D03*
%TO.P,J1,15*%
X12000000Y-43560000D03*
%TO.P,J1,16*%
X12000000Y-46100000D03*
%TO.P,J1,17*%
X12000000Y-48640000D03*
%TO.P,J1,18*%
X12000000Y-51180000D03*
%TO.P,J1,19*%
X12000000Y-53720000D03*
%TD*%
%TO.N,GND*%
D18*
X10900000Y-14350000D02*
X14000000Y-14350000D01*
X47500000Y-45000000D02*
X41000000Y-45000000D01*
%TO.N,5V*%
D19*
X50000000Y-42000000D02*
X43000000Y-42000000D01*
X34860000Y-10540000D02*
X37000000Y-10540000D01*
X54500000Y-8000000D02*
X54500000Y-45000000D01*
X37000000Y-6500000D02*
X54500000Y-6500000D01*
X54500000Y-8000000D02*
X50000000Y-8000000D01*
X54500000Y-45000000D02*
X50000000Y-45000000D01*
X50000000Y-45000000D02*
X50000000Y-42000000D01*
X37000000Y-10540000D02*
X37000000Y-6500000D01*
X54500000Y-6500000D02*
X54500000Y-8000000D01*
%TO.N,3V3*%
D18*
X12000000Y-8000000D02*
X12000000Y-6500000D01*
X36500000Y-24000000D02*
X48600000Y-24000000D01*
X12000000Y-6500000D02*
X16660000Y-6500000D01*
X16660000Y-2000000D02*
X16660000Y-16890000D01*
X48600000Y-28540000D02*
X50000000Y-28540000D01*
X10600000Y-16890000D02*
X10600000Y-22000000D01*
X16660000Y-16890000D02*
X10600000Y-16890000D01*
X16660000Y-6500000D02*
X16660000Y-2000000D01*
X48600000Y-24000000D02*
X48600000Y-28540000D01*
X10600000Y-22000000D02*
X36500000Y-22000000D01*
X36500000Y-22000000D02*
X36500000Y-24000000D01*
%TO.N,OLED_SDA*%
X41000000Y-33620000D02*
X50000000Y-33620000D01*
X34860000Y-25780000D02*
X41000000Y-25780000D01*
X41000000Y-25780000D02*
X41000000Y-33620000D01*
%TO.N,MIC_SD*%
X21900000Y-650000D02*
X21900000Y-19430000D01*
X21900000Y-19430000D02*
X12000000Y-19430000D01*
X12000000Y-19430000D02*
X12000000Y-18160000D01*
X9040000Y-2000000D02*
X9040000Y-650000D01*
X9040000Y-650000D02*
X21900000Y-650000D01*
%TD*%
%TA.AperFunction,Conductor*%
%TO.N,GND*%
G36*
X5092539Y-1019685D02*
G01*
X5138294Y-1072489D01*
X5149500Y-1124000D01*
X5149500Y-2312116D01*
X5129815Y-2379155D01*
X5077011Y-2424910D01*
X5007853Y-2434854D01*
X4963500Y-2419503D01*
X4820215Y-2336777D01*
X4820205Y-2336773D01*
X4596104Y-2243947D01*
X4361785Y-2181161D01*
X4121289Y-2149500D01*
X4121288Y-2149500D01*
X3878712Y-2149500D01*
X3878711Y-2149500D01*
X3638214Y-2181161D01*
X3403895Y-2243947D01*
X3179794Y-2336773D01*
X3179785Y-2336777D01*
X2969706Y-2458067D01*
X2777263Y-2605733D01*
X2777256Y-2605739D01*
X2605739Y-2777256D01*
X2605733Y-2777263D01*
X2458067Y-2969706D01*
X2336777Y-3179785D01*
X2336773Y-3179794D01*
X2243947Y-3403895D01*
X2181161Y-3638214D01*
X2149500Y-3878711D01*
X2149500Y-4121288D01*
X2181161Y-4361785D01*
X2243947Y-4596104D01*
X2336773Y-4820205D01*
X2336776Y-4820212D01*
X2458064Y-5030289D01*
X2458066Y-5030292D01*
X2458067Y-5030293D01*
X2605733Y-5222736D01*
X2605739Y-5222743D01*
X2777256Y-5394260D01*
X2777262Y-5394265D01*
X2969711Y-5541936D01*
X3179788Y-5663224D01*
X3403900Y-5756054D01*
X3638211Y-5818838D01*
X3785997Y-5838294D01*
X3878711Y-5850500D01*
X3878712Y-5850500D01*
X4121289Y-5850500D01*
X4169388Y-5844167D01*
X4361789Y-5818838D01*
X4596100Y-5756054D01*
X4820212Y-5663224D01*
X5030289Y-5541936D01*
X5222738Y-5394265D01*
X5394265Y-5222738D01*
X5541936Y-5030289D01*
X5663224Y-4820212D01*
X5756054Y-4596100D01*
X5818838Y-4361789D01*
X5850500Y-4121288D01*
X5850500Y-3878712D01*
X5818838Y-3638211D01*
X5783570Y-3506590D01*
X5785233Y-3436743D01*
X5824395Y-3378880D01*
X5888623Y-3351376D01*
X5903345Y-3350499D01*
X7397871Y-3350499D01*
X7397872Y-3350499D01*
X7457483Y-3344091D01*
X7592331Y-3293796D01*
X7707546Y-3207546D01*
X7793796Y-3092331D01*
X7842810Y-2960916D01*
X7884681Y-2904984D01*
X7950145Y-2880566D01*
X8018418Y-2895417D01*
X8046673Y-2916569D01*
X8160213Y-3030109D01*
X8332179Y-3155048D01*
X8332181Y-3155049D01*
X8332184Y-3155051D01*
X8521588Y-3251557D01*
X8723757Y-3317246D01*
X8933713Y-3350500D01*
X8933714Y-3350500D01*
X9146286Y-3350500D01*
X9146287Y-3350500D01*
X9356243Y-3317246D01*
X9558412Y-3251557D01*
X9747816Y-3155051D01*
X9834138Y-3092335D01*
X9919786Y-3030109D01*
X9919788Y-3030106D01*
X9919792Y-3030104D01*
X10070104Y-2879792D01*
X10070106Y-2879788D01*
X10070109Y-2879786D01*
X10195048Y-2707820D01*
X10195047Y-2707820D01*
X10195051Y-2707816D01*
X10199514Y-2699054D01*
X10247488Y-2648259D01*
X10315308Y-2631463D01*
X10381444Y-2653999D01*
X10420486Y-2699056D01*
X10424951Y-2707820D01*
X10549890Y-2879786D01*
X10700213Y-3030109D01*
X10872179Y-3155048D01*
X10872181Y-3155049D01*
X10872184Y-3155051D01*
X11061588Y-3251557D01*
X11263757Y-3317246D01*
X11473713Y-3350500D01*
X11473714Y-3350500D01*
X11686286Y-3350500D01*
X11686287Y-3350500D01*
X11896243Y-3317246D01*
X12098412Y-3251557D01*
X12287816Y-3155051D01*
X12374138Y-3092335D01*
X12459786Y-3030109D01*
X12459788Y-3030106D01*
X12459792Y-3030104D01*
X12610104Y-2879792D01*
X12610106Y-2879788D01*
X12610109Y-2879786D01*
X12735048Y-2707820D01*
X12735047Y-2707820D01*
X12735051Y-2707816D01*
X12831557Y-2518412D01*
X12897246Y-2316243D01*
X12930500Y-2106287D01*
X12930500Y-1893713D01*
X12897246Y-1683757D01*
X12831557Y-1481588D01*
X12831555Y-1481585D01*
X12831555Y-1481583D01*
X12831154Y-1480796D01*
X12831091Y-1480463D01*
X12829690Y-1477079D01*
X12830400Y-1476784D01*
X12818257Y-1412127D01*
X12844532Y-1347387D01*
X12901638Y-1307129D01*
X12941638Y-1300500D01*
X15298362Y-1300500D01*
X15365401Y-1320185D01*
X15411156Y-1372989D01*
X15421100Y-1442147D01*
X15410057Y-1476974D01*
X15410310Y-1477079D01*
X15409092Y-1480020D01*
X15408846Y-1480796D01*
X15408444Y-1481583D01*
X15342753Y-1683760D01*
X15309500Y-1893713D01*
X15309500Y-2106287D01*
X15342754Y-2316243D01*
X15381293Y-2434854D01*
X15408444Y-2518414D01*
X15504951Y-2707820D01*
X15629890Y-2879786D01*
X15629896Y-2879792D01*
X15780208Y-3030104D01*
X15952184Y-3155051D01*
X15952188Y-3155053D01*
X15956126Y-3157914D01*
X15955146Y-3159262D01*
X15997160Y-3205690D01*
X16009500Y-3259617D01*
X16009500Y-5725500D01*
X15989815Y-5792539D01*
X15937011Y-5838294D01*
X15885500Y-5849500D01*
X11935929Y-5849500D01*
X11810261Y-5874497D01*
X11810255Y-5874499D01*
X11691875Y-5923533D01*
X11691866Y-5923538D01*
X11585331Y-5994723D01*
X11585327Y-5994726D01*
X11494726Y-6085327D01*
X11494723Y-6085331D01*
X11423538Y-6191866D01*
X11423533Y-6191875D01*
X11374499Y-6310255D01*
X11374497Y-6310261D01*
X11349500Y-6435928D01*
X11349500Y-6525500D01*
X11329815Y-6592539D01*
X11277011Y-6638294D01*
X11225501Y-6649500D01*
X11102130Y-6649500D01*
X11102123Y-6649501D01*
X11042516Y-6655908D01*
X10907671Y-6706202D01*
X10907664Y-6706206D01*
X10792455Y-6792452D01*
X10792452Y-6792455D01*
X10706206Y-6907664D01*
X10706202Y-6907671D01*
X10655908Y-7042517D01*
X10649501Y-7102116D01*
X10649500Y-7102135D01*
X10649500Y-8897870D01*
X10649501Y-8897876D01*
X10655908Y-8957483D01*
X10706202Y-9092328D01*
X10706206Y-9092335D01*
X10792452Y-9207544D01*
X10792455Y-9207547D01*
X10907664Y-9293793D01*
X10907671Y-9293797D01*
X11039082Y-9342810D01*
X11095016Y-9384681D01*
X11119433Y-9450145D01*
X11104582Y-9518418D01*
X11083431Y-9546673D01*
X10969889Y-9660215D01*
X10844951Y-9832179D01*
X10748444Y-10021585D01*
X10682753Y-10223760D01*
X10649500Y-10433713D01*
X10649500Y-10646287D01*
X10682754Y-10856243D01*
X10735448Y-11018419D01*
X10748444Y-11058414D01*
X10844951Y-11247820D01*
X10969890Y-11419786D01*
X11120213Y-11570109D01*
X11292182Y-11695050D01*
X11300946Y-11699516D01*
X11351742Y-11747491D01*
X11368536Y-11815312D01*
X11345998Y-11881447D01*
X11300946Y-11920484D01*
X11292182Y-11924949D01*
X11120213Y-12049890D01*
X10969890Y-12200213D01*
X10844951Y-12372179D01*
X10748444Y-12561585D01*
X10682753Y-12763760D01*
X10649500Y-12973713D01*
X10649500Y-13186286D01*
X10682753Y-13396239D01*
X10748444Y-13598414D01*
X10844951Y-13787820D01*
X10969890Y-13959786D01*
X11120213Y-14110109D01*
X11292182Y-14235050D01*
X11300946Y-14239516D01*
X11351742Y-14287491D01*
X11368536Y-14355312D01*
X11345998Y-14421447D01*
X11300946Y-14460484D01*
X11292182Y-14464949D01*
X11120213Y-14589890D01*
X10969890Y-14740213D01*
X10844951Y-14912179D01*
X10748444Y-15101585D01*
X10682753Y-15303760D01*
X10649500Y-15513713D01*
X10649500Y-15726286D01*
X10682753Y-15936240D01*
X10728548Y-16077182D01*
X10730543Y-16147023D01*
X10694463Y-16206856D01*
X10631762Y-16237684D01*
X10610617Y-16239500D01*
X10535929Y-16239500D01*
X10410261Y-16264497D01*
X10410255Y-16264499D01*
X10291875Y-16313533D01*
X10291866Y-16313538D01*
X10185331Y-16384723D01*
X10185327Y-16384726D01*
X10094726Y-16475327D01*
X10094723Y-16475331D01*
X10023538Y-16581866D01*
X10023533Y-16581875D01*
X9974499Y-16700255D01*
X9974497Y-16700261D01*
X9949500Y-16825928D01*
X9949500Y-16825931D01*
X9949500Y-21935931D01*
X9949500Y-22064069D01*
X9949500Y-22064071D01*
X9949499Y-22064071D01*
X9974497Y-22189738D01*
X9974499Y-22189744D01*
X10023533Y-22308124D01*
X10023538Y-22308133D01*
X10094723Y-22414668D01*
X10094726Y-22414672D01*
X10185327Y-22505273D01*
X10185331Y-22505276D01*
X10291866Y-22576461D01*
X10291872Y-22576464D01*
X10291873Y-22576465D01*
X10410256Y-22625501D01*
X10410260Y-22625501D01*
X10410261Y-22625502D01*
X10535928Y-22650500D01*
X10535931Y-22650500D01*
X10600870Y-22650500D01*
X10667909Y-22670185D01*
X10713664Y-22722989D01*
X10723608Y-22792147D01*
X10718802Y-22812811D01*
X10684297Y-22919006D01*
X10682753Y-22923760D01*
X10649500Y-23133713D01*
X10649500Y-23346286D01*
X10673010Y-23494726D01*
X10682754Y-23556243D01*
X10692205Y-23585331D01*
X10748444Y-23758414D01*
X10844951Y-23947820D01*
X10969890Y-24119786D01*
X11120213Y-24270109D01*
X11292182Y-24395050D01*
X11300946Y-24399516D01*
X11351742Y-24447491D01*
X11368536Y-24515312D01*
X11345998Y-24581447D01*
X11300946Y-24620484D01*
X11292182Y-24624949D01*
X11120213Y-24749890D01*
X10969890Y-24900213D01*
X10844951Y-25072179D01*
X10748444Y-25261585D01*
X10682753Y-25463760D01*
X10649500Y-25673713D01*
X10649500Y-25886286D01*
X10682753Y-26096239D01*
X10748444Y-26298414D01*
X10844951Y-26487820D01*
X10969890Y-26659786D01*
X11120213Y-26810109D01*
X11292182Y-26935050D01*
X11300946Y-26939516D01*
X11351742Y-26987491D01*
X11368536Y-27055312D01*
X11345998Y-27121447D01*
X11300946Y-27160484D01*
X11292182Y-27164949D01*
X11120213Y-27289890D01*
X10969890Y-27440213D01*
X10844951Y-27612179D01*
X10748444Y-27801585D01*
X10682753Y-28003760D01*
X10649500Y-28213713D01*
X10649500Y-28426287D01*
X10682754Y-28636243D01*
X10713134Y-28729744D01*
X10748444Y-28838414D01*
X10844951Y-29027820D01*
X10969890Y-29199786D01*
X11120213Y-29350109D01*
X11292182Y-29475050D01*
X11300946Y-29479516D01*
X11351742Y-29527491D01*
X11368536Y-29595312D01*
X11345998Y-29661447D01*
X11300946Y-29700484D01*
X11292182Y-29704949D01*
X11120213Y-29829890D01*
X10969890Y-29980213D01*
X10844951Y-30152179D01*
X10748444Y-30341585D01*
X10682753Y-30543760D01*
X10649500Y-30753713D01*
X10649500Y-30966286D01*
X10682753Y-31176239D01*
X10748444Y-31378414D01*
X10844951Y-31567820D01*
X10969890Y-31739786D01*
X11120213Y-31890109D01*
X11292182Y-32015050D01*
X11300946Y-32019516D01*
X11351742Y-32067491D01*
X11368536Y-32135312D01*
X11345998Y-32201447D01*
X11300946Y-32240484D01*
X11292182Y-32244949D01*
X11120213Y-32369890D01*
X10969890Y-32520213D01*
X10844951Y-32692179D01*
X10748444Y-32881585D01*
X10682753Y-33083760D01*
X10649500Y-33293713D01*
X10649500Y-33506287D01*
X10682754Y-33716243D01*
X10713134Y-33809744D01*
X10748444Y-33918414D01*
X10844951Y-34107820D01*
X10969890Y-34279786D01*
X11120213Y-34430109D01*
X11292182Y-34555050D01*
X11300946Y-34559516D01*
X11351742Y-34607491D01*
X11368536Y-34675312D01*
X11345998Y-34741447D01*
X11300946Y-34780484D01*
X11292182Y-34784949D01*
X11120213Y-34909890D01*
X10969890Y-35060213D01*
X10844951Y-35232179D01*
X10748444Y-35421585D01*
X10682753Y-35623760D01*
X10649500Y-35833713D01*
X10649500Y-36046286D01*
X10682753Y-36256239D01*
X10748444Y-36458414D01*
X10844951Y-36647820D01*
X10969890Y-36819786D01*
X11120213Y-36970109D01*
X11292182Y-37095050D01*
X11300946Y-37099516D01*
X11351742Y-37147491D01*
X11368536Y-37215312D01*
X11345998Y-37281447D01*
X11300946Y-37320484D01*
X11292182Y-37324949D01*
X11120213Y-37449890D01*
X10969890Y-37600213D01*
X10844951Y-37772179D01*
X10748444Y-37961585D01*
X10682753Y-38163760D01*
X10649500Y-38373713D01*
X10649500Y-38586286D01*
X10682753Y-38796239D01*
X10748444Y-38998414D01*
X10844951Y-39187820D01*
X10969890Y-39359786D01*
X11120213Y-39510109D01*
X11292182Y-39635050D01*
X11300946Y-39639516D01*
X11351742Y-39687491D01*
X11368536Y-39755312D01*
X11345998Y-39821447D01*
X11300946Y-39860484D01*
X11292182Y-39864949D01*
X11120213Y-39989890D01*
X10969890Y-40140213D01*
X10844951Y-40312179D01*
X10748444Y-40501585D01*
X10682753Y-40703760D01*
X10678356Y-40731522D01*
X10649500Y-40913713D01*
X10649500Y-41126287D01*
X10653697Y-41152786D01*
X10682543Y-41334916D01*
X10682754Y-41336243D01*
X10742975Y-41521584D01*
X10748444Y-41538414D01*
X10844951Y-41727820D01*
X10969890Y-41899786D01*
X11120213Y-42050109D01*
X11292182Y-42175050D01*
X11300946Y-42179516D01*
X11351742Y-42227491D01*
X11368536Y-42295312D01*
X11345998Y-42361447D01*
X11300946Y-42400484D01*
X11292182Y-42404949D01*
X11120213Y-42529890D01*
X10969890Y-42680213D01*
X10844951Y-42852179D01*
X10748444Y-43041585D01*
X10682753Y-43243760D01*
X10649500Y-43453713D01*
X10649500Y-43666287D01*
X10654761Y-43699501D01*
X10663741Y-43756204D01*
X10682754Y-43876243D01*
X10709209Y-43957664D01*
X10748444Y-44078414D01*
X10844951Y-44267820D01*
X10969890Y-44439786D01*
X11120213Y-44590109D01*
X11292182Y-44715050D01*
X11300946Y-44719516D01*
X11351742Y-44767491D01*
X11368536Y-44835312D01*
X11345998Y-44901447D01*
X11300946Y-44940484D01*
X11292182Y-44944949D01*
X11120213Y-45069890D01*
X10969890Y-45220213D01*
X10844951Y-45392179D01*
X10748444Y-45581585D01*
X10682753Y-45783760D01*
X10649500Y-45993713D01*
X10649500Y-46206286D01*
X10682753Y-46416239D01*
X10748444Y-46618414D01*
X10844951Y-46807820D01*
X10969890Y-46979786D01*
X11120213Y-47130109D01*
X11292182Y-47255050D01*
X11300946Y-47259516D01*
X11351742Y-47307491D01*
X11368536Y-47375312D01*
X11345998Y-47441447D01*
X11300946Y-47480484D01*
X11292182Y-47484949D01*
X11120213Y-47609890D01*
X10969890Y-47760213D01*
X10844951Y-47932179D01*
X10748444Y-48121585D01*
X10682753Y-48323760D01*
X10649500Y-48533713D01*
X10649500Y-48746286D01*
X10682753Y-48956239D01*
X10748444Y-49158414D01*
X10844951Y-49347820D01*
X10969890Y-49519786D01*
X11120213Y-49670109D01*
X11292182Y-49795050D01*
X11300946Y-49799516D01*
X11351742Y-49847491D01*
X11368536Y-49915312D01*
X11345998Y-49981447D01*
X11300946Y-50020484D01*
X11292182Y-50024949D01*
X11120213Y-50149890D01*
X10969890Y-50300213D01*
X10844951Y-50472179D01*
X10748444Y-50661585D01*
X10682753Y-50863760D01*
X10649500Y-51073713D01*
X10649500Y-51286286D01*
X10682753Y-51496239D01*
X10748444Y-51698414D01*
X10844951Y-51887820D01*
X10969890Y-52059786D01*
X11120213Y-52210109D01*
X11292182Y-52335050D01*
X11300946Y-52339516D01*
X11351742Y-52387491D01*
X11368536Y-52455312D01*
X11345998Y-52521447D01*
X11300946Y-52560484D01*
X11292182Y-52564949D01*
X11120213Y-52689890D01*
X10969890Y-52840213D01*
X10844951Y-53012179D01*
X10748444Y-53201585D01*
X10682753Y-53403760D01*
X10649500Y-53613713D01*
X10649500Y-53826286D01*
X10682753Y-54036239D01*
X10748444Y-54238414D01*
X10844951Y-54427820D01*
X10969890Y-54599786D01*
X11120213Y-54750109D01*
X11292179Y-54875048D01*
X11292181Y-54875049D01*
X11292184Y-54875051D01*
X11481588Y-54971557D01*
X11683757Y-55037246D01*
X11893713Y-55070500D01*
X11893714Y-55070500D01*
X12106286Y-55070500D01*
X12106287Y-55070500D01*
X12316243Y-55037246D01*
X12518412Y-54971557D01*
X12707816Y-54875051D01*
X12729789Y-54859086D01*
X12879786Y-54750109D01*
X12879788Y-54750106D01*
X12879792Y-54750104D01*
X13030104Y-54599792D01*
X13030106Y-54599788D01*
X13030109Y-54599786D01*
X13155048Y-54427820D01*
X13155047Y-54427820D01*
X13155051Y-54427816D01*
X13251557Y-54238412D01*
X13317246Y-54036243D01*
X13350500Y-53826287D01*
X13350500Y-53613713D01*
X13317246Y-53403757D01*
X13251557Y-53201588D01*
X13155051Y-53012184D01*
X13155049Y-53012181D01*
X13155048Y-53012179D01*
X13030109Y-52840213D01*
X12879786Y-52689890D01*
X12707820Y-52564951D01*
X12707115Y-52564591D01*
X12699054Y-52560485D01*
X12648259Y-52512512D01*
X12631463Y-52444692D01*
X12653999Y-52378556D01*
X12699054Y-52339515D01*
X12707816Y-52335051D01*
X12729789Y-52319086D01*
X12879786Y-52210109D01*
X12879788Y-52210106D01*
X12879792Y-52210104D01*
X13030104Y-52059792D01*
X13030106Y-52059788D01*
X13030109Y-52059786D01*
X13155048Y-51887820D01*
X13155047Y-51887820D01*
X13155051Y-51887816D01*
X13251557Y-51698412D01*
X13317246Y-51496243D01*
X13350500Y-51286287D01*
X13350500Y-51073713D01*
X13317246Y-50863757D01*
X13251557Y-50661588D01*
X13155051Y-50472184D01*
X13155049Y-50472181D01*
X13155048Y-50472179D01*
X13030109Y-50300213D01*
X12879786Y-50149890D01*
X12707820Y-50024951D01*
X12707115Y-50024591D01*
X12699054Y-50020485D01*
X12648259Y-49972512D01*
X12631463Y-49904692D01*
X12653999Y-49838556D01*
X12699054Y-49799515D01*
X12707816Y-49795051D01*
X12729789Y-49779086D01*
X12879786Y-49670109D01*
X12879788Y-49670106D01*
X12879792Y-49670104D01*
X13030104Y-49519792D01*
X13030106Y-49519788D01*
X13030109Y-49519786D01*
X13155048Y-49347820D01*
X13155047Y-49347820D01*
X13155051Y-49347816D01*
X13251557Y-49158412D01*
X13317246Y-48956243D01*
X13350500Y-48746287D01*
X13350500Y-48533713D01*
X13317246Y-48323757D01*
X13251557Y-48121588D01*
X13155051Y-47932184D01*
X13155049Y-47932181D01*
X13155048Y-47932179D01*
X13030109Y-47760213D01*
X12879786Y-47609890D01*
X12707820Y-47484951D01*
X12707115Y-47484591D01*
X12699054Y-47480485D01*
X12648259Y-47432512D01*
X12631463Y-47364692D01*
X12653999Y-47298556D01*
X12699054Y-47259515D01*
X12707816Y-47255051D01*
X12729789Y-47239086D01*
X12879786Y-47130109D01*
X12879788Y-47130106D01*
X12879792Y-47130104D01*
X13030104Y-46979792D01*
X13030106Y-46979788D01*
X13030109Y-46979786D01*
X13155048Y-46807820D01*
X13155047Y-46807820D01*
X13155051Y-46807816D01*
X13251557Y-46618412D01*
X13317246Y-46416243D01*
X13350500Y-46206287D01*
X13350500Y-45993713D01*
X13317246Y-45783757D01*
X13251557Y-45581588D01*
X13155051Y-45392184D01*
X13155049Y-45392181D01*
X13155048Y-45392179D01*
X13030109Y-45220213D01*
X12879786Y-45069890D01*
X12707820Y-44944951D01*
X12707115Y-44944591D01*
X12699054Y-44940485D01*
X12648259Y-44892512D01*
X12631463Y-44824692D01*
X12653999Y-44758556D01*
X12699054Y-44719515D01*
X12707816Y-44715051D01*
X12729789Y-44699086D01*
X12879786Y-44590109D01*
X12879788Y-44590106D01*
X12879792Y-44590104D01*
X13030104Y-44439792D01*
X13030106Y-44439788D01*
X13030109Y-44439786D01*
X13155048Y-44267820D01*
X13155047Y-44267820D01*
X13155051Y-44267816D01*
X13251557Y-44078412D01*
X13317246Y-43876243D01*
X13350500Y-43666287D01*
X13350500Y-43453713D01*
X13317246Y-43243757D01*
X13251557Y-43041588D01*
X13155051Y-42852184D01*
X13155049Y-42852181D01*
X13155048Y-42852179D01*
X13030109Y-42680213D01*
X12879786Y-42529890D01*
X12707820Y-42404951D01*
X12707115Y-42404591D01*
X12699054Y-42400485D01*
X12648259Y-42352512D01*
X12631463Y-42284692D01*
X12653999Y-42218556D01*
X12699054Y-42179515D01*
X12707816Y-42175051D01*
X12729789Y-42159086D01*
X12879786Y-42050109D01*
X12879788Y-42050106D01*
X12879792Y-42050104D01*
X13030104Y-41899792D01*
X13030106Y-41899788D01*
X13030109Y-41899786D01*
X13155048Y-41727820D01*
X13155047Y-41727820D01*
X13155051Y-41727816D01*
X13251557Y-41538412D01*
X13317246Y-41336243D01*
X13350500Y-41126287D01*
X13350500Y-40913713D01*
X13317246Y-40703757D01*
X13251557Y-40501588D01*
X13155051Y-40312184D01*
X13155049Y-40312181D01*
X13155048Y-40312179D01*
X13030109Y-40140213D01*
X12879786Y-39989890D01*
X12707820Y-39864951D01*
X12707115Y-39864591D01*
X12699054Y-39860485D01*
X12648259Y-39812512D01*
X12631463Y-39744692D01*
X12653999Y-39678556D01*
X12699054Y-39639515D01*
X12707816Y-39635051D01*
X12729789Y-39619086D01*
X12879786Y-39510109D01*
X12879788Y-39510106D01*
X12879792Y-39510104D01*
X13030104Y-39359792D01*
X13030106Y-39359788D01*
X13030109Y-39359786D01*
X13155048Y-39187820D01*
X13155047Y-39187820D01*
X13155051Y-39187816D01*
X13251557Y-38998412D01*
X13317246Y-38796243D01*
X13350500Y-38586287D01*
X13350500Y-38373713D01*
X13317246Y-38163757D01*
X13251557Y-37961588D01*
X13155051Y-37772184D01*
X13155049Y-37772181D01*
X13155048Y-37772179D01*
X13030109Y-37600213D01*
X12879786Y-37449890D01*
X12707820Y-37324951D01*
X12707115Y-37324591D01*
X12699054Y-37320485D01*
X12648259Y-37272512D01*
X12631463Y-37204692D01*
X12653999Y-37138556D01*
X12699054Y-37099515D01*
X12707816Y-37095051D01*
X12729789Y-37079086D01*
X12879786Y-36970109D01*
X12879788Y-36970106D01*
X12879792Y-36970104D01*
X13030104Y-36819792D01*
X13030106Y-36819788D01*
X13030109Y-36819786D01*
X13155048Y-36647820D01*
X13155047Y-36647820D01*
X13155051Y-36647816D01*
X13251557Y-36458412D01*
X13317246Y-36256243D01*
X13350500Y-36046287D01*
X13350500Y-35833713D01*
X13317246Y-35623757D01*
X13251557Y-35421588D01*
X13155051Y-35232184D01*
X13155049Y-35232181D01*
X13155048Y-35232179D01*
X13030109Y-35060213D01*
X12879786Y-34909890D01*
X12707820Y-34784951D01*
X12707115Y-34784591D01*
X12699054Y-34780485D01*
X12648259Y-34732512D01*
X12631463Y-34664692D01*
X12653999Y-34598556D01*
X12699054Y-34559515D01*
X12707816Y-34555051D01*
X12783874Y-34499792D01*
X12879786Y-34430109D01*
X12879788Y-34430106D01*
X12879792Y-34430104D01*
X13030104Y-34279792D01*
X13030106Y-34279788D01*
X13030109Y-34279786D01*
X13155048Y-34107820D01*
X13155047Y-34107820D01*
X13155051Y-34107816D01*
X13251557Y-33918412D01*
X13317246Y-33716243D01*
X13350500Y-33506287D01*
X13350500Y-33293713D01*
X13317246Y-33083757D01*
X13251557Y-32881588D01*
X13155051Y-32692184D01*
X13155049Y-32692181D01*
X13155048Y-32692179D01*
X13030109Y-32520213D01*
X12879786Y-32369890D01*
X12707820Y-32244951D01*
X12707115Y-32244591D01*
X12699054Y-32240485D01*
X12648259Y-32192512D01*
X12631463Y-32124692D01*
X12653999Y-32058556D01*
X12699054Y-32019515D01*
X12707816Y-32015051D01*
X12783874Y-31959792D01*
X12879786Y-31890109D01*
X12879788Y-31890106D01*
X12879792Y-31890104D01*
X13030104Y-31739792D01*
X13030106Y-31739788D01*
X13030109Y-31739786D01*
X13155048Y-31567820D01*
X13155047Y-31567820D01*
X13155051Y-31567816D01*
X13251557Y-31378412D01*
X13317246Y-31176243D01*
X13350500Y-30966287D01*
X13350500Y-30753713D01*
X13317246Y-30543757D01*
X13251557Y-30341588D01*
X13155051Y-30152184D01*
X13155049Y-30152181D01*
X13155048Y-30152179D01*
X13030109Y-29980213D01*
X12879786Y-29829890D01*
X12707820Y-29704951D01*
X12707115Y-29704591D01*
X12699054Y-29700485D01*
X12648259Y-29652512D01*
X12631463Y-29584692D01*
X12653999Y-29518556D01*
X12699054Y-29479515D01*
X12707816Y-29475051D01*
X12783874Y-29419792D01*
X12879786Y-29350109D01*
X12879788Y-29350106D01*
X12879792Y-29350104D01*
X13030104Y-29199792D01*
X13030106Y-29199788D01*
X13030109Y-29199786D01*
X13155048Y-29027820D01*
X13155047Y-29027820D01*
X13155051Y-29027816D01*
X13251557Y-28838412D01*
X13317246Y-28636243D01*
X13350500Y-28426287D01*
X13350500Y-28213713D01*
X13317246Y-28003757D01*
X13251557Y-27801588D01*
X13155051Y-27612184D01*
X13155049Y-27612181D01*
X13155048Y-27612179D01*
X13030109Y-27440213D01*
X12879786Y-27289890D01*
X12707820Y-27164951D01*
X12707115Y-27164591D01*
X12699054Y-27160485D01*
X12648259Y-27112512D01*
X12631463Y-27044692D01*
X12653999Y-26978556D01*
X12699054Y-26939515D01*
X12707816Y-26935051D01*
X12729789Y-26919086D01*
X12879786Y-26810109D01*
X12879788Y-26810106D01*
X12879792Y-26810104D01*
X13030104Y-26659792D01*
X13030106Y-26659788D01*
X13030109Y-26659786D01*
X13155048Y-26487820D01*
X13155047Y-26487820D01*
X13155051Y-26487816D01*
X13251557Y-26298412D01*
X13317246Y-26096243D01*
X13350500Y-25886287D01*
X13350500Y-25673713D01*
X13317246Y-25463757D01*
X13251557Y-25261588D01*
X13155051Y-25072184D01*
X13155049Y-25072181D01*
X13155048Y-25072179D01*
X13030109Y-24900213D01*
X12879786Y-24749890D01*
X12707820Y-24624951D01*
X12707115Y-24624591D01*
X12699054Y-24620485D01*
X12648259Y-24572512D01*
X12631463Y-24504692D01*
X12653999Y-24438556D01*
X12699054Y-24399515D01*
X12707816Y-24395051D01*
X12729789Y-24379086D01*
X12879786Y-24270109D01*
X12879788Y-24270106D01*
X12879792Y-24270104D01*
X13030104Y-24119792D01*
X13030106Y-24119788D01*
X13030109Y-24119786D01*
X13155048Y-23947820D01*
X13155047Y-23947820D01*
X13155051Y-23947816D01*
X13251557Y-23758412D01*
X13317246Y-23556243D01*
X13350500Y-23346287D01*
X13350500Y-23133713D01*
X13317246Y-22923757D01*
X13281198Y-22812816D01*
X13279204Y-22742977D01*
X13315284Y-22683144D01*
X13377985Y-22652316D01*
X13399130Y-22650500D01*
X33460870Y-22650500D01*
X33527909Y-22670185D01*
X33573664Y-22722989D01*
X33583608Y-22792147D01*
X33578802Y-22812811D01*
X33544297Y-22919006D01*
X33542753Y-22923760D01*
X33509500Y-23133713D01*
X33509500Y-23346286D01*
X33533010Y-23494726D01*
X33542754Y-23556243D01*
X33552205Y-23585331D01*
X33608444Y-23758414D01*
X33704951Y-23947820D01*
X33829890Y-24119786D01*
X33980213Y-24270109D01*
X34152182Y-24395050D01*
X34160946Y-24399516D01*
X34211742Y-24447491D01*
X34228536Y-24515312D01*
X34205998Y-24581447D01*
X34160946Y-24620484D01*
X34152182Y-24624949D01*
X33980213Y-24749890D01*
X33829890Y-24900213D01*
X33704951Y-25072179D01*
X33608444Y-25261585D01*
X33542753Y-25463760D01*
X33509500Y-25673713D01*
X33509500Y-25886286D01*
X33542753Y-26096239D01*
X33608444Y-26298414D01*
X33704951Y-26487820D01*
X33829890Y-26659786D01*
X33980213Y-26810109D01*
X34152182Y-26935050D01*
X34160946Y-26939516D01*
X34211742Y-26987491D01*
X34228536Y-27055312D01*
X34205998Y-27121447D01*
X34160946Y-27160484D01*
X34152182Y-27164949D01*
X33980213Y-27289890D01*
X33829890Y-27440213D01*
X33704951Y-27612179D01*
X33608444Y-27801585D01*
X33542753Y-28003760D01*
X33509500Y-28213713D01*
X33509500Y-28426287D01*
X33542754Y-28636243D01*
X33573134Y-28729744D01*
X33608444Y-28838414D01*
X33704951Y-29027820D01*
X33829890Y-29199786D01*
X33980213Y-29350109D01*
X34152182Y-29475050D01*
X34160946Y-29479516D01*
X34211742Y-29527491D01*
X34228536Y-29595312D01*
X34205998Y-29661447D01*
X34160946Y-29700484D01*
X34152182Y-29704949D01*
X33980213Y-29829890D01*
X33829890Y-29980213D01*
X33704951Y-30152179D01*
X33608444Y-30341585D01*
X33542753Y-30543760D01*
X33509500Y-30753713D01*
X33509500Y-30966286D01*
X33542753Y-31176239D01*
X33608444Y-31378414D01*
X33704951Y-31567820D01*
X33829890Y-31739786D01*
X33980213Y-31890109D01*
X34152182Y-32015050D01*
X34160946Y-32019516D01*
X34211742Y-32067491D01*
X34228536Y-32135312D01*
X34205998Y-32201447D01*
X34160946Y-32240484D01*
X34152182Y-32244949D01*
X33980213Y-32369890D01*
X33829890Y-32520213D01*
X33704951Y-32692179D01*
X33608444Y-32881585D01*
X33542753Y-33083760D01*
X33509500Y-33293713D01*
X33509500Y-33506287D01*
X33542754Y-33716243D01*
X33573134Y-33809744D01*
X33608444Y-33918414D01*
X33704951Y-34107820D01*
X33829890Y-34279786D01*
X33980213Y-34430109D01*
X34152182Y-34555050D01*
X34160946Y-34559516D01*
X34211742Y-34607491D01*
X34228536Y-34675312D01*
X34205998Y-34741447D01*
X34160946Y-34780484D01*
X34152182Y-34784949D01*
X33980213Y-34909890D01*
X33829890Y-35060213D01*
X33704951Y-35232179D01*
X33608444Y-35421585D01*
X33542753Y-35623760D01*
X33509500Y-35833713D01*
X33509500Y-36046286D01*
X33542753Y-36256239D01*
X33608444Y-36458414D01*
X33704951Y-36647820D01*
X33829890Y-36819786D01*
X33980213Y-36970109D01*
X34152182Y-37095050D01*
X34160946Y-37099516D01*
X34211742Y-37147491D01*
X34228536Y-37215312D01*
X34205998Y-37281447D01*
X34160946Y-37320484D01*
X34152182Y-37324949D01*
X33980213Y-37449890D01*
X33829890Y-37600213D01*
X33704951Y-37772179D01*
X33608444Y-37961585D01*
X33542753Y-38163760D01*
X33509500Y-38373713D01*
X33509500Y-38586286D01*
X33542753Y-38796239D01*
X33608444Y-38998414D01*
X33704951Y-39187820D01*
X33829890Y-39359786D01*
X33980213Y-39510109D01*
X34152182Y-39635050D01*
X34160946Y-39639516D01*
X34211742Y-39687491D01*
X34228536Y-39755312D01*
X34205998Y-39821447D01*
X34160946Y-39860484D01*
X34152182Y-39864949D01*
X33980213Y-39989890D01*
X33829890Y-40140213D01*
X33704951Y-40312179D01*
X33608444Y-40501585D01*
X33542753Y-40703760D01*
X33538356Y-40731522D01*
X33509500Y-40913713D01*
X33509500Y-41126287D01*
X33513697Y-41152786D01*
X33542543Y-41334916D01*
X33542754Y-41336243D01*
X33602975Y-41521584D01*
X33608444Y-41538414D01*
X33704951Y-41727820D01*
X33829890Y-41899786D01*
X33980213Y-42050109D01*
X34152182Y-42175050D01*
X34160946Y-42179516D01*
X34211742Y-42227491D01*
X34228536Y-42295312D01*
X34205998Y-42361447D01*
X34160946Y-42400484D01*
X34152182Y-42404949D01*
X33980213Y-42529890D01*
X33829890Y-42680213D01*
X33704951Y-42852179D01*
X33608444Y-43041585D01*
X33542753Y-43243760D01*
X33509500Y-43453713D01*
X33509500Y-43666287D01*
X33514761Y-43699501D01*
X33523741Y-43756204D01*
X33542754Y-43876243D01*
X33569209Y-43957664D01*
X33608444Y-44078414D01*
X33704951Y-44267820D01*
X33829890Y-44439786D01*
X33980213Y-44590109D01*
X34152182Y-44715050D01*
X34160946Y-44719516D01*
X34211742Y-44767491D01*
X34228536Y-44835312D01*
X34205998Y-44901447D01*
X34160946Y-44940484D01*
X34152182Y-44944949D01*
X33980213Y-45069890D01*
X33829890Y-45220213D01*
X33704951Y-45392179D01*
X33608444Y-45581585D01*
X33542753Y-45783760D01*
X33509500Y-45993713D01*
X33509500Y-46206286D01*
X33542753Y-46416239D01*
X33608444Y-46618414D01*
X33704951Y-46807820D01*
X33829890Y-46979786D01*
X33980213Y-47130109D01*
X34152182Y-47255050D01*
X34160946Y-47259516D01*
X34211742Y-47307491D01*
X34228536Y-47375312D01*
X34205998Y-47441447D01*
X34160946Y-47480484D01*
X34152182Y-47484949D01*
X33980213Y-47609890D01*
X33829890Y-47760213D01*
X33704951Y-47932179D01*
X33608444Y-48121585D01*
X33542753Y-48323760D01*
X33509500Y-48533713D01*
X33509500Y-48746286D01*
X33542753Y-48956239D01*
X33608444Y-49158414D01*
X33704951Y-49347820D01*
X33829890Y-49519786D01*
X33980213Y-49670109D01*
X34152182Y-49795050D01*
X34160946Y-49799516D01*
X34211742Y-49847491D01*
X34228536Y-49915312D01*
X34205998Y-49981447D01*
X34160946Y-50020484D01*
X34152182Y-50024949D01*
X33980213Y-50149890D01*
X33829890Y-50300213D01*
X33704951Y-50472179D01*
X33608444Y-50661585D01*
X33542753Y-50863760D01*
X33509500Y-51073713D01*
X33509500Y-51286286D01*
X33542753Y-51496239D01*
X33608444Y-51698414D01*
X33704951Y-51887820D01*
X33829890Y-52059786D01*
X33980213Y-52210109D01*
X34152182Y-52335050D01*
X34160946Y-52339516D01*
X34211742Y-52387491D01*
X34228536Y-52455312D01*
X34205998Y-52521447D01*
X34160946Y-52560484D01*
X34152182Y-52564949D01*
X33980213Y-52689890D01*
X33829890Y-52840213D01*
X33704951Y-53012179D01*
X33608444Y-53201585D01*
X33542753Y-53403760D01*
X33509500Y-53613713D01*
X33509500Y-53826286D01*
X33542753Y-54036239D01*
X33608444Y-54238414D01*
X33704951Y-54427820D01*
X33829890Y-54599786D01*
X33980213Y-54750109D01*
X34152179Y-54875048D01*
X34152181Y-54875049D01*
X34152184Y-54875051D01*
X34341588Y-54971557D01*
X34543757Y-55037246D01*
X34753713Y-55070500D01*
X34753714Y-55070500D01*
X34966286Y-55070500D01*
X34966287Y-55070500D01*
X35176243Y-55037246D01*
X35378412Y-54971557D01*
X35567816Y-54875051D01*
X35589789Y-54859086D01*
X35739786Y-54750109D01*
X35739788Y-54750106D01*
X35739792Y-54750104D01*
X35890104Y-54599792D01*
X35890106Y-54599788D01*
X35890109Y-54599786D01*
X36015048Y-54427820D01*
X36015047Y-54427820D01*
X36015051Y-54427816D01*
X36111557Y-54238412D01*
X36177246Y-54036243D01*
X36210500Y-53826287D01*
X36210500Y-53613713D01*
X36177246Y-53403757D01*
X36111557Y-53201588D01*
X36015051Y-53012184D01*
X36015049Y-53012181D01*
X36015048Y-53012179D01*
X35890109Y-52840213D01*
X35739786Y-52689890D01*
X35567820Y-52564951D01*
X35567115Y-52564591D01*
X35559054Y-52560485D01*
X35508259Y-52512512D01*
X35491463Y-52444692D01*
X35513999Y-52378556D01*
X35559054Y-52339515D01*
X35567816Y-52335051D01*
X35589789Y-52319086D01*
X35739786Y-52210109D01*
X35739788Y-52210106D01*
X35739792Y-52210104D01*
X35890104Y-52059792D01*
X35890106Y-52059788D01*
X35890109Y-52059786D01*
X36015048Y-51887820D01*
X36015047Y-51887820D01*
X36015051Y-51887816D01*
X36111557Y-51698412D01*
X36177246Y-51496243D01*
X36210500Y-51286287D01*
X36210500Y-51073713D01*
X36177246Y-50863757D01*
X36111557Y-50661588D01*
X36015051Y-50472184D01*
X36015049Y-50472181D01*
X36015048Y-50472179D01*
X35890109Y-50300213D01*
X35739786Y-50149890D01*
X35567820Y-50024951D01*
X35567115Y-50024591D01*
X35559054Y-50020485D01*
X35508259Y-49972512D01*
X35491463Y-49904692D01*
X35513999Y-49838556D01*
X35559054Y-49799515D01*
X35567816Y-49795051D01*
X35589789Y-49779086D01*
X35739786Y-49670109D01*
X35739788Y-49670106D01*
X35739792Y-49670104D01*
X35890104Y-49519792D01*
X35890106Y-49519788D01*
X35890109Y-49519786D01*
X36015048Y-49347820D01*
X36015047Y-49347820D01*
X36015051Y-49347816D01*
X36111557Y-49158412D01*
X36177246Y-48956243D01*
X36210500Y-48746287D01*
X36210500Y-48533713D01*
X36177246Y-48323757D01*
X36111557Y-48121588D01*
X36015051Y-47932184D01*
X36015049Y-47932181D01*
X36015048Y-47932179D01*
X35890109Y-47760213D01*
X35739786Y-47609890D01*
X35567820Y-47484951D01*
X35567115Y-47484591D01*
X35559054Y-47480485D01*
X35508259Y-47432512D01*
X35491463Y-47364692D01*
X35513999Y-47298556D01*
X35559054Y-47259515D01*
X35567816Y-47255051D01*
X35589789Y-47239086D01*
X35739786Y-47130109D01*
X35739788Y-47130106D01*
X35739792Y-47130104D01*
X35890104Y-46979792D01*
X35890106Y-46979788D01*
X35890109Y-46979786D01*
X36015048Y-46807820D01*
X36015047Y-46807820D01*
X36015051Y-46807816D01*
X36111557Y-46618412D01*
X36177246Y-46416243D01*
X36210500Y-46206287D01*
X36210500Y-45993713D01*
X36177246Y-45783757D01*
X36111557Y-45581588D01*
X36015051Y-45392184D01*
X36015049Y-45392181D01*
X36015048Y-45392179D01*
X35890109Y-45220213D01*
X35739786Y-45069890D01*
X35567820Y-44944951D01*
X35567115Y-44944591D01*
X35559054Y-44940485D01*
X35508259Y-44892512D01*
X35491463Y-44824692D01*
X35513999Y-44758556D01*
X35559054Y-44719515D01*
X35567816Y-44715051D01*
X35589789Y-44699086D01*
X35739786Y-44590109D01*
X35739788Y-44590106D01*
X35739792Y-44590104D01*
X35890104Y-44439792D01*
X35890106Y-44439788D01*
X35890109Y-44439786D01*
X36015048Y-44267820D01*
X36015047Y-44267820D01*
X36015051Y-44267816D01*
X36111557Y-44078412D01*
X36177246Y-43876243D01*
X36210500Y-43666287D01*
X36210500Y-43453713D01*
X36177246Y-43243757D01*
X36111557Y-43041588D01*
X36015051Y-42852184D01*
X36015049Y-42852181D01*
X36015048Y-42852179D01*
X35890109Y-42680213D01*
X35739786Y-42529890D01*
X35567820Y-42404951D01*
X35567115Y-42404591D01*
X35559054Y-42400485D01*
X35508259Y-42352512D01*
X35491463Y-42284692D01*
X35513999Y-42218556D01*
X35559054Y-42179515D01*
X35567816Y-42175051D01*
X35589789Y-42159086D01*
X35739786Y-42050109D01*
X35739788Y-42050106D01*
X35739792Y-42050104D01*
X35890104Y-41899792D01*
X35890106Y-41899788D01*
X35890109Y-41899786D01*
X36015048Y-41727820D01*
X36015047Y-41727820D01*
X36015051Y-41727816D01*
X36111557Y-41538412D01*
X36177246Y-41336243D01*
X36210500Y-41126287D01*
X36210500Y-40913713D01*
X36177246Y-40703757D01*
X36111557Y-40501588D01*
X36015051Y-40312184D01*
X36015049Y-40312181D01*
X36015048Y-40312179D01*
X35890109Y-40140213D01*
X35739786Y-39989890D01*
X35567820Y-39864951D01*
X35567115Y-39864591D01*
X35559054Y-39860485D01*
X35508259Y-39812512D01*
X35491463Y-39744692D01*
X35513999Y-39678556D01*
X35559054Y-39639515D01*
X35567816Y-39635051D01*
X35589789Y-39619086D01*
X35739786Y-39510109D01*
X35739788Y-39510106D01*
X35739792Y-39510104D01*
X35890104Y-39359792D01*
X35890106Y-39359788D01*
X35890109Y-39359786D01*
X36015048Y-39187820D01*
X36015047Y-39187820D01*
X36015051Y-39187816D01*
X36111557Y-38998412D01*
X36177246Y-38796243D01*
X36210500Y-38586287D01*
X36210500Y-38373713D01*
X36177246Y-38163757D01*
X36111557Y-37961588D01*
X36015051Y-37772184D01*
X36015049Y-37772181D01*
X36015048Y-37772179D01*
X35890109Y-37600213D01*
X35739786Y-37449890D01*
X35567820Y-37324951D01*
X35567115Y-37324591D01*
X35559054Y-37320485D01*
X35508259Y-37272512D01*
X35491463Y-37204692D01*
X35513999Y-37138556D01*
X35559054Y-37099515D01*
X35567816Y-37095051D01*
X35589789Y-37079086D01*
X35739786Y-36970109D01*
X35739788Y-36970106D01*
X35739792Y-36970104D01*
X35890104Y-36819792D01*
X35890106Y-36819788D01*
X35890109Y-36819786D01*
X36015048Y-36647820D01*
X36015047Y-36647820D01*
X36015051Y-36647816D01*
X36111557Y-36458412D01*
X36177246Y-36256243D01*
X36210500Y-36046287D01*
X36210500Y-35833713D01*
X36177246Y-35623757D01*
X36111557Y-35421588D01*
X36015051Y-35232184D01*
X36015049Y-35232181D01*
X36015048Y-35232179D01*
X35890109Y-35060213D01*
X35739786Y-34909890D01*
X35567820Y-34784951D01*
X35567115Y-34784591D01*
X35559054Y-34780485D01*
X35508259Y-34732512D01*
X35491463Y-34664692D01*
X35513999Y-34598556D01*
X35559054Y-34559515D01*
X35567816Y-34555051D01*
X35643874Y-34499792D01*
X35739786Y-34430109D01*
X35739788Y-34430106D01*
X35739792Y-34430104D01*
X35890104Y-34279792D01*
X35890106Y-34279788D01*
X35890109Y-34279786D01*
X36015048Y-34107820D01*
X36015047Y-34107820D01*
X36015051Y-34107816D01*
X36111557Y-33918412D01*
X36177246Y-33716243D01*
X36210500Y-33506287D01*
X36210500Y-33293713D01*
X36177246Y-33083757D01*
X36111557Y-32881588D01*
X36015051Y-32692184D01*
X36015049Y-32692181D01*
X36015048Y-32692179D01*
X35890109Y-32520213D01*
X35739786Y-32369890D01*
X35567820Y-32244951D01*
X35567115Y-32244591D01*
X35559054Y-32240485D01*
X35508259Y-32192512D01*
X35491463Y-32124692D01*
X35513999Y-32058556D01*
X35559054Y-32019515D01*
X35567816Y-32015051D01*
X35643874Y-31959792D01*
X35739786Y-31890109D01*
X35739788Y-31890106D01*
X35739792Y-31890104D01*
X35890104Y-31739792D01*
X35890106Y-31739788D01*
X35890109Y-31739786D01*
X36015048Y-31567820D01*
X36015047Y-31567820D01*
X36015051Y-31567816D01*
X36111557Y-31378412D01*
X36177246Y-31176243D01*
X36210500Y-30966287D01*
X36210500Y-30753713D01*
X36177246Y-30543757D01*
X36111557Y-30341588D01*
X36015051Y-30152184D01*
X36015049Y-30152181D01*
X36015048Y-30152179D01*
X35890109Y-29980213D01*
X35739786Y-29829890D01*
X35567820Y-29704951D01*
X35567115Y-29704591D01*
X35559054Y-29700485D01*
X35508259Y-29652512D01*
X35491463Y-29584692D01*
X35513999Y-29518556D01*
X35559054Y-29479515D01*
X35567816Y-29475051D01*
X35643874Y-29419792D01*
X35739786Y-29350109D01*
X35739788Y-29350106D01*
X35739792Y-29350104D01*
X35890104Y-29199792D01*
X35890106Y-29199788D01*
X35890109Y-29199786D01*
X36015048Y-29027820D01*
X36015047Y-29027820D01*
X36015051Y-29027816D01*
X36111557Y-28838412D01*
X36177246Y-28636243D01*
X36210500Y-28426287D01*
X36210500Y-28213713D01*
X36177246Y-28003757D01*
X36111557Y-27801588D01*
X36015051Y-27612184D01*
X36015049Y-27612181D01*
X36015048Y-27612179D01*
X35890109Y-27440213D01*
X35739786Y-27289890D01*
X35567820Y-27164951D01*
X35567115Y-27164591D01*
X35559054Y-27160485D01*
X35508259Y-27112512D01*
X35491463Y-27044692D01*
X35513999Y-26978556D01*
X35559054Y-26939515D01*
X35567816Y-26935051D01*
X35589789Y-26919086D01*
X35739786Y-26810109D01*
X35739788Y-26810106D01*
X35739792Y-26810104D01*
X35890104Y-26659792D01*
X35890106Y-26659788D01*
X35890109Y-26659786D01*
X36017915Y-26483875D01*
X36019259Y-26484851D01*
X36065705Y-26442834D01*
X36119618Y-26430500D01*
X40225500Y-26430500D01*
X40292539Y-26450185D01*
X40338294Y-26502989D01*
X40349500Y-26554500D01*
X40349500Y-33684069D01*
X40349500Y-33684071D01*
X40349499Y-33684071D01*
X40374497Y-33809738D01*
X40374499Y-33809744D01*
X40423533Y-33928124D01*
X40423538Y-33928133D01*
X40494723Y-34034668D01*
X40494726Y-34034672D01*
X40585327Y-34125273D01*
X40585331Y-34125276D01*
X40691866Y-34196461D01*
X40691872Y-34196464D01*
X40691873Y-34196465D01*
X40810256Y-34245501D01*
X40810260Y-34245501D01*
X40810261Y-34245502D01*
X40935928Y-34270500D01*
X40935931Y-34270500D01*
X41064069Y-34270500D01*
X48740382Y-34270500D01*
X48807421Y-34290185D01*
X48841099Y-34324591D01*
X48842085Y-34323875D01*
X48969890Y-34499786D01*
X49120213Y-34650109D01*
X49292179Y-34775048D01*
X49292181Y-34775049D01*
X49292184Y-34775051D01*
X49481588Y-34871557D01*
X49683757Y-34937246D01*
X49893713Y-34970500D01*
X49893714Y-34970500D01*
X50106286Y-34970500D01*
X50106287Y-34970500D01*
X50316243Y-34937246D01*
X50518412Y-34871557D01*
X50707816Y-34775051D01*
X50754068Y-34741447D01*
X50879786Y-34650109D01*
X50879788Y-34650106D01*
X50879792Y-34650104D01*
X51030104Y-34499792D01*
X51030106Y-34499788D01*
X51030109Y-34499786D01*
X51155048Y-34327820D01*
X51155047Y-34327820D01*
X51155051Y-34327816D01*
X51251557Y-34138412D01*
X51317246Y-33936243D01*
X51350500Y-33726287D01*
X51350500Y-33513713D01*
X51317246Y-33303757D01*
X51251557Y-33101588D01*
X51155051Y-32912184D01*
X51155049Y-32912181D01*
X51155048Y-32912179D01*
X51030109Y-32740213D01*
X50879786Y-32589890D01*
X50707820Y-32464951D01*
X50707115Y-32464591D01*
X50699054Y-32460485D01*
X50648259Y-32412512D01*
X50631463Y-32344692D01*
X50653999Y-32278556D01*
X50699054Y-32239515D01*
X50707816Y-32235051D01*
X50754068Y-32201447D01*
X50879786Y-32110109D01*
X50879788Y-32110106D01*
X50879792Y-32110104D01*
X51030104Y-31959792D01*
X51030106Y-31959788D01*
X51030109Y-31959786D01*
X51155048Y-31787820D01*
X51155047Y-31787820D01*
X51155051Y-31787816D01*
X51251557Y-31598412D01*
X51317246Y-31396243D01*
X51350500Y-31186287D01*
X51350500Y-30973713D01*
X51317246Y-30763757D01*
X51251557Y-30561588D01*
X51155051Y-30372184D01*
X51155049Y-30372181D01*
X51155048Y-30372179D01*
X51030109Y-30200213D01*
X50879786Y-30049890D01*
X50707820Y-29924951D01*
X50707115Y-29924591D01*
X50699054Y-29920485D01*
X50648259Y-29872512D01*
X50631463Y-29804692D01*
X50653999Y-29738556D01*
X50699054Y-29699515D01*
X50707816Y-29695051D01*
X50754068Y-29661447D01*
X50879786Y-29570109D01*
X50879788Y-29570106D01*
X50879792Y-29570104D01*
X51030104Y-29419792D01*
X51030106Y-29419788D01*
X51030109Y-29419786D01*
X51155048Y-29247820D01*
X51155047Y-29247820D01*
X51155051Y-29247816D01*
X51251557Y-29058412D01*
X51317246Y-28856243D01*
X51350500Y-28646287D01*
X51350500Y-28433713D01*
X51317246Y-28223757D01*
X51251557Y-28021588D01*
X51155051Y-27832184D01*
X51155049Y-27832181D01*
X51155048Y-27832179D01*
X51030109Y-27660213D01*
X50879786Y-27509890D01*
X50707820Y-27384951D01*
X50518414Y-27288444D01*
X50518413Y-27288443D01*
X50518412Y-27288443D01*
X50316243Y-27222754D01*
X50316241Y-27222753D01*
X50316240Y-27222753D01*
X50154957Y-27197208D01*
X50106287Y-27189500D01*
X49893713Y-27189500D01*
X49845042Y-27197208D01*
X49683760Y-27222753D01*
X49481585Y-27288444D01*
X49430795Y-27314323D01*
X49362125Y-27327219D01*
X49297385Y-27300942D01*
X49257128Y-27243836D01*
X49250500Y-27203838D01*
X49250500Y-23935928D01*
X49225502Y-23810261D01*
X49225501Y-23810260D01*
X49225501Y-23810256D01*
X49176465Y-23691873D01*
X49176464Y-23691872D01*
X49176461Y-23691866D01*
X49105276Y-23585331D01*
X49105273Y-23585327D01*
X49014672Y-23494726D01*
X49014668Y-23494723D01*
X48908133Y-23423538D01*
X48908124Y-23423533D01*
X48789744Y-23374499D01*
X48789738Y-23374497D01*
X48664071Y-23349500D01*
X48664069Y-23349500D01*
X37274500Y-23349500D01*
X37207461Y-23329815D01*
X37161706Y-23277011D01*
X37150500Y-23225500D01*
X37150500Y-21935928D01*
X37125502Y-21810261D01*
X37125501Y-21810260D01*
X37125501Y-21810256D01*
X37076465Y-21691873D01*
X37076464Y-21691872D01*
X37076461Y-21691866D01*
X37005276Y-21585331D01*
X37005273Y-21585327D01*
X36914672Y-21494726D01*
X36914668Y-21494723D01*
X36808133Y-21423538D01*
X36808124Y-21423533D01*
X36689744Y-21374499D01*
X36689738Y-21374497D01*
X36564071Y-21349500D01*
X36564069Y-21349500D01*
X36239635Y-21349500D01*
X36172596Y-21329815D01*
X36126841Y-21277011D01*
X36116897Y-21207853D01*
X36121704Y-21187182D01*
X36177246Y-21016243D01*
X36210500Y-20806287D01*
X36210500Y-20593713D01*
X36177246Y-20383757D01*
X36111557Y-20181588D01*
X36015051Y-19992184D01*
X36015049Y-19992181D01*
X36015048Y-19992179D01*
X35890109Y-19820213D01*
X35739786Y-19669890D01*
X35567820Y-19544951D01*
X35567115Y-19544591D01*
X35559054Y-19540485D01*
X35508259Y-19492512D01*
X35491463Y-19424692D01*
X35513999Y-19358556D01*
X35559054Y-19319515D01*
X35567816Y-19315051D01*
X35609500Y-19284766D01*
X35739786Y-19190109D01*
X35739788Y-19190106D01*
X35739792Y-19190104D01*
X35890104Y-19039792D01*
X35890106Y-19039788D01*
X35890109Y-19039786D01*
X36015048Y-18867820D01*
X36015047Y-18867820D01*
X36015051Y-18867816D01*
X36111557Y-18678412D01*
X36177246Y-18476243D01*
X36210500Y-18266287D01*
X36210500Y-18053713D01*
X36177246Y-17843757D01*
X36111557Y-17641588D01*
X36015051Y-17452184D01*
X36015049Y-17452181D01*
X36015048Y-17452179D01*
X35890109Y-17280213D01*
X35739786Y-17129890D01*
X35567820Y-17004951D01*
X35567115Y-17004591D01*
X35559054Y-17000485D01*
X35508259Y-16952512D01*
X35491463Y-16884692D01*
X35513999Y-16818556D01*
X35559054Y-16779515D01*
X35567816Y-16775051D01*
X35589789Y-16759086D01*
X35739786Y-16650109D01*
X35739788Y-16650106D01*
X35739792Y-16650104D01*
X35890104Y-16499792D01*
X35890106Y-16499788D01*
X35890109Y-16499786D01*
X36015048Y-16327820D01*
X36015047Y-16327820D01*
X36015051Y-16327816D01*
X36111557Y-16138412D01*
X36177246Y-15936243D01*
X36210500Y-15726287D01*
X36210500Y-15513713D01*
X36177246Y-15303757D01*
X36111557Y-15101588D01*
X36015051Y-14912184D01*
X36015049Y-14912181D01*
X36015048Y-14912179D01*
X35890109Y-14740213D01*
X35739786Y-14589890D01*
X35567820Y-14464951D01*
X35567115Y-14464591D01*
X35559054Y-14460485D01*
X35508259Y-14412512D01*
X35491463Y-14344692D01*
X35513999Y-14278556D01*
X35559054Y-14239515D01*
X35567816Y-14235051D01*
X35589789Y-14219086D01*
X35739786Y-14110109D01*
X35739788Y-14110106D01*
X35739792Y-14110104D01*
X35890104Y-13959792D01*
X35890106Y-13959788D01*
X35890109Y-13959786D01*
X36015048Y-13787820D01*
X36015047Y-13787820D01*
X36015051Y-13787816D01*
X36111557Y-13598412D01*
X36177246Y-13396243D01*
X36210500Y-13186287D01*
X36210500Y-12973713D01*
X48649500Y-12973713D01*
X48649500Y-13186286D01*
X48682753Y-13396239D01*
X48748444Y-13598414D01*
X48844951Y-13787820D01*
X48969890Y-13959786D01*
X49120213Y-14110109D01*
X49292182Y-14235050D01*
X49300946Y-14239516D01*
X49351742Y-14287491D01*
X49368536Y-14355312D01*
X49345998Y-14421447D01*
X49300946Y-14460484D01*
X49292182Y-14464949D01*
X49120213Y-14589890D01*
X48969890Y-14740213D01*
X48844951Y-14912179D01*
X48748444Y-15101585D01*
X48682753Y-15303760D01*
X48649500Y-15513713D01*
X48649500Y-15726286D01*
X48682753Y-15936239D01*
X48682753Y-15936241D01*
X48682754Y-15936243D01*
X48740998Y-16115500D01*
X48748444Y-16138414D01*
X48844951Y-16327820D01*
X48969890Y-16499786D01*
X49120213Y-16650109D01*
X49292182Y-16775050D01*
X49300946Y-16779516D01*
X49351742Y-16827491D01*
X49368536Y-16895312D01*
X49345998Y-16961447D01*
X49300946Y-17000484D01*
X49292182Y-17004949D01*
X49120213Y-17129890D01*
X48969890Y-17280213D01*
X48844951Y-17452179D01*
X48748444Y-17641585D01*
X48682753Y-17843760D01*
X48649500Y-18053713D01*
X48649500Y-18266286D01*
X48682753Y-18476239D01*
X48682753Y-18476241D01*
X48682754Y-18476243D01*
X48740998Y-18655500D01*
X48748444Y-18678414D01*
X48844951Y-18867820D01*
X48969890Y-19039786D01*
X49120213Y-19190109D01*
X49292179Y-19315048D01*
X49292181Y-19315049D01*
X49292184Y-19315051D01*
X49481588Y-19411557D01*
X49683757Y-19477246D01*
X49893713Y-19510500D01*
X49893714Y-19510500D01*
X50106286Y-19510500D01*
X50106287Y-19510500D01*
X50316243Y-19477246D01*
X50518412Y-19411557D01*
X50707816Y-19315051D01*
X50749500Y-19284766D01*
X50879786Y-19190109D01*
X50879788Y-19190106D01*
X50879792Y-19190104D01*
X51030104Y-19039792D01*
X51030106Y-19039788D01*
X51030109Y-19039786D01*
X51155048Y-18867820D01*
X51155047Y-18867820D01*
X51155051Y-18867816D01*
X51251557Y-18678412D01*
X51317246Y-18476243D01*
X51350500Y-18266287D01*
X51350500Y-18053713D01*
X51317246Y-17843757D01*
X51251557Y-17641588D01*
X51155051Y-17452184D01*
X51155049Y-17452181D01*
X51155048Y-17452179D01*
X51030109Y-17280213D01*
X50879786Y-17129890D01*
X50707820Y-17004951D01*
X50707115Y-17004591D01*
X50699054Y-17000485D01*
X50648259Y-16952512D01*
X50631463Y-16884692D01*
X50653999Y-16818556D01*
X50699054Y-16779515D01*
X50707816Y-16775051D01*
X50729789Y-16759086D01*
X50879786Y-16650109D01*
X50879788Y-16650106D01*
X50879792Y-16650104D01*
X51030104Y-16499792D01*
X51030106Y-16499788D01*
X51030109Y-16499786D01*
X51155048Y-16327820D01*
X51155047Y-16327820D01*
X51155051Y-16327816D01*
X51251557Y-16138412D01*
X51317246Y-15936243D01*
X51350500Y-15726287D01*
X51350500Y-15513713D01*
X51317246Y-15303757D01*
X51251557Y-15101588D01*
X51155051Y-14912184D01*
X51155049Y-14912181D01*
X51155048Y-14912179D01*
X51030109Y-14740213D01*
X50879786Y-14589890D01*
X50707820Y-14464951D01*
X50707115Y-14464591D01*
X50699054Y-14460485D01*
X50648259Y-14412512D01*
X50631463Y-14344692D01*
X50653999Y-14278556D01*
X50699054Y-14239515D01*
X50707816Y-14235051D01*
X50729789Y-14219086D01*
X50879786Y-14110109D01*
X50879788Y-14110106D01*
X50879792Y-14110104D01*
X51030104Y-13959792D01*
X51030106Y-13959788D01*
X51030109Y-13959786D01*
X51155048Y-13787820D01*
X51155047Y-13787820D01*
X51155051Y-13787816D01*
X51251557Y-13598412D01*
X51317246Y-13396243D01*
X51350500Y-13186287D01*
X51350500Y-12973713D01*
X51317246Y-12763757D01*
X51251557Y-12561588D01*
X51155051Y-12372184D01*
X51155049Y-12372181D01*
X51155048Y-12372179D01*
X51030109Y-12200213D01*
X50879786Y-12049890D01*
X50707820Y-11924951D01*
X50518414Y-11828444D01*
X50518413Y-11828443D01*
X50518412Y-11828443D01*
X50316243Y-11762754D01*
X50316241Y-11762753D01*
X50316240Y-11762753D01*
X50154957Y-11737208D01*
X50106287Y-11729500D01*
X49893713Y-11729500D01*
X49845042Y-11737208D01*
X49683760Y-11762753D01*
X49481585Y-11828444D01*
X49292179Y-11924951D01*
X49120213Y-12049890D01*
X48969890Y-12200213D01*
X48844951Y-12372179D01*
X48748444Y-12561585D01*
X48682753Y-12763760D01*
X48649500Y-12973713D01*
X36210500Y-12973713D01*
X36177246Y-12763757D01*
X36111557Y-12561588D01*
X36015051Y-12372184D01*
X36015049Y-12372181D01*
X36015048Y-12372179D01*
X35890109Y-12200213D01*
X35739786Y-12049890D01*
X35567820Y-11924951D01*
X35567115Y-11924591D01*
X35559054Y-11920485D01*
X35508259Y-11872512D01*
X35491463Y-11804692D01*
X35513999Y-11738556D01*
X35559054Y-11699515D01*
X35567816Y-11695051D01*
X35589789Y-11679086D01*
X35739786Y-11570109D01*
X35739788Y-11570106D01*
X35739792Y-11570104D01*
X35890104Y-11419792D01*
X35890108Y-11419786D01*
X35946903Y-11341615D01*
X36002233Y-11298949D01*
X36047221Y-11290500D01*
X37073920Y-11290500D01*
X37171462Y-11271096D01*
X37218913Y-11261658D01*
X37355495Y-11205084D01*
X37478416Y-11122951D01*
X37582951Y-11018416D01*
X37665084Y-10895495D01*
X37721658Y-10758913D01*
X37731096Y-10711462D01*
X37750500Y-10613920D01*
X37750500Y-7374500D01*
X37770185Y-7307461D01*
X37822989Y-7261706D01*
X37874500Y-7250500D01*
X48525500Y-7250500D01*
X48592539Y-7270185D01*
X48638294Y-7322989D01*
X48649500Y-7374500D01*
X48649500Y-8897870D01*
X48649501Y-8897876D01*
X48655908Y-8957483D01*
X48706202Y-9092328D01*
X48706206Y-9092335D01*
X48792452Y-9207544D01*
X48792455Y-9207547D01*
X48907664Y-9293793D01*
X48907671Y-9293797D01*
X49042517Y-9344091D01*
X49042516Y-9344091D01*
X49049444Y-9344835D01*
X49102127Y-9350500D01*
X50897872Y-9350499D01*
X50957483Y-9344091D01*
X51092331Y-9293796D01*
X51207546Y-9207546D01*
X51293796Y-9092331D01*
X51344091Y-8957483D01*
X51350500Y-8897873D01*
X51350500Y-8874500D01*
X51370185Y-8807461D01*
X51422989Y-8761706D01*
X51474500Y-8750500D01*
X53625500Y-8750500D01*
X53692539Y-8770185D01*
X53738294Y-8822989D01*
X53749500Y-8874500D01*
X53749500Y-44125500D01*
X53729815Y-44192539D01*
X53677011Y-44238294D01*
X53625500Y-44249500D01*
X51422351Y-44249500D01*
X51355312Y-44229815D01*
X51309557Y-44177011D01*
X51299061Y-44138752D01*
X51294091Y-44092516D01*
X51243797Y-43957671D01*
X51243793Y-43957664D01*
X51157547Y-43842455D01*
X51157544Y-43842452D01*
X51042335Y-43756206D01*
X51042328Y-43756202D01*
X50907483Y-43705908D01*
X50861243Y-43700937D01*
X50796693Y-43674199D01*
X50756845Y-43616806D01*
X50750500Y-43577648D01*
X50750500Y-41926079D01*
X50721659Y-41781092D01*
X50721658Y-41781091D01*
X50721658Y-41781087D01*
X50699594Y-41727820D01*
X50665087Y-41644511D01*
X50665080Y-41644498D01*
X50582951Y-41521584D01*
X50582948Y-41521580D01*
X50478419Y-41417051D01*
X50478415Y-41417048D01*
X50355501Y-41334919D01*
X50355488Y-41334912D01*
X50218917Y-41278343D01*
X50218907Y-41278340D01*
X50073920Y-41249500D01*
X50073918Y-41249500D01*
X44125418Y-41249500D01*
X44058379Y-41229815D01*
X44025100Y-41198385D01*
X43991971Y-41152787D01*
X43991967Y-41152782D01*
X43847213Y-41008028D01*
X43681613Y-40887715D01*
X43681612Y-40887714D01*
X43681610Y-40887713D01*
X43624653Y-40858691D01*
X43499223Y-40794781D01*
X43304534Y-40731522D01*
X43129229Y-40703757D01*
X43102352Y-40699500D01*
X42897648Y-40699500D01*
X42873329Y-40703351D01*
X42695465Y-40731522D01*
X42500776Y-40794781D01*
X42318386Y-40887715D01*
X42152786Y-41008028D01*
X42008028Y-41152786D01*
X41887715Y-41318386D01*
X41794781Y-41500776D01*
X41731522Y-41695465D01*
X41699500Y-41897648D01*
X41699500Y-42102351D01*
X41731522Y-42304534D01*
X41794781Y-42499223D01*
X41858691Y-42624653D01*
X41887001Y-42680213D01*
X41887715Y-42681613D01*
X42008028Y-42847213D01*
X42152786Y-42991971D01*
X42307749Y-43104556D01*
X42318390Y-43112287D01*
X42434607Y-43171503D01*
X42500776Y-43205218D01*
X42500778Y-43205218D01*
X42500781Y-43205220D01*
X42605137Y-43239127D01*
X42695465Y-43268477D01*
X42796557Y-43284488D01*
X42897648Y-43300500D01*
X42897649Y-43300500D01*
X43102351Y-43300500D01*
X43102352Y-43300500D01*
X43304534Y-43268477D01*
X43499219Y-43205220D01*
X43681610Y-43112287D01*
X43778924Y-43041585D01*
X43847213Y-42991971D01*
X43847215Y-42991968D01*
X43847219Y-42991966D01*
X43991966Y-42847219D01*
X44009570Y-42822989D01*
X44025100Y-42801615D01*
X44080429Y-42758949D01*
X44125418Y-42750500D01*
X49125500Y-42750500D01*
X49192539Y-42770185D01*
X49238294Y-42822989D01*
X49249500Y-42874500D01*
X49249500Y-43577648D01*
X49229815Y-43644687D01*
X49177011Y-43690442D01*
X49138755Y-43700938D01*
X49092516Y-43705909D01*
X48957671Y-43756202D01*
X48957664Y-43756206D01*
X48842455Y-43842452D01*
X48842452Y-43842455D01*
X48756206Y-43957664D01*
X48756202Y-43957671D01*
X48705908Y-44092517D01*
X48699501Y-44152116D01*
X48699500Y-44152135D01*
X48699500Y-45847870D01*
X48699501Y-45847876D01*
X48705908Y-45907483D01*
X48756202Y-46042328D01*
X48756206Y-46042335D01*
X48842452Y-46157544D01*
X48842455Y-46157547D01*
X48957664Y-46243793D01*
X48957671Y-46243797D01*
X49092517Y-46294091D01*
X49092516Y-46294091D01*
X49099444Y-46294835D01*
X49152127Y-46300500D01*
X50847872Y-46300499D01*
X50907483Y-46294091D01*
X51042331Y-46243796D01*
X51157546Y-46157546D01*
X51243796Y-46042331D01*
X51294091Y-45907483D01*
X51299062Y-45861242D01*
X51325799Y-45796694D01*
X51383191Y-45756846D01*
X51422351Y-45750500D01*
X54573920Y-45750500D01*
X54671462Y-45731096D01*
X54718913Y-45721658D01*
X54855495Y-45665084D01*
X54978416Y-45582951D01*
X55082951Y-45478416D01*
X55165084Y-45355495D01*
X55221658Y-45218913D01*
X55250500Y-45073918D01*
X55250500Y-7926082D01*
X55250500Y-6426082D01*
X55250500Y-6426079D01*
X55221659Y-6281092D01*
X55221658Y-6281091D01*
X55221658Y-6281087D01*
X55221656Y-6281082D01*
X55165087Y-6144511D01*
X55165080Y-6144498D01*
X55082951Y-6021584D01*
X55082948Y-6021580D01*
X54978419Y-5917051D01*
X54978415Y-5917048D01*
X54855501Y-5834919D01*
X54855488Y-5834912D01*
X54718917Y-5778343D01*
X54718907Y-5778340D01*
X54573920Y-5749500D01*
X54573918Y-5749500D01*
X37073918Y-5749500D01*
X36926082Y-5749500D01*
X36926080Y-5749500D01*
X36781092Y-5778340D01*
X36781082Y-5778343D01*
X36644511Y-5834912D01*
X36644498Y-5834919D01*
X36521584Y-5917048D01*
X36521580Y-5917051D01*
X36417051Y-6021580D01*
X36417048Y-6021584D01*
X36334919Y-6144498D01*
X36334912Y-6144511D01*
X36278343Y-6281082D01*
X36278340Y-6281092D01*
X36249500Y-6426079D01*
X36249500Y-9665500D01*
X36229815Y-9732539D01*
X36177011Y-9778294D01*
X36125500Y-9789500D01*
X36047221Y-9789500D01*
X35980182Y-9769815D01*
X35946903Y-9738385D01*
X35890107Y-9660211D01*
X35739786Y-9509890D01*
X35567820Y-9384951D01*
X35378414Y-9288444D01*
X35378413Y-9288443D01*
X35378412Y-9288443D01*
X35176243Y-9222754D01*
X35176241Y-9222753D01*
X35176240Y-9222753D01*
X35014957Y-9197208D01*
X34966287Y-9189500D01*
X34753713Y-9189500D01*
X34705042Y-9197208D01*
X34543760Y-9222753D01*
X34341585Y-9288444D01*
X34152179Y-9384951D01*
X33980213Y-9509890D01*
X33829890Y-9660213D01*
X33704951Y-9832179D01*
X33608444Y-10021585D01*
X33542753Y-10223760D01*
X33509500Y-10433713D01*
X33509500Y-10646287D01*
X33542754Y-10856243D01*
X33595448Y-11018419D01*
X33608444Y-11058414D01*
X33704951Y-11247820D01*
X33829890Y-11419786D01*
X33980213Y-11570109D01*
X34152182Y-11695050D01*
X34160946Y-11699516D01*
X34211742Y-11747491D01*
X34228536Y-11815312D01*
X34205998Y-11881447D01*
X34160946Y-11920484D01*
X34152182Y-11924949D01*
X33980213Y-12049890D01*
X33829890Y-12200213D01*
X33704951Y-12372179D01*
X33608444Y-12561585D01*
X33542753Y-12763760D01*
X33509500Y-12973713D01*
X33509500Y-13186286D01*
X33542753Y-13396239D01*
X33608444Y-13598414D01*
X33704951Y-13787820D01*
X33829890Y-13959786D01*
X33980213Y-14110109D01*
X34152182Y-14235050D01*
X34160946Y-14239516D01*
X34211742Y-14287491D01*
X34228536Y-14355312D01*
X34205998Y-14421447D01*
X34160946Y-14460484D01*
X34152182Y-14464949D01*
X33980213Y-14589890D01*
X33829890Y-14740213D01*
X33704951Y-14912179D01*
X33608444Y-15101585D01*
X33542753Y-15303760D01*
X33509500Y-15513713D01*
X33509500Y-15726286D01*
X33542753Y-15936239D01*
X33542753Y-15936241D01*
X33542754Y-15936243D01*
X33600998Y-16115500D01*
X33608444Y-16138414D01*
X33704951Y-16327820D01*
X33829890Y-16499786D01*
X33980213Y-16650109D01*
X34152182Y-16775050D01*
X34160946Y-16779516D01*
X34211742Y-16827491D01*
X34228536Y-16895312D01*
X34205998Y-16961447D01*
X34160946Y-17000484D01*
X34152182Y-17004949D01*
X33980213Y-17129890D01*
X33829890Y-17280213D01*
X33704951Y-17452179D01*
X33608444Y-17641585D01*
X33542753Y-17843760D01*
X33509500Y-18053713D01*
X33509500Y-18266286D01*
X33542753Y-18476239D01*
X33542753Y-18476241D01*
X33542754Y-18476243D01*
X33600998Y-18655500D01*
X33608444Y-18678414D01*
X33704951Y-18867820D01*
X33829890Y-19039786D01*
X33980213Y-19190109D01*
X34152182Y-19315050D01*
X34160946Y-19319516D01*
X34211742Y-19367491D01*
X34228536Y-19435312D01*
X34205998Y-19501447D01*
X34160946Y-19540484D01*
X34152182Y-19544949D01*
X33980213Y-19669890D01*
X33829890Y-19820213D01*
X33704951Y-19992179D01*
X33608444Y-20181585D01*
X33542753Y-20383760D01*
X33509500Y-20593713D01*
X33509500Y-20806286D01*
X33542753Y-21016239D01*
X33598296Y-21187182D01*
X33600291Y-21257023D01*
X33564211Y-21316856D01*
X33501510Y-21347684D01*
X33480365Y-21349500D01*
X13379635Y-21349500D01*
X13312596Y-21329815D01*
X13266841Y-21277011D01*
X13256897Y-21207853D01*
X13261704Y-21187182D01*
X13317246Y-21016243D01*
X13350500Y-20806287D01*
X13350500Y-20593713D01*
X13317246Y-20383757D01*
X13271452Y-20242818D01*
X13269457Y-20172977D01*
X13305537Y-20113144D01*
X13368238Y-20082316D01*
X13389383Y-20080500D01*
X21964071Y-20080500D01*
X22048615Y-20063682D01*
X22089744Y-20055501D01*
X22208127Y-20006465D01*
X22314669Y-19935276D01*
X22405276Y-19844669D01*
X22476465Y-19738127D01*
X22525501Y-19619744D01*
X22547232Y-19510500D01*
X22550500Y-19494071D01*
X22550500Y-3878711D01*
X56149500Y-3878711D01*
X56149500Y-4121288D01*
X56181161Y-4361785D01*
X56243947Y-4596104D01*
X56336773Y-4820205D01*
X56336776Y-4820212D01*
X56458064Y-5030289D01*
X56458066Y-5030292D01*
X56458067Y-5030293D01*
X56605733Y-5222736D01*
X56605739Y-5222743D01*
X56777256Y-5394260D01*
X56777262Y-5394265D01*
X56969711Y-5541936D01*
X57179788Y-5663224D01*
X57403900Y-5756054D01*
X57638211Y-5818838D01*
X57785997Y-5838294D01*
X57878711Y-5850500D01*
X57878712Y-5850500D01*
X58121289Y-5850500D01*
X58169388Y-5844167D01*
X58361789Y-5818838D01*
X58596100Y-5756054D01*
X58820212Y-5663224D01*
X59030289Y-5541936D01*
X59222738Y-5394265D01*
X59394265Y-5222738D01*
X59541936Y-5030289D01*
X59663224Y-4820212D01*
X59756054Y-4596100D01*
X59818838Y-4361789D01*
X59850500Y-4121288D01*
X59850500Y-3878712D01*
X59818838Y-3638211D01*
X59756054Y-3403900D01*
X59663224Y-3179788D01*
X59541936Y-2969711D01*
X59394265Y-2777262D01*
X59394260Y-2777256D01*
X59222743Y-2605739D01*
X59222736Y-2605733D01*
X59030293Y-2458067D01*
X59030292Y-2458066D01*
X59030289Y-2458064D01*
X58820212Y-2336776D01*
X58770641Y-2316243D01*
X58596104Y-2243947D01*
X58361785Y-2181161D01*
X58121289Y-2149500D01*
X58121288Y-2149500D01*
X57878712Y-2149500D01*
X57878711Y-2149500D01*
X57638214Y-2181161D01*
X57403895Y-2243947D01*
X57179794Y-2336773D01*
X57179785Y-2336777D01*
X56969706Y-2458067D01*
X56777263Y-2605733D01*
X56777256Y-2605739D01*
X56605739Y-2777256D01*
X56605733Y-2777263D01*
X56458067Y-2969706D01*
X56336777Y-3179785D01*
X56336773Y-3179794D01*
X56243947Y-3403895D01*
X56181161Y-3638214D01*
X56149500Y-3878711D01*
X22550500Y-3878711D01*
X22550500Y-1124000D01*
X22570185Y-1056961D01*
X22622989Y-1011206D01*
X22674500Y-1000000D01*
X60876000Y-1000000D01*
X60943039Y-1019685D01*
X60988794Y-1072489D01*
X61000000Y-1124000D01*
X61000000Y-62876000D01*
X60980315Y-62943039D01*
X60927511Y-62988794D01*
X60876000Y-63000000D01*
X1124000Y-63000000D01*
X1056961Y-62980315D01*
X1011206Y-62927511D01*
X1000000Y-62876000D01*
X1000000Y-59878711D01*
X2149500Y-59878711D01*
X2149500Y-60121288D01*
X2181161Y-60361785D01*
X2243947Y-60596104D01*
X2336773Y-60820205D01*
X2336777Y-60820214D01*
X2358974Y-60858661D01*
X2458064Y-61030289D01*
X2458066Y-61030292D01*
X2458067Y-61030293D01*
X2605733Y-61222736D01*
X2605739Y-61222743D01*
X2777256Y-61394260D01*
X2777263Y-61394266D01*
X2890321Y-61481018D01*
X2969711Y-61541936D01*
X3179788Y-61663224D01*
X3403900Y-61756054D01*
X3638211Y-61818838D01*
X3818586Y-61842584D01*
X3878711Y-61850500D01*
X3878712Y-61850500D01*
X4121289Y-61850500D01*
X4169388Y-61844167D01*
X4361789Y-61818838D01*
X4596100Y-61756054D01*
X4820212Y-61663224D01*
X5030289Y-61541936D01*
X5222738Y-61394265D01*
X5394265Y-61222738D01*
X5541936Y-61030289D01*
X5663224Y-60820212D01*
X5756054Y-60596100D01*
X5818838Y-60361789D01*
X5850500Y-60121288D01*
X5850500Y-59878712D01*
X5818838Y-59638211D01*
X5756054Y-59403900D01*
X5663224Y-59179788D01*
X5541936Y-58969711D01*
X5394265Y-58777262D01*
X5394260Y-58777256D01*
X5222743Y-58605739D01*
X5222736Y-58605733D01*
X5030293Y-58458067D01*
X5030292Y-58458066D01*
X5030289Y-58458064D01*
X4820212Y-58336776D01*
X4742373Y-58304534D01*
X4596104Y-58243947D01*
X4361785Y-58181161D01*
X4121289Y-58149500D01*
X4121288Y-58149500D01*
X3878712Y-58149500D01*
X3878711Y-58149500D01*
X3638214Y-58181161D01*
X3403895Y-58243947D01*
X3179794Y-58336773D01*
X3179785Y-58336777D01*
X2969706Y-58458067D01*
X2777263Y-58605733D01*
X2777256Y-58605739D01*
X2605739Y-58777256D01*
X2605733Y-58777263D01*
X2458067Y-58969706D01*
X2336777Y-59179785D01*
X2336773Y-59179794D01*
X2243947Y-59403895D01*
X2181161Y-59638214D01*
X2149500Y-59878711D01*
X1000000Y-59878711D01*
X1000000Y-57102135D01*
X12649500Y-57102135D01*
X12649500Y-58897870D01*
X12649501Y-58897876D01*
X12655908Y-58957483D01*
X12706202Y-59092328D01*
X12706206Y-59092335D01*
X12792452Y-59207544D01*
X12792455Y-59207547D01*
X12907664Y-59293793D01*
X12907671Y-59293797D01*
X13039082Y-59342810D01*
X13095016Y-59384681D01*
X13119433Y-59450145D01*
X13104582Y-59518418D01*
X13083431Y-59546673D01*
X12969889Y-59660215D01*
X12844951Y-59832179D01*
X12748444Y-60021585D01*
X12682753Y-60223760D01*
X12649500Y-60433713D01*
X12649500Y-60646286D01*
X12677047Y-60820214D01*
X12682754Y-60856243D01*
X12739305Y-61030289D01*
X12748444Y-61058414D01*
X12844951Y-61247820D01*
X12969890Y-61419786D01*
X13120213Y-61570109D01*
X13292179Y-61695048D01*
X13292181Y-61695049D01*
X13292184Y-61695051D01*
X13481588Y-61791557D01*
X13683757Y-61857246D01*
X13893713Y-61890500D01*
X13893714Y-61890500D01*
X14106286Y-61890500D01*
X14106287Y-61890500D01*
X14316243Y-61857246D01*
X14518412Y-61791557D01*
X14707816Y-61695051D01*
X14751620Y-61663226D01*
X14879786Y-61570109D01*
X14879788Y-61570106D01*
X14879792Y-61570104D01*
X15030104Y-61419792D01*
X15030106Y-61419788D01*
X15030109Y-61419786D01*
X15155048Y-61247820D01*
X15155047Y-61247820D01*
X15155051Y-61247816D01*
X15251557Y-61058412D01*
X15317246Y-60856243D01*
X15350500Y-60646287D01*
X15350500Y-60433713D01*
X15317246Y-60223757D01*
X15251557Y-60021588D01*
X15178758Y-59878711D01*
X56149500Y-59878711D01*
X56149500Y-60121288D01*
X56181161Y-60361785D01*
X56243947Y-60596104D01*
X56336773Y-60820205D01*
X56336777Y-60820214D01*
X56358974Y-60858661D01*
X56458064Y-61030289D01*
X56458066Y-61030292D01*
X56458067Y-61030293D01*
X56605733Y-61222736D01*
X56605739Y-61222743D01*
X56777256Y-61394260D01*
X56777263Y-61394266D01*
X56890321Y-61481018D01*
X56969711Y-61541936D01*
X57179788Y-61663224D01*
X57403900Y-61756054D01*
X57638211Y-61818838D01*
X57818586Y-61842584D01*
X57878711Y-61850500D01*
X57878712Y-61850500D01*
X58121289Y-61850500D01*
X58169388Y-61844167D01*
X58361789Y-61818838D01*
X58596100Y-61756054D01*
X58820212Y-61663224D01*
X59030289Y-61541936D01*
X59222738Y-61394265D01*
X59394265Y-61222738D01*
X59541936Y-61030289D01*
X59663224Y-60820212D01*
X59756054Y-60596100D01*
X59818838Y-60361789D01*
X59850500Y-60121288D01*
X59850500Y-59878712D01*
X59818838Y-59638211D01*
X59756054Y-59403900D01*
X59663224Y-59179788D01*
X59541936Y-58969711D01*
X59394265Y-58777262D01*
X59394260Y-58777256D01*
X59222743Y-58605739D01*
X59222736Y-58605733D01*
X59030293Y-58458067D01*
X59030292Y-58458066D01*
X59030289Y-58458064D01*
X58820212Y-58336776D01*
X58742373Y-58304534D01*
X58596104Y-58243947D01*
X58361785Y-58181161D01*
X58121289Y-58149500D01*
X58121288Y-58149500D01*
X57878712Y-58149500D01*
X57878711Y-58149500D01*
X57638214Y-58181161D01*
X57403895Y-58243947D01*
X57179794Y-58336773D01*
X57179785Y-58336777D01*
X56969706Y-58458067D01*
X56777263Y-58605733D01*
X56777256Y-58605739D01*
X56605739Y-58777256D01*
X56605733Y-58777263D01*
X56458067Y-58969706D01*
X56336777Y-59179785D01*
X56336773Y-59179794D01*
X56243947Y-59403895D01*
X56181161Y-59638214D01*
X56149500Y-59878711D01*
X15178758Y-59878711D01*
X15155051Y-59832184D01*
X15147023Y-59821134D01*
X15030109Y-59660213D01*
X14916569Y-59546673D01*
X14883084Y-59485350D01*
X14888068Y-59415658D01*
X14929940Y-59359725D01*
X14960915Y-59342810D01*
X15092331Y-59293796D01*
X15207546Y-59207546D01*
X15293796Y-59092331D01*
X15344091Y-58957483D01*
X15350500Y-58897873D01*
X15350499Y-57102128D01*
X15345125Y-57052135D01*
X17599500Y-57052135D01*
X17599500Y-58947870D01*
X17599501Y-58947876D01*
X17605908Y-59007483D01*
X17656202Y-59142328D01*
X17656206Y-59142335D01*
X17742452Y-59257544D01*
X17742455Y-59257547D01*
X17857664Y-59343793D01*
X17857671Y-59343797D01*
X17992517Y-59394091D01*
X17992516Y-59394091D01*
X17999444Y-59394835D01*
X18052127Y-59400500D01*
X19947872Y-59400499D01*
X20007483Y-59394091D01*
X20142331Y-59343796D01*
X20257546Y-59257546D01*
X20343796Y-59142331D01*
X20394091Y-59007483D01*
X20400500Y-58947873D01*
X20400499Y-57881902D01*
X24499500Y-57881902D01*
X24499500Y-58118097D01*
X24536446Y-58351368D01*
X24609433Y-58575996D01*
X24711981Y-58777256D01*
X24716657Y-58786433D01*
X24855483Y-58977510D01*
X25022490Y-59144517D01*
X25213567Y-59283343D01*
X25247240Y-59300500D01*
X25424003Y-59390566D01*
X25424005Y-59390566D01*
X25424008Y-59390568D01*
X25465040Y-59403900D01*
X25648631Y-59463553D01*
X25881903Y-59500500D01*
X25881908Y-59500500D01*
X26118097Y-59500500D01*
X26351368Y-59463553D01*
X26392633Y-59450145D01*
X26575992Y-59390568D01*
X26786433Y-59283343D01*
X26977510Y-59144517D01*
X27144517Y-58977510D01*
X27283343Y-58786433D01*
X27390568Y-58575992D01*
X27463553Y-58351368D01*
X27490511Y-58181162D01*
X27500500Y-58118097D01*
X27500500Y-57881902D01*
X30999500Y-57881902D01*
X30999500Y-58118097D01*
X31036446Y-58351368D01*
X31109433Y-58575996D01*
X31211981Y-58777256D01*
X31216657Y-58786433D01*
X31355483Y-58977510D01*
X31522490Y-59144517D01*
X31713567Y-59283343D01*
X31747240Y-59300500D01*
X31924003Y-59390566D01*
X31924005Y-59390566D01*
X31924008Y-59390568D01*
X31965040Y-59403900D01*
X32148631Y-59463553D01*
X32381903Y-59500500D01*
X32381908Y-59500500D01*
X32618097Y-59500500D01*
X32851368Y-59463553D01*
X32892633Y-59450145D01*
X33075992Y-59390568D01*
X33286433Y-59283343D01*
X33477510Y-59144517D01*
X33644517Y-58977510D01*
X33783343Y-58786433D01*
X33890568Y-58575992D01*
X33963553Y-58351368D01*
X33990511Y-58181162D01*
X34000500Y-58118097D01*
X34000500Y-57897648D01*
X41699500Y-57897648D01*
X41699500Y-58102351D01*
X41731522Y-58304534D01*
X41794781Y-58499223D01*
X41887715Y-58681613D01*
X42008028Y-58847213D01*
X42152786Y-58991971D01*
X42290928Y-59092335D01*
X42318390Y-59112287D01*
X42434607Y-59171503D01*
X42500776Y-59205218D01*
X42500778Y-59205218D01*
X42500781Y-59205220D01*
X42605137Y-59239127D01*
X42695465Y-59268477D01*
X42789318Y-59283342D01*
X42897648Y-59300500D01*
X42897649Y-59300500D01*
X43102351Y-59300500D01*
X43102352Y-59300500D01*
X43304534Y-59268477D01*
X43499219Y-59205220D01*
X43681610Y-59112287D01*
X43825862Y-59007483D01*
X43847213Y-58991971D01*
X43847215Y-58991968D01*
X43847219Y-58991966D01*
X43991966Y-58847219D01*
X43991968Y-58847215D01*
X43991971Y-58847213D01*
X44044732Y-58774590D01*
X44112287Y-58681610D01*
X44205220Y-58499219D01*
X44268477Y-58304534D01*
X44300500Y-58102352D01*
X44300500Y-57897648D01*
X49319500Y-57897648D01*
X49319500Y-58102351D01*
X49351522Y-58304534D01*
X49414781Y-58499223D01*
X49507715Y-58681613D01*
X49628028Y-58847213D01*
X49772786Y-58991971D01*
X49910928Y-59092335D01*
X49938390Y-59112287D01*
X50054607Y-59171503D01*
X50120776Y-59205218D01*
X50120778Y-59205218D01*
X50120781Y-59205220D01*
X50225137Y-59239127D01*
X50315465Y-59268477D01*
X50409318Y-59283342D01*
X50517648Y-59300500D01*
X50517649Y-59300500D01*
X50722351Y-59300500D01*
X50722352Y-59300500D01*
X50924534Y-59268477D01*
X51119219Y-59205220D01*
X51301610Y-59112287D01*
X51445862Y-59007483D01*
X51467213Y-58991971D01*
X51467215Y-58991968D01*
X51467219Y-58991966D01*
X51611966Y-58847219D01*
X51611968Y-58847215D01*
X51611971Y-58847213D01*
X51664732Y-58774590D01*
X51732287Y-58681610D01*
X51825220Y-58499219D01*
X51888477Y-58304534D01*
X51920500Y-58102352D01*
X51920500Y-57897648D01*
X51888477Y-57695466D01*
X51873259Y-57648631D01*
X51825218Y-57500776D01*
X51786100Y-57424003D01*
X51732287Y-57318390D01*
X51724556Y-57307749D01*
X51611971Y-57152786D01*
X51467213Y-57008028D01*
X51301613Y-56887715D01*
X51301612Y-56887714D01*
X51301610Y-56887713D01*
X51238355Y-56855483D01*
X51119223Y-56794781D01*
X50924534Y-56731522D01*
X50749995Y-56703878D01*
X50722352Y-56699500D01*
X50517648Y-56699500D01*
X50493329Y-56703351D01*
X50315465Y-56731522D01*
X50120776Y-56794781D01*
X49938386Y-56887715D01*
X49772786Y-57008028D01*
X49628028Y-57152786D01*
X49507715Y-57318386D01*
X49414781Y-57500776D01*
X49351522Y-57695465D01*
X49319500Y-57897648D01*
X44300500Y-57897648D01*
X44268477Y-57695466D01*
X44253259Y-57648631D01*
X44205218Y-57500776D01*
X44166100Y-57424003D01*
X44112287Y-57318390D01*
X44104556Y-57307749D01*
X43991971Y-57152786D01*
X43847213Y-57008028D01*
X43681613Y-56887715D01*
X43681612Y-56887714D01*
X43681610Y-56887713D01*
X43618355Y-56855483D01*
X43499223Y-56794781D01*
X43304534Y-56731522D01*
X43129995Y-56703878D01*
X43102352Y-56699500D01*
X42897648Y-56699500D01*
X42873329Y-56703351D01*
X42695465Y-56731522D01*
X42500776Y-56794781D01*
X42318386Y-56887715D01*
X42152786Y-57008028D01*
X42008028Y-57152786D01*
X41887715Y-57318386D01*
X41794781Y-57500776D01*
X41731522Y-57695465D01*
X41699500Y-57897648D01*
X34000500Y-57897648D01*
X34000500Y-57881902D01*
X33963553Y-57648631D01*
X33915513Y-57500781D01*
X33890568Y-57424008D01*
X33890566Y-57424005D01*
X33890566Y-57424003D01*
X33783342Y-57213566D01*
X33644517Y-57022490D01*
X33477510Y-56855483D01*
X33286433Y-56716657D01*
X33265914Y-56706202D01*
X33075996Y-56609433D01*
X32851368Y-56536446D01*
X32618097Y-56499500D01*
X32618092Y-56499500D01*
X32381908Y-56499500D01*
X32381903Y-56499500D01*
X32148631Y-56536446D01*
X31924003Y-56609433D01*
X31713566Y-56716657D01*
X31678059Y-56742455D01*
X31522490Y-56855483D01*
X31522488Y-56855485D01*
X31522487Y-56855485D01*
X31355485Y-57022487D01*
X31355485Y-57022488D01*
X31355483Y-57022490D01*
X31297631Y-57102116D01*
X31216657Y-57213566D01*
X31109433Y-57424003D01*
X31036446Y-57648631D01*
X30999500Y-57881902D01*
X27500500Y-57881902D01*
X27463553Y-57648631D01*
X27415513Y-57500781D01*
X27390568Y-57424008D01*
X27390566Y-57424005D01*
X27390566Y-57424003D01*
X27283342Y-57213566D01*
X27144517Y-57022490D01*
X26977510Y-56855483D01*
X26786433Y-56716657D01*
X26765914Y-56706202D01*
X26575996Y-56609433D01*
X26351368Y-56536446D01*
X26118097Y-56499500D01*
X26118092Y-56499500D01*
X25881908Y-56499500D01*
X25881903Y-56499500D01*
X25648631Y-56536446D01*
X25424003Y-56609433D01*
X25213566Y-56716657D01*
X25178059Y-56742455D01*
X25022490Y-56855483D01*
X25022488Y-56855485D01*
X25022487Y-56855485D01*
X24855485Y-57022487D01*
X24855485Y-57022488D01*
X24855483Y-57022490D01*
X24797631Y-57102116D01*
X24716657Y-57213566D01*
X24609433Y-57424003D01*
X24536446Y-57648631D01*
X24499500Y-57881902D01*
X20400499Y-57881902D01*
X20400499Y-57052128D01*
X20394091Y-56992517D01*
X20355002Y-56887715D01*
X20343797Y-56857671D01*
X20343793Y-56857664D01*
X20257547Y-56742455D01*
X20257544Y-56742452D01*
X20142335Y-56656206D01*
X20142328Y-56656202D01*
X20007482Y-56605908D01*
X20007483Y-56605908D01*
X19947883Y-56599501D01*
X19947881Y-56599500D01*
X19947873Y-56599500D01*
X19947864Y-56599500D01*
X18052129Y-56599500D01*
X18052123Y-56599501D01*
X17992516Y-56605908D01*
X17857671Y-56656202D01*
X17857664Y-56656206D01*
X17742455Y-56742452D01*
X17742452Y-56742455D01*
X17656206Y-56857664D01*
X17656202Y-56857671D01*
X17605908Y-56992517D01*
X17602686Y-57022490D01*
X17599501Y-57052123D01*
X17599500Y-57052135D01*
X15345125Y-57052135D01*
X15344091Y-57042517D01*
X15336621Y-57022490D01*
X15293797Y-56907671D01*
X15293793Y-56907664D01*
X15207547Y-56792455D01*
X15207544Y-56792452D01*
X15092335Y-56706206D01*
X15092328Y-56706202D01*
X14957482Y-56655908D01*
X14957483Y-56655908D01*
X14897883Y-56649501D01*
X14897881Y-56649500D01*
X14897873Y-56649500D01*
X14897864Y-56649500D01*
X13102129Y-56649500D01*
X13102123Y-56649501D01*
X13042516Y-56655908D01*
X12907671Y-56706202D01*
X12907664Y-56706206D01*
X12792455Y-56792452D01*
X12792452Y-56792455D01*
X12706206Y-56907664D01*
X12706202Y-56907671D01*
X12655908Y-57042517D01*
X12649501Y-57102116D01*
X12649501Y-57102123D01*
X12649500Y-57102135D01*
X1000000Y-57102135D01*
X1000000Y-1124000D01*
X1019685Y-1056961D01*
X1072489Y-1011206D01*
X1124000Y-1000000D01*
X5025500Y-1000000D01*
X5092539Y-1019685D01*
G37*
%TD.AperFunction*%
%TA.AperFunction,Conductor*%
G36*
X21192539Y-1320185D02*
G01*
X21238294Y-1372989D01*
X21249500Y-1424500D01*
X21249500Y-18655500D01*
X21229815Y-18722539D01*
X21177011Y-18768294D01*
X21125500Y-18779500D01*
X13389383Y-18779500D01*
X13322344Y-18759815D01*
X13276589Y-18707011D01*
X13266645Y-18637853D01*
X13271452Y-18617182D01*
X13274647Y-18607345D01*
X13317246Y-18476243D01*
X13350500Y-18266287D01*
X13350500Y-18053713D01*
X13317246Y-17843757D01*
X13271452Y-17702818D01*
X13269457Y-17632977D01*
X13305537Y-17573144D01*
X13368238Y-17542316D01*
X13389383Y-17540500D01*
X16724071Y-17540500D01*
X16808615Y-17523682D01*
X16849744Y-17515501D01*
X16968127Y-17466465D01*
X17074669Y-17395276D01*
X17165276Y-17304669D01*
X17236465Y-17198127D01*
X17285501Y-17079744D01*
X17301267Y-17000484D01*
X17310500Y-16954071D01*
X17310500Y-3259617D01*
X17330185Y-3192578D01*
X17364592Y-3158902D01*
X17363874Y-3157914D01*
X17367811Y-3155053D01*
X17367816Y-3155051D01*
X17539792Y-3030104D01*
X17690104Y-2879792D01*
X17690106Y-2879788D01*
X17690109Y-2879786D01*
X17815048Y-2707820D01*
X17815047Y-2707820D01*
X17815051Y-2707816D01*
X17911557Y-2518412D01*
X17977246Y-2316243D01*
X18010500Y-2106287D01*
X18010500Y-1893713D01*
X17977246Y-1683757D01*
X17911557Y-1481588D01*
X17911555Y-1481585D01*
X17911555Y-1481583D01*
X17911154Y-1480796D01*
X17911091Y-1480463D01*
X17909690Y-1477079D01*
X17910400Y-1476784D01*
X17898257Y-1412127D01*
X17924532Y-1347387D01*
X17981638Y-1307129D01*
X18021638Y-1300500D01*
X21125500Y-1300500D01*
X21192539Y-1320185D01*
G37*
%TD.AperFunction*%
%TA.AperFunction,Conductor*%
G36*
X15952539Y-7170185D02*
G01*
X15998294Y-7222989D01*
X16009500Y-7274500D01*
X16009500Y-16115500D01*
X15989815Y-16182539D01*
X15937011Y-16228294D01*
X15885500Y-16239500D01*
X13389383Y-16239500D01*
X13322344Y-16219815D01*
X13276589Y-16167011D01*
X13266645Y-16097853D01*
X13271452Y-16077182D01*
X13274647Y-16067345D01*
X13317246Y-15936243D01*
X13350500Y-15726287D01*
X13350500Y-15513713D01*
X13317246Y-15303757D01*
X13251557Y-15101588D01*
X13155051Y-14912184D01*
X13155049Y-14912181D01*
X13155048Y-14912179D01*
X13030109Y-14740213D01*
X12879786Y-14589890D01*
X12707820Y-14464951D01*
X12707115Y-14464591D01*
X12699054Y-14460485D01*
X12648259Y-14412512D01*
X12631463Y-14344692D01*
X12653999Y-14278556D01*
X12699054Y-14239515D01*
X12707816Y-14235051D01*
X12729789Y-14219086D01*
X12879786Y-14110109D01*
X12879788Y-14110106D01*
X12879792Y-14110104D01*
X13030104Y-13959792D01*
X13030106Y-13959788D01*
X13030109Y-13959786D01*
X13155048Y-13787820D01*
X13155047Y-13787820D01*
X13155051Y-13787816D01*
X13251557Y-13598412D01*
X13317246Y-13396243D01*
X13350500Y-13186287D01*
X13350500Y-12973713D01*
X13317246Y-12763757D01*
X13251557Y-12561588D01*
X13155051Y-12372184D01*
X13155049Y-12372181D01*
X13155048Y-12372179D01*
X13030109Y-12200213D01*
X12879786Y-12049890D01*
X12707820Y-11924951D01*
X12707115Y-11924591D01*
X12699054Y-11920485D01*
X12648259Y-11872512D01*
X12631463Y-11804692D01*
X12653999Y-11738556D01*
X12699054Y-11699515D01*
X12707816Y-11695051D01*
X12729789Y-11679086D01*
X12879786Y-11570109D01*
X12879788Y-11570106D01*
X12879792Y-11570104D01*
X13030104Y-11419792D01*
X13030106Y-11419788D01*
X13030109Y-11419786D01*
X13155048Y-11247820D01*
X13155047Y-11247820D01*
X13155051Y-11247816D01*
X13251557Y-11058412D01*
X13317246Y-10856243D01*
X13350500Y-10646287D01*
X13350500Y-10433713D01*
X13317246Y-10223757D01*
X13251557Y-10021588D01*
X13155051Y-9832184D01*
X13155049Y-9832181D01*
X13155048Y-9832179D01*
X13030109Y-9660213D01*
X12916569Y-9546673D01*
X12883084Y-9485350D01*
X12888068Y-9415658D01*
X12929940Y-9359725D01*
X12960915Y-9342810D01*
X13092331Y-9293796D01*
X13207546Y-9207546D01*
X13293796Y-9092331D01*
X13344091Y-8957483D01*
X13350500Y-8897873D01*
X13350499Y-7274499D01*
X13370184Y-7207461D01*
X13422987Y-7161706D01*
X13474499Y-7150500D01*
X15885500Y-7150500D01*
X15952539Y-7170185D01*
G37*
%TD.AperFunction*%
%TD*%
M02*
