%TF.GenerationSoftware,KiCad,Pcbnew,10.0.6-10.0.6~ubuntu22.04.1*%
%TF.CreationDate,2026-09-29T12:12:00+08:00*%
%TF.ProjectId,shield,73686965-6c64-42e6-9b69-6361645f7063,rev?*%
%TF.SameCoordinates,Original*%
%TF.FileFunction,Legend,Top*%
%TF.FilePolarity,Positive*%
%FSLAX46Y46*%
G04 Gerber Fmt 4.6, Leading zero omitted, Abs format (unit mm)*
G04 Created by KiCad (PCBNEW 10.0.6-10.0.6~ubuntu22.04.1) date 2026-09-29 12:12:00*
%MOMM*%
%LPD*%
G01*
G04 APERTURE LIST*
%ADD10C,0.150000*%
%ADD11C,0.120000*%
G04 APERTURE END LIST*
D10*
X3085714Y-62308557D02*
X3085714Y-62951414D01*
X3085714Y-62951414D02*
X3042857Y-63079985D01*
X3042857Y-63079985D02*
X2957143Y-63165700D01*
X2957143Y-63165700D02*
X2828571Y-63208557D01*
X2828571Y-63208557D02*
X2742857Y-63208557D01*
X3985714Y-63208557D02*
X3471428Y-63208557D01*
X3728571Y-63208557D02*
X3728571Y-62308557D01*
X3728571Y-62308557D02*
X3642857Y-62437128D01*
X3642857Y-62437128D02*
X3557142Y-62522842D01*
X3557142Y-62522842D02*
X3471428Y-62565700D01*
X4371428Y-63122842D02*
X4414285Y-63165700D01*
X4414285Y-63165700D02*
X4371428Y-63208557D01*
X4371428Y-63208557D02*
X4328571Y-63165700D01*
X4328571Y-63165700D02*
X4371428Y-63122842D01*
X4371428Y-63122842D02*
X4371428Y-63208557D01*
X4371428Y-62651414D02*
X4414285Y-62694271D01*
X4414285Y-62694271D02*
X4371428Y-62737128D01*
X4371428Y-62737128D02*
X4328571Y-62694271D01*
X4328571Y-62694271D02*
X4371428Y-62651414D01*
X4371428Y-62651414D02*
X4371428Y-62737128D01*
X5271428Y-63208557D02*
X4757142Y-63208557D01*
X5014285Y-63208557D02*
X5014285Y-62308557D01*
X5014285Y-62308557D02*
X4928571Y-62437128D01*
X4928571Y-62437128D02*
X4842856Y-62522842D01*
X4842856Y-62522842D02*
X4757142Y-62565700D01*
X5657142Y-62737128D02*
X6342857Y-62737128D01*
X6342857Y-62994271D02*
X5657142Y-62994271D01*
X6685714Y-62308557D02*
X7242857Y-62308557D01*
X7242857Y-62308557D02*
X6942857Y-62651414D01*
X6942857Y-62651414D02*
X7071428Y-62651414D01*
X7071428Y-62651414D02*
X7157143Y-62694271D01*
X7157143Y-62694271D02*
X7200000Y-62737128D01*
X7200000Y-62737128D02*
X7242857Y-62822842D01*
X7242857Y-62822842D02*
X7242857Y-63037128D01*
X7242857Y-63037128D02*
X7200000Y-63122842D01*
X7200000Y-63122842D02*
X7157143Y-63165700D01*
X7157143Y-63165700D02*
X7071428Y-63208557D01*
X7071428Y-63208557D02*
X6814285Y-63208557D01*
X6814285Y-63208557D02*
X6728571Y-63165700D01*
X6728571Y-63165700D02*
X6685714Y-63122842D01*
X7500000Y-62308557D02*
X7800000Y-63208557D01*
X7800000Y-63208557D02*
X8100000Y-62308557D01*
X8314286Y-62308557D02*
X8871429Y-62308557D01*
X8871429Y-62308557D02*
X8571429Y-62651414D01*
X8571429Y-62651414D02*
X8700000Y-62651414D01*
X8700000Y-62651414D02*
X8785715Y-62694271D01*
X8785715Y-62694271D02*
X8828572Y-62737128D01*
X8828572Y-62737128D02*
X8871429Y-62822842D01*
X8871429Y-62822842D02*
X8871429Y-63037128D01*
X8871429Y-63037128D02*
X8828572Y-63122842D01*
X8828572Y-63122842D02*
X8785715Y-63165700D01*
X8785715Y-63165700D02*
X8700000Y-63208557D01*
X8700000Y-63208557D02*
X8442857Y-63208557D01*
X8442857Y-63208557D02*
X8357143Y-63165700D01*
X8357143Y-63165700D02*
X8314286Y-63122842D01*
X10885714Y-62308557D02*
X10885714Y-62951414D01*
X10885714Y-62951414D02*
X10842857Y-63079985D01*
X10842857Y-63079985D02*
X10757143Y-63165700D01*
X10757143Y-63165700D02*
X10628571Y-63208557D01*
X10628571Y-63208557D02*
X10542857Y-63208557D01*
X11228571Y-62308557D02*
X11785714Y-62308557D01*
X11785714Y-62308557D02*
X11485714Y-62651414D01*
X11485714Y-62651414D02*
X11614285Y-62651414D01*
X11614285Y-62651414D02*
X11700000Y-62694271D01*
X11700000Y-62694271D02*
X11742857Y-62737128D01*
X11742857Y-62737128D02*
X11785714Y-62822842D01*
X11785714Y-62822842D02*
X11785714Y-63037128D01*
X11785714Y-63037128D02*
X11742857Y-63122842D01*
X11742857Y-63122842D02*
X11700000Y-63165700D01*
X11700000Y-63165700D02*
X11614285Y-63208557D01*
X11614285Y-63208557D02*
X11357142Y-63208557D01*
X11357142Y-63208557D02*
X11271428Y-63165700D01*
X11271428Y-63165700D02*
X11228571Y-63122842D01*
X12171428Y-63122842D02*
X12214285Y-63165700D01*
X12214285Y-63165700D02*
X12171428Y-63208557D01*
X12171428Y-63208557D02*
X12128571Y-63165700D01*
X12128571Y-63165700D02*
X12171428Y-63122842D01*
X12171428Y-63122842D02*
X12171428Y-63208557D01*
X12171428Y-62651414D02*
X12214285Y-62694271D01*
X12214285Y-62694271D02*
X12171428Y-62737128D01*
X12171428Y-62737128D02*
X12128571Y-62694271D01*
X12128571Y-62694271D02*
X12171428Y-62651414D01*
X12171428Y-62651414D02*
X12171428Y-62737128D01*
X13071428Y-63208557D02*
X12557142Y-63208557D01*
X12814285Y-63208557D02*
X12814285Y-62308557D01*
X12814285Y-62308557D02*
X12728571Y-62437128D01*
X12728571Y-62437128D02*
X12642856Y-62522842D01*
X12642856Y-62522842D02*
X12557142Y-62565700D01*
X13457142Y-62737128D02*
X14142857Y-62737128D01*
X14142857Y-62994271D02*
X13457142Y-62994271D01*
X15042857Y-62351414D02*
X14957143Y-62308557D01*
X14957143Y-62308557D02*
X14828571Y-62308557D01*
X14828571Y-62308557D02*
X14700000Y-62351414D01*
X14700000Y-62351414D02*
X14614285Y-62437128D01*
X14614285Y-62437128D02*
X14571428Y-62522842D01*
X14571428Y-62522842D02*
X14528571Y-62694271D01*
X14528571Y-62694271D02*
X14528571Y-62822842D01*
X14528571Y-62822842D02*
X14571428Y-62994271D01*
X14571428Y-62994271D02*
X14614285Y-63079985D01*
X14614285Y-63079985D02*
X14700000Y-63165700D01*
X14700000Y-63165700D02*
X14828571Y-63208557D01*
X14828571Y-63208557D02*
X14914285Y-63208557D01*
X14914285Y-63208557D02*
X15042857Y-63165700D01*
X15042857Y-63165700D02*
X15085714Y-63122842D01*
X15085714Y-63122842D02*
X15085714Y-62822842D01*
X15085714Y-62822842D02*
X14914285Y-62822842D01*
X15471428Y-63208557D02*
X15471428Y-62308557D01*
X15471428Y-62308557D02*
X15985714Y-63208557D01*
X15985714Y-63208557D02*
X15985714Y-62308557D01*
X16414285Y-63208557D02*
X16414285Y-62308557D01*
X16414285Y-62308557D02*
X16628571Y-62308557D01*
X16628571Y-62308557D02*
X16757142Y-62351414D01*
X16757142Y-62351414D02*
X16842857Y-62437128D01*
X16842857Y-62437128D02*
X16885714Y-62522842D01*
X16885714Y-62522842D02*
X16928571Y-62694271D01*
X16928571Y-62694271D02*
X16928571Y-62822842D01*
X16928571Y-62822842D02*
X16885714Y-62994271D01*
X16885714Y-62994271D02*
X16842857Y-63079985D01*
X16842857Y-63079985D02*
X16757142Y-63165700D01*
X16757142Y-63165700D02*
X16628571Y-63208557D01*
X16628571Y-63208557D02*
X16414285Y-63208557D01*
X17957142Y-62394271D02*
X17999999Y-62351414D01*
X17999999Y-62351414D02*
X18085714Y-62308557D01*
X18085714Y-62308557D02*
X18299999Y-62308557D01*
X18299999Y-62308557D02*
X18385714Y-62351414D01*
X18385714Y-62351414D02*
X18428571Y-62394271D01*
X18428571Y-62394271D02*
X18471428Y-62479985D01*
X18471428Y-62479985D02*
X18471428Y-62565700D01*
X18471428Y-62565700D02*
X18428571Y-62694271D01*
X18428571Y-62694271D02*
X17914285Y-63208557D01*
X17914285Y-63208557D02*
X18471428Y-63208557D01*
X18857142Y-62737128D02*
X19542857Y-62737128D01*
X19542857Y-62994271D02*
X18857142Y-62994271D01*
X20400000Y-62308557D02*
X19971428Y-62308557D01*
X19971428Y-62308557D02*
X19928571Y-62737128D01*
X19928571Y-62737128D02*
X19971428Y-62694271D01*
X19971428Y-62694271D02*
X20057143Y-62651414D01*
X20057143Y-62651414D02*
X20271428Y-62651414D01*
X20271428Y-62651414D02*
X20357143Y-62694271D01*
X20357143Y-62694271D02*
X20400000Y-62737128D01*
X20400000Y-62737128D02*
X20442857Y-62822842D01*
X20442857Y-62822842D02*
X20442857Y-63037128D01*
X20442857Y-63037128D02*
X20400000Y-63122842D01*
X20400000Y-63122842D02*
X20357143Y-63165700D01*
X20357143Y-63165700D02*
X20271428Y-63208557D01*
X20271428Y-63208557D02*
X20057143Y-63208557D01*
X20057143Y-63208557D02*
X19971428Y-63165700D01*
X19971428Y-63165700D02*
X19928571Y-63122842D01*
X20700000Y-62308557D02*
X21000000Y-63208557D01*
X21000000Y-63208557D02*
X21300000Y-62308557D01*
X10242858Y-34108557D02*
X10457144Y-34108557D01*
X10242858Y-33508557D02*
X10242858Y-34237128D01*
X10585715Y-33551414D02*
X11014286Y-33551414D01*
X10628572Y-33979985D02*
X11014286Y-33979985D01*
X10628572Y-33722842D02*
X10628572Y-33979985D01*
X10757144Y-34108557D02*
X10500001Y-34322842D01*
X10757144Y-34022842D02*
X10971429Y-34108557D01*
X10800001Y-33937128D02*
X10671429Y-34194271D01*
X10800001Y-33379985D02*
X10800001Y-34408557D01*
X10885715Y-34065700D02*
X11014286Y-34194271D01*
X11185715Y-34408557D02*
X11357144Y-34408557D01*
X11185715Y-33508557D02*
X11185715Y-34108557D01*
X11357144Y-33422842D02*
X11357144Y-34408557D01*
X10242858Y-33508557D02*
X10457144Y-33508557D01*
X10457144Y-33508557D02*
X10457144Y-34108557D01*
X10628572Y-33722842D02*
X11014286Y-33722842D01*
X11014286Y-33722842D02*
X11014286Y-33979985D01*
X11571429Y-34065700D02*
X11871429Y-34065700D01*
X11571429Y-33508557D02*
X11571429Y-34151414D01*
X11957143Y-34194271D02*
X11785715Y-34408557D01*
X12085715Y-33937128D02*
X11914286Y-34322842D01*
X12085715Y-33465700D02*
X12428572Y-33465700D01*
X12128572Y-33679985D02*
X12000000Y-34151414D01*
X12428572Y-33551414D02*
X12514286Y-34237128D01*
X12514286Y-34065700D02*
X12642857Y-34408557D01*
X11571429Y-33508557D02*
X11871429Y-33508557D01*
X11871429Y-33508557D02*
X11871429Y-34065700D01*
X13628571Y-33722842D02*
X13714286Y-34279985D01*
X13757143Y-34365700D02*
X13928571Y-34408557D01*
X13757143Y-33722842D02*
X13628571Y-33851414D01*
X13928571Y-33594271D02*
X13757143Y-33765700D01*
X14014286Y-34194271D02*
X13971428Y-34408557D01*
X12900000Y-33465700D02*
X13628571Y-33465700D01*
X13628571Y-33465700D02*
X13628571Y-33894271D01*
X13628571Y-33894271D02*
X13928571Y-33979985D01*
X14614285Y-34237128D02*
X14228571Y-34322842D01*
X15085714Y-33422842D02*
X15257142Y-33508557D01*
X15299999Y-33594271D02*
X14742857Y-33679985D01*
X15299999Y-33808557D02*
X14699999Y-33937128D01*
X14442857Y-33379985D02*
X14228571Y-33808557D01*
X14228571Y-33808557D02*
X14485714Y-33765700D01*
X15299999Y-33979985D02*
X15085714Y-34194271D01*
X15085714Y-34194271D02*
X14657142Y-34408557D01*
X14571428Y-33679985D02*
X14485714Y-33851414D01*
X14485714Y-33851414D02*
X14228571Y-34108557D01*
X14228571Y-34108557D02*
X14614285Y-34022842D01*
X14957142Y-33379985D02*
X14957142Y-33765700D01*
X14957142Y-33765700D02*
X14999999Y-34065700D01*
X14999999Y-34065700D02*
X15085714Y-34322842D01*
X15085714Y-34322842D02*
X15128571Y-34365700D01*
X15128571Y-34365700D02*
X15299999Y-34408557D01*
X15299999Y-34408557D02*
X15342857Y-34279985D01*
X15685713Y-34322842D02*
X15728570Y-34365700D01*
X15728570Y-34365700D02*
X15685713Y-34408557D01*
X15685713Y-34408557D02*
X15642856Y-34365700D01*
X15642856Y-34365700D02*
X15685713Y-34322842D01*
X15685713Y-34322842D02*
X15685713Y-34408557D01*
X15685713Y-33851414D02*
X15728570Y-33894271D01*
X15728570Y-33894271D02*
X15685713Y-33937128D01*
X15685713Y-33937128D02*
X15642856Y-33894271D01*
X15642856Y-33894271D02*
X15685713Y-33851414D01*
X15685713Y-33851414D02*
X15685713Y-33937128D01*
X16799998Y-34408557D02*
X16799998Y-33508557D01*
X16799998Y-33508557D02*
X17099998Y-34151414D01*
X17099998Y-34151414D02*
X17399998Y-33508557D01*
X17399998Y-33508557D02*
X17399998Y-34408557D01*
X17785712Y-34151414D02*
X18214284Y-34151414D01*
X17699998Y-34408557D02*
X17999998Y-33508557D01*
X17999998Y-33508557D02*
X18299998Y-34408557D01*
X18514284Y-33508557D02*
X19114284Y-34408557D01*
X19114284Y-33508557D02*
X18514284Y-34408557D01*
X19499998Y-34408557D02*
X19671427Y-34408557D01*
X19671427Y-34408557D02*
X19757141Y-34365700D01*
X19757141Y-34365700D02*
X19799998Y-34322842D01*
X19799998Y-34322842D02*
X19885713Y-34194271D01*
X19885713Y-34194271D02*
X19928570Y-34022842D01*
X19928570Y-34022842D02*
X19928570Y-33679985D01*
X19928570Y-33679985D02*
X19885713Y-33594271D01*
X19885713Y-33594271D02*
X19842856Y-33551414D01*
X19842856Y-33551414D02*
X19757141Y-33508557D01*
X19757141Y-33508557D02*
X19585713Y-33508557D01*
X19585713Y-33508557D02*
X19499998Y-33551414D01*
X19499998Y-33551414D02*
X19457141Y-33594271D01*
X19457141Y-33594271D02*
X19414284Y-33679985D01*
X19414284Y-33679985D02*
X19414284Y-33894271D01*
X19414284Y-33894271D02*
X19457141Y-33979985D01*
X19457141Y-33979985D02*
X19499998Y-34022842D01*
X19499998Y-34022842D02*
X19585713Y-34065700D01*
X19585713Y-34065700D02*
X19757141Y-34065700D01*
X19757141Y-34065700D02*
X19842856Y-34022842D01*
X19842856Y-34022842D02*
X19885713Y-33979985D01*
X19885713Y-33979985D02*
X19928570Y-33894271D01*
X20442856Y-33894271D02*
X20357141Y-33851414D01*
X20357141Y-33851414D02*
X20314284Y-33808557D01*
X20314284Y-33808557D02*
X20271427Y-33722842D01*
X20271427Y-33722842D02*
X20271427Y-33679985D01*
X20271427Y-33679985D02*
X20314284Y-33594271D01*
X20314284Y-33594271D02*
X20357141Y-33551414D01*
X20357141Y-33551414D02*
X20442856Y-33508557D01*
X20442856Y-33508557D02*
X20614284Y-33508557D01*
X20614284Y-33508557D02*
X20699999Y-33551414D01*
X20699999Y-33551414D02*
X20742856Y-33594271D01*
X20742856Y-33594271D02*
X20785713Y-33679985D01*
X20785713Y-33679985D02*
X20785713Y-33722842D01*
X20785713Y-33722842D02*
X20742856Y-33808557D01*
X20742856Y-33808557D02*
X20699999Y-33851414D01*
X20699999Y-33851414D02*
X20614284Y-33894271D01*
X20614284Y-33894271D02*
X20442856Y-33894271D01*
X20442856Y-33894271D02*
X20357141Y-33937128D01*
X20357141Y-33937128D02*
X20314284Y-33979985D01*
X20314284Y-33979985D02*
X20271427Y-34065700D01*
X20271427Y-34065700D02*
X20271427Y-34237128D01*
X20271427Y-34237128D02*
X20314284Y-34322842D01*
X20314284Y-34322842D02*
X20357141Y-34365700D01*
X20357141Y-34365700D02*
X20442856Y-34408557D01*
X20442856Y-34408557D02*
X20614284Y-34408557D01*
X20614284Y-34408557D02*
X20699999Y-34365700D01*
X20699999Y-34365700D02*
X20742856Y-34322842D01*
X20742856Y-34322842D02*
X20785713Y-34237128D01*
X20785713Y-34237128D02*
X20785713Y-34065700D01*
X20785713Y-34065700D02*
X20742856Y-33979985D01*
X20742856Y-33979985D02*
X20699999Y-33937128D01*
X20699999Y-33937128D02*
X20614284Y-33894271D01*
X21085713Y-33508557D02*
X21642856Y-33508557D01*
X21642856Y-33508557D02*
X21342856Y-33851414D01*
X21342856Y-33851414D02*
X21471427Y-33851414D01*
X21471427Y-33851414D02*
X21557142Y-33894271D01*
X21557142Y-33894271D02*
X21599999Y-33937128D01*
X21599999Y-33937128D02*
X21642856Y-34022842D01*
X21642856Y-34022842D02*
X21642856Y-34237128D01*
X21642856Y-34237128D02*
X21599999Y-34322842D01*
X21599999Y-34322842D02*
X21557142Y-34365700D01*
X21557142Y-34365700D02*
X21471427Y-34408557D01*
X21471427Y-34408557D02*
X21214284Y-34408557D01*
X21214284Y-34408557D02*
X21128570Y-34365700D01*
X21128570Y-34365700D02*
X21085713Y-34322842D01*
X22457142Y-33508557D02*
X22028570Y-33508557D01*
X22028570Y-33508557D02*
X21985713Y-33937128D01*
X21985713Y-33937128D02*
X22028570Y-33894271D01*
X22028570Y-33894271D02*
X22114285Y-33851414D01*
X22114285Y-33851414D02*
X22328570Y-33851414D01*
X22328570Y-33851414D02*
X22414285Y-33894271D01*
X22414285Y-33894271D02*
X22457142Y-33937128D01*
X22457142Y-33937128D02*
X22499999Y-34022842D01*
X22499999Y-34022842D02*
X22499999Y-34237128D01*
X22499999Y-34237128D02*
X22457142Y-34322842D01*
X22457142Y-34322842D02*
X22414285Y-34365700D01*
X22414285Y-34365700D02*
X22328570Y-34408557D01*
X22328570Y-34408557D02*
X22114285Y-34408557D01*
X22114285Y-34408557D02*
X22028570Y-34365700D01*
X22028570Y-34365700D02*
X21985713Y-34322842D01*
X22799999Y-33508557D02*
X23399999Y-33508557D01*
X23399999Y-33508557D02*
X23014285Y-34408557D01*
X23614285Y-33637128D02*
X23957142Y-33637128D01*
X23785713Y-33637128D02*
X23914285Y-33937128D01*
X23785713Y-33594271D02*
X23657142Y-34108557D01*
X23828571Y-33379985D02*
X23828571Y-34408557D01*
X23957142Y-34151414D02*
X24728571Y-34151414D01*
X23999999Y-33508557D02*
X24728571Y-33508557D01*
X24085713Y-33979985D02*
X24642856Y-33979985D01*
X24085713Y-33808557D02*
X24642856Y-33808557D01*
X24085713Y-33679985D02*
X24085713Y-33979985D01*
X24214285Y-33379985D02*
X24214285Y-33594271D01*
X24514285Y-33379985D02*
X24514285Y-33594271D01*
X24085713Y-33679985D02*
X24642856Y-33679985D01*
X24642856Y-33679985D02*
X24642856Y-33979985D01*
X24342856Y-34108557D02*
X24514285Y-34322842D01*
X24514285Y-34322842D02*
X24728571Y-34408557D01*
X24342856Y-33979985D02*
X24257142Y-34237128D01*
X24257142Y-34237128D02*
X24171428Y-34322842D01*
X24171428Y-34322842D02*
X23957142Y-34408557D01*
X24942856Y-33679985D02*
X25285713Y-33679985D01*
X25114284Y-33422842D02*
X25114284Y-34151414D01*
X25285713Y-34065700D02*
X24942856Y-34194271D01*
X25328570Y-33937128D02*
X26057142Y-33937128D01*
X25585713Y-34151414D02*
X25371427Y-34365700D01*
X25671427Y-33937128D02*
X25499999Y-34279985D01*
X25671427Y-33765700D02*
X25628570Y-34151414D01*
X25757142Y-34151414D02*
X25971427Y-34408557D01*
X25371427Y-33594271D02*
X25928570Y-33594271D01*
X25928570Y-33594271D02*
X25928570Y-33937128D01*
X25671427Y-33422842D02*
X25671427Y-33937128D01*
X25671427Y-33937128D02*
X25842856Y-34279985D01*
X27042855Y-34365700D02*
X27171427Y-34408557D01*
X27171427Y-34408557D02*
X27385712Y-34408557D01*
X27385712Y-34408557D02*
X27471427Y-34365700D01*
X27471427Y-34365700D02*
X27514284Y-34322842D01*
X27514284Y-34322842D02*
X27557141Y-34237128D01*
X27557141Y-34237128D02*
X27557141Y-34151414D01*
X27557141Y-34151414D02*
X27514284Y-34065700D01*
X27514284Y-34065700D02*
X27471427Y-34022842D01*
X27471427Y-34022842D02*
X27385712Y-33979985D01*
X27385712Y-33979985D02*
X27214284Y-33937128D01*
X27214284Y-33937128D02*
X27128569Y-33894271D01*
X27128569Y-33894271D02*
X27085712Y-33851414D01*
X27085712Y-33851414D02*
X27042855Y-33765700D01*
X27042855Y-33765700D02*
X27042855Y-33679985D01*
X27042855Y-33679985D02*
X27085712Y-33594271D01*
X27085712Y-33594271D02*
X27128569Y-33551414D01*
X27128569Y-33551414D02*
X27214284Y-33508557D01*
X27214284Y-33508557D02*
X27428569Y-33508557D01*
X27428569Y-33508557D02*
X27557141Y-33551414D01*
X27942855Y-34408557D02*
X27942855Y-33508557D01*
X27942855Y-33508557D02*
X28285712Y-33508557D01*
X28285712Y-33508557D02*
X28371427Y-33551414D01*
X28371427Y-33551414D02*
X28414284Y-33594271D01*
X28414284Y-33594271D02*
X28457141Y-33679985D01*
X28457141Y-33679985D02*
X28457141Y-33808557D01*
X28457141Y-33808557D02*
X28414284Y-33894271D01*
X28414284Y-33894271D02*
X28371427Y-33937128D01*
X28371427Y-33937128D02*
X28285712Y-33979985D01*
X28285712Y-33979985D02*
X27942855Y-33979985D01*
X28842855Y-34408557D02*
X28842855Y-33508557D01*
X29357141Y-34408557D02*
X28971427Y-33894271D01*
X29357141Y-33508557D02*
X28842855Y-34022842D01*
X29742855Y-34065700D02*
X30428570Y-34065700D01*
X30085712Y-34408557D02*
X30085712Y-33722842D01*
X31499998Y-33465700D02*
X30728570Y-34622842D01*
X31799998Y-34065700D02*
X32485713Y-34065700D01*
X33599998Y-34065700D02*
X34285713Y-34065700D01*
X34714284Y-33808557D02*
X35399999Y-34065700D01*
X35399999Y-34065700D02*
X34714284Y-34322842D01*
X36771427Y-33508557D02*
X36771427Y-34151414D01*
X36771427Y-34151414D02*
X36728570Y-34279985D01*
X36728570Y-34279985D02*
X36642856Y-34365700D01*
X36642856Y-34365700D02*
X36514284Y-34408557D01*
X36514284Y-34408557D02*
X36428570Y-34408557D01*
X37585713Y-33508557D02*
X37414284Y-33508557D01*
X37414284Y-33508557D02*
X37328570Y-33551414D01*
X37328570Y-33551414D02*
X37285713Y-33594271D01*
X37285713Y-33594271D02*
X37199998Y-33722842D01*
X37199998Y-33722842D02*
X37157141Y-33894271D01*
X37157141Y-33894271D02*
X37157141Y-34237128D01*
X37157141Y-34237128D02*
X37199998Y-34322842D01*
X37199998Y-34322842D02*
X37242855Y-34365700D01*
X37242855Y-34365700D02*
X37328570Y-34408557D01*
X37328570Y-34408557D02*
X37499998Y-34408557D01*
X37499998Y-34408557D02*
X37585713Y-34365700D01*
X37585713Y-34365700D02*
X37628570Y-34322842D01*
X37628570Y-34322842D02*
X37671427Y-34237128D01*
X37671427Y-34237128D02*
X37671427Y-34022842D01*
X37671427Y-34022842D02*
X37628570Y-33937128D01*
X37628570Y-33937128D02*
X37585713Y-33894271D01*
X37585713Y-33894271D02*
X37499998Y-33851414D01*
X37499998Y-33851414D02*
X37328570Y-33851414D01*
X37328570Y-33851414D02*
X37242855Y-33894271D01*
X37242855Y-33894271D02*
X37199998Y-33937128D01*
X37199998Y-33937128D02*
X37157141Y-34022842D01*
X9728574Y-46508557D02*
X9728574Y-47237128D01*
X9728574Y-47237128D02*
X9771431Y-47322842D01*
X9771431Y-47322842D02*
X9814289Y-47365700D01*
X9814289Y-47365700D02*
X9900003Y-47408557D01*
X9900003Y-47408557D02*
X10071431Y-47408557D01*
X10071431Y-47408557D02*
X10157146Y-47365700D01*
X10157146Y-47365700D02*
X10200003Y-47322842D01*
X10200003Y-47322842D02*
X10242860Y-47237128D01*
X10242860Y-47237128D02*
X10242860Y-46508557D01*
X10628574Y-47365700D02*
X10757146Y-47408557D01*
X10757146Y-47408557D02*
X10971431Y-47408557D01*
X10971431Y-47408557D02*
X11057146Y-47365700D01*
X11057146Y-47365700D02*
X11100003Y-47322842D01*
X11100003Y-47322842D02*
X11142860Y-47237128D01*
X11142860Y-47237128D02*
X11142860Y-47151414D01*
X11142860Y-47151414D02*
X11100003Y-47065700D01*
X11100003Y-47065700D02*
X11057146Y-47022842D01*
X11057146Y-47022842D02*
X10971431Y-46979985D01*
X10971431Y-46979985D02*
X10800003Y-46937128D01*
X10800003Y-46937128D02*
X10714288Y-46894271D01*
X10714288Y-46894271D02*
X10671431Y-46851414D01*
X10671431Y-46851414D02*
X10628574Y-46765700D01*
X10628574Y-46765700D02*
X10628574Y-46679985D01*
X10628574Y-46679985D02*
X10671431Y-46594271D01*
X10671431Y-46594271D02*
X10714288Y-46551414D01*
X10714288Y-46551414D02*
X10800003Y-46508557D01*
X10800003Y-46508557D02*
X11014288Y-46508557D01*
X11014288Y-46508557D02*
X11142860Y-46551414D01*
X11828574Y-46937128D02*
X11957146Y-46979985D01*
X11957146Y-46979985D02*
X12000003Y-47022842D01*
X12000003Y-47022842D02*
X12042860Y-47108557D01*
X12042860Y-47108557D02*
X12042860Y-47237128D01*
X12042860Y-47237128D02*
X12000003Y-47322842D01*
X12000003Y-47322842D02*
X11957146Y-47365700D01*
X11957146Y-47365700D02*
X11871431Y-47408557D01*
X11871431Y-47408557D02*
X11528574Y-47408557D01*
X11528574Y-47408557D02*
X11528574Y-46508557D01*
X11528574Y-46508557D02*
X11828574Y-46508557D01*
X11828574Y-46508557D02*
X11914289Y-46551414D01*
X11914289Y-46551414D02*
X11957146Y-46594271D01*
X11957146Y-46594271D02*
X12000003Y-46679985D01*
X12000003Y-46679985D02*
X12000003Y-46765700D01*
X12000003Y-46765700D02*
X11957146Y-46851414D01*
X11957146Y-46851414D02*
X11914289Y-46894271D01*
X11914289Y-46894271D02*
X11828574Y-46937128D01*
X11828574Y-46937128D02*
X11528574Y-46937128D01*
X12985717Y-46508557D02*
X12985717Y-47408557D01*
X12985717Y-47322842D02*
X14100003Y-47322842D01*
X12985717Y-46508557D02*
X14100003Y-46508557D01*
X14100003Y-46508557D02*
X14100003Y-47408557D01*
X14314288Y-47194271D02*
X14914288Y-47194271D01*
X14314288Y-46551414D02*
X14871431Y-46551414D01*
X14357145Y-47022842D02*
X14828574Y-47022842D01*
X14357145Y-46851414D02*
X14828574Y-46851414D01*
X14357145Y-46679985D02*
X14357145Y-47022842D01*
X14614288Y-47022842D02*
X14614288Y-47408557D01*
X14614288Y-46379985D02*
X14614288Y-46679985D01*
X15000002Y-47022842D02*
X15428574Y-47022842D01*
X15042859Y-46722842D02*
X15428574Y-46722842D01*
X15257145Y-47408557D02*
X15428574Y-47408557D01*
X14357145Y-46679985D02*
X14828574Y-46679985D01*
X14828574Y-46679985D02*
X14828574Y-47022842D01*
X15042859Y-46465700D02*
X15000002Y-47022842D01*
X15000002Y-47022842D02*
X14957145Y-47279985D01*
X15042859Y-46465700D02*
X15428574Y-46465700D01*
X15428574Y-46465700D02*
X15428574Y-47408557D01*
X15642859Y-46465700D02*
X16757145Y-46465700D01*
X16157145Y-46722842D02*
X16671430Y-46979985D01*
X16157145Y-46465700D02*
X16157145Y-47408557D01*
X16971430Y-46637128D02*
X17314287Y-46637128D01*
X17014287Y-47408557D02*
X17142858Y-47408557D01*
X17185716Y-46379985D02*
X17185716Y-47408557D01*
X17314287Y-46894271D02*
X16971430Y-46979985D01*
X17357144Y-46679985D02*
X18085716Y-46679985D01*
X17400001Y-47365700D02*
X18042858Y-47365700D01*
X17400001Y-47065700D02*
X17614287Y-47065700D01*
X17400001Y-46851414D02*
X17400001Y-47408557D01*
X17614287Y-46808557D02*
X17400001Y-46851414D01*
X17828573Y-47065700D02*
X18042858Y-47065700D01*
X18000001Y-46422842D02*
X17614287Y-46465700D01*
X17442858Y-46508557D02*
X17742858Y-46465700D01*
X17742858Y-46465700D02*
X17742858Y-47322842D01*
X17828573Y-46851414D02*
X18042858Y-46851414D01*
X18042858Y-46851414D02*
X18042858Y-47408557D01*
X18300001Y-46637128D02*
X18642858Y-46637128D01*
X18642858Y-46937128D02*
X18300001Y-47022842D01*
X18685715Y-46808557D02*
X19414287Y-46808557D01*
X18685715Y-46979985D02*
X19414287Y-46979985D01*
X18728572Y-46508557D02*
X19371429Y-46508557D01*
X18857144Y-46594271D02*
X18900001Y-46722842D01*
X19071429Y-46379985D02*
X19071429Y-46508557D01*
X19200001Y-46594271D02*
X19200001Y-46722842D01*
X18514287Y-46379985D02*
X18514287Y-47408557D01*
X18514287Y-47408557D02*
X18342858Y-47408557D01*
X18942858Y-46808557D02*
X18814287Y-47194271D01*
X18814287Y-47194271D02*
X19371429Y-47408557D01*
X19242858Y-46979985D02*
X19157144Y-47194271D01*
X19157144Y-47194271D02*
X19071429Y-47279985D01*
X19071429Y-47279985D02*
X18685715Y-47408557D01*
X20442857Y-47408557D02*
X20442857Y-46508557D01*
X20442857Y-46508557D02*
X20657143Y-46508557D01*
X20657143Y-46508557D02*
X20785714Y-46551414D01*
X20785714Y-46551414D02*
X20871429Y-46637128D01*
X20871429Y-46637128D02*
X20914286Y-46722842D01*
X20914286Y-46722842D02*
X20957143Y-46894271D01*
X20957143Y-46894271D02*
X20957143Y-47022842D01*
X20957143Y-47022842D02*
X20914286Y-47194271D01*
X20914286Y-47194271D02*
X20871429Y-47279985D01*
X20871429Y-47279985D02*
X20785714Y-47365700D01*
X20785714Y-47365700D02*
X20657143Y-47408557D01*
X20657143Y-47408557D02*
X20442857Y-47408557D01*
X21685714Y-47365700D02*
X21600000Y-47408557D01*
X21600000Y-47408557D02*
X21428572Y-47408557D01*
X21428572Y-47408557D02*
X21342857Y-47365700D01*
X21342857Y-47365700D02*
X21300000Y-47279985D01*
X21300000Y-47279985D02*
X21300000Y-46937128D01*
X21300000Y-46937128D02*
X21342857Y-46851414D01*
X21342857Y-46851414D02*
X21428572Y-46808557D01*
X21428572Y-46808557D02*
X21600000Y-46808557D01*
X21600000Y-46808557D02*
X21685714Y-46851414D01*
X21685714Y-46851414D02*
X21728572Y-46937128D01*
X21728572Y-46937128D02*
X21728572Y-47022842D01*
X21728572Y-47022842D02*
X21300000Y-47108557D01*
X22028572Y-46808557D02*
X22242858Y-47408557D01*
X22242858Y-47408557D02*
X22457143Y-46808557D01*
X22800000Y-47408557D02*
X22800000Y-46508557D01*
X23314286Y-47408557D02*
X22928572Y-46894271D01*
X23314286Y-46508557D02*
X22800000Y-47022842D01*
X23700000Y-47408557D02*
X23700000Y-46808557D01*
X23700000Y-46508557D02*
X23657143Y-46551414D01*
X23657143Y-46551414D02*
X23700000Y-46594271D01*
X23700000Y-46594271D02*
X23742857Y-46551414D01*
X23742857Y-46551414D02*
X23700000Y-46508557D01*
X23700000Y-46508557D02*
X23700000Y-46594271D01*
X24000000Y-46808557D02*
X24342857Y-46808557D01*
X24128571Y-46508557D02*
X24128571Y-47279985D01*
X24128571Y-47279985D02*
X24171428Y-47365700D01*
X24171428Y-47365700D02*
X24257143Y-47408557D01*
X24257143Y-47408557D02*
X24342857Y-47408557D01*
X25157143Y-47322842D02*
X25114286Y-47365700D01*
X25114286Y-47365700D02*
X24985714Y-47408557D01*
X24985714Y-47408557D02*
X24900000Y-47408557D01*
X24900000Y-47408557D02*
X24771429Y-47365700D01*
X24771429Y-47365700D02*
X24685714Y-47279985D01*
X24685714Y-47279985D02*
X24642857Y-47194271D01*
X24642857Y-47194271D02*
X24600000Y-47022842D01*
X24600000Y-47022842D02*
X24600000Y-46894271D01*
X24600000Y-46894271D02*
X24642857Y-46722842D01*
X24642857Y-46722842D02*
X24685714Y-46637128D01*
X24685714Y-46637128D02*
X24771429Y-46551414D01*
X24771429Y-46551414D02*
X24900000Y-46508557D01*
X24900000Y-46508557D02*
X24985714Y-46508557D01*
X24985714Y-46508557D02*
X25114286Y-46551414D01*
X25114286Y-46551414D02*
X25157143Y-46594271D01*
X25542857Y-47065700D02*
X26228572Y-47065700D01*
X27128572Y-47408557D02*
X26614286Y-47408557D01*
X26871429Y-47408557D02*
X26871429Y-46508557D01*
X26871429Y-46508557D02*
X26785715Y-46637128D01*
X26785715Y-46637128D02*
X26700000Y-46722842D01*
X26700000Y-46722842D02*
X26614286Y-46765700D01*
X27985715Y-46379985D02*
X27942858Y-46508557D01*
X27942858Y-46508557D02*
X27900001Y-46679985D01*
X27900001Y-46679985D02*
X27900001Y-47108557D01*
X27900001Y-47108557D02*
X27942858Y-47279985D01*
X27942858Y-47279985D02*
X27985715Y-47365700D01*
X28457143Y-46508557D02*
X29442858Y-46508557D01*
X28542858Y-47408557D02*
X29100000Y-47408557D01*
X28671429Y-46937128D02*
X29442858Y-46937128D01*
X28928572Y-46379985D02*
X28928572Y-46508557D01*
X28971429Y-47194271D02*
X28628572Y-47237128D01*
X28457143Y-46508557D02*
X28457143Y-47065700D01*
X28457143Y-47065700D02*
X28371429Y-47365700D01*
X29271429Y-46594271D02*
X28671429Y-46722842D01*
X28671429Y-46722842D02*
X28671429Y-47237128D01*
X29100000Y-46637128D02*
X29100000Y-46937128D01*
X29100000Y-46937128D02*
X29228572Y-47322842D01*
X29228572Y-47322842D02*
X29400000Y-47408557D01*
X29400000Y-47408557D02*
X29442858Y-47237128D01*
X29657143Y-46637128D02*
X30000000Y-46637128D01*
X29700000Y-47408557D02*
X29828571Y-47408557D01*
X29871429Y-46379985D02*
X29871429Y-47408557D01*
X30000000Y-46894271D02*
X29657143Y-46979985D01*
X30042857Y-47108557D02*
X30300000Y-47108557D01*
X30085714Y-46594271D02*
X30300000Y-46594271D01*
X30085714Y-46851414D02*
X30300000Y-46851414D01*
X30514286Y-47108557D02*
X30771429Y-47108557D01*
X30514286Y-46594271D02*
X30771429Y-46594271D01*
X30514286Y-46379985D02*
X30514286Y-47408557D01*
X30514286Y-46851414D02*
X30728571Y-46851414D01*
X30300000Y-46379985D02*
X30300000Y-46979985D01*
X30300000Y-46979985D02*
X30257143Y-47237128D01*
X30257143Y-47237128D02*
X30085714Y-47408557D01*
X30985714Y-46851414D02*
X32100000Y-46851414D01*
X31114285Y-46508557D02*
X31971428Y-46508557D01*
X31714285Y-46851414D02*
X31714285Y-47408557D01*
X31714285Y-47408557D02*
X32057142Y-47408557D01*
X32057142Y-47408557D02*
X32100000Y-47194271D01*
X31371428Y-46851414D02*
X31328571Y-47065700D01*
X31328571Y-47065700D02*
X31242857Y-47237128D01*
X31242857Y-47237128D02*
X31157142Y-47322842D01*
X31157142Y-47322842D02*
X30985714Y-47408557D01*
X32528571Y-46594271D02*
X32528571Y-47408557D01*
X32657142Y-46979985D02*
X33428571Y-46979985D01*
X32785713Y-46679985D02*
X33385713Y-46679985D01*
X32828571Y-46465700D02*
X32699999Y-46808557D01*
X33042856Y-46379985D02*
X33042856Y-47408557D01*
X32614285Y-46422842D02*
X32442856Y-46722842D01*
X32442856Y-46722842D02*
X32314285Y-46851414D01*
X33728570Y-46894271D02*
X34585713Y-46894271D01*
X33771427Y-46679985D02*
X33771427Y-47365700D01*
X33771427Y-47408557D02*
X34671427Y-47408557D01*
X34757142Y-47151414D02*
X34714284Y-47365700D01*
X33642856Y-46465700D02*
X34585713Y-46465700D01*
X34585713Y-46465700D02*
X34585713Y-46937128D01*
X35099998Y-46422842D02*
X35271427Y-46594271D01*
X35357141Y-47408557D02*
X36085713Y-47408557D01*
X35399998Y-47237128D02*
X35185713Y-47365700D01*
X35699998Y-46808557D02*
X35999998Y-46808557D01*
X35699998Y-46379985D02*
X35699998Y-47408557D01*
X34971427Y-46808557D02*
X35185713Y-46808557D01*
X35185713Y-46808557D02*
X35185713Y-47365700D01*
X36514284Y-46594271D02*
X36514284Y-47408557D01*
X36599998Y-47365700D02*
X37414284Y-47365700D01*
X36642855Y-46637128D02*
X37371426Y-46637128D01*
X36814284Y-46765700D02*
X36857141Y-47237128D01*
X37028569Y-46379985D02*
X37028569Y-46637128D01*
X37242855Y-46765700D02*
X37071426Y-47365700D01*
X36599998Y-46422842D02*
X36471426Y-46679985D01*
X36471426Y-46679985D02*
X36299998Y-46851414D01*
X37757140Y-46379985D02*
X37842855Y-46508557D01*
X37842855Y-46508557D02*
X37885712Y-46679985D01*
X37885712Y-46679985D02*
X37885712Y-47108557D01*
X37885712Y-47108557D02*
X37842855Y-47279985D01*
X37842855Y-47279985D02*
X37757140Y-47365700D01*
X15492857Y-66851414D02*
X15407143Y-66808557D01*
X15407143Y-66808557D02*
X15278571Y-66808557D01*
X15278571Y-66808557D02*
X15150000Y-66851414D01*
X15150000Y-66851414D02*
X15064285Y-66937128D01*
X15064285Y-66937128D02*
X15021428Y-67022842D01*
X15021428Y-67022842D02*
X14978571Y-67194271D01*
X14978571Y-67194271D02*
X14978571Y-67322842D01*
X14978571Y-67322842D02*
X15021428Y-67494271D01*
X15021428Y-67494271D02*
X15064285Y-67579985D01*
X15064285Y-67579985D02*
X15150000Y-67665700D01*
X15150000Y-67665700D02*
X15278571Y-67708557D01*
X15278571Y-67708557D02*
X15364285Y-67708557D01*
X15364285Y-67708557D02*
X15492857Y-67665700D01*
X15492857Y-67665700D02*
X15535714Y-67622842D01*
X15535714Y-67622842D02*
X15535714Y-67322842D01*
X15535714Y-67322842D02*
X15364285Y-67322842D01*
X15921428Y-67708557D02*
X15921428Y-66808557D01*
X15921428Y-66808557D02*
X16264285Y-66808557D01*
X16264285Y-66808557D02*
X16350000Y-66851414D01*
X16350000Y-66851414D02*
X16392857Y-66894271D01*
X16392857Y-66894271D02*
X16435714Y-66979985D01*
X16435714Y-66979985D02*
X16435714Y-67108557D01*
X16435714Y-67108557D02*
X16392857Y-67194271D01*
X16392857Y-67194271D02*
X16350000Y-67237128D01*
X16350000Y-67237128D02*
X16264285Y-67279985D01*
X16264285Y-67279985D02*
X15921428Y-67279985D01*
X16821428Y-67708557D02*
X16821428Y-66808557D01*
X17421428Y-66808557D02*
X17592856Y-66808557D01*
X17592856Y-66808557D02*
X17678571Y-66851414D01*
X17678571Y-66851414D02*
X17764285Y-66937128D01*
X17764285Y-66937128D02*
X17807142Y-67108557D01*
X17807142Y-67108557D02*
X17807142Y-67408557D01*
X17807142Y-67408557D02*
X17764285Y-67579985D01*
X17764285Y-67579985D02*
X17678571Y-67665700D01*
X17678571Y-67665700D02*
X17592856Y-67708557D01*
X17592856Y-67708557D02*
X17421428Y-67708557D01*
X17421428Y-67708557D02*
X17335714Y-67665700D01*
X17335714Y-67665700D02*
X17249999Y-67579985D01*
X17249999Y-67579985D02*
X17207142Y-67408557D01*
X17207142Y-67408557D02*
X17207142Y-67108557D01*
X17207142Y-67108557D02*
X17249999Y-66937128D01*
X17249999Y-66937128D02*
X17335714Y-66851414D01*
X17335714Y-66851414D02*
X17421428Y-66808557D01*
X18107142Y-66808557D02*
X18664285Y-66808557D01*
X18664285Y-66808557D02*
X18364285Y-67151414D01*
X18364285Y-67151414D02*
X18492856Y-67151414D01*
X18492856Y-67151414D02*
X18578571Y-67194271D01*
X18578571Y-67194271D02*
X18621428Y-67237128D01*
X18621428Y-67237128D02*
X18664285Y-67322842D01*
X18664285Y-67322842D02*
X18664285Y-67537128D01*
X18664285Y-67537128D02*
X18621428Y-67622842D01*
X18621428Y-67622842D02*
X18578571Y-67665700D01*
X18578571Y-67665700D02*
X18492856Y-67708557D01*
X18492856Y-67708557D02*
X18235713Y-67708557D01*
X18235713Y-67708557D02*
X18149999Y-67665700D01*
X18149999Y-67665700D02*
X18107142Y-67622842D01*
X19178571Y-67194271D02*
X19092856Y-67151414D01*
X19092856Y-67151414D02*
X19049999Y-67108557D01*
X19049999Y-67108557D02*
X19007142Y-67022842D01*
X19007142Y-67022842D02*
X19007142Y-66979985D01*
X19007142Y-66979985D02*
X19049999Y-66894271D01*
X19049999Y-66894271D02*
X19092856Y-66851414D01*
X19092856Y-66851414D02*
X19178571Y-66808557D01*
X19178571Y-66808557D02*
X19349999Y-66808557D01*
X19349999Y-66808557D02*
X19435714Y-66851414D01*
X19435714Y-66851414D02*
X19478571Y-66894271D01*
X19478571Y-66894271D02*
X19521428Y-66979985D01*
X19521428Y-66979985D02*
X19521428Y-67022842D01*
X19521428Y-67022842D02*
X19478571Y-67108557D01*
X19478571Y-67108557D02*
X19435714Y-67151414D01*
X19435714Y-67151414D02*
X19349999Y-67194271D01*
X19349999Y-67194271D02*
X19178571Y-67194271D01*
X19178571Y-67194271D02*
X19092856Y-67237128D01*
X19092856Y-67237128D02*
X19049999Y-67279985D01*
X19049999Y-67279985D02*
X19007142Y-67365700D01*
X19007142Y-67365700D02*
X19007142Y-67537128D01*
X19007142Y-67537128D02*
X19049999Y-67622842D01*
X19049999Y-67622842D02*
X19092856Y-67665700D01*
X19092856Y-67665700D02*
X19178571Y-67708557D01*
X19178571Y-67708557D02*
X19349999Y-67708557D01*
X19349999Y-67708557D02*
X19435714Y-67665700D01*
X19435714Y-67665700D02*
X19478571Y-67622842D01*
X19478571Y-67622842D02*
X19521428Y-67537128D01*
X19521428Y-67537128D02*
X19521428Y-67365700D01*
X19521428Y-67365700D02*
X19478571Y-67279985D01*
X19478571Y-67279985D02*
X19435714Y-67237128D01*
X19435714Y-67237128D02*
X19349999Y-67194271D01*
X19907142Y-67365700D02*
X20592857Y-67365700D01*
X21450000Y-67708557D02*
X21021428Y-67708557D01*
X21021428Y-67708557D02*
X21021428Y-66808557D01*
X21749999Y-67237128D02*
X22049999Y-67237128D01*
X22178571Y-67708557D02*
X21749999Y-67708557D01*
X21749999Y-67708557D02*
X21749999Y-66808557D01*
X21749999Y-66808557D02*
X22178571Y-66808557D01*
X22564285Y-67708557D02*
X22564285Y-66808557D01*
X22564285Y-66808557D02*
X22778571Y-66808557D01*
X22778571Y-66808557D02*
X22907142Y-66851414D01*
X22907142Y-66851414D02*
X22992857Y-66937128D01*
X22992857Y-66937128D02*
X23035714Y-67022842D01*
X23035714Y-67022842D02*
X23078571Y-67194271D01*
X23078571Y-67194271D02*
X23078571Y-67322842D01*
X23078571Y-67322842D02*
X23035714Y-67494271D01*
X23035714Y-67494271D02*
X22992857Y-67579985D01*
X22992857Y-67579985D02*
X22907142Y-67665700D01*
X22907142Y-67665700D02*
X22778571Y-67708557D01*
X22778571Y-67708557D02*
X22564285Y-67708557D01*
X24792856Y-66765700D02*
X24021428Y-67922842D01*
X26249999Y-66851414D02*
X26164285Y-66808557D01*
X26164285Y-66808557D02*
X26035713Y-66808557D01*
X26035713Y-66808557D02*
X25907142Y-66851414D01*
X25907142Y-66851414D02*
X25821427Y-66937128D01*
X25821427Y-66937128D02*
X25778570Y-67022842D01*
X25778570Y-67022842D02*
X25735713Y-67194271D01*
X25735713Y-67194271D02*
X25735713Y-67322842D01*
X25735713Y-67322842D02*
X25778570Y-67494271D01*
X25778570Y-67494271D02*
X25821427Y-67579985D01*
X25821427Y-67579985D02*
X25907142Y-67665700D01*
X25907142Y-67665700D02*
X26035713Y-67708557D01*
X26035713Y-67708557D02*
X26121427Y-67708557D01*
X26121427Y-67708557D02*
X26249999Y-67665700D01*
X26249999Y-67665700D02*
X26292856Y-67622842D01*
X26292856Y-67622842D02*
X26292856Y-67322842D01*
X26292856Y-67322842D02*
X26121427Y-67322842D01*
X26678570Y-67708557D02*
X26678570Y-66808557D01*
X26678570Y-66808557D02*
X27021427Y-66808557D01*
X27021427Y-66808557D02*
X27107142Y-66851414D01*
X27107142Y-66851414D02*
X27149999Y-66894271D01*
X27149999Y-66894271D02*
X27192856Y-66979985D01*
X27192856Y-66979985D02*
X27192856Y-67108557D01*
X27192856Y-67108557D02*
X27149999Y-67194271D01*
X27149999Y-67194271D02*
X27107142Y-67237128D01*
X27107142Y-67237128D02*
X27021427Y-67279985D01*
X27021427Y-67279985D02*
X26678570Y-67279985D01*
X27578570Y-67708557D02*
X27578570Y-66808557D01*
X28178570Y-66808557D02*
X28349998Y-66808557D01*
X28349998Y-66808557D02*
X28435713Y-66851414D01*
X28435713Y-66851414D02*
X28521427Y-66937128D01*
X28521427Y-66937128D02*
X28564284Y-67108557D01*
X28564284Y-67108557D02*
X28564284Y-67408557D01*
X28564284Y-67408557D02*
X28521427Y-67579985D01*
X28521427Y-67579985D02*
X28435713Y-67665700D01*
X28435713Y-67665700D02*
X28349998Y-67708557D01*
X28349998Y-67708557D02*
X28178570Y-67708557D01*
X28178570Y-67708557D02*
X28092856Y-67665700D01*
X28092856Y-67665700D02*
X28007141Y-67579985D01*
X28007141Y-67579985D02*
X27964284Y-67408557D01*
X27964284Y-67408557D02*
X27964284Y-67108557D01*
X27964284Y-67108557D02*
X28007141Y-66937128D01*
X28007141Y-66937128D02*
X28092856Y-66851414D01*
X28092856Y-66851414D02*
X28178570Y-66808557D01*
X29121427Y-66808557D02*
X29207141Y-66808557D01*
X29207141Y-66808557D02*
X29292855Y-66851414D01*
X29292855Y-66851414D02*
X29335713Y-66894271D01*
X29335713Y-66894271D02*
X29378570Y-66979985D01*
X29378570Y-66979985D02*
X29421427Y-67151414D01*
X29421427Y-67151414D02*
X29421427Y-67365700D01*
X29421427Y-67365700D02*
X29378570Y-67537128D01*
X29378570Y-67537128D02*
X29335713Y-67622842D01*
X29335713Y-67622842D02*
X29292855Y-67665700D01*
X29292855Y-67665700D02*
X29207141Y-67708557D01*
X29207141Y-67708557D02*
X29121427Y-67708557D01*
X29121427Y-67708557D02*
X29035713Y-67665700D01*
X29035713Y-67665700D02*
X28992855Y-67622842D01*
X28992855Y-67622842D02*
X28949998Y-67537128D01*
X28949998Y-67537128D02*
X28907141Y-67365700D01*
X28907141Y-67365700D02*
X28907141Y-67151414D01*
X28907141Y-67151414D02*
X28949998Y-66979985D01*
X28949998Y-66979985D02*
X28992855Y-66894271D01*
X28992855Y-66894271D02*
X29035713Y-66851414D01*
X29035713Y-66851414D02*
X29121427Y-66808557D01*
X29807141Y-67365700D02*
X30492856Y-67365700D01*
X30921427Y-67708557D02*
X30921427Y-66808557D01*
X31435713Y-67708557D02*
X31049999Y-67194271D01*
X31435713Y-66808557D02*
X30921427Y-67322842D01*
X31821427Y-67237128D02*
X32121427Y-67237128D01*
X32249999Y-67708557D02*
X31821427Y-67708557D01*
X31821427Y-67708557D02*
X31821427Y-66808557D01*
X31821427Y-66808557D02*
X32249999Y-66808557D01*
X32807142Y-67279985D02*
X32807142Y-67708557D01*
X32507142Y-66808557D02*
X32807142Y-67279985D01*
X32807142Y-67279985D02*
X33107142Y-66808557D01*
X3371428Y-6047342D02*
X3371428Y-4847342D01*
X3942857Y-6047342D02*
X3942857Y-4847342D01*
X3942857Y-4847342D02*
X4628571Y-6047342D01*
X4628571Y-6047342D02*
X4628571Y-4847342D01*
X5200000Y-6047342D02*
X5200000Y-4847342D01*
X5200000Y-4847342D02*
X5600000Y-5704485D01*
X5600000Y-5704485D02*
X6000000Y-4847342D01*
X6000000Y-4847342D02*
X6000000Y-6047342D01*
X6571429Y-6047342D02*
X6571429Y-4847342D01*
X6571429Y-4847342D02*
X7028572Y-4847342D01*
X7028572Y-4847342D02*
X7142857Y-4904485D01*
X7142857Y-4904485D02*
X7200000Y-4961628D01*
X7200000Y-4961628D02*
X7257143Y-5075914D01*
X7257143Y-5075914D02*
X7257143Y-5247342D01*
X7257143Y-5247342D02*
X7200000Y-5361628D01*
X7200000Y-5361628D02*
X7142857Y-5418771D01*
X7142857Y-5418771D02*
X7028572Y-5475914D01*
X7028572Y-5475914D02*
X6571429Y-5475914D01*
X8285715Y-5247342D02*
X8285715Y-6047342D01*
X8000000Y-4790200D02*
X7714286Y-5647342D01*
X7714286Y-5647342D02*
X8457143Y-5647342D01*
X9428572Y-5247342D02*
X9428572Y-6047342D01*
X9142857Y-4790200D02*
X8857143Y-5647342D01*
X8857143Y-5647342D02*
X9600000Y-5647342D01*
X10685714Y-6047342D02*
X10000000Y-6047342D01*
X10342857Y-6047342D02*
X10342857Y-4847342D01*
X10342857Y-4847342D02*
X10228571Y-5018771D01*
X10228571Y-5018771D02*
X10114286Y-5133057D01*
X10114286Y-5133057D02*
X10000000Y-5190200D01*
X11457143Y-65290200D02*
X11628572Y-65347342D01*
X11628572Y-65347342D02*
X11914286Y-65347342D01*
X11914286Y-65347342D02*
X12028572Y-65290200D01*
X12028572Y-65290200D02*
X12085714Y-65233057D01*
X12085714Y-65233057D02*
X12142857Y-65118771D01*
X12142857Y-65118771D02*
X12142857Y-65004485D01*
X12142857Y-65004485D02*
X12085714Y-64890200D01*
X12085714Y-64890200D02*
X12028572Y-64833057D01*
X12028572Y-64833057D02*
X11914286Y-64775914D01*
X11914286Y-64775914D02*
X11685714Y-64718771D01*
X11685714Y-64718771D02*
X11571429Y-64661628D01*
X11571429Y-64661628D02*
X11514286Y-64604485D01*
X11514286Y-64604485D02*
X11457143Y-64490200D01*
X11457143Y-64490200D02*
X11457143Y-64375914D01*
X11457143Y-64375914D02*
X11514286Y-64261628D01*
X11514286Y-64261628D02*
X11571429Y-64204485D01*
X11571429Y-64204485D02*
X11685714Y-64147342D01*
X11685714Y-64147342D02*
X11971429Y-64147342D01*
X11971429Y-64147342D02*
X12142857Y-64204485D01*
X12657143Y-65347342D02*
X12657143Y-64147342D01*
X12657143Y-64147342D02*
X13114286Y-64147342D01*
X13114286Y-64147342D02*
X13228571Y-64204485D01*
X13228571Y-64204485D02*
X13285714Y-64261628D01*
X13285714Y-64261628D02*
X13342857Y-64375914D01*
X13342857Y-64375914D02*
X13342857Y-64547342D01*
X13342857Y-64547342D02*
X13285714Y-64661628D01*
X13285714Y-64661628D02*
X13228571Y-64718771D01*
X13228571Y-64718771D02*
X13114286Y-64775914D01*
X13114286Y-64775914D02*
X12657143Y-64775914D01*
X13857143Y-65347342D02*
X13857143Y-64147342D01*
X14542857Y-65347342D02*
X14028571Y-64661628D01*
X14542857Y-64147342D02*
X13857143Y-64833057D01*
X18228571Y-65547342D02*
X17657143Y-65547342D01*
X17657143Y-65547342D02*
X17657143Y-64347342D01*
X18628572Y-64918771D02*
X19028572Y-64918771D01*
X19200000Y-65547342D02*
X18628572Y-65547342D01*
X18628572Y-65547342D02*
X18628572Y-64347342D01*
X18628572Y-64347342D02*
X19200000Y-64347342D01*
X19714286Y-65547342D02*
X19714286Y-64347342D01*
X19714286Y-64347342D02*
X20000000Y-64347342D01*
X20000000Y-64347342D02*
X20171429Y-64404485D01*
X20171429Y-64404485D02*
X20285714Y-64518771D01*
X20285714Y-64518771D02*
X20342857Y-64633057D01*
X20342857Y-64633057D02*
X20400000Y-64861628D01*
X20400000Y-64861628D02*
X20400000Y-65033057D01*
X20400000Y-65033057D02*
X20342857Y-65261628D01*
X20342857Y-65261628D02*
X20285714Y-65375914D01*
X20285714Y-65375914D02*
X20171429Y-65490200D01*
X20171429Y-65490200D02*
X20000000Y-65547342D01*
X20000000Y-65547342D02*
X19714286Y-65547342D01*
X22628572Y-65547342D02*
X22628572Y-64347342D01*
X23314286Y-65547342D02*
X22800000Y-64861628D01*
X23314286Y-64347342D02*
X22628572Y-65033057D01*
X23828572Y-64918771D02*
X24228572Y-64918771D01*
X24400000Y-65547342D02*
X23828572Y-65547342D01*
X23828572Y-65547342D02*
X23828572Y-64347342D01*
X23828572Y-64347342D02*
X24400000Y-64347342D01*
X25142857Y-64975914D02*
X25142857Y-65547342D01*
X24742857Y-64347342D02*
X25142857Y-64975914D01*
X25142857Y-64975914D02*
X25542857Y-64347342D01*
X42157143Y-21047342D02*
X42157143Y-19847342D01*
X42157143Y-19847342D02*
X42557143Y-20704485D01*
X42557143Y-20704485D02*
X42957143Y-19847342D01*
X42957143Y-19847342D02*
X42957143Y-21047342D01*
X43471429Y-20704485D02*
X44042858Y-20704485D01*
X43357143Y-21047342D02*
X43757143Y-19847342D01*
X43757143Y-19847342D02*
X44157143Y-21047342D01*
X44442857Y-19847342D02*
X45242857Y-21047342D01*
X45242857Y-19847342D02*
X44442857Y-21047342D01*
X45757143Y-21047342D02*
X45985714Y-21047342D01*
X45985714Y-21047342D02*
X46100000Y-20990200D01*
X46100000Y-20990200D02*
X46157143Y-20933057D01*
X46157143Y-20933057D02*
X46271428Y-20761628D01*
X46271428Y-20761628D02*
X46328571Y-20533057D01*
X46328571Y-20533057D02*
X46328571Y-20075914D01*
X46328571Y-20075914D02*
X46271428Y-19961628D01*
X46271428Y-19961628D02*
X46214286Y-19904485D01*
X46214286Y-19904485D02*
X46100000Y-19847342D01*
X46100000Y-19847342D02*
X45871428Y-19847342D01*
X45871428Y-19847342D02*
X45757143Y-19904485D01*
X45757143Y-19904485D02*
X45700000Y-19961628D01*
X45700000Y-19961628D02*
X45642857Y-20075914D01*
X45642857Y-20075914D02*
X45642857Y-20361628D01*
X45642857Y-20361628D02*
X45700000Y-20475914D01*
X45700000Y-20475914D02*
X45757143Y-20533057D01*
X45757143Y-20533057D02*
X45871428Y-20590200D01*
X45871428Y-20590200D02*
X46100000Y-20590200D01*
X46100000Y-20590200D02*
X46214286Y-20533057D01*
X46214286Y-20533057D02*
X46271428Y-20475914D01*
X46271428Y-20475914D02*
X46328571Y-20361628D01*
X47014285Y-20361628D02*
X46900000Y-20304485D01*
X46900000Y-20304485D02*
X46842857Y-20247342D01*
X46842857Y-20247342D02*
X46785714Y-20133057D01*
X46785714Y-20133057D02*
X46785714Y-20075914D01*
X46785714Y-20075914D02*
X46842857Y-19961628D01*
X46842857Y-19961628D02*
X46900000Y-19904485D01*
X46900000Y-19904485D02*
X47014285Y-19847342D01*
X47014285Y-19847342D02*
X47242857Y-19847342D01*
X47242857Y-19847342D02*
X47357143Y-19904485D01*
X47357143Y-19904485D02*
X47414285Y-19961628D01*
X47414285Y-19961628D02*
X47471428Y-20075914D01*
X47471428Y-20075914D02*
X47471428Y-20133057D01*
X47471428Y-20133057D02*
X47414285Y-20247342D01*
X47414285Y-20247342D02*
X47357143Y-20304485D01*
X47357143Y-20304485D02*
X47242857Y-20361628D01*
X47242857Y-20361628D02*
X47014285Y-20361628D01*
X47014285Y-20361628D02*
X46900000Y-20418771D01*
X46900000Y-20418771D02*
X46842857Y-20475914D01*
X46842857Y-20475914D02*
X46785714Y-20590200D01*
X46785714Y-20590200D02*
X46785714Y-20818771D01*
X46785714Y-20818771D02*
X46842857Y-20933057D01*
X46842857Y-20933057D02*
X46900000Y-20990200D01*
X46900000Y-20990200D02*
X47014285Y-21047342D01*
X47014285Y-21047342D02*
X47242857Y-21047342D01*
X47242857Y-21047342D02*
X47357143Y-20990200D01*
X47357143Y-20990200D02*
X47414285Y-20933057D01*
X47414285Y-20933057D02*
X47471428Y-20818771D01*
X47471428Y-20818771D02*
X47471428Y-20590200D01*
X47471428Y-20590200D02*
X47414285Y-20475914D01*
X47414285Y-20475914D02*
X47357143Y-20418771D01*
X47357143Y-20418771D02*
X47242857Y-20361628D01*
X47871428Y-19847342D02*
X48614285Y-19847342D01*
X48614285Y-19847342D02*
X48214285Y-20304485D01*
X48214285Y-20304485D02*
X48385714Y-20304485D01*
X48385714Y-20304485D02*
X48500000Y-20361628D01*
X48500000Y-20361628D02*
X48557142Y-20418771D01*
X48557142Y-20418771D02*
X48614285Y-20533057D01*
X48614285Y-20533057D02*
X48614285Y-20818771D01*
X48614285Y-20818771D02*
X48557142Y-20933057D01*
X48557142Y-20933057D02*
X48500000Y-20990200D01*
X48500000Y-20990200D02*
X48385714Y-21047342D01*
X48385714Y-21047342D02*
X48042857Y-21047342D01*
X48042857Y-21047342D02*
X47928571Y-20990200D01*
X47928571Y-20990200D02*
X47871428Y-20933057D01*
X49699999Y-19847342D02*
X49128571Y-19847342D01*
X49128571Y-19847342D02*
X49071428Y-20418771D01*
X49071428Y-20418771D02*
X49128571Y-20361628D01*
X49128571Y-20361628D02*
X49242857Y-20304485D01*
X49242857Y-20304485D02*
X49528571Y-20304485D01*
X49528571Y-20304485D02*
X49642857Y-20361628D01*
X49642857Y-20361628D02*
X49699999Y-20418771D01*
X49699999Y-20418771D02*
X49757142Y-20533057D01*
X49757142Y-20533057D02*
X49757142Y-20818771D01*
X49757142Y-20818771D02*
X49699999Y-20933057D01*
X49699999Y-20933057D02*
X49642857Y-20990200D01*
X49642857Y-20990200D02*
X49528571Y-21047342D01*
X49528571Y-21047342D02*
X49242857Y-21047342D01*
X49242857Y-21047342D02*
X49128571Y-20990200D01*
X49128571Y-20990200D02*
X49071428Y-20933057D01*
X50157142Y-19847342D02*
X50957142Y-19847342D01*
X50957142Y-19847342D02*
X50442856Y-21047342D01*
X44757142Y-34847342D02*
X44985714Y-34847342D01*
X44985714Y-34847342D02*
X45099999Y-34904485D01*
X45099999Y-34904485D02*
X45214285Y-35018771D01*
X45214285Y-35018771D02*
X45271428Y-35247342D01*
X45271428Y-35247342D02*
X45271428Y-35647342D01*
X45271428Y-35647342D02*
X45214285Y-35875914D01*
X45214285Y-35875914D02*
X45099999Y-35990200D01*
X45099999Y-35990200D02*
X44985714Y-36047342D01*
X44985714Y-36047342D02*
X44757142Y-36047342D01*
X44757142Y-36047342D02*
X44642857Y-35990200D01*
X44642857Y-35990200D02*
X44528571Y-35875914D01*
X44528571Y-35875914D02*
X44471428Y-35647342D01*
X44471428Y-35647342D02*
X44471428Y-35247342D01*
X44471428Y-35247342D02*
X44528571Y-35018771D01*
X44528571Y-35018771D02*
X44642857Y-34904485D01*
X44642857Y-34904485D02*
X44757142Y-34847342D01*
X46357142Y-36047342D02*
X45785714Y-36047342D01*
X45785714Y-36047342D02*
X45785714Y-34847342D01*
X46757143Y-35418771D02*
X47157143Y-35418771D01*
X47328571Y-36047342D02*
X46757143Y-36047342D01*
X46757143Y-36047342D02*
X46757143Y-34847342D01*
X46757143Y-34847342D02*
X47328571Y-34847342D01*
X47842857Y-36047342D02*
X47842857Y-34847342D01*
X47842857Y-34847342D02*
X48128571Y-34847342D01*
X48128571Y-34847342D02*
X48300000Y-34904485D01*
X48300000Y-34904485D02*
X48414285Y-35018771D01*
X48414285Y-35018771D02*
X48471428Y-35133057D01*
X48471428Y-35133057D02*
X48528571Y-35361628D01*
X48528571Y-35361628D02*
X48528571Y-35533057D01*
X48528571Y-35533057D02*
X48471428Y-35761628D01*
X48471428Y-35761628D02*
X48414285Y-35875914D01*
X48414285Y-35875914D02*
X48300000Y-35990200D01*
X48300000Y-35990200D02*
X48128571Y-36047342D01*
X48128571Y-36047342D02*
X47842857Y-36047342D01*
X13828569Y-2132390D02*
X14361903Y-3732390D01*
X14361903Y-3732390D02*
X14895236Y-2132390D01*
X15657141Y-3732390D02*
X15504760Y-3656200D01*
X15504760Y-3656200D02*
X15428570Y-3580009D01*
X15428570Y-3580009D02*
X15352379Y-3427628D01*
X15352379Y-3427628D02*
X15352379Y-2970485D01*
X15352379Y-2970485D02*
X15428570Y-2818104D01*
X15428570Y-2818104D02*
X15504760Y-2741914D01*
X15504760Y-2741914D02*
X15657141Y-2665723D01*
X15657141Y-2665723D02*
X15885713Y-2665723D01*
X15885713Y-2665723D02*
X16038094Y-2741914D01*
X16038094Y-2741914D02*
X16114284Y-2818104D01*
X16114284Y-2818104D02*
X16190475Y-2970485D01*
X16190475Y-2970485D02*
X16190475Y-3427628D01*
X16190475Y-3427628D02*
X16114284Y-3580009D01*
X16114284Y-3580009D02*
X16038094Y-3656200D01*
X16038094Y-3656200D02*
X15885713Y-3732390D01*
X15885713Y-3732390D02*
X15657141Y-3732390D01*
X16876189Y-3732390D02*
X16876189Y-2665723D01*
X16876189Y-2132390D02*
X16799998Y-2208580D01*
X16799998Y-2208580D02*
X16876189Y-2284771D01*
X16876189Y-2284771D02*
X16952379Y-2208580D01*
X16952379Y-2208580D02*
X16876189Y-2132390D01*
X16876189Y-2132390D02*
X16876189Y-2284771D01*
X18323808Y-3656200D02*
X18171427Y-3732390D01*
X18171427Y-3732390D02*
X17866665Y-3732390D01*
X17866665Y-3732390D02*
X17714284Y-3656200D01*
X17714284Y-3656200D02*
X17638094Y-3580009D01*
X17638094Y-3580009D02*
X17561903Y-3427628D01*
X17561903Y-3427628D02*
X17561903Y-2970485D01*
X17561903Y-2970485D02*
X17638094Y-2818104D01*
X17638094Y-2818104D02*
X17714284Y-2741914D01*
X17714284Y-2741914D02*
X17866665Y-2665723D01*
X17866665Y-2665723D02*
X18171427Y-2665723D01*
X18171427Y-2665723D02*
X18323808Y-2741914D01*
X19619047Y-3656200D02*
X19466666Y-3732390D01*
X19466666Y-3732390D02*
X19161904Y-3732390D01*
X19161904Y-3732390D02*
X19009523Y-3656200D01*
X19009523Y-3656200D02*
X18933332Y-3503819D01*
X18933332Y-3503819D02*
X18933332Y-2894295D01*
X18933332Y-2894295D02*
X19009523Y-2741914D01*
X19009523Y-2741914D02*
X19161904Y-2665723D01*
X19161904Y-2665723D02*
X19466666Y-2665723D01*
X19466666Y-2665723D02*
X19619047Y-2741914D01*
X19619047Y-2741914D02*
X19695237Y-2894295D01*
X19695237Y-2894295D02*
X19695237Y-3046676D01*
X19695237Y-3046676D02*
X18933332Y-3199057D01*
X20000000Y-3884771D02*
X21219047Y-3884771D01*
X22133333Y-2894295D02*
X22361905Y-2970485D01*
X22361905Y-2970485D02*
X22438095Y-3046676D01*
X22438095Y-3046676D02*
X22514286Y-3199057D01*
X22514286Y-3199057D02*
X22514286Y-3427628D01*
X22514286Y-3427628D02*
X22438095Y-3580009D01*
X22438095Y-3580009D02*
X22361905Y-3656200D01*
X22361905Y-3656200D02*
X22209524Y-3732390D01*
X22209524Y-3732390D02*
X21600000Y-3732390D01*
X21600000Y-3732390D02*
X21600000Y-2132390D01*
X21600000Y-2132390D02*
X22133333Y-2132390D01*
X22133333Y-2132390D02*
X22285714Y-2208580D01*
X22285714Y-2208580D02*
X22361905Y-2284771D01*
X22361905Y-2284771D02*
X22438095Y-2437152D01*
X22438095Y-2437152D02*
X22438095Y-2589533D01*
X22438095Y-2589533D02*
X22361905Y-2741914D01*
X22361905Y-2741914D02*
X22285714Y-2818104D01*
X22285714Y-2818104D02*
X22133333Y-2894295D01*
X22133333Y-2894295D02*
X21600000Y-2894295D01*
X23885714Y-2665723D02*
X23885714Y-3732390D01*
X23200000Y-2665723D02*
X23200000Y-3503819D01*
X23200000Y-3503819D02*
X23276190Y-3656200D01*
X23276190Y-3656200D02*
X23428571Y-3732390D01*
X23428571Y-3732390D02*
X23657143Y-3732390D01*
X23657143Y-3732390D02*
X23809524Y-3656200D01*
X23809524Y-3656200D02*
X23885714Y-3580009D01*
X25333333Y-3732390D02*
X25333333Y-2132390D01*
X25333333Y-3656200D02*
X25180952Y-3732390D01*
X25180952Y-3732390D02*
X24876190Y-3732390D01*
X24876190Y-3732390D02*
X24723809Y-3656200D01*
X24723809Y-3656200D02*
X24647619Y-3580009D01*
X24647619Y-3580009D02*
X24571428Y-3427628D01*
X24571428Y-3427628D02*
X24571428Y-2970485D01*
X24571428Y-2970485D02*
X24647619Y-2818104D01*
X24647619Y-2818104D02*
X24723809Y-2741914D01*
X24723809Y-2741914D02*
X24876190Y-2665723D01*
X24876190Y-2665723D02*
X25180952Y-2665723D01*
X25180952Y-2665723D02*
X25333333Y-2741914D01*
X26780952Y-3732390D02*
X26780952Y-2132390D01*
X26780952Y-3656200D02*
X26628571Y-3732390D01*
X26628571Y-3732390D02*
X26323809Y-3732390D01*
X26323809Y-3732390D02*
X26171428Y-3656200D01*
X26171428Y-3656200D02*
X26095238Y-3580009D01*
X26095238Y-3580009D02*
X26019047Y-3427628D01*
X26019047Y-3427628D02*
X26019047Y-2970485D01*
X26019047Y-2970485D02*
X26095238Y-2818104D01*
X26095238Y-2818104D02*
X26171428Y-2741914D01*
X26171428Y-2741914D02*
X26323809Y-2665723D01*
X26323809Y-2665723D02*
X26628571Y-2665723D01*
X26628571Y-2665723D02*
X26780952Y-2741914D01*
X27390476Y-2665723D02*
X27771428Y-3732390D01*
X28152381Y-2665723D02*
X27771428Y-3732390D01*
X27771428Y-3732390D02*
X27619047Y-4113342D01*
X27619047Y-4113342D02*
X27542857Y-4189533D01*
X27542857Y-4189533D02*
X27390476Y-4265723D01*
X29980953Y-2437152D02*
X31733334Y-2437152D01*
X30361905Y-3656200D02*
X31580953Y-3656200D01*
X30361905Y-3351438D02*
X31580953Y-3351438D01*
X30361905Y-3046676D02*
X31580953Y-3046676D01*
X30361905Y-2741914D02*
X30361905Y-3732390D01*
X31504762Y-1980009D02*
X30742858Y-2056200D01*
X29980953Y-2056200D02*
X29980953Y-2970485D01*
X29980953Y-2970485D02*
X29904762Y-3580009D01*
X30361905Y-2741914D02*
X31580953Y-2741914D01*
X31580953Y-2741914D02*
X31580953Y-3732390D01*
X29980953Y-2132390D02*
X30438096Y-2132390D01*
X30438096Y-2132390D02*
X30895239Y-2056200D01*
X30895239Y-2056200D02*
X30895239Y-2665723D01*
X32190477Y-2360961D02*
X32876191Y-2360961D01*
X32495239Y-2437152D02*
X32114286Y-3275247D01*
X32571429Y-2665723D02*
X32876191Y-2970485D01*
X32571429Y-1903819D02*
X32571429Y-3732390D01*
X33028572Y-2056200D02*
X34019048Y-2056200D01*
X33028572Y-2056200D02*
X33028572Y-2970485D01*
X33028572Y-2970485D02*
X32952382Y-3580009D01*
X33180953Y-2589533D02*
X33485715Y-3275247D01*
X33485715Y-3275247D02*
X33866667Y-3580009D01*
X33866667Y-3580009D02*
X34095239Y-3732390D01*
X33028572Y-2589533D02*
X34019048Y-2589533D01*
X34019048Y-2589533D02*
X33714286Y-3199057D01*
X33714286Y-3199057D02*
X33409525Y-3580009D01*
X33409525Y-3580009D02*
X33104763Y-3732390D01*
X19531905Y-58494819D02*
X19531905Y-57494819D01*
X19531905Y-57494819D02*
X19770000Y-57494819D01*
X19770000Y-57494819D02*
X19912857Y-57542438D01*
X19912857Y-57542438D02*
X20008095Y-57637676D01*
X20008095Y-57637676D02*
X20055714Y-57732914D01*
X20055714Y-57732914D02*
X20103333Y-57923390D01*
X20103333Y-57923390D02*
X20103333Y-58066247D01*
X20103333Y-58066247D02*
X20055714Y-58256723D01*
X20055714Y-58256723D02*
X20008095Y-58351961D01*
X20008095Y-58351961D02*
X19912857Y-58447200D01*
X19912857Y-58447200D02*
X19770000Y-58494819D01*
X19770000Y-58494819D02*
X19531905Y-58494819D01*
X21055714Y-58494819D02*
X20484286Y-58494819D01*
X20770000Y-58494819D02*
X20770000Y-57494819D01*
X20770000Y-57494819D02*
X20674762Y-57637676D01*
X20674762Y-57637676D02*
X20579524Y-57732914D01*
X20579524Y-57732914D02*
X20484286Y-57780533D01*
X19083333Y-3359580D02*
X19035714Y-3407200D01*
X19035714Y-3407200D02*
X18892857Y-3454819D01*
X18892857Y-3454819D02*
X18797619Y-3454819D01*
X18797619Y-3454819D02*
X18654762Y-3407200D01*
X18654762Y-3407200D02*
X18559524Y-3311961D01*
X18559524Y-3311961D02*
X18511905Y-3216723D01*
X18511905Y-3216723D02*
X18464286Y-3026247D01*
X18464286Y-3026247D02*
X18464286Y-2883390D01*
X18464286Y-2883390D02*
X18511905Y-2692914D01*
X18511905Y-2692914D02*
X18559524Y-2597676D01*
X18559524Y-2597676D02*
X18654762Y-2502438D01*
X18654762Y-2502438D02*
X18797619Y-2454819D01*
X18797619Y-2454819D02*
X18892857Y-2454819D01*
X18892857Y-2454819D02*
X19035714Y-2502438D01*
X19035714Y-2502438D02*
X19083333Y-2550057D01*
X19416667Y-2454819D02*
X20035714Y-2454819D01*
X20035714Y-2454819D02*
X19702381Y-2835771D01*
X19702381Y-2835771D02*
X19845238Y-2835771D01*
X19845238Y-2835771D02*
X19940476Y-2883390D01*
X19940476Y-2883390D02*
X19988095Y-2931009D01*
X19988095Y-2931009D02*
X20035714Y-3026247D01*
X20035714Y-3026247D02*
X20035714Y-3264342D01*
X20035714Y-3264342D02*
X19988095Y-3359580D01*
X19988095Y-3359580D02*
X19940476Y-3407200D01*
X19940476Y-3407200D02*
X19845238Y-3454819D01*
X19845238Y-3454819D02*
X19559524Y-3454819D01*
X19559524Y-3454819D02*
X19464286Y-3407200D01*
X19464286Y-3407200D02*
X19416667Y-3359580D01*
X13666666Y-59124819D02*
X13666666Y-59839104D01*
X13666666Y-59839104D02*
X13619047Y-59981961D01*
X13619047Y-59981961D02*
X13523809Y-60077200D01*
X13523809Y-60077200D02*
X13380952Y-60124819D01*
X13380952Y-60124819D02*
X13285714Y-60124819D01*
X14571428Y-59124819D02*
X14380952Y-59124819D01*
X14380952Y-59124819D02*
X14285714Y-59172438D01*
X14285714Y-59172438D02*
X14238095Y-59220057D01*
X14238095Y-59220057D02*
X14142857Y-59362914D01*
X14142857Y-59362914D02*
X14095238Y-59553390D01*
X14095238Y-59553390D02*
X14095238Y-59934342D01*
X14095238Y-59934342D02*
X14142857Y-60029580D01*
X14142857Y-60029580D02*
X14190476Y-60077200D01*
X14190476Y-60077200D02*
X14285714Y-60124819D01*
X14285714Y-60124819D02*
X14476190Y-60124819D01*
X14476190Y-60124819D02*
X14571428Y-60077200D01*
X14571428Y-60077200D02*
X14619047Y-60029580D01*
X14619047Y-60029580D02*
X14666666Y-59934342D01*
X14666666Y-59934342D02*
X14666666Y-59696247D01*
X14666666Y-59696247D02*
X14619047Y-59601009D01*
X14619047Y-59601009D02*
X14571428Y-59553390D01*
X14571428Y-59553390D02*
X14476190Y-59505771D01*
X14476190Y-59505771D02*
X14285714Y-59505771D01*
X14285714Y-59505771D02*
X14190476Y-59553390D01*
X14190476Y-59553390D02*
X14142857Y-59601009D01*
X14142857Y-59601009D02*
X14095238Y-59696247D01*
X49666666Y-22684819D02*
X49666666Y-23399104D01*
X49666666Y-23399104D02*
X49619047Y-23541961D01*
X49619047Y-23541961D02*
X49523809Y-23637200D01*
X49523809Y-23637200D02*
X49380952Y-23684819D01*
X49380952Y-23684819D02*
X49285714Y-23684819D01*
X50619047Y-22684819D02*
X50142857Y-22684819D01*
X50142857Y-22684819D02*
X50095238Y-23161009D01*
X50095238Y-23161009D02*
X50142857Y-23113390D01*
X50142857Y-23113390D02*
X50238095Y-23065771D01*
X50238095Y-23065771D02*
X50476190Y-23065771D01*
X50476190Y-23065771D02*
X50571428Y-23113390D01*
X50571428Y-23113390D02*
X50619047Y-23161009D01*
X50619047Y-23161009D02*
X50666666Y-23256247D01*
X50666666Y-23256247D02*
X50666666Y-23494342D01*
X50666666Y-23494342D02*
X50619047Y-23589580D01*
X50619047Y-23589580D02*
X50571428Y-23637200D01*
X50571428Y-23637200D02*
X50476190Y-23684819D01*
X50476190Y-23684819D02*
X50238095Y-23684819D01*
X50238095Y-23684819D02*
X50142857Y-23637200D01*
X50142857Y-23637200D02*
X50095238Y-23589580D01*
X34526666Y-4684819D02*
X34526666Y-5399104D01*
X34526666Y-5399104D02*
X34479047Y-5541961D01*
X34479047Y-5541961D02*
X34383809Y-5637200D01*
X34383809Y-5637200D02*
X34240952Y-5684819D01*
X34240952Y-5684819D02*
X34145714Y-5684819D01*
X34907619Y-4684819D02*
X35526666Y-4684819D01*
X35526666Y-4684819D02*
X35193333Y-5065771D01*
X35193333Y-5065771D02*
X35336190Y-5065771D01*
X35336190Y-5065771D02*
X35431428Y-5113390D01*
X35431428Y-5113390D02*
X35479047Y-5161009D01*
X35479047Y-5161009D02*
X35526666Y-5256247D01*
X35526666Y-5256247D02*
X35526666Y-5494342D01*
X35526666Y-5494342D02*
X35479047Y-5589580D01*
X35479047Y-5589580D02*
X35431428Y-5637200D01*
X35431428Y-5637200D02*
X35336190Y-5684819D01*
X35336190Y-5684819D02*
X35050476Y-5684819D01*
X35050476Y-5684819D02*
X34955238Y-5637200D01*
X34955238Y-5637200D02*
X34907619Y-5589580D01*
X41583333Y-44859580D02*
X41535714Y-44907200D01*
X41535714Y-44907200D02*
X41392857Y-44954819D01*
X41392857Y-44954819D02*
X41297619Y-44954819D01*
X41297619Y-44954819D02*
X41154762Y-44907200D01*
X41154762Y-44907200D02*
X41059524Y-44811961D01*
X41059524Y-44811961D02*
X41011905Y-44716723D01*
X41011905Y-44716723D02*
X40964286Y-44526247D01*
X40964286Y-44526247D02*
X40964286Y-44383390D01*
X40964286Y-44383390D02*
X41011905Y-44192914D01*
X41011905Y-44192914D02*
X41059524Y-44097676D01*
X41059524Y-44097676D02*
X41154762Y-44002438D01*
X41154762Y-44002438D02*
X41297619Y-43954819D01*
X41297619Y-43954819D02*
X41392857Y-43954819D01*
X41392857Y-43954819D02*
X41535714Y-44002438D01*
X41535714Y-44002438D02*
X41583333Y-44050057D01*
X41964286Y-44050057D02*
X42011905Y-44002438D01*
X42011905Y-44002438D02*
X42107143Y-43954819D01*
X42107143Y-43954819D02*
X42345238Y-43954819D01*
X42345238Y-43954819D02*
X42440476Y-44002438D01*
X42440476Y-44002438D02*
X42488095Y-44050057D01*
X42488095Y-44050057D02*
X42535714Y-44145295D01*
X42535714Y-44145295D02*
X42535714Y-44240533D01*
X42535714Y-44240533D02*
X42488095Y-44383390D01*
X42488095Y-44383390D02*
X41916667Y-44954819D01*
X41916667Y-44954819D02*
X42535714Y-44954819D01*
X27916667Y-60407200D02*
X28059524Y-60454819D01*
X28059524Y-60454819D02*
X28297619Y-60454819D01*
X28297619Y-60454819D02*
X28392857Y-60407200D01*
X28392857Y-60407200D02*
X28440476Y-60359580D01*
X28440476Y-60359580D02*
X28488095Y-60264342D01*
X28488095Y-60264342D02*
X28488095Y-60169104D01*
X28488095Y-60169104D02*
X28440476Y-60073866D01*
X28440476Y-60073866D02*
X28392857Y-60026247D01*
X28392857Y-60026247D02*
X28297619Y-59978628D01*
X28297619Y-59978628D02*
X28107143Y-59931009D01*
X28107143Y-59931009D02*
X28011905Y-59883390D01*
X28011905Y-59883390D02*
X27964286Y-59835771D01*
X27964286Y-59835771D02*
X27916667Y-59740533D01*
X27916667Y-59740533D02*
X27916667Y-59645295D01*
X27916667Y-59645295D02*
X27964286Y-59550057D01*
X27964286Y-59550057D02*
X28011905Y-59502438D01*
X28011905Y-59502438D02*
X28107143Y-59454819D01*
X28107143Y-59454819D02*
X28345238Y-59454819D01*
X28345238Y-59454819D02*
X28488095Y-59502438D01*
X28821429Y-59454819D02*
X29059524Y-60454819D01*
X29059524Y-60454819D02*
X29250000Y-59740533D01*
X29250000Y-59740533D02*
X29440476Y-60454819D01*
X29440476Y-60454819D02*
X29678572Y-59454819D01*
X30583333Y-60454819D02*
X30011905Y-60454819D01*
X30297619Y-60454819D02*
X30297619Y-59454819D01*
X30297619Y-59454819D02*
X30202381Y-59597676D01*
X30202381Y-59597676D02*
X30107143Y-59692914D01*
X30107143Y-59692914D02*
X30011905Y-59740533D01*
X49666666Y-4684819D02*
X49666666Y-5399104D01*
X49666666Y-5399104D02*
X49619047Y-5541961D01*
X49619047Y-5541961D02*
X49523809Y-5637200D01*
X49523809Y-5637200D02*
X49380952Y-5684819D01*
X49380952Y-5684819D02*
X49285714Y-5684819D01*
X50571428Y-5018152D02*
X50571428Y-5684819D01*
X50333333Y-4637200D02*
X50095238Y-5351485D01*
X50095238Y-5351485D02*
X50714285Y-5351485D01*
X46643333Y-60084819D02*
X46310000Y-59608628D01*
X46071905Y-60084819D02*
X46071905Y-59084819D01*
X46071905Y-59084819D02*
X46452857Y-59084819D01*
X46452857Y-59084819D02*
X46548095Y-59132438D01*
X46548095Y-59132438D02*
X46595714Y-59180057D01*
X46595714Y-59180057D02*
X46643333Y-59275295D01*
X46643333Y-59275295D02*
X46643333Y-59418152D01*
X46643333Y-59418152D02*
X46595714Y-59513390D01*
X46595714Y-59513390D02*
X46548095Y-59561009D01*
X46548095Y-59561009D02*
X46452857Y-59608628D01*
X46452857Y-59608628D02*
X46071905Y-59608628D01*
X47595714Y-60084819D02*
X47024286Y-60084819D01*
X47310000Y-60084819D02*
X47310000Y-59084819D01*
X47310000Y-59084819D02*
X47214762Y-59227676D01*
X47214762Y-59227676D02*
X47119524Y-59322914D01*
X47119524Y-59322914D02*
X47024286Y-59370533D01*
X48583333Y-49759580D02*
X48535714Y-49807200D01*
X48535714Y-49807200D02*
X48392857Y-49854819D01*
X48392857Y-49854819D02*
X48297619Y-49854819D01*
X48297619Y-49854819D02*
X48154762Y-49807200D01*
X48154762Y-49807200D02*
X48059524Y-49711961D01*
X48059524Y-49711961D02*
X48011905Y-49616723D01*
X48011905Y-49616723D02*
X47964286Y-49426247D01*
X47964286Y-49426247D02*
X47964286Y-49283390D01*
X47964286Y-49283390D02*
X48011905Y-49092914D01*
X48011905Y-49092914D02*
X48059524Y-48997676D01*
X48059524Y-48997676D02*
X48154762Y-48902438D01*
X48154762Y-48902438D02*
X48297619Y-48854819D01*
X48297619Y-48854819D02*
X48392857Y-48854819D01*
X48392857Y-48854819D02*
X48535714Y-48902438D01*
X48535714Y-48902438D02*
X48583333Y-48950057D01*
X49535714Y-49854819D02*
X48964286Y-49854819D01*
X49250000Y-49854819D02*
X49250000Y-48854819D01*
X49250000Y-48854819D02*
X49154762Y-48997676D01*
X49154762Y-48997676D02*
X49059524Y-49092914D01*
X49059524Y-49092914D02*
X48964286Y-49140533D01*
X11666666Y-4684819D02*
X11666666Y-5399104D01*
X11666666Y-5399104D02*
X11619047Y-5541961D01*
X11619047Y-5541961D02*
X11523809Y-5637200D01*
X11523809Y-5637200D02*
X11380952Y-5684819D01*
X11380952Y-5684819D02*
X11285714Y-5684819D01*
X12666666Y-5684819D02*
X12095238Y-5684819D01*
X12380952Y-5684819D02*
X12380952Y-4684819D01*
X12380952Y-4684819D02*
X12285714Y-4827676D01*
X12285714Y-4827676D02*
X12190476Y-4922914D01*
X12190476Y-4922914D02*
X12095238Y-4970533D01*
X37359580Y-33916666D02*
X37407200Y-33964285D01*
X37407200Y-33964285D02*
X37454819Y-34107142D01*
X37454819Y-34107142D02*
X37454819Y-34202380D01*
X37454819Y-34202380D02*
X37407200Y-34345237D01*
X37407200Y-34345237D02*
X37311961Y-34440475D01*
X37311961Y-34440475D02*
X37216723Y-34488094D01*
X37216723Y-34488094D02*
X37026247Y-34535713D01*
X37026247Y-34535713D02*
X36883390Y-34535713D01*
X36883390Y-34535713D02*
X36692914Y-34488094D01*
X36692914Y-34488094D02*
X36597676Y-34440475D01*
X36597676Y-34440475D02*
X36502438Y-34345237D01*
X36502438Y-34345237D02*
X36454819Y-34202380D01*
X36454819Y-34202380D02*
X36454819Y-34107142D01*
X36454819Y-34107142D02*
X36502438Y-33964285D01*
X36502438Y-33964285D02*
X36550057Y-33916666D01*
X36788152Y-33059523D02*
X37454819Y-33059523D01*
X36407200Y-33297618D02*
X37121485Y-33535713D01*
X37121485Y-33535713D02*
X37121485Y-32916666D01*
X3184819Y-2333333D02*
X3899104Y-2333333D01*
X3899104Y-2333333D02*
X4041961Y-2380952D01*
X4041961Y-2380952D02*
X4137200Y-2476190D01*
X4137200Y-2476190D02*
X4184819Y-2619047D01*
X4184819Y-2619047D02*
X4184819Y-2714285D01*
X3280057Y-1904761D02*
X3232438Y-1857142D01*
X3232438Y-1857142D02*
X3184819Y-1761904D01*
X3184819Y-1761904D02*
X3184819Y-1523809D01*
X3184819Y-1523809D02*
X3232438Y-1428571D01*
X3232438Y-1428571D02*
X3280057Y-1380952D01*
X3280057Y-1380952D02*
X3375295Y-1333333D01*
X3375295Y-1333333D02*
X3470533Y-1333333D01*
X3470533Y-1333333D02*
X3613390Y-1380952D01*
X3613390Y-1380952D02*
X4184819Y-1952380D01*
X4184819Y-1952380D02*
X4184819Y-1333333D01*
%TO.C,D1*%
D11*
X17710000Y-60455000D02*
X17710000Y-63545000D01*
X17710000Y-60455170D02*
G75*
G02*
X23260000Y-62000462I2560000J-1544830D01*
G01*
X23260000Y-61999538D02*
G75*
G02*
X17710000Y-63544830I-2990000J-462D01*
G01*
X22770000Y-62000000D02*
G75*
G02*
X17770000Y-62000000I-2500000J0D01*
G01*
X17770000Y-62000000D02*
G75*
G02*
X22770000Y-62000000I2500000J0D01*
G01*
%TO.C,C3*%
X16630000Y-4130000D02*
X16630000Y-6870000D01*
X16630000Y-4130000D02*
X21870000Y-4130000D01*
X16630000Y-6870000D02*
X21870000Y-6870000D01*
X21870000Y-4130000D02*
X21870000Y-6870000D01*
%TO.C,J6*%
X12670000Y-60670000D02*
X14000000Y-60670000D01*
X12670000Y-62000000D02*
X12670000Y-60670000D01*
X12670000Y-63270000D02*
X12670000Y-65870000D01*
X12670000Y-63270000D02*
X15330000Y-63270000D01*
X12670000Y-65870000D02*
X15330000Y-65870000D01*
X15330000Y-63270000D02*
X15330000Y-65870000D01*
%TO.C,J5*%
X48670000Y-27270000D02*
X48670000Y-34950000D01*
X48670000Y-27270000D02*
X51330000Y-27270000D01*
X48670000Y-34950000D02*
X51330000Y-34950000D01*
X50000000Y-24670000D02*
X51330000Y-24670000D01*
X51330000Y-24670000D02*
X51330000Y-26000000D01*
X51330000Y-27270000D02*
X51330000Y-34950000D01*
%TO.C,J3*%
X33530000Y-9270000D02*
X33530000Y-55050000D01*
X33530000Y-9270000D02*
X36190000Y-9270000D01*
X33530000Y-55050000D02*
X36190000Y-55050000D01*
X34860000Y-6670000D02*
X36190000Y-6670000D01*
X36190000Y-6670000D02*
X36190000Y-8000000D01*
X36190000Y-9270000D02*
X36190000Y-55050000D01*
%TO.C,C2*%
X39130000Y-43370000D02*
X39130000Y-40630000D01*
X44370000Y-40630000D02*
X39130000Y-40630000D01*
X44370000Y-43370000D02*
X39130000Y-43370000D01*
X44370000Y-43370000D02*
X44370000Y-40630000D01*
%TO.C,SW1*%
X25750000Y-63500000D02*
X25750000Y-65000000D01*
X27000000Y-67500000D02*
X31500000Y-67500000D01*
X31500000Y-61000000D02*
X27000000Y-61000000D01*
X32750000Y-65000000D02*
X32750000Y-63500000D01*
%TO.C,J4*%
X48670000Y-9270000D02*
X48670000Y-19490000D01*
X48670000Y-9270000D02*
X51330000Y-9270000D01*
X48670000Y-19490000D02*
X51330000Y-19490000D01*
X50000000Y-6670000D02*
X51330000Y-6670000D01*
X51330000Y-6670000D02*
X51330000Y-8000000D01*
X51330000Y-9270000D02*
X51330000Y-19490000D01*
%TO.C,R1*%
X43540000Y-60630000D02*
X50080000Y-60630000D01*
X43540000Y-60960000D02*
X43540000Y-60630000D01*
X43540000Y-63040000D02*
X43540000Y-63370000D01*
X43540000Y-63370000D02*
X50080000Y-63370000D01*
X50080000Y-60630000D02*
X50080000Y-60960000D01*
X50080000Y-63370000D02*
X50080000Y-63040000D01*
%TO.C,C1*%
X45509000Y-45402000D02*
X45509000Y-44598000D01*
X45549000Y-45633000D02*
X45549000Y-44367000D01*
X45589000Y-45802000D02*
X45589000Y-44198000D01*
X45629000Y-45940000D02*
X45629000Y-44060000D01*
X45669000Y-46059000D02*
X45669000Y-43941000D01*
X45709000Y-46165000D02*
X45709000Y-43835000D01*
X45749000Y-46262000D02*
X45749000Y-43738000D01*
X45789000Y-46350000D02*
X45789000Y-43650000D01*
X45829000Y-46432000D02*
X45829000Y-43568000D01*
X45869000Y-46509000D02*
X45869000Y-43491000D01*
X45909000Y-46581000D02*
X45909000Y-43419000D01*
X45949000Y-46650000D02*
X45949000Y-43350000D01*
X45989000Y-46714000D02*
X45989000Y-43286000D01*
X46029000Y-46776000D02*
X46029000Y-43224000D01*
X46069000Y-46834000D02*
X46069000Y-43166000D01*
X46109000Y-46890000D02*
X46109000Y-43110000D01*
X46149000Y-46944000D02*
X46149000Y-43056000D01*
X46189000Y-46995000D02*
X46189000Y-43005000D01*
X46229000Y-47044000D02*
X46229000Y-42956000D01*
X46269000Y-47092000D02*
X46269000Y-42908000D01*
X46309000Y-47137000D02*
X46309000Y-42863000D01*
X46349000Y-47182000D02*
X46349000Y-42818000D01*
X46389000Y-47224000D02*
X46389000Y-42776000D01*
X46429000Y-47265000D02*
X46429000Y-42735000D01*
X46469000Y-43960000D02*
X46469000Y-42695000D01*
X46469000Y-47305000D02*
X46469000Y-46040000D01*
X46509000Y-43960000D02*
X46509000Y-42657000D01*
X46509000Y-47343000D02*
X46509000Y-46040000D01*
X46549000Y-43960000D02*
X46549000Y-42620000D01*
X46549000Y-47380000D02*
X46549000Y-46040000D01*
X46589000Y-43960000D02*
X46589000Y-42584000D01*
X46589000Y-47416000D02*
X46589000Y-46040000D01*
X46629000Y-43960000D02*
X46629000Y-42550000D01*
X46629000Y-47450000D02*
X46629000Y-46040000D01*
X46669000Y-43960000D02*
X46669000Y-42516000D01*
X46669000Y-47484000D02*
X46669000Y-46040000D01*
X46709000Y-43960000D02*
X46709000Y-42484000D01*
X46709000Y-47516000D02*
X46709000Y-46040000D01*
X46749000Y-43960000D02*
X46749000Y-42452000D01*
X46749000Y-47548000D02*
X46749000Y-46040000D01*
X46789000Y-43960000D02*
X46789000Y-42422000D01*
X46789000Y-47578000D02*
X46789000Y-46040000D01*
X46829000Y-43960000D02*
X46829000Y-42393000D01*
X46829000Y-47607000D02*
X46829000Y-46040000D01*
X46869000Y-43960000D02*
X46869000Y-42364000D01*
X46869000Y-47636000D02*
X46869000Y-46040000D01*
X46909000Y-43960000D02*
X46909000Y-42336000D01*
X46909000Y-47664000D02*
X46909000Y-46040000D01*
X46949000Y-43960000D02*
X46949000Y-42310000D01*
X46949000Y-47690000D02*
X46949000Y-46040000D01*
X46989000Y-43960000D02*
X46989000Y-42284000D01*
X46989000Y-47716000D02*
X46989000Y-46040000D01*
X47029000Y-43960000D02*
X47029000Y-42258000D01*
X47029000Y-47742000D02*
X47029000Y-46040000D01*
X47069000Y-43960000D02*
X47069000Y-42234000D01*
X47069000Y-47766000D02*
X47069000Y-46040000D01*
X47109000Y-43960000D02*
X47109000Y-42210000D01*
X47109000Y-47790000D02*
X47109000Y-46040000D01*
X47149000Y-43960000D02*
X47149000Y-42188000D01*
X47149000Y-47812000D02*
X47149000Y-46040000D01*
X47189000Y-43960000D02*
X47189000Y-42166000D01*
X47189000Y-47834000D02*
X47189000Y-46040000D01*
X47229000Y-43960000D02*
X47229000Y-42144000D01*
X47229000Y-47856000D02*
X47229000Y-46040000D01*
X47269000Y-43960000D02*
X47269000Y-42124000D01*
X47269000Y-47876000D02*
X47269000Y-46040000D01*
X47309000Y-43960000D02*
X47309000Y-42104000D01*
X47309000Y-47896000D02*
X47309000Y-46040000D01*
X47349000Y-43960000D02*
X47349000Y-42084000D01*
X47349000Y-47916000D02*
X47349000Y-46040000D01*
X47389000Y-43960000D02*
X47389000Y-42066000D01*
X47389000Y-47934000D02*
X47389000Y-46040000D01*
X47429000Y-43960000D02*
X47429000Y-42048000D01*
X47429000Y-47952000D02*
X47429000Y-46040000D01*
X47469000Y-43960000D02*
X47469000Y-42030000D01*
X47469000Y-47970000D02*
X47469000Y-46040000D01*
X47509000Y-43960000D02*
X47509000Y-42014000D01*
X47509000Y-47986000D02*
X47509000Y-46040000D01*
X47549000Y-43960000D02*
X47549000Y-41998000D01*
X47549000Y-48002000D02*
X47549000Y-46040000D01*
X47589000Y-43960000D02*
X47589000Y-41982000D01*
X47589000Y-48018000D02*
X47589000Y-46040000D01*
X47629000Y-43960000D02*
X47629000Y-41967000D01*
X47629000Y-48033000D02*
X47629000Y-46040000D01*
X47669000Y-43960000D02*
X47669000Y-41953000D01*
X47669000Y-48047000D02*
X47669000Y-46040000D01*
X47709000Y-43960000D02*
X47709000Y-41939000D01*
X47709000Y-48061000D02*
X47709000Y-46040000D01*
X47749000Y-43960000D02*
X47749000Y-41926000D01*
X47749000Y-48074000D02*
X47749000Y-46040000D01*
X47789000Y-43960000D02*
X47789000Y-41914000D01*
X47789000Y-48086000D02*
X47789000Y-46040000D01*
X47829000Y-43960000D02*
X47829000Y-41902000D01*
X47829000Y-48098000D02*
X47829000Y-46040000D01*
X47869000Y-43960000D02*
X47869000Y-41890000D01*
X47869000Y-48110000D02*
X47869000Y-46040000D01*
X47909000Y-43960000D02*
X47909000Y-41879000D01*
X47909000Y-48121000D02*
X47909000Y-46040000D01*
X47949000Y-43960000D02*
X47949000Y-41869000D01*
X47949000Y-48131000D02*
X47949000Y-46040000D01*
X47989000Y-43960000D02*
X47989000Y-41859000D01*
X47989000Y-48141000D02*
X47989000Y-46040000D01*
X48029000Y-43960000D02*
X48029000Y-41850000D01*
X48029000Y-48150000D02*
X48029000Y-46040000D01*
X48070000Y-43960000D02*
X48070000Y-41841000D01*
X48070000Y-48159000D02*
X48070000Y-46040000D01*
X48110000Y-43960000D02*
X48110000Y-41833000D01*
X48110000Y-48167000D02*
X48110000Y-46040000D01*
X48150000Y-43960000D02*
X48150000Y-41825000D01*
X48150000Y-48175000D02*
X48150000Y-46040000D01*
X48190000Y-43960000D02*
X48190000Y-41818000D01*
X48190000Y-48182000D02*
X48190000Y-46040000D01*
X48230000Y-43960000D02*
X48230000Y-41811000D01*
X48230000Y-48189000D02*
X48230000Y-46040000D01*
X48270000Y-43960000D02*
X48270000Y-41805000D01*
X48270000Y-48195000D02*
X48270000Y-46040000D01*
X48310000Y-43960000D02*
X48310000Y-41799000D01*
X48310000Y-48201000D02*
X48310000Y-46040000D01*
X48350000Y-43960000D02*
X48350000Y-41794000D01*
X48350000Y-48206000D02*
X48350000Y-46040000D01*
X48390000Y-43960000D02*
X48390000Y-41789000D01*
X48390000Y-48211000D02*
X48390000Y-46040000D01*
X48430000Y-43960000D02*
X48430000Y-41785000D01*
X48430000Y-48215000D02*
X48430000Y-46040000D01*
X48470000Y-43960000D02*
X48470000Y-41782000D01*
X48470000Y-48218000D02*
X48470000Y-46040000D01*
X48510000Y-43960000D02*
X48510000Y-41778000D01*
X48510000Y-48222000D02*
X48510000Y-46040000D01*
X48550000Y-48224000D02*
X48550000Y-41776000D01*
X48590000Y-48227000D02*
X48590000Y-41773000D01*
X48630000Y-48228000D02*
X48630000Y-41772000D01*
X48670000Y-48230000D02*
X48670000Y-41770000D01*
X48710000Y-48230000D02*
X48710000Y-41770000D01*
X48750000Y-48230000D02*
X48750000Y-41770000D01*
X51935241Y-47154000D02*
X51935241Y-46524000D01*
X52250241Y-46839000D02*
X51620241Y-46839000D01*
X52020000Y-45000000D02*
G75*
G02*
X45480000Y-45000000I-3270000J0D01*
G01*
X45480000Y-45000000D02*
G75*
G02*
X52020000Y-45000000I3270000J0D01*
G01*
%TO.C,J1*%
X10670000Y-9270000D02*
X10670000Y-55050000D01*
X10670000Y-9270000D02*
X13330000Y-9270000D01*
X10670000Y-55050000D02*
X13330000Y-55050000D01*
X12000000Y-6670000D02*
X13330000Y-6670000D01*
X13330000Y-6670000D02*
X13330000Y-8000000D01*
X13330000Y-9270000D02*
X13330000Y-55050000D01*
%TO.C,C4*%
X38130000Y-31130000D02*
X40870000Y-31130000D01*
X38130000Y-36370000D02*
X38130000Y-31130000D01*
X38130000Y-36370000D02*
X40870000Y-36370000D01*
X40870000Y-36370000D02*
X40870000Y-31130000D01*
%TO.C,J2*%
X5170000Y-670000D02*
X6500000Y-670000D01*
X5170000Y-2000000D02*
X5170000Y-670000D01*
X7770000Y-670000D02*
X20530000Y-670000D01*
X7770000Y-3330000D02*
X7770000Y-670000D01*
X7770000Y-3330000D02*
X20530000Y-3330000D01*
X20530000Y-3330000D02*
X20530000Y-670000D01*
%TD*%
M02*
