%TF.GenerationSoftware,KiCad,Pcbnew,10.0.6-10.0.6~ubuntu22.04.1*%
%TF.CreationDate,2026-09-29T13:37:09+08:00*%
%TF.ProjectId,shield,73686965-6c64-42e6-9b69-6361645f7063,rev?*%
%TF.SameCoordinates,Original*%
%TF.FileFunction,Copper,L2,Bot*%
%TF.FilePolarity,Positive*%
%FSLAX46Y46*%
G04 Gerber Fmt 4.6, Leading zero omitted, Abs format (unit mm)*
G04 Created by KiCad (PCBNEW 10.0.6-10.0.6~ubuntu22.04.1) date 2026-09-29 13:37:09*
%MOMM*%
%LPD*%
G01*
G04 APERTURE LIST*
%TA.AperFunction,ComponentPad*%
%ADD10R,1.800000X1.800000*%
%TD*%
%TA.AperFunction,ComponentPad*%
%ADD11C,1.800000*%
%TD*%
%TA.AperFunction,ComponentPad*%
%ADD12R,1.700000X1.700000*%
%TD*%
%TA.AperFunction,ComponentPad*%
%ADD13O,1.700000X1.700000*%
%TD*%
%TA.AperFunction,ComponentPad*%
%ADD14C,1.600000*%
%TD*%
%TA.AperFunction,ComponentPad*%
%ADD15R,1.600000X1.600000*%
%TD*%
%TA.AperFunction,ComponentPad*%
%ADD16C,2.000000*%
%TD*%
%TA.AperFunction,ComponentPad*%
%ADD17O,1.600000X1.600000*%
%TD*%
%TA.AperFunction,ViaPad*%
%ADD18C,0.800000*%
%TD*%
%TA.AperFunction,Conductor*%
%ADD19C,0.300000*%
%TD*%
G04 APERTURE END LIST*
D10*
%TO.P,D1,1*%
%TO.N,LED_A*%
X19000000Y-62000000D03*
D11*
%TO.P,D1,2*%
%TO.N,GND*%
X21540000Y-62000000D03*
%TD*%
D12*
%TO.P,J5,1*%
%TO.N,GND*%
X50000000Y-26000000D03*
D13*
%TO.P,J5,2*%
%TO.N,3V3*%
X50000000Y-28540000D03*
%TO.P,J5,3*%
%TO.N,OLED_SCL*%
X50000000Y-31080000D03*
%TO.P,J5,4*%
%TO.N,OLED_SDA*%
X50000000Y-33620000D03*
%TD*%
D14*
%TO.P,C2,1*%
%TO.N,3V3*%
X52000000Y-4500000D03*
%TO.P,C2,2*%
%TO.N,GND*%
X52000000Y-2000000D03*
%TD*%
D12*
%TO.P,J1,1*%
%TO.N,3V3*%
X12000000Y-8000000D03*
D13*
%TO.P,J1,2*%
%TO.N,N/C*%
X12000000Y-10540000D03*
%TO.P,J1,3*%
%TO.N,MIC_WS*%
X12000000Y-13080000D03*
%TO.P,J1,4*%
%TO.N,MIC_BCLK*%
X12000000Y-15620000D03*
%TO.P,J1,5*%
%TO.N,MIC_SD*%
X12000000Y-18160000D03*
%TO.P,J1,6*%
%TO.N,AMP_DIN*%
X12000000Y-20700000D03*
%TO.P,J1,7*%
%TO.N,AMP_BCLK*%
X12000000Y-23240000D03*
%TO.P,J1,8*%
%TO.N,AMP_LRC*%
X12000000Y-25780000D03*
%TO.P,J1,9*%
%TO.N,N/C*%
X12000000Y-28320000D03*
%TO.P,J1,10*%
X12000000Y-30860000D03*
%TO.P,J1,11*%
X12000000Y-33400000D03*
%TO.P,J1,12*%
X12000000Y-35940000D03*
%TO.P,J1,13*%
X12000000Y-38480000D03*
%TO.P,J1,14*%
X12000000Y-41020000D03*
%TO.P,J1,15*%
X12000000Y-43560000D03*
%TO.P,J1,16*%
X12000000Y-46100000D03*
%TO.P,J1,17*%
X12000000Y-48640000D03*
%TO.P,J1,18*%
X12000000Y-51180000D03*
%TO.P,J1,19*%
X12000000Y-53720000D03*
%TD*%
D15*
%TO.P,C1,1*%
%TO.N,3V3*%
X50000000Y-45000000D03*
D14*
%TO.P,C1,2*%
%TO.N,GND*%
X47500000Y-45000000D03*
%TD*%
%TO.P,C4,1*%
%TO.N,3V3*%
X42000000Y-36000000D03*
%TO.P,C4,2*%
%TO.N,GND*%
X44500000Y-36000000D03*
%TD*%
D12*
%TO.P,J2,1*%
%TO.N,GND*%
X7400000Y-9500000D03*
D13*
%TO.P,J2,2*%
X9940000Y-9500000D03*
%TO.P,J2,3*%
%TO.N,MIC_WS*%
X7400000Y-6960000D03*
%TO.P,J2,4*%
%TO.N,3V3*%
X9940000Y-6960000D03*
%TO.P,J2,5*%
%TO.N,MIC_BCLK*%
X7400000Y-4420000D03*
%TO.P,J2,6*%
%TO.N,MIC_SD*%
X9940000Y-4420000D03*
%TD*%
D14*
%TO.P,C3,1*%
%TO.N,3V3*%
X15200000Y-5000000D03*
%TO.P,C3,2*%
%TO.N,GND*%
X15200000Y-2500000D03*
%TD*%
D16*
%TO.P,SW1,1*%
%TO.N,KEY*%
X26000000Y-62000000D03*
X32500000Y-62000000D03*
%TO.P,SW1,2*%
%TO.N,GND*%
X26000000Y-66500000D03*
X32500000Y-66500000D03*
%TD*%
D14*
%TO.P,R1,1*%
%TO.N,LIGHT*%
X43000000Y-62000000D03*
D17*
%TO.P,R1,2*%
%TO.N,LED_A*%
X50620000Y-62000000D03*
%TD*%
D12*
%TO.P,J3,1*%
%TO.N,N/C*%
X34860000Y-8000000D03*
D13*
%TO.P,J3,2*%
X34860000Y-10540000D03*
%TO.P,J3,3*%
X34860000Y-13080000D03*
%TO.P,J3,4*%
X34860000Y-15620000D03*
%TO.P,J3,5*%
X34860000Y-18160000D03*
%TO.P,J3,6*%
X34860000Y-20700000D03*
%TO.P,J3,7*%
%TO.N,OLED_SCL*%
X34860000Y-23240000D03*
%TO.P,J3,8*%
%TO.N,OLED_SDA*%
X34860000Y-25780000D03*
%TO.P,J3,9*%
%TO.N,N/C*%
X34860000Y-28320000D03*
%TO.P,J3,10*%
X34860000Y-30860000D03*
%TO.P,J3,11*%
%TO.N,LIGHT*%
X34860000Y-33400000D03*
%TO.P,J3,12*%
%TO.N,N/C*%
X34860000Y-35940000D03*
%TO.P,J3,13*%
X34860000Y-38480000D03*
%TO.P,J3,14*%
X34860000Y-41020000D03*
%TO.P,J3,15*%
%TO.N,KEY*%
X34860000Y-43560000D03*
%TO.P,J3,16*%
%TO.N,N/C*%
X34860000Y-46100000D03*
%TO.P,J3,17*%
X34860000Y-48640000D03*
%TO.P,J3,18*%
X34860000Y-51180000D03*
%TO.P,J3,19*%
X34860000Y-53720000D03*
%TD*%
D12*
%TO.P,J4,1*%
%TO.N,3V3*%
X50000000Y-8000000D03*
D13*
%TO.P,J4,2*%
%TO.N,GND*%
X50000000Y-10540000D03*
%TO.P,J4,3*%
%TO.N,N/C*%
X50000000Y-13080000D03*
%TO.P,J4,4*%
X50000000Y-15620000D03*
%TO.P,J4,5*%
%TO.N,AMP_DIN*%
X50000000Y-18160000D03*
%TO.P,J4,6*%
%TO.N,AMP_BCLK*%
X50000000Y-20700000D03*
%TO.P,J4,7*%
%TO.N,AMP_LRC*%
X50000000Y-23240000D03*
%TD*%
D12*
%TO.P,J6,1*%
%TO.N,N/C*%
X14000000Y-62000000D03*
D13*
%TO.P,J6,2*%
X14000000Y-64540000D03*
%TD*%
D18*
%TO.N,GND*%
X59000000Y-13000000D03*
X59000000Y-41000000D03*
X3000000Y-41000000D03*
X32000000Y-3000000D03*
X59000000Y-20000000D03*
X3000000Y-48000000D03*
X48000000Y-65000000D03*
X3000000Y-55000000D03*
X32000000Y-65000000D03*
X40000000Y-3000000D03*
X3000000Y-20000000D03*
X3000000Y-34000000D03*
X24000000Y-65000000D03*
X40000000Y-65000000D03*
X3000000Y-13000000D03*
X59000000Y-34000000D03*
X24000000Y-3000000D03*
X3000000Y-27000000D03*
X59000000Y-27000000D03*
X59000000Y-55000000D03*
X59000000Y-48000000D03*
X48000000Y-3000000D03*
X8000000Y-65000000D03*
%TO.N,AMP_LRC*%
X18000000Y-25780000D03*
%TD*%
%TO.N,GND*%
D19*
X44500000Y-36000000D02*
X44500000Y-38500000D01*
X44500000Y-38500000D02*
X41000000Y-38500000D01*
%TO.N,3V3*%
X42000000Y-36000000D02*
X42000000Y-37200000D01*
X8680000Y-21970000D02*
X52300000Y-21970000D01*
X52300000Y-8000000D02*
X50000000Y-8000000D01*
X12000000Y-7700000D02*
X8680000Y-7700000D01*
X36500000Y-24000000D02*
X48000000Y-24000000D01*
X33000000Y-37200000D02*
X33000000Y-22000000D01*
X9940000Y-7800000D02*
X9940000Y-6960000D01*
X22600000Y-21970000D02*
X24000000Y-21970000D01*
X15200000Y-5000000D02*
X15200000Y-7700000D01*
X8680000Y-7700000D02*
X10300000Y-7700000D01*
X8680000Y-7700000D02*
X8680000Y-21970000D01*
X24000000Y-22000000D02*
X36500000Y-22000000D01*
X36500000Y-22000000D02*
X36500000Y-24000000D01*
X12000000Y-8000000D02*
X12000000Y-7700000D01*
X15200000Y-7700000D02*
X8680000Y-7700000D01*
X48000000Y-24000000D02*
X48000000Y-28540000D01*
X52000000Y-4500000D02*
X52000000Y-21970000D01*
X33000000Y-22000000D02*
X36500000Y-22000000D01*
X48000000Y-28540000D02*
X50000000Y-28540000D01*
X10300000Y-7800000D02*
X9940000Y-7800000D01*
X24000000Y-21970000D02*
X24000000Y-22000000D01*
X52300000Y-21970000D02*
X52300000Y-8000000D01*
X42000000Y-37200000D02*
X33000000Y-37200000D01*
X10300000Y-7700000D02*
X10300000Y-7800000D01*
%TO.N,OLED_SDA*%
X34860000Y-25780000D02*
X41000000Y-25780000D01*
X41000000Y-25780000D02*
X41000000Y-33620000D01*
X41000000Y-33620000D02*
X50000000Y-33620000D01*
%TO.N,MIC_SD*%
X9940000Y-1200000D02*
X21900000Y-1200000D01*
X21900000Y-1200000D02*
X21900000Y-19430000D01*
X9940000Y-4420000D02*
X9940000Y-1200000D01*
X21900000Y-19430000D02*
X12000000Y-19430000D01*
X12000000Y-19430000D02*
X12000000Y-18160000D01*
%TO.N,AMP_LRC*%
X18000000Y-39750000D02*
X52300000Y-39750000D01*
X52300000Y-39750000D02*
X52300000Y-23240000D01*
X18000000Y-25780000D02*
X18000000Y-39750000D01*
X52300000Y-23240000D02*
X50000000Y-23240000D01*
%TD*%
%TA.AperFunction,Conductor*%
%TO.N,GND*%
G36*
X9233114Y-1019685D02*
G01*
X9278869Y-1072489D01*
X9288426Y-1129839D01*
X9289500Y-1129839D01*
X9289500Y-3160382D01*
X9269815Y-3227421D01*
X9235408Y-3261099D01*
X9236125Y-3262085D01*
X9060213Y-3389890D01*
X8909890Y-3540213D01*
X8784949Y-3712182D01*
X8780484Y-3720946D01*
X8732509Y-3771742D01*
X8664688Y-3788536D01*
X8598553Y-3765998D01*
X8559516Y-3720946D01*
X8555050Y-3712182D01*
X8430109Y-3540213D01*
X8279786Y-3389890D01*
X8107820Y-3264951D01*
X7918414Y-3168444D01*
X7918413Y-3168443D01*
X7918412Y-3168443D01*
X7716243Y-3102754D01*
X7716241Y-3102753D01*
X7716240Y-3102753D01*
X7554957Y-3077208D01*
X7506287Y-3069500D01*
X7293713Y-3069500D01*
X7245042Y-3077208D01*
X7083760Y-3102753D01*
X6881585Y-3168444D01*
X6692179Y-3264951D01*
X6520213Y-3389890D01*
X6369890Y-3540213D01*
X6244951Y-3712179D01*
X6148444Y-3901585D01*
X6148443Y-3901587D01*
X6148443Y-3901588D01*
X6113857Y-4008034D01*
X6092431Y-4073975D01*
X6052993Y-4131651D01*
X5988635Y-4158849D01*
X5919788Y-4146934D01*
X5868313Y-4099690D01*
X5850500Y-4035657D01*
X5850500Y-3878711D01*
X5835661Y-3765998D01*
X5818838Y-3638211D01*
X5756054Y-3403900D01*
X5663224Y-3179788D01*
X5541936Y-2969711D01*
X5394265Y-2777262D01*
X5394260Y-2777256D01*
X5222743Y-2605739D01*
X5222736Y-2605733D01*
X5030293Y-2458067D01*
X5030292Y-2458066D01*
X5030289Y-2458064D01*
X4820212Y-2336776D01*
X4820205Y-2336773D01*
X4596104Y-2243947D01*
X4361785Y-2181161D01*
X4121289Y-2149500D01*
X4121288Y-2149500D01*
X3878712Y-2149500D01*
X3878711Y-2149500D01*
X3638214Y-2181161D01*
X3403895Y-2243947D01*
X3179794Y-2336773D01*
X3179785Y-2336777D01*
X2969706Y-2458067D01*
X2777263Y-2605733D01*
X2777256Y-2605739D01*
X2605739Y-2777256D01*
X2605733Y-2777263D01*
X2458067Y-2969706D01*
X2336777Y-3179785D01*
X2336773Y-3179794D01*
X2243947Y-3403895D01*
X2181161Y-3638214D01*
X2149500Y-3878711D01*
X2149500Y-4121288D01*
X2175448Y-4318390D01*
X2181162Y-4361789D01*
X2194274Y-4410724D01*
X2243947Y-4596104D01*
X2301993Y-4736239D01*
X2336776Y-4820212D01*
X2458064Y-5030289D01*
X2458066Y-5030292D01*
X2458067Y-5030293D01*
X2605733Y-5222736D01*
X2605739Y-5222743D01*
X2777256Y-5394260D01*
X2777262Y-5394265D01*
X2969711Y-5541936D01*
X3179788Y-5663224D01*
X3403900Y-5756054D01*
X3638211Y-5818838D01*
X3818586Y-5842584D01*
X3878711Y-5850500D01*
X3878712Y-5850500D01*
X4121289Y-5850500D01*
X4169388Y-5844167D01*
X4361789Y-5818838D01*
X4596100Y-5756054D01*
X4820212Y-5663224D01*
X5030289Y-5541936D01*
X5222738Y-5394265D01*
X5394265Y-5222738D01*
X5541936Y-5030289D01*
X5663224Y-4820212D01*
X5756054Y-4596100D01*
X5805726Y-4410721D01*
X5842090Y-4351064D01*
X5904937Y-4320535D01*
X5974313Y-4328830D01*
X6028191Y-4373315D01*
X6049465Y-4439867D01*
X6049500Y-4442818D01*
X6049500Y-4526286D01*
X6076295Y-4695466D01*
X6082754Y-4736243D01*
X6110037Y-4820212D01*
X6148444Y-4938414D01*
X6244951Y-5127820D01*
X6369890Y-5299786D01*
X6520213Y-5450109D01*
X6692182Y-5575050D01*
X6700946Y-5579516D01*
X6751742Y-5627491D01*
X6768536Y-5695312D01*
X6745998Y-5761447D01*
X6700946Y-5800484D01*
X6692182Y-5804949D01*
X6520213Y-5929890D01*
X6369890Y-6080213D01*
X6244951Y-6252179D01*
X6148444Y-6441585D01*
X6082753Y-6643760D01*
X6059202Y-6792455D01*
X6049500Y-6853713D01*
X6049500Y-7066287D01*
X6082754Y-7276243D01*
X6139811Y-7451847D01*
X6148444Y-7478414D01*
X6244951Y-7667820D01*
X6369890Y-7839786D01*
X6520213Y-7990109D01*
X6692179Y-8115048D01*
X6692181Y-8115049D01*
X6692184Y-8115051D01*
X6881588Y-8211557D01*
X7083757Y-8277246D01*
X7293713Y-8310500D01*
X7293714Y-8310500D01*
X7506286Y-8310500D01*
X7506287Y-8310500D01*
X7716243Y-8277246D01*
X7867184Y-8228201D01*
X7937023Y-8226207D01*
X7996856Y-8262287D01*
X8027684Y-8324988D01*
X8029500Y-8346133D01*
X8029500Y-22034069D01*
X8029500Y-22034071D01*
X8029499Y-22034071D01*
X8054497Y-22159738D01*
X8054499Y-22159744D01*
X8103533Y-22278124D01*
X8103538Y-22278133D01*
X8174723Y-22384668D01*
X8174726Y-22384672D01*
X8265327Y-22475273D01*
X8265331Y-22475276D01*
X8371866Y-22546461D01*
X8371872Y-22546464D01*
X8371873Y-22546465D01*
X8490256Y-22595501D01*
X8490260Y-22595501D01*
X8490261Y-22595502D01*
X8615928Y-22620500D01*
X8615931Y-22620500D01*
X8744069Y-22620500D01*
X10610617Y-22620500D01*
X10677656Y-22640185D01*
X10723411Y-22692989D01*
X10733355Y-22762147D01*
X10728548Y-22782818D01*
X10682753Y-22923759D01*
X10649500Y-23133713D01*
X10649500Y-23346286D01*
X10673010Y-23494726D01*
X10682754Y-23556243D01*
X10692205Y-23585331D01*
X10748444Y-23758414D01*
X10844951Y-23947820D01*
X10969890Y-24119786D01*
X11120213Y-24270109D01*
X11292182Y-24395050D01*
X11300946Y-24399516D01*
X11351742Y-24447491D01*
X11368536Y-24515312D01*
X11345998Y-24581447D01*
X11300946Y-24620484D01*
X11292182Y-24624949D01*
X11120213Y-24749890D01*
X10969890Y-24900213D01*
X10844951Y-25072179D01*
X10748444Y-25261585D01*
X10682753Y-25463760D01*
X10649500Y-25673713D01*
X10649500Y-25886286D01*
X10682753Y-26096239D01*
X10748444Y-26298414D01*
X10844951Y-26487820D01*
X10969890Y-26659786D01*
X11120213Y-26810109D01*
X11292182Y-26935050D01*
X11300946Y-26939516D01*
X11351742Y-26987491D01*
X11368536Y-27055312D01*
X11345998Y-27121447D01*
X11300946Y-27160484D01*
X11292182Y-27164949D01*
X11120213Y-27289890D01*
X10969890Y-27440213D01*
X10844951Y-27612179D01*
X10748444Y-27801585D01*
X10682753Y-28003760D01*
X10649500Y-28213713D01*
X10649500Y-28426287D01*
X10682754Y-28636243D01*
X10713134Y-28729744D01*
X10748444Y-28838414D01*
X10844951Y-29027820D01*
X10969890Y-29199786D01*
X11120213Y-29350109D01*
X11292182Y-29475050D01*
X11300946Y-29479516D01*
X11351742Y-29527491D01*
X11368536Y-29595312D01*
X11345998Y-29661447D01*
X11300946Y-29700484D01*
X11292182Y-29704949D01*
X11120213Y-29829890D01*
X10969890Y-29980213D01*
X10844951Y-30152179D01*
X10748444Y-30341585D01*
X10682753Y-30543760D01*
X10649500Y-30753713D01*
X10649500Y-30966286D01*
X10682753Y-31176239D01*
X10748444Y-31378414D01*
X10844951Y-31567820D01*
X10969890Y-31739786D01*
X11120213Y-31890109D01*
X11292182Y-32015050D01*
X11300946Y-32019516D01*
X11351742Y-32067491D01*
X11368536Y-32135312D01*
X11345998Y-32201447D01*
X11300946Y-32240484D01*
X11292182Y-32244949D01*
X11120213Y-32369890D01*
X10969890Y-32520213D01*
X10844951Y-32692179D01*
X10748444Y-32881585D01*
X10682753Y-33083760D01*
X10649500Y-33293713D01*
X10649500Y-33506287D01*
X10682754Y-33716243D01*
X10713134Y-33809744D01*
X10748444Y-33918414D01*
X10844951Y-34107820D01*
X10969890Y-34279786D01*
X11120213Y-34430109D01*
X11292182Y-34555050D01*
X11300946Y-34559516D01*
X11351742Y-34607491D01*
X11368536Y-34675312D01*
X11345998Y-34741447D01*
X11300946Y-34780484D01*
X11292182Y-34784949D01*
X11120213Y-34909890D01*
X10969890Y-35060213D01*
X10844951Y-35232179D01*
X10748444Y-35421585D01*
X10682753Y-35623760D01*
X10649500Y-35833713D01*
X10649500Y-36046286D01*
X10682753Y-36256239D01*
X10682753Y-36256241D01*
X10682754Y-36256243D01*
X10732015Y-36407853D01*
X10748444Y-36458414D01*
X10844951Y-36647820D01*
X10969890Y-36819786D01*
X11120213Y-36970109D01*
X11292182Y-37095050D01*
X11300946Y-37099516D01*
X11351742Y-37147491D01*
X11368536Y-37215312D01*
X11345998Y-37281447D01*
X11300946Y-37320484D01*
X11292182Y-37324949D01*
X11120213Y-37449890D01*
X10969890Y-37600213D01*
X10844951Y-37772179D01*
X10748444Y-37961585D01*
X10682753Y-38163760D01*
X10649500Y-38373713D01*
X10649500Y-38586286D01*
X10682753Y-38796239D01*
X10682753Y-38796241D01*
X10682754Y-38796243D01*
X10740998Y-38975500D01*
X10748444Y-38998414D01*
X10844951Y-39187820D01*
X10969890Y-39359786D01*
X11120213Y-39510109D01*
X11292182Y-39635050D01*
X11300946Y-39639516D01*
X11351742Y-39687491D01*
X11368536Y-39755312D01*
X11345998Y-39821447D01*
X11300946Y-39860484D01*
X11292182Y-39864949D01*
X11120213Y-39989890D01*
X10969890Y-40140213D01*
X10844951Y-40312179D01*
X10748444Y-40501585D01*
X10682753Y-40703760D01*
X10649500Y-40913713D01*
X10649500Y-41126286D01*
X10682753Y-41336239D01*
X10748444Y-41538414D01*
X10844951Y-41727820D01*
X10969890Y-41899786D01*
X11120213Y-42050109D01*
X11292182Y-42175050D01*
X11300946Y-42179516D01*
X11351742Y-42227491D01*
X11368536Y-42295312D01*
X11345998Y-42361447D01*
X11300946Y-42400484D01*
X11292182Y-42404949D01*
X11120213Y-42529890D01*
X10969890Y-42680213D01*
X10844951Y-42852179D01*
X10748444Y-43041585D01*
X10682753Y-43243760D01*
X10649500Y-43453713D01*
X10649500Y-43666287D01*
X10654761Y-43699501D01*
X10663741Y-43756204D01*
X10682754Y-43876243D01*
X10709209Y-43957664D01*
X10748444Y-44078414D01*
X10844951Y-44267820D01*
X10969890Y-44439786D01*
X11120213Y-44590109D01*
X11292182Y-44715050D01*
X11300946Y-44719516D01*
X11351742Y-44767491D01*
X11368536Y-44835312D01*
X11345998Y-44901447D01*
X11300946Y-44940484D01*
X11292182Y-44944949D01*
X11120213Y-45069890D01*
X10969890Y-45220213D01*
X10844951Y-45392179D01*
X10748444Y-45581585D01*
X10682753Y-45783760D01*
X10649500Y-45993713D01*
X10649500Y-46206286D01*
X10682753Y-46416239D01*
X10748444Y-46618414D01*
X10844951Y-46807820D01*
X10969890Y-46979786D01*
X11120213Y-47130109D01*
X11292182Y-47255050D01*
X11300946Y-47259516D01*
X11351742Y-47307491D01*
X11368536Y-47375312D01*
X11345998Y-47441447D01*
X11300946Y-47480484D01*
X11292182Y-47484949D01*
X11120213Y-47609890D01*
X10969890Y-47760213D01*
X10844951Y-47932179D01*
X10748444Y-48121585D01*
X10682753Y-48323760D01*
X10649500Y-48533713D01*
X10649500Y-48746286D01*
X10682753Y-48956239D01*
X10748444Y-49158414D01*
X10844951Y-49347820D01*
X10969890Y-49519786D01*
X11120213Y-49670109D01*
X11292182Y-49795050D01*
X11300946Y-49799516D01*
X11351742Y-49847491D01*
X11368536Y-49915312D01*
X11345998Y-49981447D01*
X11300946Y-50020484D01*
X11292182Y-50024949D01*
X11120213Y-50149890D01*
X10969890Y-50300213D01*
X10844951Y-50472179D01*
X10748444Y-50661585D01*
X10682753Y-50863760D01*
X10649500Y-51073713D01*
X10649500Y-51286286D01*
X10682753Y-51496239D01*
X10748444Y-51698414D01*
X10844951Y-51887820D01*
X10969890Y-52059786D01*
X11120213Y-52210109D01*
X11292182Y-52335050D01*
X11300946Y-52339516D01*
X11351742Y-52387491D01*
X11368536Y-52455312D01*
X11345998Y-52521447D01*
X11300946Y-52560484D01*
X11292182Y-52564949D01*
X11120213Y-52689890D01*
X10969890Y-52840213D01*
X10844951Y-53012179D01*
X10748444Y-53201585D01*
X10682753Y-53403760D01*
X10649500Y-53613713D01*
X10649500Y-53826286D01*
X10682753Y-54036239D01*
X10748444Y-54238414D01*
X10844951Y-54427820D01*
X10969890Y-54599786D01*
X11120213Y-54750109D01*
X11292179Y-54875048D01*
X11292181Y-54875049D01*
X11292184Y-54875051D01*
X11481588Y-54971557D01*
X11683757Y-55037246D01*
X11893713Y-55070500D01*
X11893714Y-55070500D01*
X12106286Y-55070500D01*
X12106287Y-55070500D01*
X12316243Y-55037246D01*
X12518412Y-54971557D01*
X12707816Y-54875051D01*
X12729789Y-54859086D01*
X12879786Y-54750109D01*
X12879788Y-54750106D01*
X12879792Y-54750104D01*
X13030104Y-54599792D01*
X13030106Y-54599788D01*
X13030109Y-54599786D01*
X13155048Y-54427820D01*
X13155047Y-54427820D01*
X13155051Y-54427816D01*
X13251557Y-54238412D01*
X13317246Y-54036243D01*
X13350500Y-53826287D01*
X13350500Y-53613713D01*
X13317246Y-53403757D01*
X13251557Y-53201588D01*
X13155051Y-53012184D01*
X13155049Y-53012181D01*
X13155048Y-53012179D01*
X13030109Y-52840213D01*
X12879786Y-52689890D01*
X12707820Y-52564951D01*
X12707115Y-52564591D01*
X12699054Y-52560485D01*
X12648259Y-52512512D01*
X12631463Y-52444692D01*
X12653999Y-52378556D01*
X12699054Y-52339515D01*
X12707816Y-52335051D01*
X12729789Y-52319086D01*
X12879786Y-52210109D01*
X12879788Y-52210106D01*
X12879792Y-52210104D01*
X13030104Y-52059792D01*
X13030106Y-52059788D01*
X13030109Y-52059786D01*
X13155048Y-51887820D01*
X13155047Y-51887820D01*
X13155051Y-51887816D01*
X13251557Y-51698412D01*
X13317246Y-51496243D01*
X13350500Y-51286287D01*
X13350500Y-51073713D01*
X13317246Y-50863757D01*
X13251557Y-50661588D01*
X13155051Y-50472184D01*
X13155049Y-50472181D01*
X13155048Y-50472179D01*
X13030109Y-50300213D01*
X12879786Y-50149890D01*
X12707820Y-50024951D01*
X12707115Y-50024591D01*
X12699054Y-50020485D01*
X12648259Y-49972512D01*
X12631463Y-49904692D01*
X12653999Y-49838556D01*
X12699054Y-49799515D01*
X12707816Y-49795051D01*
X12729789Y-49779086D01*
X12879786Y-49670109D01*
X12879788Y-49670106D01*
X12879792Y-49670104D01*
X13030104Y-49519792D01*
X13030106Y-49519788D01*
X13030109Y-49519786D01*
X13155048Y-49347820D01*
X13155047Y-49347820D01*
X13155051Y-49347816D01*
X13251557Y-49158412D01*
X13317246Y-48956243D01*
X13350500Y-48746287D01*
X13350500Y-48533713D01*
X13317246Y-48323757D01*
X13251557Y-48121588D01*
X13155051Y-47932184D01*
X13155049Y-47932181D01*
X13155048Y-47932179D01*
X13030109Y-47760213D01*
X12879786Y-47609890D01*
X12707820Y-47484951D01*
X12707115Y-47484591D01*
X12699054Y-47480485D01*
X12648259Y-47432512D01*
X12631463Y-47364692D01*
X12653999Y-47298556D01*
X12699054Y-47259515D01*
X12707816Y-47255051D01*
X12729789Y-47239086D01*
X12879786Y-47130109D01*
X12879788Y-47130106D01*
X12879792Y-47130104D01*
X13030104Y-46979792D01*
X13030106Y-46979788D01*
X13030109Y-46979786D01*
X13155048Y-46807820D01*
X13155047Y-46807820D01*
X13155051Y-46807816D01*
X13251557Y-46618412D01*
X13317246Y-46416243D01*
X13350500Y-46206287D01*
X13350500Y-45993713D01*
X13317246Y-45783757D01*
X13251557Y-45581588D01*
X13155051Y-45392184D01*
X13155049Y-45392181D01*
X13155048Y-45392179D01*
X13030109Y-45220213D01*
X12879786Y-45069890D01*
X12707820Y-44944951D01*
X12707115Y-44944591D01*
X12699054Y-44940485D01*
X12648259Y-44892512D01*
X12631463Y-44824692D01*
X12653999Y-44758556D01*
X12699054Y-44719515D01*
X12707816Y-44715051D01*
X12729789Y-44699086D01*
X12879786Y-44590109D01*
X12879788Y-44590106D01*
X12879792Y-44590104D01*
X13030104Y-44439792D01*
X13030106Y-44439788D01*
X13030109Y-44439786D01*
X13155048Y-44267820D01*
X13155047Y-44267820D01*
X13155051Y-44267816D01*
X13251557Y-44078412D01*
X13317246Y-43876243D01*
X13350500Y-43666287D01*
X13350500Y-43453713D01*
X13317246Y-43243757D01*
X13251557Y-43041588D01*
X13155051Y-42852184D01*
X13155049Y-42852181D01*
X13155048Y-42852179D01*
X13030109Y-42680213D01*
X12879786Y-42529890D01*
X12707820Y-42404951D01*
X12707115Y-42404591D01*
X12699054Y-42400485D01*
X12648259Y-42352512D01*
X12631463Y-42284692D01*
X12653999Y-42218556D01*
X12699054Y-42179515D01*
X12707816Y-42175051D01*
X12729789Y-42159086D01*
X12879786Y-42050109D01*
X12879788Y-42050106D01*
X12879792Y-42050104D01*
X13030104Y-41899792D01*
X13030106Y-41899788D01*
X13030109Y-41899786D01*
X13155048Y-41727820D01*
X13155047Y-41727820D01*
X13155051Y-41727816D01*
X13251557Y-41538412D01*
X13317246Y-41336243D01*
X13350500Y-41126287D01*
X13350500Y-40913713D01*
X13317246Y-40703757D01*
X13251557Y-40501588D01*
X13155051Y-40312184D01*
X13155049Y-40312181D01*
X13155048Y-40312179D01*
X13030109Y-40140213D01*
X12879786Y-39989890D01*
X12707820Y-39864951D01*
X12707115Y-39864591D01*
X12699054Y-39860485D01*
X12648259Y-39812512D01*
X12631463Y-39744692D01*
X12653999Y-39678556D01*
X12699054Y-39639515D01*
X12707816Y-39635051D01*
X12729789Y-39619086D01*
X12879786Y-39510109D01*
X12879788Y-39510106D01*
X12879792Y-39510104D01*
X13030104Y-39359792D01*
X13030106Y-39359788D01*
X13030109Y-39359786D01*
X13155048Y-39187820D01*
X13155047Y-39187820D01*
X13155051Y-39187816D01*
X13251557Y-38998412D01*
X13317246Y-38796243D01*
X13350500Y-38586287D01*
X13350500Y-38373713D01*
X13317246Y-38163757D01*
X13251557Y-37961588D01*
X13155051Y-37772184D01*
X13155049Y-37772181D01*
X13155048Y-37772179D01*
X13030109Y-37600213D01*
X12879786Y-37449890D01*
X12707820Y-37324951D01*
X12707115Y-37324591D01*
X12699054Y-37320485D01*
X12648259Y-37272512D01*
X12631463Y-37204692D01*
X12653999Y-37138556D01*
X12699054Y-37099515D01*
X12707816Y-37095051D01*
X12729789Y-37079086D01*
X12879786Y-36970109D01*
X12879788Y-36970106D01*
X12879792Y-36970104D01*
X13030104Y-36819792D01*
X13030106Y-36819788D01*
X13030109Y-36819786D01*
X13155048Y-36647820D01*
X13155047Y-36647820D01*
X13155051Y-36647816D01*
X13251557Y-36458412D01*
X13317246Y-36256243D01*
X13350500Y-36046287D01*
X13350500Y-35833713D01*
X13317246Y-35623757D01*
X13251557Y-35421588D01*
X13155051Y-35232184D01*
X13155049Y-35232181D01*
X13155048Y-35232179D01*
X13030109Y-35060213D01*
X12879786Y-34909890D01*
X12707820Y-34784951D01*
X12707115Y-34784591D01*
X12699054Y-34780485D01*
X12648259Y-34732512D01*
X12631463Y-34664692D01*
X12653999Y-34598556D01*
X12699054Y-34559515D01*
X12707816Y-34555051D01*
X12783874Y-34499792D01*
X12879786Y-34430109D01*
X12879788Y-34430106D01*
X12879792Y-34430104D01*
X13030104Y-34279792D01*
X13030106Y-34279788D01*
X13030109Y-34279786D01*
X13155048Y-34107820D01*
X13155047Y-34107820D01*
X13155051Y-34107816D01*
X13251557Y-33918412D01*
X13317246Y-33716243D01*
X13350500Y-33506287D01*
X13350500Y-33293713D01*
X13317246Y-33083757D01*
X13251557Y-32881588D01*
X13155051Y-32692184D01*
X13155049Y-32692181D01*
X13155048Y-32692179D01*
X13030109Y-32520213D01*
X12879786Y-32369890D01*
X12707820Y-32244951D01*
X12707115Y-32244591D01*
X12699054Y-32240485D01*
X12648259Y-32192512D01*
X12631463Y-32124692D01*
X12653999Y-32058556D01*
X12699054Y-32019515D01*
X12707816Y-32015051D01*
X12783874Y-31959792D01*
X12879786Y-31890109D01*
X12879788Y-31890106D01*
X12879792Y-31890104D01*
X13030104Y-31739792D01*
X13030106Y-31739788D01*
X13030109Y-31739786D01*
X13155048Y-31567820D01*
X13155047Y-31567820D01*
X13155051Y-31567816D01*
X13251557Y-31378412D01*
X13317246Y-31176243D01*
X13350500Y-30966287D01*
X13350500Y-30753713D01*
X13317246Y-30543757D01*
X13251557Y-30341588D01*
X13155051Y-30152184D01*
X13155049Y-30152181D01*
X13155048Y-30152179D01*
X13030109Y-29980213D01*
X12879786Y-29829890D01*
X12707820Y-29704951D01*
X12707115Y-29704591D01*
X12699054Y-29700485D01*
X12648259Y-29652512D01*
X12631463Y-29584692D01*
X12653999Y-29518556D01*
X12699054Y-29479515D01*
X12707816Y-29475051D01*
X12783874Y-29419792D01*
X12879786Y-29350109D01*
X12879788Y-29350106D01*
X12879792Y-29350104D01*
X13030104Y-29199792D01*
X13030106Y-29199788D01*
X13030109Y-29199786D01*
X13155048Y-29027820D01*
X13155047Y-29027820D01*
X13155051Y-29027816D01*
X13251557Y-28838412D01*
X13317246Y-28636243D01*
X13350500Y-28426287D01*
X13350500Y-28213713D01*
X13317246Y-28003757D01*
X13251557Y-27801588D01*
X13155051Y-27612184D01*
X13155049Y-27612181D01*
X13155048Y-27612179D01*
X13030109Y-27440213D01*
X12879786Y-27289890D01*
X12707820Y-27164951D01*
X12707115Y-27164591D01*
X12699054Y-27160485D01*
X12648259Y-27112512D01*
X12631463Y-27044692D01*
X12653999Y-26978556D01*
X12699054Y-26939515D01*
X12707816Y-26935051D01*
X12729789Y-26919086D01*
X12879786Y-26810109D01*
X12879788Y-26810106D01*
X12879792Y-26810104D01*
X13030104Y-26659792D01*
X13030106Y-26659788D01*
X13030109Y-26659786D01*
X13155048Y-26487820D01*
X13155047Y-26487820D01*
X13155051Y-26487816D01*
X13251557Y-26298412D01*
X13317246Y-26096243D01*
X13350500Y-25886287D01*
X13350500Y-25673713D01*
X13317246Y-25463757D01*
X13251557Y-25261588D01*
X13155051Y-25072184D01*
X13155049Y-25072181D01*
X13155048Y-25072179D01*
X13030109Y-24900213D01*
X12879786Y-24749890D01*
X12707820Y-24624951D01*
X12707115Y-24624591D01*
X12699054Y-24620485D01*
X12648259Y-24572512D01*
X12631463Y-24504692D01*
X12653999Y-24438556D01*
X12699054Y-24399515D01*
X12707816Y-24395051D01*
X12729789Y-24379086D01*
X12879786Y-24270109D01*
X12879788Y-24270106D01*
X12879792Y-24270104D01*
X13030104Y-24119792D01*
X13030106Y-24119788D01*
X13030109Y-24119786D01*
X13155048Y-23947820D01*
X13155047Y-23947820D01*
X13155051Y-23947816D01*
X13251557Y-23758412D01*
X13317246Y-23556243D01*
X13350500Y-23346287D01*
X13350500Y-23133713D01*
X13317246Y-22923757D01*
X13271452Y-22782818D01*
X13269457Y-22712977D01*
X13305537Y-22653144D01*
X13368238Y-22622316D01*
X13389383Y-22620500D01*
X22535931Y-22620500D01*
X23775375Y-22620500D01*
X23804189Y-22624774D01*
X23804281Y-22624313D01*
X23935928Y-22650500D01*
X23935931Y-22650500D01*
X24064069Y-22650500D01*
X32225500Y-22650500D01*
X32292539Y-22670185D01*
X32338294Y-22722989D01*
X32349500Y-22774500D01*
X32349500Y-37135931D01*
X32349500Y-37264069D01*
X32349500Y-37264071D01*
X32349499Y-37264071D01*
X32374497Y-37389738D01*
X32374499Y-37389744D01*
X32423533Y-37508124D01*
X32423538Y-37508133D01*
X32494723Y-37614668D01*
X32494726Y-37614672D01*
X32585327Y-37705273D01*
X32585331Y-37705276D01*
X32691866Y-37776461D01*
X32691872Y-37776464D01*
X32691873Y-37776465D01*
X32810256Y-37825501D01*
X32810260Y-37825501D01*
X32810261Y-37825502D01*
X32935928Y-37850500D01*
X32935931Y-37850500D01*
X33473867Y-37850500D01*
X33540906Y-37870185D01*
X33586661Y-37922989D01*
X33596605Y-37992147D01*
X33591800Y-38012807D01*
X33542754Y-38163757D01*
X33542753Y-38163760D01*
X33542753Y-38163762D01*
X33509500Y-38373713D01*
X33509500Y-38586286D01*
X33542753Y-38796240D01*
X33588548Y-38937182D01*
X33590543Y-39007023D01*
X33554463Y-39066856D01*
X33491762Y-39097684D01*
X33470617Y-39099500D01*
X18774500Y-39099500D01*
X18707461Y-39079815D01*
X18661706Y-39027011D01*
X18650500Y-38975500D01*
X18650500Y-26454361D01*
X18670185Y-26387322D01*
X18686816Y-26366682D01*
X18699464Y-26354035D01*
X18798013Y-26206547D01*
X18865894Y-26042666D01*
X18900500Y-25868691D01*
X18900500Y-25691309D01*
X18900500Y-25691306D01*
X18900499Y-25691304D01*
X18865896Y-25517341D01*
X18865893Y-25517332D01*
X18798016Y-25353459D01*
X18798009Y-25353446D01*
X18699464Y-25205965D01*
X18699461Y-25205961D01*
X18574038Y-25080538D01*
X18574034Y-25080535D01*
X18426553Y-24981990D01*
X18426540Y-24981983D01*
X18262667Y-24914106D01*
X18262658Y-24914103D01*
X18088694Y-24879500D01*
X18088691Y-24879500D01*
X17911309Y-24879500D01*
X17911306Y-24879500D01*
X17737341Y-24914103D01*
X17737332Y-24914106D01*
X17573459Y-24981983D01*
X17573446Y-24981990D01*
X17425965Y-25080535D01*
X17425961Y-25080538D01*
X17300538Y-25205961D01*
X17300535Y-25205965D01*
X17201990Y-25353446D01*
X17201983Y-25353459D01*
X17134106Y-25517332D01*
X17134103Y-25517341D01*
X17099500Y-25691304D01*
X17099500Y-25868695D01*
X17134103Y-26042658D01*
X17134106Y-26042667D01*
X17201983Y-26206540D01*
X17201990Y-26206553D01*
X17300534Y-26354033D01*
X17300535Y-26354034D01*
X17300536Y-26354035D01*
X17313180Y-26366679D01*
X17346665Y-26427999D01*
X17349500Y-26454361D01*
X17349500Y-39814069D01*
X17349500Y-39814071D01*
X17349499Y-39814071D01*
X17374497Y-39939738D01*
X17374499Y-39939744D01*
X17423533Y-40058124D01*
X17423538Y-40058133D01*
X17494723Y-40164668D01*
X17494726Y-40164672D01*
X17585327Y-40255273D01*
X17585331Y-40255276D01*
X17691866Y-40326461D01*
X17691872Y-40326464D01*
X17691873Y-40326465D01*
X17810256Y-40375501D01*
X17810260Y-40375501D01*
X17810261Y-40375502D01*
X17935928Y-40400500D01*
X17935931Y-40400500D01*
X18064069Y-40400500D01*
X33470617Y-40400500D01*
X33537656Y-40420185D01*
X33583411Y-40472989D01*
X33593355Y-40542147D01*
X33588548Y-40562818D01*
X33542753Y-40703759D01*
X33509500Y-40913713D01*
X33509500Y-41126286D01*
X33542753Y-41336239D01*
X33608444Y-41538414D01*
X33704951Y-41727820D01*
X33829890Y-41899786D01*
X33980213Y-42050109D01*
X34152182Y-42175050D01*
X34160946Y-42179516D01*
X34211742Y-42227491D01*
X34228536Y-42295312D01*
X34205998Y-42361447D01*
X34160946Y-42400484D01*
X34152182Y-42404949D01*
X33980213Y-42529890D01*
X33829890Y-42680213D01*
X33704951Y-42852179D01*
X33608444Y-43041585D01*
X33542753Y-43243760D01*
X33509500Y-43453713D01*
X33509500Y-43666287D01*
X33514761Y-43699501D01*
X33523741Y-43756204D01*
X33542754Y-43876243D01*
X33569209Y-43957664D01*
X33608444Y-44078414D01*
X33704951Y-44267820D01*
X33829890Y-44439786D01*
X33980213Y-44590109D01*
X34152182Y-44715050D01*
X34160946Y-44719516D01*
X34211742Y-44767491D01*
X34228536Y-44835312D01*
X34205998Y-44901447D01*
X34160946Y-44940484D01*
X34152182Y-44944949D01*
X33980213Y-45069890D01*
X33829890Y-45220213D01*
X33704951Y-45392179D01*
X33608444Y-45581585D01*
X33542753Y-45783760D01*
X33509500Y-45993713D01*
X33509500Y-46206286D01*
X33542753Y-46416239D01*
X33608444Y-46618414D01*
X33704951Y-46807820D01*
X33829890Y-46979786D01*
X33980213Y-47130109D01*
X34152182Y-47255050D01*
X34160946Y-47259516D01*
X34211742Y-47307491D01*
X34228536Y-47375312D01*
X34205998Y-47441447D01*
X34160946Y-47480484D01*
X34152182Y-47484949D01*
X33980213Y-47609890D01*
X33829890Y-47760213D01*
X33704951Y-47932179D01*
X33608444Y-48121585D01*
X33542753Y-48323760D01*
X33509500Y-48533713D01*
X33509500Y-48746286D01*
X33542753Y-48956239D01*
X33608444Y-49158414D01*
X33704951Y-49347820D01*
X33829890Y-49519786D01*
X33980213Y-49670109D01*
X34152182Y-49795050D01*
X34160946Y-49799516D01*
X34211742Y-49847491D01*
X34228536Y-49915312D01*
X34205998Y-49981447D01*
X34160946Y-50020484D01*
X34152182Y-50024949D01*
X33980213Y-50149890D01*
X33829890Y-50300213D01*
X33704951Y-50472179D01*
X33608444Y-50661585D01*
X33542753Y-50863760D01*
X33509500Y-51073713D01*
X33509500Y-51286286D01*
X33542753Y-51496239D01*
X33608444Y-51698414D01*
X33704951Y-51887820D01*
X33829890Y-52059786D01*
X33980213Y-52210109D01*
X34152182Y-52335050D01*
X34160946Y-52339516D01*
X34211742Y-52387491D01*
X34228536Y-52455312D01*
X34205998Y-52521447D01*
X34160946Y-52560484D01*
X34152182Y-52564949D01*
X33980213Y-52689890D01*
X33829890Y-52840213D01*
X33704951Y-53012179D01*
X33608444Y-53201585D01*
X33542753Y-53403760D01*
X33509500Y-53613713D01*
X33509500Y-53826286D01*
X33542753Y-54036239D01*
X33608444Y-54238414D01*
X33704951Y-54427820D01*
X33829890Y-54599786D01*
X33980213Y-54750109D01*
X34152179Y-54875048D01*
X34152181Y-54875049D01*
X34152184Y-54875051D01*
X34341588Y-54971557D01*
X34543757Y-55037246D01*
X34753713Y-55070500D01*
X34753714Y-55070500D01*
X34966286Y-55070500D01*
X34966287Y-55070500D01*
X35176243Y-55037246D01*
X35378412Y-54971557D01*
X35567816Y-54875051D01*
X35589789Y-54859086D01*
X35739786Y-54750109D01*
X35739788Y-54750106D01*
X35739792Y-54750104D01*
X35890104Y-54599792D01*
X35890106Y-54599788D01*
X35890109Y-54599786D01*
X36015048Y-54427820D01*
X36015047Y-54427820D01*
X36015051Y-54427816D01*
X36111557Y-54238412D01*
X36177246Y-54036243D01*
X36210500Y-53826287D01*
X36210500Y-53613713D01*
X36177246Y-53403757D01*
X36111557Y-53201588D01*
X36015051Y-53012184D01*
X36015049Y-53012181D01*
X36015048Y-53012179D01*
X35890109Y-52840213D01*
X35739786Y-52689890D01*
X35567820Y-52564951D01*
X35567115Y-52564591D01*
X35559054Y-52560485D01*
X35508259Y-52512512D01*
X35491463Y-52444692D01*
X35513999Y-52378556D01*
X35559054Y-52339515D01*
X35567816Y-52335051D01*
X35589789Y-52319086D01*
X35739786Y-52210109D01*
X35739788Y-52210106D01*
X35739792Y-52210104D01*
X35890104Y-52059792D01*
X35890106Y-52059788D01*
X35890109Y-52059786D01*
X36015048Y-51887820D01*
X36015047Y-51887820D01*
X36015051Y-51887816D01*
X36111557Y-51698412D01*
X36177246Y-51496243D01*
X36210500Y-51286287D01*
X36210500Y-51073713D01*
X36177246Y-50863757D01*
X36111557Y-50661588D01*
X36015051Y-50472184D01*
X36015049Y-50472181D01*
X36015048Y-50472179D01*
X35890109Y-50300213D01*
X35739786Y-50149890D01*
X35567820Y-50024951D01*
X35567115Y-50024591D01*
X35559054Y-50020485D01*
X35508259Y-49972512D01*
X35491463Y-49904692D01*
X35513999Y-49838556D01*
X35559054Y-49799515D01*
X35567816Y-49795051D01*
X35589789Y-49779086D01*
X35739786Y-49670109D01*
X35739788Y-49670106D01*
X35739792Y-49670104D01*
X35890104Y-49519792D01*
X35890106Y-49519788D01*
X35890109Y-49519786D01*
X36015048Y-49347820D01*
X36015047Y-49347820D01*
X36015051Y-49347816D01*
X36111557Y-49158412D01*
X36177246Y-48956243D01*
X36210500Y-48746287D01*
X36210500Y-48533713D01*
X36177246Y-48323757D01*
X36111557Y-48121588D01*
X36015051Y-47932184D01*
X36015049Y-47932181D01*
X36015048Y-47932179D01*
X35890109Y-47760213D01*
X35739786Y-47609890D01*
X35567820Y-47484951D01*
X35567115Y-47484591D01*
X35559054Y-47480485D01*
X35508259Y-47432512D01*
X35491463Y-47364692D01*
X35513999Y-47298556D01*
X35559054Y-47259515D01*
X35567816Y-47255051D01*
X35589789Y-47239086D01*
X35739786Y-47130109D01*
X35739788Y-47130106D01*
X35739792Y-47130104D01*
X35890104Y-46979792D01*
X35890106Y-46979788D01*
X35890109Y-46979786D01*
X36015048Y-46807820D01*
X36015047Y-46807820D01*
X36015051Y-46807816D01*
X36111557Y-46618412D01*
X36177246Y-46416243D01*
X36210500Y-46206287D01*
X36210500Y-45993713D01*
X36177246Y-45783757D01*
X36111557Y-45581588D01*
X36015051Y-45392184D01*
X36015049Y-45392181D01*
X36015048Y-45392179D01*
X35890109Y-45220213D01*
X35739786Y-45069890D01*
X35567820Y-44944951D01*
X35567115Y-44944591D01*
X35559054Y-44940485D01*
X35508259Y-44892512D01*
X35491463Y-44824692D01*
X35513999Y-44758556D01*
X35559054Y-44719515D01*
X35567816Y-44715051D01*
X35589789Y-44699086D01*
X35739786Y-44590109D01*
X35739788Y-44590106D01*
X35739792Y-44590104D01*
X35890104Y-44439792D01*
X35890106Y-44439788D01*
X35890109Y-44439786D01*
X36015048Y-44267820D01*
X36015047Y-44267820D01*
X36015051Y-44267816D01*
X36073993Y-44152135D01*
X48699500Y-44152135D01*
X48699500Y-45847870D01*
X48699501Y-45847876D01*
X48705908Y-45907483D01*
X48756202Y-46042328D01*
X48756206Y-46042335D01*
X48842452Y-46157544D01*
X48842455Y-46157547D01*
X48957664Y-46243793D01*
X48957671Y-46243797D01*
X49092517Y-46294091D01*
X49092516Y-46294091D01*
X49099444Y-46294835D01*
X49152127Y-46300500D01*
X50847872Y-46300499D01*
X50907483Y-46294091D01*
X51042331Y-46243796D01*
X51157546Y-46157546D01*
X51243796Y-46042331D01*
X51294091Y-45907483D01*
X51300500Y-45847873D01*
X51300499Y-44152128D01*
X51294091Y-44092517D01*
X51288830Y-44078412D01*
X51243797Y-43957671D01*
X51243793Y-43957664D01*
X51157547Y-43842455D01*
X51157544Y-43842452D01*
X51042335Y-43756206D01*
X51042328Y-43756202D01*
X50907482Y-43705908D01*
X50907483Y-43705908D01*
X50847883Y-43699501D01*
X50847881Y-43699500D01*
X50847873Y-43699500D01*
X50847864Y-43699500D01*
X49152129Y-43699500D01*
X49152123Y-43699501D01*
X49092516Y-43705908D01*
X48957671Y-43756202D01*
X48957664Y-43756206D01*
X48842455Y-43842452D01*
X48842452Y-43842455D01*
X48756206Y-43957664D01*
X48756202Y-43957671D01*
X48705908Y-44092517D01*
X48699501Y-44152116D01*
X48699501Y-44152123D01*
X48699500Y-44152135D01*
X36073993Y-44152135D01*
X36111557Y-44078412D01*
X36177246Y-43876243D01*
X36210500Y-43666287D01*
X36210500Y-43453713D01*
X36177246Y-43243757D01*
X36111557Y-43041588D01*
X36015051Y-42852184D01*
X36015049Y-42852181D01*
X36015048Y-42852179D01*
X35890109Y-42680213D01*
X35739786Y-42529890D01*
X35567820Y-42404951D01*
X35567115Y-42404591D01*
X35559054Y-42400485D01*
X35508259Y-42352512D01*
X35491463Y-42284692D01*
X35513999Y-42218556D01*
X35559054Y-42179515D01*
X35567816Y-42175051D01*
X35589789Y-42159086D01*
X35739786Y-42050109D01*
X35739788Y-42050106D01*
X35739792Y-42050104D01*
X35890104Y-41899792D01*
X35890106Y-41899788D01*
X35890109Y-41899786D01*
X36015048Y-41727820D01*
X36015047Y-41727820D01*
X36015051Y-41727816D01*
X36111557Y-41538412D01*
X36177246Y-41336243D01*
X36210500Y-41126287D01*
X36210500Y-40913713D01*
X36177246Y-40703757D01*
X36131452Y-40562818D01*
X36129457Y-40492977D01*
X36165537Y-40433144D01*
X36228238Y-40402316D01*
X36249383Y-40400500D01*
X52364071Y-40400500D01*
X52448615Y-40383682D01*
X52489744Y-40375501D01*
X52608127Y-40326465D01*
X52714669Y-40255276D01*
X52805276Y-40164669D01*
X52876465Y-40058127D01*
X52925501Y-39939744D01*
X52941267Y-39860484D01*
X52950500Y-39814071D01*
X52950500Y-23175928D01*
X52925502Y-23050261D01*
X52925501Y-23050260D01*
X52925501Y-23050256D01*
X52876465Y-22931873D01*
X52876464Y-22931872D01*
X52876461Y-22931866D01*
X52805276Y-22825331D01*
X52805273Y-22825327D01*
X52714671Y-22734725D01*
X52697106Y-22722989D01*
X52674825Y-22708101D01*
X52630022Y-22654491D01*
X52621314Y-22585166D01*
X52651468Y-22522138D01*
X52674824Y-22501899D01*
X52714669Y-22475276D01*
X52805276Y-22384669D01*
X52876465Y-22278127D01*
X52925501Y-22159744D01*
X52950500Y-22034069D01*
X52950500Y-7935931D01*
X52950500Y-7935928D01*
X52925502Y-7810261D01*
X52925501Y-7810260D01*
X52925501Y-7810256D01*
X52876465Y-7691873D01*
X52876464Y-7691872D01*
X52876461Y-7691866D01*
X52805276Y-7585331D01*
X52805273Y-7585327D01*
X52714676Y-7494730D01*
X52714671Y-7494726D01*
X52714669Y-7494724D01*
X52705603Y-7488666D01*
X52660802Y-7435053D01*
X52650500Y-7385568D01*
X52650500Y-5698070D01*
X52670185Y-5631031D01*
X52701613Y-5597753D01*
X52847219Y-5491966D01*
X52991966Y-5347219D01*
X52991968Y-5347215D01*
X52991971Y-5347213D01*
X53082407Y-5222736D01*
X53112287Y-5181610D01*
X53205220Y-4999219D01*
X53268477Y-4804534D01*
X53300500Y-4602352D01*
X53300500Y-4397648D01*
X53268477Y-4195466D01*
X53256579Y-4158849D01*
X53216552Y-4035657D01*
X53205220Y-4000781D01*
X53205218Y-4000778D01*
X53205218Y-4000776D01*
X53169638Y-3930948D01*
X53143022Y-3878711D01*
X56149500Y-3878711D01*
X56149500Y-4121288D01*
X56175448Y-4318390D01*
X56181162Y-4361789D01*
X56194274Y-4410724D01*
X56243947Y-4596104D01*
X56301993Y-4736239D01*
X56336776Y-4820212D01*
X56458064Y-5030289D01*
X56458066Y-5030292D01*
X56458067Y-5030293D01*
X56605733Y-5222736D01*
X56605739Y-5222743D01*
X56777256Y-5394260D01*
X56777262Y-5394265D01*
X56969711Y-5541936D01*
X57179788Y-5663224D01*
X57403900Y-5756054D01*
X57638211Y-5818838D01*
X57818586Y-5842584D01*
X57878711Y-5850500D01*
X57878712Y-5850500D01*
X58121289Y-5850500D01*
X58169388Y-5844167D01*
X58361789Y-5818838D01*
X58596100Y-5756054D01*
X58820212Y-5663224D01*
X59030289Y-5541936D01*
X59222738Y-5394265D01*
X59394265Y-5222738D01*
X59541936Y-5030289D01*
X59663224Y-4820212D01*
X59756054Y-4596100D01*
X59818838Y-4361789D01*
X59850500Y-4121288D01*
X59850500Y-3878712D01*
X59818838Y-3638211D01*
X59756054Y-3403900D01*
X59663224Y-3179788D01*
X59541936Y-2969711D01*
X59394265Y-2777262D01*
X59394260Y-2777256D01*
X59222743Y-2605739D01*
X59222736Y-2605733D01*
X59030293Y-2458067D01*
X59030292Y-2458066D01*
X59030289Y-2458064D01*
X58820212Y-2336776D01*
X58820205Y-2336773D01*
X58596104Y-2243947D01*
X58361785Y-2181161D01*
X58121289Y-2149500D01*
X58121288Y-2149500D01*
X57878712Y-2149500D01*
X57878711Y-2149500D01*
X57638214Y-2181161D01*
X57403895Y-2243947D01*
X57179794Y-2336773D01*
X57179785Y-2336777D01*
X56969706Y-2458067D01*
X56777263Y-2605733D01*
X56777256Y-2605739D01*
X56605739Y-2777256D01*
X56605733Y-2777263D01*
X56458067Y-2969706D01*
X56336777Y-3179785D01*
X56336773Y-3179794D01*
X56243947Y-3403895D01*
X56181161Y-3638214D01*
X56149500Y-3878711D01*
X53143022Y-3878711D01*
X53112287Y-3818390D01*
X53112285Y-3818387D01*
X53112284Y-3818385D01*
X52991971Y-3652786D01*
X52847213Y-3508028D01*
X52681613Y-3387715D01*
X52681612Y-3387714D01*
X52681610Y-3387713D01*
X52624653Y-3358691D01*
X52499223Y-3294781D01*
X52304534Y-3231522D01*
X52129995Y-3203878D01*
X52102352Y-3199500D01*
X51897648Y-3199500D01*
X51873329Y-3203351D01*
X51695465Y-3231522D01*
X51500776Y-3294781D01*
X51318386Y-3387715D01*
X51152786Y-3508028D01*
X51008028Y-3652786D01*
X50887715Y-3818386D01*
X50794781Y-4000776D01*
X50731522Y-4195465D01*
X50699500Y-4397648D01*
X50699500Y-4602351D01*
X50731522Y-4804534D01*
X50794781Y-4999223D01*
X50887715Y-5181613D01*
X51008028Y-5347213D01*
X51152784Y-5491969D01*
X51162769Y-5499223D01*
X51298385Y-5597753D01*
X51341051Y-5653081D01*
X51349500Y-5698070D01*
X51349500Y-6650998D01*
X51329815Y-6718037D01*
X51277011Y-6763792D01*
X51207853Y-6773736D01*
X51151189Y-6750265D01*
X51092331Y-6706204D01*
X51092328Y-6706202D01*
X50957482Y-6655908D01*
X50957483Y-6655908D01*
X50897883Y-6649501D01*
X50897881Y-6649500D01*
X50897873Y-6649500D01*
X50897864Y-6649500D01*
X49102129Y-6649500D01*
X49102123Y-6649501D01*
X49042516Y-6655908D01*
X48907671Y-6706202D01*
X48907664Y-6706206D01*
X48792455Y-6792452D01*
X48792452Y-6792455D01*
X48706206Y-6907664D01*
X48706202Y-6907671D01*
X48655908Y-7042517D01*
X48653353Y-7066286D01*
X48649501Y-7102123D01*
X48649500Y-7102135D01*
X48649500Y-8897870D01*
X48649501Y-8897876D01*
X48655908Y-8957483D01*
X48706202Y-9092328D01*
X48706206Y-9092335D01*
X48792452Y-9207544D01*
X48792455Y-9207547D01*
X48907664Y-9293793D01*
X48907671Y-9293797D01*
X49042517Y-9344091D01*
X49042516Y-9344091D01*
X49049444Y-9344835D01*
X49102127Y-9350500D01*
X50897872Y-9350499D01*
X50957483Y-9344091D01*
X51092331Y-9293796D01*
X51151189Y-9249734D01*
X51216652Y-9225317D01*
X51284925Y-9240168D01*
X51334331Y-9289573D01*
X51349500Y-9349001D01*
X51349500Y-12258186D01*
X51329815Y-12325225D01*
X51277011Y-12370980D01*
X51207853Y-12380924D01*
X51144297Y-12351899D01*
X51125182Y-12331071D01*
X51030109Y-12200214D01*
X51030105Y-12200209D01*
X50879786Y-12049890D01*
X50707820Y-11924951D01*
X50518414Y-11828444D01*
X50518413Y-11828443D01*
X50518412Y-11828443D01*
X50316243Y-11762754D01*
X50316241Y-11762753D01*
X50316240Y-11762753D01*
X50154957Y-11737208D01*
X50106287Y-11729500D01*
X49893713Y-11729500D01*
X49845042Y-11737208D01*
X49683760Y-11762753D01*
X49481585Y-11828444D01*
X49292179Y-11924951D01*
X49120213Y-12049890D01*
X48969890Y-12200213D01*
X48844951Y-12372179D01*
X48748444Y-12561585D01*
X48682753Y-12763760D01*
X48649500Y-12973713D01*
X48649500Y-13186286D01*
X48682753Y-13396239D01*
X48748444Y-13598414D01*
X48844951Y-13787820D01*
X48969890Y-13959786D01*
X49120213Y-14110109D01*
X49292182Y-14235050D01*
X49300946Y-14239516D01*
X49351742Y-14287491D01*
X49368536Y-14355312D01*
X49345998Y-14421447D01*
X49300946Y-14460484D01*
X49292182Y-14464949D01*
X49120213Y-14589890D01*
X48969890Y-14740213D01*
X48844951Y-14912179D01*
X48748444Y-15101585D01*
X48682753Y-15303760D01*
X48649500Y-15513713D01*
X48649500Y-15726286D01*
X48682753Y-15936239D01*
X48748444Y-16138414D01*
X48844951Y-16327820D01*
X48969890Y-16499786D01*
X49120213Y-16650109D01*
X49292182Y-16775050D01*
X49300946Y-16779516D01*
X49351742Y-16827491D01*
X49368536Y-16895312D01*
X49345998Y-16961447D01*
X49300946Y-17000484D01*
X49292182Y-17004949D01*
X49120213Y-17129890D01*
X48969890Y-17280213D01*
X48844951Y-17452179D01*
X48748444Y-17641585D01*
X48682753Y-17843760D01*
X48649500Y-18053713D01*
X48649500Y-18266286D01*
X48682753Y-18476239D01*
X48682753Y-18476241D01*
X48682754Y-18476243D01*
X48740998Y-18655500D01*
X48748444Y-18678414D01*
X48844951Y-18867820D01*
X48969890Y-19039786D01*
X49120213Y-19190109D01*
X49292182Y-19315050D01*
X49300946Y-19319516D01*
X49351742Y-19367491D01*
X49368536Y-19435312D01*
X49345998Y-19501447D01*
X49300946Y-19540484D01*
X49292182Y-19544949D01*
X49120213Y-19669890D01*
X48969890Y-19820213D01*
X48844951Y-19992179D01*
X48748444Y-20181585D01*
X48682753Y-20383760D01*
X48649500Y-20593713D01*
X48649500Y-20806286D01*
X48682753Y-21016240D01*
X48728548Y-21157182D01*
X48730543Y-21227023D01*
X48694463Y-21286856D01*
X48631762Y-21317684D01*
X48610617Y-21319500D01*
X36249383Y-21319500D01*
X36182344Y-21299815D01*
X36136589Y-21247011D01*
X36126645Y-21177853D01*
X36131452Y-21157182D01*
X36134647Y-21147345D01*
X36177246Y-21016243D01*
X36210500Y-20806287D01*
X36210500Y-20593713D01*
X36177246Y-20383757D01*
X36111557Y-20181588D01*
X36015051Y-19992184D01*
X36015049Y-19992181D01*
X36015048Y-19992179D01*
X35890109Y-19820213D01*
X35739786Y-19669890D01*
X35567820Y-19544951D01*
X35562195Y-19542085D01*
X35559054Y-19540485D01*
X35508259Y-19492512D01*
X35491463Y-19424692D01*
X35513999Y-19358556D01*
X35559054Y-19319515D01*
X35567816Y-19315051D01*
X35589789Y-19299086D01*
X35739786Y-19190109D01*
X35739788Y-19190106D01*
X35739792Y-19190104D01*
X35890104Y-19039792D01*
X35890106Y-19039788D01*
X35890109Y-19039786D01*
X36015048Y-18867820D01*
X36015047Y-18867820D01*
X36015051Y-18867816D01*
X36111557Y-18678412D01*
X36177246Y-18476243D01*
X36210500Y-18266287D01*
X36210500Y-18053713D01*
X36177246Y-17843757D01*
X36111557Y-17641588D01*
X36015051Y-17452184D01*
X36015049Y-17452181D01*
X36015048Y-17452179D01*
X35890109Y-17280213D01*
X35739786Y-17129890D01*
X35567820Y-17004951D01*
X35567115Y-17004591D01*
X35559054Y-17000485D01*
X35508259Y-16952512D01*
X35491463Y-16884692D01*
X35513999Y-16818556D01*
X35559054Y-16779515D01*
X35567816Y-16775051D01*
X35589789Y-16759086D01*
X35739786Y-16650109D01*
X35739788Y-16650106D01*
X35739792Y-16650104D01*
X35890104Y-16499792D01*
X35890106Y-16499788D01*
X35890109Y-16499786D01*
X36015048Y-16327820D01*
X36015047Y-16327820D01*
X36015051Y-16327816D01*
X36111557Y-16138412D01*
X36177246Y-15936243D01*
X36210500Y-15726287D01*
X36210500Y-15513713D01*
X36177246Y-15303757D01*
X36111557Y-15101588D01*
X36015051Y-14912184D01*
X36015049Y-14912181D01*
X36015048Y-14912179D01*
X35890109Y-14740213D01*
X35739786Y-14589890D01*
X35567820Y-14464951D01*
X35567115Y-14464591D01*
X35559054Y-14460485D01*
X35508259Y-14412512D01*
X35491463Y-14344692D01*
X35513999Y-14278556D01*
X35559054Y-14239515D01*
X35567816Y-14235051D01*
X35589789Y-14219086D01*
X35739786Y-14110109D01*
X35739788Y-14110106D01*
X35739792Y-14110104D01*
X35890104Y-13959792D01*
X35890106Y-13959788D01*
X35890109Y-13959786D01*
X36015048Y-13787820D01*
X36015047Y-13787820D01*
X36015051Y-13787816D01*
X36111557Y-13598412D01*
X36177246Y-13396243D01*
X36210500Y-13186287D01*
X36210500Y-12973713D01*
X36177246Y-12763757D01*
X36111557Y-12561588D01*
X36015051Y-12372184D01*
X36015049Y-12372181D01*
X36015048Y-12372179D01*
X35890109Y-12200213D01*
X35739786Y-12049890D01*
X35567820Y-11924951D01*
X35567115Y-11924591D01*
X35559054Y-11920485D01*
X35508259Y-11872512D01*
X35491463Y-11804692D01*
X35513999Y-11738556D01*
X35559054Y-11699515D01*
X35567816Y-11695051D01*
X35589789Y-11679086D01*
X35739786Y-11570109D01*
X35739788Y-11570106D01*
X35739792Y-11570104D01*
X35890104Y-11419792D01*
X35890106Y-11419788D01*
X35890109Y-11419786D01*
X36015048Y-11247820D01*
X36015047Y-11247820D01*
X36015051Y-11247816D01*
X36111557Y-11058412D01*
X36177246Y-10856243D01*
X36210500Y-10646287D01*
X36210500Y-10433713D01*
X36177246Y-10223757D01*
X36111557Y-10021588D01*
X36015051Y-9832184D01*
X36015049Y-9832181D01*
X36015048Y-9832179D01*
X35890109Y-9660213D01*
X35776569Y-9546673D01*
X35743084Y-9485350D01*
X35748068Y-9415658D01*
X35789940Y-9359725D01*
X35820915Y-9342810D01*
X35952331Y-9293796D01*
X36067546Y-9207546D01*
X36153796Y-9092331D01*
X36204091Y-8957483D01*
X36210500Y-8897873D01*
X36210499Y-7102128D01*
X36204091Y-7042517D01*
X36199353Y-7029815D01*
X36153797Y-6907671D01*
X36153793Y-6907664D01*
X36067547Y-6792455D01*
X36067544Y-6792452D01*
X35952335Y-6706206D01*
X35952328Y-6706202D01*
X35817482Y-6655908D01*
X35817483Y-6655908D01*
X35757883Y-6649501D01*
X35757881Y-6649500D01*
X35757873Y-6649500D01*
X35757864Y-6649500D01*
X33962129Y-6649500D01*
X33962123Y-6649501D01*
X33902516Y-6655908D01*
X33767671Y-6706202D01*
X33767664Y-6706206D01*
X33652455Y-6792452D01*
X33652452Y-6792455D01*
X33566206Y-6907664D01*
X33566202Y-6907671D01*
X33515908Y-7042517D01*
X33513353Y-7066286D01*
X33509501Y-7102123D01*
X33509500Y-7102135D01*
X33509500Y-8897870D01*
X33509501Y-8897876D01*
X33515908Y-8957483D01*
X33566202Y-9092328D01*
X33566206Y-9092335D01*
X33652452Y-9207544D01*
X33652455Y-9207547D01*
X33767664Y-9293793D01*
X33767671Y-9293797D01*
X33899082Y-9342810D01*
X33955016Y-9384681D01*
X33979433Y-9450145D01*
X33964582Y-9518418D01*
X33943431Y-9546673D01*
X33829889Y-9660215D01*
X33704951Y-9832179D01*
X33608444Y-10021585D01*
X33542753Y-10223760D01*
X33509500Y-10433713D01*
X33509500Y-10646286D01*
X33542753Y-10856239D01*
X33608444Y-11058414D01*
X33704951Y-11247820D01*
X33829890Y-11419786D01*
X33980213Y-11570109D01*
X34152182Y-11695050D01*
X34160946Y-11699516D01*
X34211742Y-11747491D01*
X34228536Y-11815312D01*
X34205998Y-11881447D01*
X34160946Y-11920484D01*
X34152182Y-11924949D01*
X33980213Y-12049890D01*
X33829890Y-12200213D01*
X33704951Y-12372179D01*
X33608444Y-12561585D01*
X33542753Y-12763760D01*
X33509500Y-12973713D01*
X33509500Y-13186286D01*
X33542753Y-13396239D01*
X33608444Y-13598414D01*
X33704951Y-13787820D01*
X33829890Y-13959786D01*
X33980213Y-14110109D01*
X34152182Y-14235050D01*
X34160946Y-14239516D01*
X34211742Y-14287491D01*
X34228536Y-14355312D01*
X34205998Y-14421447D01*
X34160946Y-14460484D01*
X34152182Y-14464949D01*
X33980213Y-14589890D01*
X33829890Y-14740213D01*
X33704951Y-14912179D01*
X33608444Y-15101585D01*
X33542753Y-15303760D01*
X33509500Y-15513713D01*
X33509500Y-15726286D01*
X33542753Y-15936239D01*
X33608444Y-16138414D01*
X33704951Y-16327820D01*
X33829890Y-16499786D01*
X33980213Y-16650109D01*
X34152182Y-16775050D01*
X34160946Y-16779516D01*
X34211742Y-16827491D01*
X34228536Y-16895312D01*
X34205998Y-16961447D01*
X34160946Y-17000484D01*
X34152182Y-17004949D01*
X33980213Y-17129890D01*
X33829890Y-17280213D01*
X33704951Y-17452179D01*
X33608444Y-17641585D01*
X33542753Y-17843760D01*
X33509500Y-18053713D01*
X33509500Y-18266286D01*
X33542753Y-18476239D01*
X33542753Y-18476241D01*
X33542754Y-18476243D01*
X33600998Y-18655500D01*
X33608444Y-18678414D01*
X33704951Y-18867820D01*
X33829890Y-19039786D01*
X33980213Y-19190109D01*
X34152182Y-19315050D01*
X34160946Y-19319516D01*
X34211742Y-19367491D01*
X34228536Y-19435312D01*
X34205998Y-19501447D01*
X34160946Y-19540484D01*
X34152182Y-19544949D01*
X33980213Y-19669890D01*
X33829890Y-19820213D01*
X33704951Y-19992179D01*
X33608444Y-20181585D01*
X33542753Y-20383760D01*
X33509500Y-20593713D01*
X33509500Y-20806286D01*
X33542753Y-21016240D01*
X33588548Y-21157182D01*
X33590543Y-21227023D01*
X33554463Y-21286856D01*
X33491762Y-21317684D01*
X33470617Y-21319500D01*
X13389383Y-21319500D01*
X13322344Y-21299815D01*
X13276589Y-21247011D01*
X13266645Y-21177853D01*
X13271452Y-21157182D01*
X13274647Y-21147345D01*
X13317246Y-21016243D01*
X13350500Y-20806287D01*
X13350500Y-20593713D01*
X13317246Y-20383757D01*
X13271452Y-20242818D01*
X13269457Y-20172977D01*
X13305537Y-20113144D01*
X13368238Y-20082316D01*
X13389383Y-20080500D01*
X21964071Y-20080500D01*
X22048615Y-20063682D01*
X22089744Y-20055501D01*
X22208127Y-20006465D01*
X22314669Y-19935276D01*
X22405276Y-19844669D01*
X22476465Y-19738127D01*
X22525501Y-19619744D01*
X22547844Y-19507421D01*
X22550500Y-19494071D01*
X22550500Y-1129839D01*
X22551719Y-1129839D01*
X22563542Y-1067506D01*
X22611607Y-1016797D01*
X22673925Y-1000000D01*
X60876000Y-1000000D01*
X60943039Y-1019685D01*
X60988794Y-1072489D01*
X61000000Y-1124000D01*
X61000000Y-66876000D01*
X60980315Y-66943039D01*
X60927511Y-66988794D01*
X60876000Y-67000000D01*
X1124000Y-67000000D01*
X1056961Y-66980315D01*
X1011206Y-66927511D01*
X1000000Y-66876000D01*
X1000000Y-63878711D01*
X2149500Y-63878711D01*
X2149500Y-64121288D01*
X2181161Y-64361785D01*
X2243947Y-64596104D01*
X2336773Y-64820205D01*
X2336777Y-64820214D01*
X2358974Y-64858661D01*
X2458064Y-65030289D01*
X2458066Y-65030292D01*
X2458067Y-65030293D01*
X2605733Y-65222736D01*
X2605739Y-65222743D01*
X2777256Y-65394260D01*
X2777263Y-65394266D01*
X2890321Y-65481018D01*
X2969711Y-65541936D01*
X3179788Y-65663224D01*
X3403900Y-65756054D01*
X3638211Y-65818838D01*
X3818586Y-65842584D01*
X3878711Y-65850500D01*
X3878712Y-65850500D01*
X4121289Y-65850500D01*
X4169388Y-65844167D01*
X4361789Y-65818838D01*
X4596100Y-65756054D01*
X4820212Y-65663224D01*
X5030289Y-65541936D01*
X5222738Y-65394265D01*
X5394265Y-65222738D01*
X5541936Y-65030289D01*
X5663224Y-64820212D01*
X5756054Y-64596100D01*
X5818838Y-64361789D01*
X5850500Y-64121288D01*
X5850500Y-63878712D01*
X5818838Y-63638211D01*
X5756054Y-63403900D01*
X5663224Y-63179788D01*
X5541936Y-62969711D01*
X5394265Y-62777262D01*
X5394260Y-62777256D01*
X5222743Y-62605739D01*
X5222736Y-62605733D01*
X5030293Y-62458067D01*
X5030292Y-62458066D01*
X5030289Y-62458064D01*
X4820212Y-62336776D01*
X4742373Y-62304534D01*
X4596104Y-62243947D01*
X4361785Y-62181161D01*
X4121289Y-62149500D01*
X4121288Y-62149500D01*
X3878712Y-62149500D01*
X3878711Y-62149500D01*
X3638214Y-62181161D01*
X3403895Y-62243947D01*
X3179794Y-62336773D01*
X3179785Y-62336777D01*
X2969706Y-62458067D01*
X2777263Y-62605733D01*
X2777256Y-62605739D01*
X2605739Y-62777256D01*
X2605733Y-62777263D01*
X2458067Y-62969706D01*
X2336777Y-63179785D01*
X2336773Y-63179794D01*
X2243947Y-63403895D01*
X2181161Y-63638214D01*
X2149500Y-63878711D01*
X1000000Y-63878711D01*
X1000000Y-61102135D01*
X12649500Y-61102135D01*
X12649500Y-62897870D01*
X12649501Y-62897876D01*
X12655908Y-62957483D01*
X12706202Y-63092328D01*
X12706206Y-63092335D01*
X12792452Y-63207544D01*
X12792455Y-63207547D01*
X12907664Y-63293793D01*
X12907671Y-63293797D01*
X13039082Y-63342810D01*
X13095016Y-63384681D01*
X13119433Y-63450145D01*
X13104582Y-63518418D01*
X13083431Y-63546673D01*
X12969889Y-63660215D01*
X12844951Y-63832179D01*
X12748444Y-64021585D01*
X12682753Y-64223760D01*
X12649500Y-64433713D01*
X12649500Y-64646286D01*
X12677047Y-64820214D01*
X12682754Y-64856243D01*
X12739305Y-65030289D01*
X12748444Y-65058414D01*
X12844951Y-65247820D01*
X12969890Y-65419786D01*
X13120213Y-65570109D01*
X13292179Y-65695048D01*
X13292181Y-65695049D01*
X13292184Y-65695051D01*
X13481588Y-65791557D01*
X13683757Y-65857246D01*
X13893713Y-65890500D01*
X13893714Y-65890500D01*
X14106286Y-65890500D01*
X14106287Y-65890500D01*
X14316243Y-65857246D01*
X14518412Y-65791557D01*
X14707816Y-65695051D01*
X14751620Y-65663226D01*
X14879786Y-65570109D01*
X14879788Y-65570106D01*
X14879792Y-65570104D01*
X15030104Y-65419792D01*
X15030106Y-65419788D01*
X15030109Y-65419786D01*
X15155048Y-65247820D01*
X15155047Y-65247820D01*
X15155051Y-65247816D01*
X15251557Y-65058412D01*
X15317246Y-64856243D01*
X15350500Y-64646287D01*
X15350500Y-64433713D01*
X15317246Y-64223757D01*
X15251557Y-64021588D01*
X15178758Y-63878711D01*
X56149500Y-63878711D01*
X56149500Y-64121288D01*
X56181161Y-64361785D01*
X56243947Y-64596104D01*
X56336773Y-64820205D01*
X56336777Y-64820214D01*
X56358974Y-64858661D01*
X56458064Y-65030289D01*
X56458066Y-65030292D01*
X56458067Y-65030293D01*
X56605733Y-65222736D01*
X56605739Y-65222743D01*
X56777256Y-65394260D01*
X56777263Y-65394266D01*
X56890321Y-65481018D01*
X56969711Y-65541936D01*
X57179788Y-65663224D01*
X57403900Y-65756054D01*
X57638211Y-65818838D01*
X57818586Y-65842584D01*
X57878711Y-65850500D01*
X57878712Y-65850500D01*
X58121289Y-65850500D01*
X58169388Y-65844167D01*
X58361789Y-65818838D01*
X58596100Y-65756054D01*
X58820212Y-65663224D01*
X59030289Y-65541936D01*
X59222738Y-65394265D01*
X59394265Y-65222738D01*
X59541936Y-65030289D01*
X59663224Y-64820212D01*
X59756054Y-64596100D01*
X59818838Y-64361789D01*
X59850500Y-64121288D01*
X59850500Y-63878712D01*
X59818838Y-63638211D01*
X59756054Y-63403900D01*
X59663224Y-63179788D01*
X59541936Y-62969711D01*
X59394265Y-62777262D01*
X59394260Y-62777256D01*
X59222743Y-62605739D01*
X59222736Y-62605733D01*
X59030293Y-62458067D01*
X59030292Y-62458066D01*
X59030289Y-62458064D01*
X58820212Y-62336776D01*
X58742373Y-62304534D01*
X58596104Y-62243947D01*
X58361785Y-62181161D01*
X58121289Y-62149500D01*
X58121288Y-62149500D01*
X57878712Y-62149500D01*
X57878711Y-62149500D01*
X57638214Y-62181161D01*
X57403895Y-62243947D01*
X57179794Y-62336773D01*
X57179785Y-62336777D01*
X56969706Y-62458067D01*
X56777263Y-62605733D01*
X56777256Y-62605739D01*
X56605739Y-62777256D01*
X56605733Y-62777263D01*
X56458067Y-62969706D01*
X56336777Y-63179785D01*
X56336773Y-63179794D01*
X56243947Y-63403895D01*
X56181161Y-63638214D01*
X56149500Y-63878711D01*
X15178758Y-63878711D01*
X15155051Y-63832184D01*
X15147023Y-63821134D01*
X15030109Y-63660213D01*
X14916569Y-63546673D01*
X14883084Y-63485350D01*
X14888068Y-63415658D01*
X14929940Y-63359725D01*
X14960915Y-63342810D01*
X15092331Y-63293796D01*
X15207546Y-63207546D01*
X15293796Y-63092331D01*
X15344091Y-62957483D01*
X15350500Y-62897873D01*
X15350499Y-61102128D01*
X15345125Y-61052135D01*
X17599500Y-61052135D01*
X17599500Y-62947870D01*
X17599501Y-62947876D01*
X17605908Y-63007483D01*
X17656202Y-63142328D01*
X17656206Y-63142335D01*
X17742452Y-63257544D01*
X17742455Y-63257547D01*
X17857664Y-63343793D01*
X17857671Y-63343797D01*
X17992517Y-63394091D01*
X17992516Y-63394091D01*
X17999444Y-63394835D01*
X18052127Y-63400500D01*
X19947872Y-63400499D01*
X20007483Y-63394091D01*
X20142331Y-63343796D01*
X20257546Y-63257546D01*
X20343796Y-63142331D01*
X20394091Y-63007483D01*
X20400500Y-62947873D01*
X20400499Y-61881902D01*
X24499500Y-61881902D01*
X24499500Y-62118097D01*
X24536446Y-62351368D01*
X24609433Y-62575996D01*
X24711981Y-62777256D01*
X24716657Y-62786433D01*
X24855483Y-62977510D01*
X25022490Y-63144517D01*
X25213567Y-63283343D01*
X25247240Y-63300500D01*
X25424003Y-63390566D01*
X25424005Y-63390566D01*
X25424008Y-63390568D01*
X25465040Y-63403900D01*
X25648631Y-63463553D01*
X25881903Y-63500500D01*
X25881908Y-63500500D01*
X26118097Y-63500500D01*
X26351368Y-63463553D01*
X26392633Y-63450145D01*
X26575992Y-63390568D01*
X26786433Y-63283343D01*
X26977510Y-63144517D01*
X27144517Y-62977510D01*
X27283343Y-62786433D01*
X27390568Y-62575992D01*
X27463553Y-62351368D01*
X27490511Y-62181162D01*
X27500500Y-62118097D01*
X27500500Y-61881902D01*
X30999500Y-61881902D01*
X30999500Y-62118097D01*
X31036446Y-62351368D01*
X31109433Y-62575996D01*
X31211981Y-62777256D01*
X31216657Y-62786433D01*
X31355483Y-62977510D01*
X31522490Y-63144517D01*
X31713567Y-63283343D01*
X31747240Y-63300500D01*
X31924003Y-63390566D01*
X31924005Y-63390566D01*
X31924008Y-63390568D01*
X31965040Y-63403900D01*
X32148631Y-63463553D01*
X32381903Y-63500500D01*
X32381908Y-63500500D01*
X32618097Y-63500500D01*
X32851368Y-63463553D01*
X32892633Y-63450145D01*
X33075992Y-63390568D01*
X33286433Y-63283343D01*
X33477510Y-63144517D01*
X33644517Y-62977510D01*
X33783343Y-62786433D01*
X33890568Y-62575992D01*
X33963553Y-62351368D01*
X33990511Y-62181162D01*
X34000500Y-62118097D01*
X34000500Y-61897648D01*
X41699500Y-61897648D01*
X41699500Y-62102351D01*
X41731522Y-62304534D01*
X41794781Y-62499223D01*
X41887715Y-62681613D01*
X42008028Y-62847213D01*
X42152786Y-62991971D01*
X42290928Y-63092335D01*
X42318390Y-63112287D01*
X42434607Y-63171503D01*
X42500776Y-63205218D01*
X42500778Y-63205218D01*
X42500781Y-63205220D01*
X42605137Y-63239127D01*
X42695465Y-63268477D01*
X42789318Y-63283342D01*
X42897648Y-63300500D01*
X42897649Y-63300500D01*
X43102351Y-63300500D01*
X43102352Y-63300500D01*
X43304534Y-63268477D01*
X43499219Y-63205220D01*
X43681610Y-63112287D01*
X43825862Y-63007483D01*
X43847213Y-62991971D01*
X43847215Y-62991968D01*
X43847219Y-62991966D01*
X43991966Y-62847219D01*
X43991968Y-62847215D01*
X43991971Y-62847213D01*
X44044732Y-62774590D01*
X44112287Y-62681610D01*
X44205220Y-62499219D01*
X44268477Y-62304534D01*
X44300500Y-62102352D01*
X44300500Y-61897648D01*
X49319500Y-61897648D01*
X49319500Y-62102351D01*
X49351522Y-62304534D01*
X49414781Y-62499223D01*
X49507715Y-62681613D01*
X49628028Y-62847213D01*
X49772786Y-62991971D01*
X49910928Y-63092335D01*
X49938390Y-63112287D01*
X50054607Y-63171503D01*
X50120776Y-63205218D01*
X50120778Y-63205218D01*
X50120781Y-63205220D01*
X50225137Y-63239127D01*
X50315465Y-63268477D01*
X50409318Y-63283342D01*
X50517648Y-63300500D01*
X50517649Y-63300500D01*
X50722351Y-63300500D01*
X50722352Y-63300500D01*
X50924534Y-63268477D01*
X51119219Y-63205220D01*
X51301610Y-63112287D01*
X51445862Y-63007483D01*
X51467213Y-62991971D01*
X51467215Y-62991968D01*
X51467219Y-62991966D01*
X51611966Y-62847219D01*
X51611968Y-62847215D01*
X51611971Y-62847213D01*
X51664732Y-62774590D01*
X51732287Y-62681610D01*
X51825220Y-62499219D01*
X51888477Y-62304534D01*
X51920500Y-62102352D01*
X51920500Y-61897648D01*
X51888477Y-61695466D01*
X51873259Y-61648631D01*
X51825218Y-61500776D01*
X51786100Y-61424003D01*
X51732287Y-61318390D01*
X51724556Y-61307749D01*
X51611971Y-61152786D01*
X51467213Y-61008028D01*
X51301613Y-60887715D01*
X51301612Y-60887714D01*
X51301610Y-60887713D01*
X51238355Y-60855483D01*
X51119223Y-60794781D01*
X50924534Y-60731522D01*
X50749995Y-60703878D01*
X50722352Y-60699500D01*
X50517648Y-60699500D01*
X50493329Y-60703351D01*
X50315465Y-60731522D01*
X50120776Y-60794781D01*
X49938386Y-60887715D01*
X49772786Y-61008028D01*
X49628028Y-61152786D01*
X49507715Y-61318386D01*
X49414781Y-61500776D01*
X49351522Y-61695465D01*
X49319500Y-61897648D01*
X44300500Y-61897648D01*
X44268477Y-61695466D01*
X44253259Y-61648631D01*
X44205218Y-61500776D01*
X44166100Y-61424003D01*
X44112287Y-61318390D01*
X44104556Y-61307749D01*
X43991971Y-61152786D01*
X43847213Y-61008028D01*
X43681613Y-60887715D01*
X43681612Y-60887714D01*
X43681610Y-60887713D01*
X43618355Y-60855483D01*
X43499223Y-60794781D01*
X43304534Y-60731522D01*
X43129995Y-60703878D01*
X43102352Y-60699500D01*
X42897648Y-60699500D01*
X42873329Y-60703351D01*
X42695465Y-60731522D01*
X42500776Y-60794781D01*
X42318386Y-60887715D01*
X42152786Y-61008028D01*
X42008028Y-61152786D01*
X41887715Y-61318386D01*
X41794781Y-61500776D01*
X41731522Y-61695465D01*
X41699500Y-61897648D01*
X34000500Y-61897648D01*
X34000500Y-61881902D01*
X33963553Y-61648631D01*
X33915513Y-61500781D01*
X33890568Y-61424008D01*
X33890566Y-61424005D01*
X33890566Y-61424003D01*
X33783342Y-61213566D01*
X33644517Y-61022490D01*
X33477510Y-60855483D01*
X33286433Y-60716657D01*
X33265914Y-60706202D01*
X33075996Y-60609433D01*
X32851368Y-60536446D01*
X32618097Y-60499500D01*
X32618092Y-60499500D01*
X32381908Y-60499500D01*
X32381903Y-60499500D01*
X32148631Y-60536446D01*
X31924003Y-60609433D01*
X31713566Y-60716657D01*
X31678059Y-60742455D01*
X31522490Y-60855483D01*
X31522488Y-60855485D01*
X31522487Y-60855485D01*
X31355485Y-61022487D01*
X31355485Y-61022488D01*
X31355483Y-61022490D01*
X31297631Y-61102116D01*
X31216657Y-61213566D01*
X31109433Y-61424003D01*
X31036446Y-61648631D01*
X30999500Y-61881902D01*
X27500500Y-61881902D01*
X27463553Y-61648631D01*
X27415513Y-61500781D01*
X27390568Y-61424008D01*
X27390566Y-61424005D01*
X27390566Y-61424003D01*
X27283342Y-61213566D01*
X27144517Y-61022490D01*
X26977510Y-60855483D01*
X26786433Y-60716657D01*
X26765914Y-60706202D01*
X26575996Y-60609433D01*
X26351368Y-60536446D01*
X26118097Y-60499500D01*
X26118092Y-60499500D01*
X25881908Y-60499500D01*
X25881903Y-60499500D01*
X25648631Y-60536446D01*
X25424003Y-60609433D01*
X25213566Y-60716657D01*
X25178059Y-60742455D01*
X25022490Y-60855483D01*
X25022488Y-60855485D01*
X25022487Y-60855485D01*
X24855485Y-61022487D01*
X24855485Y-61022488D01*
X24855483Y-61022490D01*
X24797631Y-61102116D01*
X24716657Y-61213566D01*
X24609433Y-61424003D01*
X24536446Y-61648631D01*
X24499500Y-61881902D01*
X20400499Y-61881902D01*
X20400499Y-61052128D01*
X20394091Y-60992517D01*
X20355002Y-60887715D01*
X20343797Y-60857671D01*
X20343793Y-60857664D01*
X20257547Y-60742455D01*
X20257544Y-60742452D01*
X20142335Y-60656206D01*
X20142328Y-60656202D01*
X20007482Y-60605908D01*
X20007483Y-60605908D01*
X19947883Y-60599501D01*
X19947881Y-60599500D01*
X19947873Y-60599500D01*
X19947864Y-60599500D01*
X18052129Y-60599500D01*
X18052123Y-60599501D01*
X17992516Y-60605908D01*
X17857671Y-60656202D01*
X17857664Y-60656206D01*
X17742455Y-60742452D01*
X17742452Y-60742455D01*
X17656206Y-60857664D01*
X17656202Y-60857671D01*
X17605908Y-60992517D01*
X17602686Y-61022490D01*
X17599501Y-61052123D01*
X17599500Y-61052135D01*
X15345125Y-61052135D01*
X15344091Y-61042517D01*
X15336621Y-61022490D01*
X15293797Y-60907671D01*
X15293793Y-60907664D01*
X15207547Y-60792455D01*
X15207544Y-60792452D01*
X15092335Y-60706206D01*
X15092328Y-60706202D01*
X14957482Y-60655908D01*
X14957483Y-60655908D01*
X14897883Y-60649501D01*
X14897881Y-60649500D01*
X14897873Y-60649500D01*
X14897864Y-60649500D01*
X13102129Y-60649500D01*
X13102123Y-60649501D01*
X13042516Y-60655908D01*
X12907671Y-60706202D01*
X12907664Y-60706206D01*
X12792455Y-60792452D01*
X12792452Y-60792455D01*
X12706206Y-60907664D01*
X12706202Y-60907671D01*
X12655908Y-61042517D01*
X12649501Y-61102116D01*
X12649501Y-61102123D01*
X12649500Y-61102135D01*
X1000000Y-61102135D01*
X1000000Y-1124000D01*
X1019685Y-1056961D01*
X1072489Y-1011206D01*
X1124000Y-1000000D01*
X9166075Y-1000000D01*
X9233114Y-1019685D01*
G37*
%TD.AperFunction*%
%TA.AperFunction,Conductor*%
G36*
X51592539Y-23910185D02*
G01*
X51638294Y-23962989D01*
X51649500Y-24014500D01*
X51649500Y-38975500D01*
X51629815Y-39042539D01*
X51577011Y-39088294D01*
X51525500Y-39099500D01*
X36249383Y-39099500D01*
X36182344Y-39079815D01*
X36136589Y-39027011D01*
X36126645Y-38957853D01*
X36131452Y-38937182D01*
X36134647Y-38927345D01*
X36177246Y-38796243D01*
X36210500Y-38586287D01*
X36210500Y-38373713D01*
X36177246Y-38163757D01*
X36128201Y-38012815D01*
X36126207Y-37942977D01*
X36162287Y-37883144D01*
X36224988Y-37852316D01*
X36246133Y-37850500D01*
X42064071Y-37850500D01*
X42148615Y-37833682D01*
X42189744Y-37825501D01*
X42308127Y-37776465D01*
X42414669Y-37705276D01*
X42505276Y-37614669D01*
X42576465Y-37508127D01*
X42625501Y-37389744D01*
X42633682Y-37348615D01*
X42650500Y-37264071D01*
X42650500Y-37198070D01*
X42670185Y-37131031D01*
X42701613Y-37097753D01*
X42847219Y-36991966D01*
X42991966Y-36847219D01*
X42991968Y-36847215D01*
X42991971Y-36847213D01*
X43044732Y-36774590D01*
X43112287Y-36681610D01*
X43205220Y-36499219D01*
X43268477Y-36304534D01*
X43300500Y-36102352D01*
X43300500Y-35897648D01*
X43268477Y-35695466D01*
X43205220Y-35500781D01*
X43205218Y-35500778D01*
X43205218Y-35500776D01*
X43164869Y-35421588D01*
X43112287Y-35318390D01*
X43104556Y-35307749D01*
X42991971Y-35152786D01*
X42847213Y-35008028D01*
X42681613Y-34887715D01*
X42681612Y-34887714D01*
X42681610Y-34887713D01*
X42624653Y-34858691D01*
X42499223Y-34794781D01*
X42304534Y-34731522D01*
X42129995Y-34703878D01*
X42102352Y-34699500D01*
X41897648Y-34699500D01*
X41873329Y-34703351D01*
X41695465Y-34731522D01*
X41500776Y-34794781D01*
X41318386Y-34887715D01*
X41152786Y-35008028D01*
X41008028Y-35152786D01*
X40887715Y-35318386D01*
X40794781Y-35500776D01*
X40731522Y-35695465D01*
X40699500Y-35897648D01*
X40699500Y-36102351D01*
X40731523Y-36304535D01*
X40731523Y-36304538D01*
X40758376Y-36387182D01*
X40760371Y-36457023D01*
X40724290Y-36516856D01*
X40661589Y-36547684D01*
X40640445Y-36549500D01*
X36252632Y-36549500D01*
X36185593Y-36529815D01*
X36139838Y-36477011D01*
X36129894Y-36407853D01*
X36134701Y-36387182D01*
X36177246Y-36256243D01*
X36210500Y-36046287D01*
X36210500Y-35833713D01*
X36177246Y-35623757D01*
X36111557Y-35421588D01*
X36015051Y-35232184D01*
X36015049Y-35232181D01*
X36015048Y-35232179D01*
X35890109Y-35060213D01*
X35739786Y-34909890D01*
X35567820Y-34784951D01*
X35567115Y-34784591D01*
X35559054Y-34780485D01*
X35508259Y-34732512D01*
X35491463Y-34664692D01*
X35513999Y-34598556D01*
X35559054Y-34559515D01*
X35567816Y-34555051D01*
X35643874Y-34499792D01*
X35739786Y-34430109D01*
X35739788Y-34430106D01*
X35739792Y-34430104D01*
X35890104Y-34279792D01*
X35890106Y-34279788D01*
X35890109Y-34279786D01*
X36015048Y-34107820D01*
X36015047Y-34107820D01*
X36015051Y-34107816D01*
X36111557Y-33918412D01*
X36177246Y-33716243D01*
X36210500Y-33506287D01*
X36210500Y-33293713D01*
X36177246Y-33083757D01*
X36111557Y-32881588D01*
X36015051Y-32692184D01*
X36015049Y-32692181D01*
X36015048Y-32692179D01*
X35890109Y-32520213D01*
X35739786Y-32369890D01*
X35567820Y-32244951D01*
X35567115Y-32244591D01*
X35559054Y-32240485D01*
X35508259Y-32192512D01*
X35491463Y-32124692D01*
X35513999Y-32058556D01*
X35559054Y-32019515D01*
X35567816Y-32015051D01*
X35643874Y-31959792D01*
X35739786Y-31890109D01*
X35739788Y-31890106D01*
X35739792Y-31890104D01*
X35890104Y-31739792D01*
X35890106Y-31739788D01*
X35890109Y-31739786D01*
X36015048Y-31567820D01*
X36015047Y-31567820D01*
X36015051Y-31567816D01*
X36111557Y-31378412D01*
X36177246Y-31176243D01*
X36210500Y-30966287D01*
X36210500Y-30753713D01*
X36177246Y-30543757D01*
X36111557Y-30341588D01*
X36015051Y-30152184D01*
X36015049Y-30152181D01*
X36015048Y-30152179D01*
X35890109Y-29980213D01*
X35739786Y-29829890D01*
X35567820Y-29704951D01*
X35567115Y-29704591D01*
X35559054Y-29700485D01*
X35508259Y-29652512D01*
X35491463Y-29584692D01*
X35513999Y-29518556D01*
X35559054Y-29479515D01*
X35567816Y-29475051D01*
X35643874Y-29419792D01*
X35739786Y-29350109D01*
X35739788Y-29350106D01*
X35739792Y-29350104D01*
X35890104Y-29199792D01*
X35890106Y-29199788D01*
X35890109Y-29199786D01*
X36015048Y-29027820D01*
X36015047Y-29027820D01*
X36015051Y-29027816D01*
X36111557Y-28838412D01*
X36177246Y-28636243D01*
X36210500Y-28426287D01*
X36210500Y-28213713D01*
X36177246Y-28003757D01*
X36111557Y-27801588D01*
X36015051Y-27612184D01*
X36015049Y-27612181D01*
X36015048Y-27612179D01*
X35890109Y-27440213D01*
X35739786Y-27289890D01*
X35567820Y-27164951D01*
X35567115Y-27164591D01*
X35559054Y-27160485D01*
X35508259Y-27112512D01*
X35491463Y-27044692D01*
X35513999Y-26978556D01*
X35559054Y-26939515D01*
X35567816Y-26935051D01*
X35589789Y-26919086D01*
X35739786Y-26810109D01*
X35739788Y-26810106D01*
X35739792Y-26810104D01*
X35890104Y-26659792D01*
X35890106Y-26659788D01*
X35890109Y-26659786D01*
X36017915Y-26483875D01*
X36019259Y-26484851D01*
X36065705Y-26442834D01*
X36119618Y-26430500D01*
X40225500Y-26430500D01*
X40292539Y-26450185D01*
X40338294Y-26502989D01*
X40349500Y-26554500D01*
X40349500Y-33555931D01*
X40349500Y-33684069D01*
X40349500Y-33684071D01*
X40349499Y-33684071D01*
X40374497Y-33809738D01*
X40374499Y-33809744D01*
X40423533Y-33928124D01*
X40423538Y-33928133D01*
X40494723Y-34034668D01*
X40494726Y-34034672D01*
X40585327Y-34125273D01*
X40585331Y-34125276D01*
X40691866Y-34196461D01*
X40691872Y-34196464D01*
X40691873Y-34196465D01*
X40810256Y-34245501D01*
X40810260Y-34245501D01*
X40810261Y-34245502D01*
X40935928Y-34270500D01*
X40935931Y-34270500D01*
X48740382Y-34270500D01*
X48807421Y-34290185D01*
X48841099Y-34324591D01*
X48842085Y-34323875D01*
X48969890Y-34499786D01*
X49120213Y-34650109D01*
X49292179Y-34775048D01*
X49292181Y-34775049D01*
X49292184Y-34775051D01*
X49481588Y-34871557D01*
X49683757Y-34937246D01*
X49893713Y-34970500D01*
X49893714Y-34970500D01*
X50106286Y-34970500D01*
X50106287Y-34970500D01*
X50316243Y-34937246D01*
X50518412Y-34871557D01*
X50707816Y-34775051D01*
X50754068Y-34741447D01*
X50879786Y-34650109D01*
X50879788Y-34650106D01*
X50879792Y-34650104D01*
X51030104Y-34499792D01*
X51030106Y-34499788D01*
X51030109Y-34499786D01*
X51155048Y-34327820D01*
X51155047Y-34327820D01*
X51155051Y-34327816D01*
X51251557Y-34138412D01*
X51317246Y-33936243D01*
X51350500Y-33726287D01*
X51350500Y-33513713D01*
X51317246Y-33303757D01*
X51251557Y-33101588D01*
X51155051Y-32912184D01*
X51155049Y-32912181D01*
X51155048Y-32912179D01*
X51030109Y-32740213D01*
X50879786Y-32589890D01*
X50707820Y-32464951D01*
X50707115Y-32464591D01*
X50699054Y-32460485D01*
X50648259Y-32412512D01*
X50631463Y-32344692D01*
X50653999Y-32278556D01*
X50699054Y-32239515D01*
X50707816Y-32235051D01*
X50754068Y-32201447D01*
X50879786Y-32110109D01*
X50879788Y-32110106D01*
X50879792Y-32110104D01*
X51030104Y-31959792D01*
X51030106Y-31959788D01*
X51030109Y-31959786D01*
X51155048Y-31787820D01*
X51155047Y-31787820D01*
X51155051Y-31787816D01*
X51251557Y-31598412D01*
X51317246Y-31396243D01*
X51350500Y-31186287D01*
X51350500Y-30973713D01*
X51317246Y-30763757D01*
X51251557Y-30561588D01*
X51155051Y-30372184D01*
X51155049Y-30372181D01*
X51155048Y-30372179D01*
X51030109Y-30200213D01*
X50879786Y-30049890D01*
X50707820Y-29924951D01*
X50707115Y-29924591D01*
X50699054Y-29920485D01*
X50648259Y-29872512D01*
X50631463Y-29804692D01*
X50653999Y-29738556D01*
X50699054Y-29699515D01*
X50707816Y-29695051D01*
X50754068Y-29661447D01*
X50879786Y-29570109D01*
X50879788Y-29570106D01*
X50879792Y-29570104D01*
X51030104Y-29419792D01*
X51030106Y-29419788D01*
X51030109Y-29419786D01*
X51155048Y-29247820D01*
X51155047Y-29247820D01*
X51155051Y-29247816D01*
X51251557Y-29058412D01*
X51317246Y-28856243D01*
X51350500Y-28646287D01*
X51350500Y-28433713D01*
X51317246Y-28223757D01*
X51251557Y-28021588D01*
X51155051Y-27832184D01*
X51155049Y-27832181D01*
X51155048Y-27832179D01*
X51030109Y-27660213D01*
X50879786Y-27509890D01*
X50707820Y-27384951D01*
X50518414Y-27288444D01*
X50518413Y-27288443D01*
X50518412Y-27288443D01*
X50316243Y-27222754D01*
X50316241Y-27222753D01*
X50316240Y-27222753D01*
X50154957Y-27197208D01*
X50106287Y-27189500D01*
X49893713Y-27189500D01*
X49845042Y-27197208D01*
X49683760Y-27222753D01*
X49481585Y-27288444D01*
X49292179Y-27384951D01*
X49120213Y-27509890D01*
X48969894Y-27660209D01*
X48969890Y-27660214D01*
X48874818Y-27791071D01*
X48819488Y-27833737D01*
X48749875Y-27839716D01*
X48688080Y-27807111D01*
X48653723Y-27746272D01*
X48650500Y-27718186D01*
X48650500Y-24061813D01*
X48670185Y-23994774D01*
X48722989Y-23949019D01*
X48792147Y-23939075D01*
X48855703Y-23968100D01*
X48874816Y-23988924D01*
X48927772Y-24061813D01*
X48969896Y-24119792D01*
X49120213Y-24270109D01*
X49292179Y-24395048D01*
X49292181Y-24395049D01*
X49292184Y-24395051D01*
X49481588Y-24491557D01*
X49683757Y-24557246D01*
X49893713Y-24590500D01*
X49893714Y-24590500D01*
X50106286Y-24590500D01*
X50106287Y-24590500D01*
X50316243Y-24557246D01*
X50518412Y-24491557D01*
X50707816Y-24395051D01*
X50729789Y-24379086D01*
X50879786Y-24270109D01*
X50879788Y-24270106D01*
X50879792Y-24270104D01*
X51030104Y-24119792D01*
X51030106Y-24119788D01*
X51030109Y-24119786D01*
X51157915Y-23943875D01*
X51159259Y-23944851D01*
X51205705Y-23902834D01*
X51259618Y-23890500D01*
X51525500Y-23890500D01*
X51592539Y-23910185D01*
G37*
%TD.AperFunction*%
%TA.AperFunction,Conductor*%
G36*
X9622438Y-8370185D02*
G01*
X9624252Y-8371373D01*
X9631873Y-8376465D01*
X9750256Y-8425501D01*
X9750260Y-8425501D01*
X9750261Y-8425502D01*
X9875928Y-8450500D01*
X9875931Y-8450500D01*
X10364071Y-8450500D01*
X10495718Y-8424313D01*
X10495957Y-8425519D01*
X10559353Y-8424943D01*
X10618472Y-8462182D01*
X10648073Y-8525471D01*
X10649501Y-8544233D01*
X10649501Y-8897876D01*
X10655908Y-8957483D01*
X10706202Y-9092328D01*
X10706206Y-9092335D01*
X10792452Y-9207544D01*
X10792455Y-9207547D01*
X10907664Y-9293793D01*
X10907671Y-9293797D01*
X11039082Y-9342810D01*
X11095016Y-9384681D01*
X11119433Y-9450145D01*
X11104582Y-9518418D01*
X11083431Y-9546673D01*
X10969889Y-9660215D01*
X10844951Y-9832179D01*
X10748444Y-10021585D01*
X10682753Y-10223760D01*
X10649500Y-10433713D01*
X10649500Y-10646286D01*
X10682753Y-10856239D01*
X10748444Y-11058414D01*
X10844951Y-11247820D01*
X10969890Y-11419786D01*
X11120213Y-11570109D01*
X11292182Y-11695050D01*
X11300946Y-11699516D01*
X11351742Y-11747491D01*
X11368536Y-11815312D01*
X11345998Y-11881447D01*
X11300946Y-11920484D01*
X11292182Y-11924949D01*
X11120213Y-12049890D01*
X10969890Y-12200213D01*
X10844951Y-12372179D01*
X10748444Y-12561585D01*
X10682753Y-12763760D01*
X10649500Y-12973713D01*
X10649500Y-13186286D01*
X10682753Y-13396239D01*
X10748444Y-13598414D01*
X10844951Y-13787820D01*
X10969890Y-13959786D01*
X11120213Y-14110109D01*
X11292182Y-14235050D01*
X11300946Y-14239516D01*
X11351742Y-14287491D01*
X11368536Y-14355312D01*
X11345998Y-14421447D01*
X11300946Y-14460484D01*
X11292182Y-14464949D01*
X11120213Y-14589890D01*
X10969890Y-14740213D01*
X10844951Y-14912179D01*
X10748444Y-15101585D01*
X10682753Y-15303760D01*
X10649500Y-15513713D01*
X10649500Y-15726286D01*
X10682753Y-15936239D01*
X10748444Y-16138414D01*
X10844951Y-16327820D01*
X10969890Y-16499786D01*
X11120213Y-16650109D01*
X11292182Y-16775050D01*
X11300946Y-16779516D01*
X11351742Y-16827491D01*
X11368536Y-16895312D01*
X11345998Y-16961447D01*
X11300946Y-17000484D01*
X11292182Y-17004949D01*
X11120213Y-17129890D01*
X10969890Y-17280213D01*
X10844951Y-17452179D01*
X10748444Y-17641585D01*
X10682753Y-17843760D01*
X10649500Y-18053713D01*
X10649500Y-18266286D01*
X10682753Y-18476239D01*
X10682753Y-18476241D01*
X10682754Y-18476243D01*
X10740998Y-18655500D01*
X10748444Y-18678414D01*
X10844951Y-18867820D01*
X10969890Y-19039786D01*
X10969896Y-19039792D01*
X11120208Y-19190104D01*
X11292184Y-19315051D01*
X11292188Y-19315053D01*
X11296126Y-19317914D01*
X11295146Y-19319262D01*
X11337160Y-19365690D01*
X11349500Y-19419617D01*
X11349500Y-19440382D01*
X11329815Y-19507421D01*
X11295408Y-19541099D01*
X11296125Y-19542085D01*
X11120213Y-19669890D01*
X10969890Y-19820213D01*
X10844951Y-19992179D01*
X10748444Y-20181585D01*
X10682753Y-20383760D01*
X10649500Y-20593713D01*
X10649500Y-20806286D01*
X10682753Y-21016240D01*
X10728548Y-21157182D01*
X10730543Y-21227023D01*
X10694463Y-21286856D01*
X10631762Y-21317684D01*
X10610617Y-21319500D01*
X9454500Y-21319500D01*
X9387461Y-21299815D01*
X9341706Y-21247011D01*
X9330500Y-21195500D01*
X9330500Y-8474500D01*
X9350185Y-8407461D01*
X9402989Y-8361706D01*
X9454500Y-8350500D01*
X9555399Y-8350500D01*
X9622438Y-8370185D01*
G37*
%TD.AperFunction*%
%TA.AperFunction,Conductor*%
G36*
X21192539Y-1870185D02*
G01*
X21238294Y-1922989D01*
X21249500Y-1974500D01*
X21249500Y-18655500D01*
X21229815Y-18722539D01*
X21177011Y-18768294D01*
X21125500Y-18779500D01*
X13389383Y-18779500D01*
X13322344Y-18759815D01*
X13276589Y-18707011D01*
X13266645Y-18637853D01*
X13271452Y-18617182D01*
X13274647Y-18607345D01*
X13317246Y-18476243D01*
X13350500Y-18266287D01*
X13350500Y-18053713D01*
X13317246Y-17843757D01*
X13251557Y-17641588D01*
X13155051Y-17452184D01*
X13155049Y-17452181D01*
X13155048Y-17452179D01*
X13030109Y-17280213D01*
X12879786Y-17129890D01*
X12707820Y-17004951D01*
X12707115Y-17004591D01*
X12699054Y-17000485D01*
X12648259Y-16952512D01*
X12631463Y-16884692D01*
X12653999Y-16818556D01*
X12699054Y-16779515D01*
X12707816Y-16775051D01*
X12729789Y-16759086D01*
X12879786Y-16650109D01*
X12879788Y-16650106D01*
X12879792Y-16650104D01*
X13030104Y-16499792D01*
X13030106Y-16499788D01*
X13030109Y-16499786D01*
X13155048Y-16327820D01*
X13155047Y-16327820D01*
X13155051Y-16327816D01*
X13251557Y-16138412D01*
X13317246Y-15936243D01*
X13350500Y-15726287D01*
X13350500Y-15513713D01*
X13317246Y-15303757D01*
X13251557Y-15101588D01*
X13155051Y-14912184D01*
X13155049Y-14912181D01*
X13155048Y-14912179D01*
X13030109Y-14740213D01*
X12879786Y-14589890D01*
X12707820Y-14464951D01*
X12707115Y-14464591D01*
X12699054Y-14460485D01*
X12648259Y-14412512D01*
X12631463Y-14344692D01*
X12653999Y-14278556D01*
X12699054Y-14239515D01*
X12707816Y-14235051D01*
X12729789Y-14219086D01*
X12879786Y-14110109D01*
X12879788Y-14110106D01*
X12879792Y-14110104D01*
X13030104Y-13959792D01*
X13030106Y-13959788D01*
X13030109Y-13959786D01*
X13155048Y-13787820D01*
X13155047Y-13787820D01*
X13155051Y-13787816D01*
X13251557Y-13598412D01*
X13317246Y-13396243D01*
X13350500Y-13186287D01*
X13350500Y-12973713D01*
X13317246Y-12763757D01*
X13251557Y-12561588D01*
X13155051Y-12372184D01*
X13155049Y-12372181D01*
X13155048Y-12372179D01*
X13030109Y-12200213D01*
X12879786Y-12049890D01*
X12707820Y-11924951D01*
X12707115Y-11924591D01*
X12699054Y-11920485D01*
X12648259Y-11872512D01*
X12631463Y-11804692D01*
X12653999Y-11738556D01*
X12699054Y-11699515D01*
X12707816Y-11695051D01*
X12729789Y-11679086D01*
X12879786Y-11570109D01*
X12879788Y-11570106D01*
X12879792Y-11570104D01*
X13030104Y-11419792D01*
X13030106Y-11419788D01*
X13030109Y-11419786D01*
X13155048Y-11247820D01*
X13155047Y-11247820D01*
X13155051Y-11247816D01*
X13251557Y-11058412D01*
X13317246Y-10856243D01*
X13350500Y-10646287D01*
X13350500Y-10433713D01*
X13317246Y-10223757D01*
X13251557Y-10021588D01*
X13155051Y-9832184D01*
X13155049Y-9832181D01*
X13155048Y-9832179D01*
X13030109Y-9660213D01*
X12916569Y-9546673D01*
X12883084Y-9485350D01*
X12888068Y-9415658D01*
X12929940Y-9359725D01*
X12960915Y-9342810D01*
X13092331Y-9293796D01*
X13207546Y-9207546D01*
X13293796Y-9092331D01*
X13344091Y-8957483D01*
X13350500Y-8897873D01*
X13350500Y-8474500D01*
X13370185Y-8407461D01*
X13422989Y-8361706D01*
X13474500Y-8350500D01*
X15264071Y-8350500D01*
X15348615Y-8333682D01*
X15389744Y-8325501D01*
X15508127Y-8276465D01*
X15614669Y-8205276D01*
X15705276Y-8114669D01*
X15776465Y-8008127D01*
X15825501Y-7889744D01*
X15850500Y-7764069D01*
X15850500Y-6198070D01*
X15870185Y-6131031D01*
X15901613Y-6097753D01*
X16047219Y-5991966D01*
X16191966Y-5847219D01*
X16191968Y-5847215D01*
X16191971Y-5847213D01*
X16260774Y-5752512D01*
X16312287Y-5681610D01*
X16405220Y-5499219D01*
X16468477Y-5304534D01*
X16500500Y-5102352D01*
X16500500Y-4897648D01*
X16497966Y-4881650D01*
X16468477Y-4695465D01*
X16405218Y-4500776D01*
X16371503Y-4434607D01*
X16312287Y-4318390D01*
X16304556Y-4307749D01*
X16191971Y-4152786D01*
X16047213Y-4008028D01*
X15881613Y-3887715D01*
X15881612Y-3887714D01*
X15881610Y-3887713D01*
X15824653Y-3858691D01*
X15699223Y-3794781D01*
X15504534Y-3731522D01*
X15329995Y-3703878D01*
X15302352Y-3699500D01*
X15097648Y-3699500D01*
X15073329Y-3703351D01*
X14895465Y-3731522D01*
X14700776Y-3794781D01*
X14518386Y-3887715D01*
X14352786Y-4008028D01*
X14208028Y-4152786D01*
X14087715Y-4318386D01*
X13994781Y-4500776D01*
X13931522Y-4695465D01*
X13899500Y-4897648D01*
X13899500Y-5102351D01*
X13931522Y-5304534D01*
X13994781Y-5499223D01*
X14087715Y-5681613D01*
X14208028Y-5847213D01*
X14352784Y-5991969D01*
X14421863Y-6042157D01*
X14498385Y-6097753D01*
X14541051Y-6153081D01*
X14549500Y-6198070D01*
X14549500Y-6925500D01*
X14529815Y-6992539D01*
X14477011Y-7038294D01*
X14425500Y-7049500D01*
X13432791Y-7049500D01*
X13365752Y-7029815D01*
X13319997Y-6977011D01*
X13316609Y-6968833D01*
X13293797Y-6907671D01*
X13293793Y-6907664D01*
X13207547Y-6792455D01*
X13207544Y-6792452D01*
X13092335Y-6706206D01*
X13092328Y-6706202D01*
X12957482Y-6655908D01*
X12957483Y-6655908D01*
X12897883Y-6649501D01*
X12897881Y-6649500D01*
X12897873Y-6649500D01*
X12897865Y-6649500D01*
X11349203Y-6649500D01*
X11282164Y-6629815D01*
X11236409Y-6577011D01*
X11231272Y-6563818D01*
X11191557Y-6441588D01*
X11095051Y-6252184D01*
X11095049Y-6252181D01*
X11095048Y-6252179D01*
X10970109Y-6080213D01*
X10819786Y-5929890D01*
X10647820Y-5804951D01*
X10647115Y-5804591D01*
X10639054Y-5800485D01*
X10588259Y-5752512D01*
X10571463Y-5684692D01*
X10593999Y-5618556D01*
X10639054Y-5579515D01*
X10647816Y-5575051D01*
X10693401Y-5541932D01*
X10819786Y-5450109D01*
X10819788Y-5450106D01*
X10819792Y-5450104D01*
X10970104Y-5299792D01*
X10970106Y-5299788D01*
X10970109Y-5299786D01*
X11095048Y-5127820D01*
X11095047Y-5127820D01*
X11095051Y-5127816D01*
X11191557Y-4938412D01*
X11257246Y-4736243D01*
X11290500Y-4526287D01*
X11290500Y-4313713D01*
X11257246Y-4103757D01*
X11191557Y-3901588D01*
X11095051Y-3712184D01*
X11095049Y-3712181D01*
X11095048Y-3712179D01*
X10970109Y-3540213D01*
X10819786Y-3389890D01*
X10643875Y-3262085D01*
X10644851Y-3260740D01*
X10602834Y-3214295D01*
X10590500Y-3160382D01*
X10590500Y-1974500D01*
X10610185Y-1907461D01*
X10662989Y-1861706D01*
X10714500Y-1850500D01*
X21125500Y-1850500D01*
X21192539Y-1870185D01*
G37*
%TD.AperFunction*%
%TD*%
M02*
