%TF.GenerationSoftware,KiCad,Pcbnew,10.0.6-10.0.6~ubuntu22.04.1*%
%TF.CreationDate,2026-09-29T11:27:42+08:00*%
%TF.ProjectId,shield,73686965-6c64-42e6-9b69-6361645f7063,rev?*%
%TF.SameCoordinates,Original*%
%TF.FileFunction,Soldermask,Top*%
%TF.FilePolarity,Negative*%
%FSLAX46Y46*%
G04 Gerber Fmt 4.6, Leading zero omitted, Abs format (unit mm)*
G04 Created by KiCad (PCBNEW 10.0.6-10.0.6~ubuntu22.04.1) date 2026-09-29 11:27:42*
%MOMM*%
%LPD*%
G01*
G04 APERTURE LIST*
%ADD10C,3.200000*%
%ADD11R,1.800000X1.800000*%
%ADD12C,1.800000*%
%ADD13C,1.600000*%
%ADD14C,2.000000*%
%ADD15R,1.700000X1.700000*%
%ADD16O,1.700000X1.700000*%
%ADD17R,1.600000X1.600000*%
%ADD18O,1.600000X1.600000*%
G04 APERTURE END LIST*
D10*
%TO.C,H*%
X58000000Y-4000000D03*
%TD*%
D11*
%TO.C,D1*%
X19000000Y-58000000D03*
D12*
X21540000Y-58000000D03*
%TD*%
D13*
%TO.C,C2*%
X43000000Y-42000000D03*
X40500000Y-42000000D03*
%TD*%
D10*
%TO.C,H*%
X4000000Y-4000000D03*
%TD*%
D14*
%TO.C,SW1*%
X26000000Y-58000000D03*
X32500000Y-58000000D03*
X26000000Y-62500000D03*
X32500000Y-62500000D03*
%TD*%
D15*
%TO.C,J4*%
X50000000Y-8000000D03*
D16*
X50000000Y-10540000D03*
X50000000Y-13080000D03*
X50000000Y-15620000D03*
X50000000Y-18160000D03*
%TD*%
D17*
%TO.C,C1*%
X50000000Y-45000000D03*
D13*
X47500000Y-45000000D03*
%TD*%
D15*
%TO.C,J5*%
X50000000Y-26000000D03*
D16*
X50000000Y-28540000D03*
X50000000Y-31080000D03*
X50000000Y-33620000D03*
%TD*%
D10*
%TO.C,H*%
X58000000Y-60000000D03*
%TD*%
%TO.C,H*%
X4000000Y-60000000D03*
%TD*%
D15*
%TO.C,J3*%
X34860000Y-8000000D03*
D16*
X34860000Y-10540000D03*
X34860000Y-13080000D03*
X34860000Y-15620000D03*
X34860000Y-18160000D03*
X34860000Y-20700000D03*
X34860000Y-23240000D03*
X34860000Y-25780000D03*
X34860000Y-28320000D03*
X34860000Y-30860000D03*
X34860000Y-33400000D03*
X34860000Y-35940000D03*
X34860000Y-38480000D03*
X34860000Y-41020000D03*
X34860000Y-43560000D03*
X34860000Y-46100000D03*
X34860000Y-48640000D03*
X34860000Y-51180000D03*
X34860000Y-53720000D03*
%TD*%
D13*
%TO.C,R1*%
X43000000Y-58000000D03*
D18*
X50620000Y-58000000D03*
%TD*%
D15*
%TO.C,J2*%
X6500000Y-2000000D03*
D16*
X9040000Y-2000000D03*
X11580000Y-2000000D03*
X14120000Y-2000000D03*
X16660000Y-2000000D03*
X19200000Y-2000000D03*
%TD*%
D15*
%TO.C,J6*%
X14000000Y-58000000D03*
D16*
X14000000Y-60540000D03*
%TD*%
D15*
%TO.C,J1*%
X12000000Y-8000000D03*
D16*
X12000000Y-10540000D03*
X12000000Y-13080000D03*
X12000000Y-15620000D03*
X12000000Y-18160000D03*
X12000000Y-20700000D03*
X12000000Y-23240000D03*
X12000000Y-25780000D03*
X12000000Y-28320000D03*
X12000000Y-30860000D03*
X12000000Y-33400000D03*
X12000000Y-35940000D03*
X12000000Y-38480000D03*
X12000000Y-41020000D03*
X12000000Y-43560000D03*
X12000000Y-46100000D03*
X12000000Y-48640000D03*
X12000000Y-51180000D03*
X12000000Y-53720000D03*
%TD*%
M02*
