M48
METRIC
T1C0.400
T2C0.800
T3C0.900
T4C1.000
T5C1.100
%
G90
G05
T1
X30.0Y-56.0
T2
X40.5Y-42.0
X43.0Y-42.0
X43.0Y-58.0
X47.5Y-45.0
X50.0Y-45.0
X50.62Y-58.0
T3
X34.0Y-58.0
X36.54Y-58.0
T4
X6.0Y-2.0
X8.54Y-2.0
X11.08Y-2.0
X12.0Y-8.0
X12.0Y-10.54
X12.0Y-13.08
X12.0Y-15.62
X12.0Y-18.16
X12.0Y-20.7
X12.0Y-23.24
X12.0Y-25.78
X12.0Y-28.32
X12.0Y-30.86
X12.0Y-33.4
X12.0Y-35.94
X12.0Y-38.48
X12.0Y-41.02
X12.0Y-43.56
X12.0Y-46.1
X12.0Y-48.64
X12.0Y-51.18
X12.0Y-53.72
X13.62Y-2.0
X16.0Y-58.0
X16.0Y-60.54
X16.16Y-2.0
X18.7Y-2.0
X34.86Y-8.0
X34.86Y-10.54
X34.86Y-13.08
X34.86Y-15.62
X34.86Y-18.16
X34.86Y-20.7
X34.86Y-23.24
X34.86Y-25.78
X34.86Y-28.32
X34.86Y-30.86
X34.86Y-33.4
X34.86Y-35.94
X34.86Y-38.48
X34.86Y-41.02
X34.86Y-43.56
X34.86Y-46.1
X34.86Y-48.64
X34.86Y-51.18
X34.86Y-53.72
X50.0Y-8.0
X50.0Y-10.54
X50.0Y-13.08
X50.0Y-15.62
X50.0Y-18.16
X50.0Y-26.0
X50.0Y-28.54
X50.0Y-31.08
X50.0Y-33.62
T5
X26.0Y-58.0
X26.0Y-62.5
X32.5Y-58.0
X32.5Y-62.5
T0
M30
